<?xml version="1.0" encoding="UTF-8" ?>
<!DOCTYPE svg PUBLIC "-//W3C//DTD SVG 1.1//EN" "http://www.w3.org/Graphics/SVG/1.1/DTD/svg11.dtd">
<svg width="762pt" height="419pt" viewBox="0 0 762 419" version="1.1" xmlns="http://www.w3.org/2000/svg">
<g id="#e68c29ff">
<path fill="#e68c29" opacity="1.00" d=" M 376.27 10.17 C 379.21 9.85 382.95 9.34 384.88 12.17 C 387.67 14.71 386.89 18.64 386.97 22.00 C 386.96 36.00 386.91 50.01 386.99 64.01 C 466.35 64.11 545.71 64.00 625.07 64.06 C 629.46 63.87 633.07 69.27 631.19 73.25 C 630.32 76.30 627.04 77.98 624.04 77.92 C 617.62 78.02 611.20 77.82 604.79 78.00 C 607.90 98.89 612.01 119.63 615.49 140.47 C 623.27 184.32 631.15 228.15 638.90 272.01 C 640.41 279.65 641.40 287.40 643.16 294.99 C 648.86 295.02 654.56 294.99 660.27 295.00 C 660.54 315.11 649.67 334.93 632.56 345.53 C 619.10 354.27 602.03 357.24 586.43 353.50 C 575.04 350.97 564.65 344.77 556.45 336.55 C 546.09 325.44 539.38 310.37 540.01 295.03 C 545.64 294.95 551.28 295.04 556.91 294.98 C 559.96 280.66 562.01 266.14 564.82 251.77 C 566.31 241.68 568.88 231.75 569.60 221.56 C 577.63 176.19 585.73 130.84 593.60 85.44 C 594.03 82.94 594.47 80.44 595.08 77.97 C 525.73 77.90 456.37 77.91 387.02 77.96 C 386.96 155.66 387.03 233.35 386.99 311.05 C 387.00 312.62 387.10 314.19 387.23 315.76 C 395.91 316.74 404.96 314.57 413.31 317.79 C 427.26 322.53 437.27 336.26 437.86 350.94 C 438.03 363.95 437.81 376.96 437.96 389.98 C 447.99 390.05 458.03 389.96 468.07 390.01 C 472.47 389.73 476.72 392.88 477.89 397.11 C 479.33 401.58 478.59 406.32 478.78 410.92 C 412.53 411.00 346.29 410.92 280.04 410.96 C 280.54 404.97 278.30 397.83 283.00 393.01 C 286.96 388.93 292.91 390.14 298.00 390.00 C 305.60 389.90 313.21 390.23 320.80 389.80 C 321.30 375.87 320.79 361.92 321.05 347.98 C 322.77 331.75 336.58 317.62 352.92 316.05 C 358.99 315.89 365.07 316.09 371.14 315.97 C 371.52 282.65 371.20 249.32 371.30 216.00 C 371.25 169.99 371.42 123.97 371.22 77.96 C 301.09 77.94 230.97 77.84 160.85 78.02 C 168.88 123.35 176.94 168.67 184.82 214.03 C 188.81 240.69 194.21 267.12 198.36 293.75 C 204.22 294.37 210.12 293.90 216.00 294.05 C 216.20 309.95 209.41 325.91 197.75 336.75 C 188.83 346.11 176.41 351.61 163.76 353.59 C 149.82 355.33 135.19 352.30 123.37 344.59 C 110.46 336.61 101.14 323.37 97.25 308.77 C 95.89 303.98 95.88 298.98 94.94 294.12 C 100.91 293.87 106.88 294.07 112.85 293.98 C 117.16 269.85 121.35 245.70 125.59 221.57 C 127.87 212.70 129.00 203.60 130.72 194.62 C 137.49 155.74 144.40 116.88 151.19 78.02 C 145.46 77.79 139.72 78.05 133.99 77.90 C 129.44 77.94 125.45 72.70 127.40 68.36 C 128.38 65.71 131.11 63.83 133.95 64.04 C 213.03 64.02 292.11 64.11 371.19 63.99 C 371.46 49.00 371.22 33.99 371.30 18.99 C 371.31 15.49 372.54 11.32 376.27 10.17 M 599.47 79.74 C 591.19 126.79 582.88 173.83 574.64 220.89 C 573.69 230.70 571.54 240.34 570.00 250.06 C 567.61 252.03 565.59 254.63 565.99 257.93 C 566.15 268.32 565.50 278.72 565.97 289.11 C 565.50 286.42 565.75 283.67 565.59 280.96 L 564.37 281.71 C 563.54 285.88 563.08 290.13 562.04 294.27 C 564.40 294.27 566.77 294.25 569.14 294.16 C 569.75 294.16 570.97 294.14 571.58 294.13 C 574.30 294.93 577.12 295.48 579.99 295.31 C 596.95 294.93 613.92 294.93 630.87 294.14 C 633.24 294.26 635.61 294.28 637.99 294.28 C 637.05 289.84 636.46 285.33 635.67 280.86 L 634.58 280.21 C 634.35 283.19 634.77 286.23 634.14 289.18 C 634.37 278.77 634.11 268.35 634.17 257.94 C 634.49 254.89 632.59 252.34 630.05 250.90 C 628.55 238.93 626.06 227.08 623.91 215.20 C 616.37 172.72 608.95 130.21 601.46 87.72 C 601.06 84.99 600.68 82.24 599.47 79.74 M 155.20 83.01 C 150.55 110.04 145.63 137.02 140.92 164.04 C 137.14 184.64 133.92 205.34 129.73 225.87 C 125.71 248.30 121.82 270.77 117.81 293.20 C 127.51 293.34 137.23 293.34 146.93 293.20 C 148.35 293.19 149.76 293.18 151.18 293.19 C 151.91 293.19 153.38 293.20 154.11 293.20 C 154.89 293.21 156.46 293.23 157.25 293.24 C 158.57 293.21 159.89 293.19 161.22 293.18 C 161.99 293.18 163.53 293.19 164.31 293.19 C 174.03 293.38 183.76 293.27 193.49 293.25 C 189.50 267.11 184.07 241.20 180.16 215.05 C 172.47 170.32 164.18 125.68 156.64 80.93 C 155.72 81.31 155.24 82.00 155.20 83.01 Z" />
<path fill="#e68c29" opacity="1.00" d=" M 580.92 262.72 C 582.64 262.40 584.38 262.29 586.13 262.37 C 585.76 263.74 586.20 265.57 585.16 266.67 C 585.31 265.41 585.47 264.16 585.62 262.91 C 584.05 262.85 582.48 262.78 580.92 262.72 Z" />
</g>
<g id="#476320ff">
<path fill="#476320" opacity="1.00" d=" M 147.34 229.83 C 148.66 230.00 149.98 230.18 151.29 230.42 C 151.26 234.85 151.81 239.37 150.99 243.76 C 148.08 247.32 143.31 250.45 144.31 255.77 C 143.97 260.04 148.06 262.00 150.65 264.54 C 152.23 268.55 151.21 273.07 150.90 277.26 C 149.45 275.17 148.08 273.01 146.78 270.83 C 145.43 270.86 144.09 270.90 142.74 270.95 C 143.20 273.41 143.15 276.19 144.81 278.24 C 146.61 280.50 148.94 282.25 151.13 284.11 C 151.21 287.13 151.23 290.16 151.18 293.19 C 149.76 293.18 148.35 293.19 146.93 293.20 C 146.96 289.53 146.94 285.86 146.87 282.19 C 142.61 279.42 138.57 275.54 138.63 270.06 C 141.42 270.00 144.20 270.11 146.98 270.28 C 146.95 267.89 146.93 265.49 146.94 263.10 C 145.25 261.80 143.47 260.58 142.02 259.01 C 139.82 256.77 140.08 253.29 140.56 250.44 C 141.63 247.12 144.85 245.21 147.31 242.98 C 147.32 238.59 147.34 234.21 147.34 229.83 Z" />
<path fill="#476320" opacity="1.00" d=" M 157.30 229.63 C 159.66 229.91 162.01 230.27 164.34 230.72 C 163.59 230.89 162.10 231.22 161.35 231.39 C 161.45 235.53 161.34 239.67 161.01 243.79 C 158.88 243.75 156.76 243.71 154.64 243.66 C 155.30 243.24 156.61 242.41 157.26 241.99 C 157.26 237.87 157.30 233.75 157.30 229.63 Z" />
<path fill="#476320" opacity="1.00" d=" M 157.24 248.17 C 158.50 248.46 159.76 248.74 161.03 249.03 C 161.56 253.00 161.53 257.02 161.06 260.99 C 159.78 260.67 158.50 260.34 157.22 260.01 C 157.27 256.06 157.27 252.12 157.24 248.17 Z" />
<path fill="#476320" opacity="1.00" d=" M 157.15 264.94 C 158.50 265.65 159.86 266.35 161.23 267.05 C 161.50 271.10 161.48 275.17 161.11 279.22 C 158.77 279.38 156.41 279.32 154.13 278.75 C 154.90 278.60 156.46 278.31 157.23 278.16 C 157.30 273.75 157.45 269.34 157.15 264.94 Z" />
<path fill="#476320" opacity="1.00" d=" M 154.36 282.77 C 156.60 283.53 159.45 283.44 161.16 285.20 C 161.55 287.84 161.30 290.52 161.22 293.18 C 159.89 293.19 158.57 293.21 157.25 293.24 C 157.28 290.12 157.27 287.00 157.24 283.88 C 156.52 283.84 155.06 283.77 154.33 283.73 L 154.36 282.77 Z" />
</g>
<g id="#7fb239ff">
<path fill="#7fb239" opacity="1.00" d=" M 151.29 230.42 C 152.32 230.87 153.34 231.34 154.35 231.84 C 154.24 235.78 154.26 239.73 154.64 243.66 C 156.76 243.71 158.88 243.75 161.01 243.79 C 161.34 239.67 161.45 235.53 161.35 231.39 C 162.10 231.22 163.59 230.89 164.34 230.72 C 164.48 235.30 164.13 239.91 164.52 244.49 C 166.11 246.52 168.85 247.43 170.14 249.74 C 170.96 251.43 171.26 253.30 171.71 255.12 C 169.23 255.25 166.74 255.29 164.25 255.30 C 164.35 257.60 164.42 259.90 164.50 262.20 C 168.46 264.01 173.09 267.06 172.66 272.04 C 173.21 277.26 168.82 280.93 164.54 282.88 C 164.35 286.32 164.33 289.75 164.31 293.19 C 163.53 293.19 161.99 293.18 161.22 293.18 C 161.30 290.52 161.55 287.84 161.16 285.20 C 159.45 283.44 156.60 283.53 154.36 282.77 L 154.33 283.73 C 154.26 286.88 154.20 290.04 154.11 293.20 C 153.38 293.20 151.91 293.19 151.18 293.19 C 151.23 290.16 151.21 287.13 151.13 284.11 C 148.94 282.25 146.61 280.50 144.81 278.24 C 143.15 276.19 143.20 273.41 142.74 270.95 C 144.09 270.90 145.43 270.86 146.78 270.83 C 148.08 273.01 149.45 275.17 150.90 277.26 C 151.21 273.07 152.23 268.55 150.65 264.54 C 148.06 262.00 143.97 260.04 144.31 255.77 C 143.31 250.45 148.08 247.32 150.99 243.76 C 151.81 239.37 151.26 234.85 151.29 230.42 M 154.35 248.36 C 154.30 252.14 154.30 255.93 154.35 259.71 C 155.07 259.79 156.50 259.94 157.22 260.01 C 158.50 260.34 159.78 260.67 161.06 260.99 C 161.53 257.02 161.56 253.00 161.03 249.03 C 159.76 248.74 158.50 248.46 157.24 248.17 C 156.52 248.22 155.07 248.31 154.35 248.36 M 150.97 258.21 C 151.39 255.71 151.39 253.16 151.00 250.66 C 148.63 252.64 148.64 256.21 150.97 258.21 M 154.13 278.75 C 156.41 279.32 158.77 279.38 161.11 279.22 C 161.48 275.17 161.50 271.10 161.23 267.05 C 159.86 266.35 158.50 265.65 157.15 264.94 C 156.51 264.75 155.24 264.37 154.61 264.18 C 153.90 269.01 154.46 273.89 154.13 278.75 M 164.99 267.86 C 164.53 271.28 164.54 274.74 165.06 278.15 C 168.72 275.75 169.32 269.90 164.99 267.86 Z" />
</g>
<g id="#406360eb">
<path fill="#406360" opacity="0.92" d=" M 606.56 249.37 C 613.07 249.11 619.75 248.23 626.17 249.73 C 619.63 249.71 613.06 250.46 606.56 249.37 Z" />
</g>
<g id="#005072ff">
<path fill="#005072" opacity="1.00" d=" M 570.00 250.06 C 582.19 250.13 594.37 249.41 606.56 249.37 C 613.06 250.46 619.63 249.71 626.17 249.73 C 627.18 249.99 628.20 250.29 629.21 250.62 C 613.80 250.54 598.39 250.80 582.99 250.63 C 579.51 250.76 575.59 250.44 572.68 252.67 C 570.70 254.12 570.34 256.71 570.25 258.98 C 570.04 263.98 570.30 268.99 570.25 274.00 C 570.35 280.72 569.45 287.62 571.58 294.13 C 570.97 294.14 569.75 294.16 569.14 294.16 C 567.99 292.55 566.32 291.14 565.97 289.11 C 565.50 278.72 566.15 268.32 565.99 257.93 C 565.59 254.63 567.61 252.03 570.00 250.06 Z" />
<path fill="#005072" opacity="1.00" d=" M 626.20 254.76 C 627.60 255.10 630.17 255.03 630.14 257.07 C 630.60 265.70 630.12 274.36 630.36 283.01 C 630.13 285.45 630.89 288.89 628.24 290.25 C 626.88 290.64 625.45 290.62 624.06 290.67 C 611.04 290.59 598.02 290.68 585.00 290.74 C 581.68 290.69 578.24 291.28 575.06 290.08 C 582.59 289.93 590.12 289.69 597.65 289.63 C 605.20 290.54 612.80 290.08 620.33 289.15 C 622.07 288.85 624.39 289.19 625.46 287.42 C 626.15 284.95 625.79 282.35 625.93 279.83 C 625.94 279.13 625.95 277.73 625.96 277.04 C 625.95 269.61 625.66 262.17 626.20 254.76 Z" />
<path fill="#005072" opacity="1.00" d=" M 573.89 256.69 L 574.25 257.40 C 574.45 257.79 574.85 258.56 575.05 258.95 C 579.43 259.02 583.86 258.70 588.22 259.44 C 585.42 259.66 582.12 259.03 579.70 260.61 C 578.37 263.51 579.00 266.89 578.84 270.00 C 577.38 269.60 575.94 269.17 574.50 268.76 C 574.48 271.27 574.51 273.78 574.63 276.29 L 573.84 276.23 C 574.11 269.72 574.59 263.19 573.89 256.69 Z" />
<path fill="#005072" opacity="1.00" d=" M 586.13 262.37 C 587.36 262.31 588.59 262.25 589.83 262.19 C 589.88 264.07 589.94 265.96 590.01 267.86 C 587.01 267.98 584.01 267.97 581.07 267.38 C 582.43 267.15 583.79 266.92 585.16 266.67 C 586.20 265.57 585.76 263.74 586.13 262.37 Z" />
</g>
<g id="#507024ff">
<path fill="#507024" opacity="1.00" d=" M 150.97 258.21 C 148.64 256.21 148.63 252.64 151.00 250.66 C 151.39 253.16 151.39 255.71 150.97 258.21 Z" />
</g>
<g id="#008fccff">
<path fill="#008fcc" opacity="1.00" d=" M 572.68 252.67 C 575.59 250.44 579.51 250.76 582.99 250.63 C 598.39 250.80 613.80 250.54 629.21 250.62 L 630.05 250.90 C 632.59 252.34 634.49 254.89 634.17 257.94 C 634.11 268.35 634.37 278.77 634.14 289.18 C 633.74 291.20 632.04 292.57 630.87 294.14 C 613.92 294.93 596.95 294.93 579.99 295.31 C 577.12 295.48 574.30 294.93 571.58 294.13 C 569.45 287.62 570.35 280.72 570.25 274.00 C 570.30 268.99 570.04 263.98 570.25 258.98 C 570.34 256.71 570.70 254.12 572.68 252.67 M 604.78 255.06 C 595.62 255.22 586.46 255.35 577.31 255.64 C 575.95 255.61 574.93 256.19 574.25 257.40 L 573.89 256.69 C 574.59 263.19 574.11 269.72 573.84 276.23 C 573.99 277.54 574.13 278.85 574.27 280.17 C 574.17 283.47 574.17 286.79 574.32 290.10 L 575.06 290.08 C 578.24 291.28 581.68 290.69 585.00 290.74 C 598.02 290.68 611.04 290.59 624.06 290.67 C 625.45 290.62 626.88 290.64 628.24 290.25 C 630.89 288.89 630.13 285.45 630.36 283.01 C 630.12 274.36 630.60 265.70 630.14 257.07 C 630.17 255.03 627.60 255.10 626.20 254.76 C 624.15 253.16 621.36 253.97 618.98 253.86 C 614.25 254.30 609.36 253.57 604.78 255.06 Z" />
</g>
<g id="#268eb0ff">
<path fill="#268eb0" opacity="1.00" d=" M 604.78 255.06 C 609.36 253.57 614.25 254.30 618.98 253.86 C 621.36 253.97 624.15 253.16 626.20 254.76 C 619.07 255.22 611.92 254.94 604.78 255.06 Z" />
</g>
<g id="#028ac3ff">
<path fill="#028ac3" opacity="1.00" d=" M 579.70 260.61 C 582.12 259.03 585.42 259.66 588.22 259.44 C 589.94 259.59 591.38 260.53 592.38 261.93 C 591.78 264.20 591.95 266.55 592.13 268.86 C 591.94 269.19 591.54 269.84 591.35 270.17 C 587.46 270.06 583.59 270.18 579.71 270.21 L 578.84 270.00 C 579.00 266.89 578.37 263.51 579.70 260.61 M 580.92 262.72 C 580.98 264.27 581.03 265.82 581.07 267.38 C 584.01 267.97 587.01 267.98 590.01 267.86 C 589.94 265.96 589.88 264.07 589.83 262.19 C 588.59 262.25 587.36 262.31 586.13 262.37 C 584.38 262.29 582.64 262.40 580.92 262.72 Z" />
</g>
<g id="#2f281849">
<path fill="#2f2818" opacity="0.29" d=" M 592.38 261.93 C 594.12 263.90 593.63 266.90 592.13 268.86 C 591.95 266.55 591.78 264.20 592.38 261.93 Z" />
</g>
<g id="#496721ff">
<path fill="#496721" opacity="1.00" d=" M 164.99 267.86 C 169.32 269.90 168.72 275.75 165.06 278.15 C 164.54 274.74 164.53 271.28 164.99 267.86 Z" />
</g>
<g id="#4144347d">
<path fill="#414434" opacity="0.49" d=" M 579.71 270.21 C 583.59 270.18 587.46 270.06 591.35 270.17 C 587.53 271.14 583.50 271.42 579.71 270.21 Z" />
</g>
<g id="#005376ff">
<path fill="#005376" opacity="1.00" d=" M 573.84 276.23 L 574.63 276.29 C 585.46 276.95 596.30 275.84 607.14 276.25 C 612.92 276.08 618.80 275.12 624.52 276.50 C 624.45 277.33 624.31 278.99 624.24 279.82 C 618.72 279.31 613.03 280.68 607.68 278.80 C 607.63 278.79 607.53 278.78 607.48 278.78 L 607.41 278.81 C 602.01 280.96 595.45 281.10 590.12 278.62 L 589.49 278.36 C 589.04 278.86 588.15 279.88 587.70 280.39 C 583.22 280.30 578.73 280.73 574.27 280.17 C 574.13 278.85 573.99 277.54 573.84 276.23 Z" />
</g>
<g id="#af7e3bff">
<path fill="#af7e3b" opacity="1.00" d=" M 624.52 276.50 C 624.88 276.63 625.60 276.90 625.96 277.04 C 625.95 277.73 625.94 279.13 625.93 279.83 C 625.51 279.83 624.66 279.82 624.24 279.82 C 624.31 278.99 624.45 277.33 624.52 276.50 Z" />
</g>
<g id="#3a453aa9">
<path fill="#3a453a" opacity="0.66" d=" M 589.49 278.36 L 590.12 278.62 C 590.98 280.34 589.03 281.24 587.70 280.39 C 588.15 279.88 589.04 278.86 589.49 278.36 Z" />
</g>
<g id="#ca8532ff">
<path fill="#ca8532" opacity="1.00" d=" M 607.48 278.78 C 607.53 278.78 607.63 278.79 607.68 278.80 L 607.41 278.81 L 607.48 278.78 Z" />
</g>
<g id="#3d4e44b3">
<path fill="#3d4e44" opacity="0.70" d=" M 597.65 289.63 C 605.19 288.92 612.76 288.83 620.33 289.15 C 612.80 290.08 605.20 290.54 597.65 289.63 Z" />
</g>
</svg>
