<?xml version="1.0" encoding="UTF-8" ?>
<!DOCTYPE svg PUBLIC "-//W3C//DTD SVG 1.1//EN" "http://www.w3.org/Graphics/SVG/1.1/DTD/svg11.dtd">
<svg width="500pt" height="500pt" viewBox="0 0 500 500" version="1.1" xmlns="http://www.w3.org/2000/svg">
<g id="#ffffffff">
<path fill="#ffffff" opacity="1.00" d=" M 179.48 84.98 C 187.21 77.57 195.59 70.87 204.47 64.91 C 207.08 87.28 205.93 110.15 200.57 132.05 C 194.84 131.18 189.08 130.41 183.28 130.37 C 190.78 116.07 188.67 98.01 179.48 84.98 Z" />
<path fill="#ffffff" opacity="1.00" d=" M 136.11 82.14 C 137.52 77.38 142.29 74.44 147.00 73.77 C 153.65 72.82 160.20 75.72 165.40 79.67 C 176.30 88.22 182.93 102.60 180.73 116.48 C 178.86 129.83 168.65 141.82 155.52 145.23 C 149.40 146.75 142.05 146.38 137.30 141.76 C 133.55 137.96 133.45 131.98 135.19 127.21 C 141.20 128.17 147.35 127.24 152.91 124.84 C 152.83 124.41 152.67 123.54 152.59 123.10 C 148.10 122.24 143.29 123.72 138.86 122.04 C 134.67 120.96 130.84 117.66 130.48 113.13 C 129.96 107.44 130.88 100.40 136.19 97.13 C 141.36 94.00 147.57 95.74 153.22 95.73 C 148.30 93.17 142.84 91.43 137.24 91.64 C 135.99 88.67 134.96 85.32 136.11 82.14 Z" />
<path fill="#ffffff" opacity="1.00" d=" M 176.70 178.69 C 177.91 175.98 181.16 175.21 183.83 175.87 C 184.91 176.82 185.90 177.85 186.91 178.88 C 187.31 182.23 185.89 185.36 182.65 186.64 C 180.89 186.51 179.18 186.06 177.69 185.11 C 176.60 183.18 175.57 180.85 176.70 178.69 Z" />
<path fill="#ffffff" opacity="1.00" d=" M 206.32 195.23 C 208.84 193.36 212.01 192.94 215.05 192.81 C 214.37 194.66 213.97 196.59 213.61 198.53 C 214.85 196.98 216.01 195.37 217.39 193.94 C 219.07 195.40 220.61 197.01 221.98 198.76 C 220.76 199.95 219.85 201.41 218.94 202.84 C 219.80 202.63 221.53 202.20 222.40 201.99 C 222.02 203.43 221.63 204.87 221.20 206.30 C 220.98 206.84 220.52 207.91 220.30 208.45 C 216.67 214.61 211.15 219.46 207.93 225.89 C 206.53 228.72 204.87 231.91 205.69 235.15 C 208.70 246.05 212.99 256.68 214.08 268.03 C 214.98 275.71 214.19 283.56 211.61 290.87 C 203.04 281.92 194.62 272.37 183.78 266.13 C 183.59 266.73 183.22 267.94 183.04 268.55 C 192.27 276.70 201.79 284.52 210.56 293.18 C 208.93 296.26 206.93 299.13 204.55 301.68 C 200.82 295.17 196.42 289.07 191.76 283.20 C 188.30 279.17 184.62 275.11 179.85 272.63 C 176.64 274.30 180.03 277.03 181.59 278.51 C 189.81 285.68 197.63 293.43 203.51 302.70 C 199.83 305.52 195.69 307.95 191.04 308.63 C 187.03 309.28 183.01 308.21 178.99 308.39 C 178.54 309.06 177.63 310.40 177.18 311.07 C 179.79 312.95 182.82 314.34 186.10 314.40 C 194.77 314.74 203.28 310.89 209.35 304.79 C 217.27 320.87 222.25 338.18 226.38 355.56 C 207.82 359.69 188.64 360.11 169.72 359.05 C 165.72 356.71 161.83 354.07 157.30 352.80 C 157.19 326.39 157.42 299.97 157.19 273.55 C 158.48 273.63 159.77 273.72 161.07 273.80 C 161.46 274.73 161.85 275.67 162.25 276.62 C 165.47 285.27 167.95 294.36 172.57 302.40 C 172.56 294.49 170.06 286.81 168.55 279.10 C 167.17 273.93 166.45 268.53 164.13 263.66 C 164.09 263.55 164.01 263.33 163.98 263.22 C 165.51 261.09 167.05 258.97 168.71 256.94 C 172.60 258.22 176.22 253.96 179.90 256.09 C 182.18 257.10 184.37 258.76 187.01 258.46 C 190.28 258.40 192.38 254.92 192.37 251.93 C 192.12 247.99 189.81 244.62 187.44 241.62 C 183.45 236.79 178.12 233.07 172.28 230.85 C 169.45 229.92 165.32 229.53 163.66 232.59 C 162.32 236.03 163.68 239.81 165.77 242.65 C 164.41 246.42 162.54 250.56 164.85 254.40 C 164.53 254.79 163.88 255.57 163.56 255.96 C 162.54 257.21 161.53 258.48 160.53 259.76 C 159.67 259.43 157.94 258.76 157.07 258.43 C 157.18 243.98 157.05 229.52 157.08 215.06 C 164.11 215.54 171.03 216.91 178.00 217.88 C 178.39 217.65 179.16 217.19 179.55 216.96 C 182.45 216.52 185.41 215.70 187.62 213.65 C 194.03 207.71 199.02 200.20 206.32 195.23 Z" />
<path fill="#ffffff" opacity="1.00" d=" M 294.80 221.00 C 317.48 213.13 342.22 212.33 365.58 217.59 C 355.86 230.74 346.00 243.83 334.64 255.64 C 332.38 259.05 328.88 261.21 326.07 264.11 C 316.85 272.79 306.58 280.39 295.36 286.31 C 300.46 264.92 300.46 242.28 294.80 221.00 Z" />
<path fill="#ffffff" opacity="1.00" d=" M 255.47 236.55 C 256.75 234.85 258.99 235.26 260.84 235.33 C 262.22 236.31 264.10 237.26 264.68 238.91 C 265.33 243.00 262.50 245.95 259.17 247.71 L 260.03 246.46 C 258.68 246.19 257.34 245.93 256.00 245.68 C 253.59 243.28 252.97 239.11 255.47 236.55 Z" />
<path fill="#ffffff" opacity="1.00" d=" M 146.84 358.78 C 153.29 357.76 159.70 360.50 164.83 364.22 C 176.11 372.73 182.99 387.40 180.72 401.55 C 178.79 415.08 168.28 427.22 154.87 430.37 C 149.13 431.47 142.43 431.34 137.83 427.25 C 133.60 423.56 133.34 417.16 135.19 412.20 C 141.22 413.16 147.41 412.22 152.99 409.79 C 152.96 408.41 152.33 407.75 151.10 407.79 C 146.04 407.89 140.68 408.41 136.06 405.89 C 132.25 404.26 130.19 400.06 130.34 396.05 C 130.28 390.95 131.50 384.99 136.18 382.12 C 141.35 378.97 147.58 380.70 153.25 380.74 C 148.33 378.15 142.85 376.43 137.24 376.63 C 135.92 373.58 134.92 370.09 136.20 366.85 C 137.68 362.30 142.28 359.47 146.84 358.78 Z" />
</g>
<g id="#020202ff">
<path fill="#020202" opacity="1.00" d=" M 153.08 11.88 C 155.05 14.04 155.28 17.12 155.50 19.90 C 156.40 35.75 156.34 51.65 156.32 67.52 C 163.66 69.60 170.24 73.95 175.30 79.63 C 183.96 71.01 193.52 63.27 203.93 56.86 C 205.21 56.01 206.97 55.94 208.29 56.73 C 210.25 59.24 211.30 62.30 212.66 65.15 C 222.75 87.71 225.45 113.31 221.05 137.58 C 249.73 148.59 273.31 171.26 286.56 198.85 C 314.94 192.28 345.50 196.41 371.40 209.60 C 373.79 210.78 376.71 212.96 376.11 215.96 C 368.62 226.08 361.35 236.52 352.79 245.77 C 350.92 248.79 348.43 251.34 346.10 254.00 C 345.08 255.03 344.20 256.42 342.65 256.66 C 342.47 257.67 342.02 258.52 341.28 259.23 C 327.55 273.36 311.83 286.05 293.49 293.68 C 287.21 314.63 276.56 335.24 258.90 348.78 C 246.84 358.08 231.77 362.41 216.89 364.51 C 203.41 366.25 189.72 367.07 176.18 365.64 C 183.98 374.81 188.67 386.91 187.74 399.04 C 186.92 416.41 173.94 432.32 157.15 436.78 C 157.25 449.21 157.08 461.64 156.70 474.06 C 156.42 478.84 155.98 483.72 154.12 488.18 C 152.97 487.67 151.78 486.96 151.65 485.58 C 149.82 478.54 149.60 471.21 149.66 463.98 C 149.70 455.22 149.67 446.46 149.59 437.71 C 142.56 437.73 134.89 435.23 130.82 429.16 C 127.13 423.73 126.27 415.45 131.38 410.60 C 126.25 407.65 123.73 401.70 123.73 395.96 C 123.68 389.53 125.31 382.17 131.04 378.41 C 128.66 373.73 128.01 368.09 130.26 363.23 C 133.37 355.69 141.73 351.63 149.58 351.67 C 149.53 317.12 149.59 282.56 149.52 248.00 C 149.83 238.68 149.85 229.34 149.58 220.02 C 149.65 197.59 149.71 175.16 149.89 152.73 C 142.99 152.78 135.51 150.50 131.23 144.78 C 127.17 139.30 126.11 130.66 131.39 125.60 C 125.93 122.52 123.53 116.03 123.72 110.02 C 123.88 103.85 125.59 96.93 131.11 93.37 C 127.99 87.91 128.14 80.86 131.65 75.61 C 135.65 69.41 143.27 66.48 150.45 66.69 C 150.47 53.79 150.57 40.88 150.83 27.99 C 151.30 22.59 151.22 17.03 153.08 11.88 M 179.48 84.98 C 188.67 98.01 190.78 116.07 183.28 130.37 C 189.08 130.41 194.84 131.18 200.57 132.05 C 205.93 110.15 207.08 87.28 204.47 64.91 C 195.59 70.87 187.21 77.57 179.48 84.98 M 136.11 82.14 C 134.96 85.32 135.99 88.67 137.24 91.64 C 142.84 91.43 148.30 93.17 153.22 95.73 C 147.57 95.74 141.36 94.00 136.19 97.13 C 130.88 100.40 129.96 107.44 130.48 113.13 C 130.84 117.66 134.67 120.96 138.86 122.04 C 143.29 123.72 148.10 122.24 152.59 123.10 C 152.67 123.54 152.83 124.41 152.91 124.84 C 147.35 127.24 141.20 128.17 135.19 127.21 C 133.45 131.98 133.55 137.96 137.30 141.76 C 142.05 146.38 149.40 146.75 155.52 145.23 C 168.65 141.82 178.86 129.83 180.73 116.48 C 182.93 102.60 176.30 88.22 165.40 79.67 C 160.20 75.72 153.65 72.82 147.00 73.77 C 142.29 74.44 137.52 77.38 136.11 82.14 M 210.79 80.96 C 212.39 98.52 211.31 116.33 206.99 133.45 C 209.35 134.04 211.71 134.66 214.06 135.31 C 216.99 117.26 216.30 98.46 210.79 80.96 M 179.07 137.03 C 173.38 144.09 165.65 149.61 156.80 151.88 C 156.74 153.28 156.68 154.68 156.63 156.08 C 167.81 152.31 182.26 154.44 189.36 164.64 C 197.81 178.20 191.80 197.54 178.44 205.54 C 171.63 209.52 163.06 207.72 156.84 203.46 C 157.00 205.78 156.48 208.29 157.19 210.50 C 164.78 212.11 172.35 213.99 179.55 216.96 C 179.16 217.19 178.39 217.65 178.00 217.88 C 171.03 216.91 164.11 215.54 157.08 215.06 C 157.05 229.52 157.18 243.98 157.07 258.43 C 156.38 263.78 160.03 268.22 161.47 273.13 C 160.04 273.26 158.62 273.41 157.19 273.55 C 157.42 299.97 157.19 326.39 157.30 352.80 C 161.83 354.07 165.72 356.71 169.72 359.05 C 188.64 360.11 207.82 359.69 226.38 355.56 C 236.12 353.37 245.69 349.76 253.79 343.83 C 261.26 338.31 267.30 331.06 272.22 323.23 C 281.84 307.74 288.12 290.20 290.61 272.14 C 291.37 267.43 290.81 262.64 291.49 257.92 C 292.50 237.57 287.81 217.02 278.52 198.92 C 276.79 195.36 274.66 192.02 272.69 188.59 L 272.58 188.58 C 269.26 183.60 265.66 178.81 261.68 174.34 C 259.78 172.25 257.83 170.19 255.88 168.15 L 255.78 168.24 C 251.01 163.48 245.69 159.33 240.20 155.45 C 237.78 153.90 235.33 152.41 232.85 150.97 C 230.78 149.83 228.68 148.74 226.57 147.66 C 224.31 146.62 222.02 145.64 219.72 144.72 C 206.80 139.64 192.93 137.14 179.07 137.03 M 156.70 161.22 C 156.58 163.60 156.57 165.99 156.63 168.39 C 159.93 164.64 163.72 161.31 168.22 159.06 C 164.27 159.04 160.43 160.02 156.70 161.22 M 170.23 162.35 C 164.79 164.34 160.77 168.90 157.60 173.57 C 156.55 174.83 156.72 176.49 156.69 178.02 C 156.77 183.39 156.82 188.77 156.80 194.14 C 159.63 196.39 163.56 196.03 166.67 194.58 C 170.78 192.70 174.55 189.98 177.54 186.59 C 177.58 186.22 177.65 185.48 177.69 185.11 C 179.18 186.06 180.89 186.51 182.65 186.64 C 176.26 192.69 169.18 199.95 159.60 199.43 C 163.74 201.93 168.72 203.78 173.57 202.42 C 179.22 200.66 182.98 195.55 185.50 190.47 C 188.09 185.03 189.64 178.60 187.83 172.70 C 187.37 174.73 187.00 176.79 186.91 178.88 C 185.90 177.85 184.91 176.82 183.83 175.87 C 184.70 172.01 184.50 167.41 181.54 164.46 C 178.48 161.88 174.02 160.89 170.23 162.35 M 289.46 205.50 C 290.92 208.76 292.16 212.13 293.12 215.57 C 311.38 209.55 330.84 207.10 349.99 209.26 C 330.58 202.95 309.49 201.72 289.46 205.50 M 294.80 221.00 C 300.46 242.28 300.46 264.92 295.36 286.31 C 306.58 280.39 316.85 272.79 326.07 264.11 C 328.88 261.21 332.38 259.05 334.64 255.64 C 346.00 243.83 355.86 230.74 365.58 217.59 C 342.22 212.33 317.48 213.13 294.80 221.00 M 146.84 358.78 C 142.28 359.47 137.68 362.30 136.20 366.85 C 134.92 370.09 135.92 373.58 137.24 376.63 C 142.85 376.43 148.33 378.15 153.25 380.74 C 147.58 380.70 141.35 378.97 136.18 382.12 C 131.50 384.99 130.28 390.95 130.34 396.05 C 130.19 400.06 132.25 404.26 136.06 405.89 C 140.68 408.41 146.04 407.89 151.10 407.79 C 152.33 407.75 152.96 408.41 152.99 409.79 C 147.41 412.22 141.22 413.16 135.19 412.20 C 133.34 417.16 133.60 423.56 137.83 427.25 C 142.43 431.34 149.13 431.47 154.87 430.37 C 168.28 427.22 178.79 415.08 180.72 401.55 C 182.99 387.40 176.11 372.73 164.83 364.22 C 159.70 360.50 153.29 357.76 146.84 358.78 Z" />
<path fill="#020202" opacity="1.00" d=" M 222.68 225.64 C 228.81 218.25 238.16 212.87 248.00 213.65 C 254.62 213.45 260.96 216.97 264.80 222.26 C 269.50 228.69 272.01 237.01 270.41 244.92 C 270.03 251.35 267.65 257.60 263.45 262.50 C 258.53 267.83 250.50 270.29 243.64 267.37 C 239.97 265.47 235.85 264.02 233.11 260.77 C 229.58 259.79 226.50 257.36 225.13 253.92 C 220.94 251.90 218.57 247.50 217.45 243.17 C 216.16 236.87 218.65 230.43 222.68 225.64 M 230.62 224.69 C 226.37 227.94 222.43 232.36 222.01 237.95 C 221.70 243.00 223.29 248.87 228.07 251.44 C 227.09 246.74 227.27 241.73 229.34 237.33 C 232.96 228.95 238.84 220.20 248.43 218.32 C 241.88 217.63 235.56 220.62 230.62 224.69 M 237.66 229.65 C 233.05 235.86 229.52 243.71 231.39 251.58 C 234.02 253.22 236.74 255.21 239.99 255.19 C 246.77 255.60 251.35 249.70 256.00 245.68 C 257.34 245.93 258.68 246.19 260.03 246.46 L 259.17 247.71 C 253.49 253.40 246.67 259.77 237.93 258.76 C 240.89 260.44 243.88 262.12 247.04 263.41 C 250.41 264.04 253.79 263.25 257.00 262.22 C 259.10 259.86 261.48 257.65 262.88 254.77 C 264.22 252.03 264.97 249.07 266.18 246.28 C 265.94 242.47 266.86 238.32 265.05 234.79 C 264.81 236.15 264.69 237.53 264.68 238.91 C 264.10 237.26 262.22 236.31 260.84 235.33 C 264.23 229.51 258.88 220.51 251.95 221.21 C 246.09 221.30 240.99 225.08 237.66 229.65 Z" />
<path fill="#020202" opacity="1.00" d=" M 163.66 232.59 C 165.32 229.53 169.45 229.92 172.28 230.85 C 178.12 233.07 183.45 236.79 187.44 241.62 C 189.81 244.62 192.12 247.99 192.37 251.93 C 192.38 254.92 190.28 258.40 187.01 258.46 C 184.37 258.76 182.18 257.10 179.90 256.09 C 176.22 253.96 172.60 258.22 168.71 256.94 C 167.05 258.97 165.51 261.09 163.98 263.22 C 163.57 260.82 163.51 258.39 163.56 255.96 C 163.88 255.57 164.53 254.79 164.85 254.40 C 162.54 250.56 164.41 246.42 165.77 242.65 C 163.68 239.81 162.32 236.03 163.66 232.59 M 169.94 242.94 C 170.13 245.96 166.64 249.30 169.00 251.98 C 172.26 254.49 175.56 249.54 179.01 251.03 C 182.08 252.38 185.12 253.99 188.61 253.67 C 185.96 244.16 177.30 236.26 167.65 234.36 C 165.88 237.81 170.45 239.64 169.94 242.94 Z" />
<path fill="#020202" opacity="1.00" d=" M 205.69 235.15 C 208.47 237.00 209.52 240.26 210.95 243.10 C 213.11 247.99 215.34 252.87 216.98 257.96 C 220.93 270.22 221.47 284.00 215.78 295.82 C 217.29 297.68 218.72 299.61 219.75 301.78 C 218.01 300.49 216.43 299.00 214.89 297.48 C 213.27 300.08 211.55 302.64 209.35 304.79 C 203.28 310.89 194.77 314.74 186.10 314.40 C 182.82 314.34 179.79 312.95 177.18 311.07 C 177.63 310.40 178.54 309.06 178.99 308.39 C 183.01 308.21 187.03 309.28 191.04 308.63 C 195.69 307.95 199.83 305.52 203.51 302.70 C 197.63 293.43 189.81 285.68 181.59 278.51 C 180.03 277.03 176.64 274.30 179.85 272.63 C 184.62 275.11 188.30 279.17 191.76 283.20 C 196.42 289.07 200.82 295.17 204.55 301.68 C 206.93 299.13 208.93 296.26 210.56 293.18 C 201.79 284.52 192.27 276.70 183.04 268.55 C 183.22 267.94 183.59 266.73 183.78 266.13 C 194.62 272.37 203.04 281.92 211.61 290.87 C 214.19 283.56 214.98 275.71 214.08 268.03 C 212.99 256.68 208.70 246.05 205.69 235.15 Z" />
<path fill="#020202" opacity="1.00" d=" M 164.13 263.66 C 166.45 268.53 167.17 273.93 168.55 279.10 C 170.06 286.81 172.56 294.49 172.57 302.40 C 167.95 294.36 165.47 285.27 162.25 276.62 C 162.60 276.66 163.30 276.76 163.65 276.80 C 163.58 272.42 163.19 267.99 164.13 263.66 Z" />
</g>
<g id="#e89932ff">
<path fill="#e89932" opacity="1.00" d=" M 210.79 80.96 C 216.30 98.46 216.99 117.26 214.06 135.31 C 211.71 134.66 209.35 134.04 206.99 133.45 C 211.31 116.33 212.39 98.52 210.79 80.96 Z" />
<path fill="#e89932" opacity="1.00" d=" M 179.07 137.03 C 192.93 137.14 206.80 139.64 219.72 144.72 C 218.56 148.43 217.87 152.42 215.53 155.62 C 212.89 159.36 209.41 162.66 207.95 167.11 C 206.25 171.93 209.53 176.79 208.52 181.66 C 207.40 184.34 204.86 186.19 203.90 188.96 C 203.54 191.21 204.02 193.48 204.23 195.72 C 205.04 193.68 205.70 191.57 206.67 189.59 C 208.26 186.98 211.45 185.62 212.62 182.71 C 214.15 178.55 212.69 173.98 213.88 169.77 C 215.58 165.52 219.39 162.68 221.94 159.00 C 224.43 155.68 225.58 151.63 226.57 147.66 C 228.68 148.74 230.78 149.83 232.85 150.97 C 232.39 154.21 232.66 157.85 230.59 160.60 C 228.06 164.09 224.51 166.94 223.00 171.09 C 221.40 175.19 222.28 179.74 221.05 183.92 C 219.71 187.27 217.17 189.93 215.05 192.81 C 212.01 192.94 208.84 193.36 206.32 195.23 C 199.02 200.20 194.03 207.71 187.62 213.65 C 185.41 215.70 182.45 216.52 179.55 216.96 C 172.35 213.99 164.78 212.11 157.19 210.50 C 156.48 208.29 157.00 205.78 156.84 203.46 C 163.06 207.72 171.63 209.52 178.44 205.54 C 191.80 197.54 197.81 178.20 189.36 164.64 C 182.26 154.44 167.81 152.31 156.63 156.08 C 156.68 154.68 156.74 153.28 156.80 151.88 C 165.65 149.61 173.38 144.09 179.07 137.03 Z" />
<path fill="#e89932" opacity="1.00" d=" M 240.20 155.45 C 245.69 159.33 251.01 163.48 255.78 168.24 C 253.45 170.43 251.19 172.75 248.48 174.49 C 245.30 176.51 241.17 175.93 238.00 177.95 C 233.58 181.38 233.30 187.60 229.68 191.64 C 227.33 194.23 224.54 196.38 221.98 198.76 C 220.61 197.01 219.07 195.40 217.39 193.94 C 220.55 191.28 224.11 188.76 225.93 184.92 C 227.63 180.91 227.19 176.23 229.45 172.42 C 231.63 169.01 234.92 166.48 237.14 163.10 C 238.75 160.82 239.41 158.07 240.20 155.45 Z" />
<path fill="#e89932" opacity="1.00" d=" M 250.65 181.68 C 254.61 179.70 257.88 176.62 261.68 174.34 C 265.66 178.81 269.26 183.60 272.58 188.58 C 270.16 188.39 267.67 187.88 265.28 188.43 C 262.59 189.50 260.43 191.63 257.65 192.50 C 254.00 193.18 250.20 192.60 246.61 193.60 C 237.51 196.58 231.19 205.67 221.20 206.30 C 221.63 204.87 222.02 203.43 222.40 201.99 C 225.95 199.30 229.74 196.97 233.35 194.36 C 237.02 191.78 237.68 186.84 240.88 183.87 C 243.98 182.59 247.60 183.21 250.65 181.68 Z" />
<path fill="#e89932" opacity="1.00" d=" M 257.11 199.71 C 261.33 199.80 264.38 196.50 268.06 195.00 C 271.64 196.04 274.91 197.95 278.52 198.92 C 287.81 217.02 292.50 237.57 291.49 257.92 C 290.81 262.64 291.37 267.43 290.61 272.14 C 288.12 290.20 281.84 307.74 272.22 323.23 C 267.30 331.06 261.26 338.31 253.79 343.83 C 245.69 349.76 236.12 353.37 226.38 355.56 C 222.25 338.18 217.27 320.87 209.35 304.79 C 211.55 302.64 213.27 300.08 214.89 297.48 C 216.43 299.00 218.01 300.49 219.75 301.78 C 218.72 299.61 217.29 297.68 215.78 295.82 C 221.47 284.00 220.93 270.22 216.98 257.96 C 215.34 252.87 213.11 247.99 210.95 243.10 C 209.52 240.26 208.47 237.00 205.69 235.15 C 204.87 231.91 206.53 228.72 207.93 225.89 C 211.15 219.46 216.67 214.61 220.30 208.45 C 228.60 208.97 235.76 203.98 243.35 201.42 C 247.64 199.23 252.47 199.69 257.11 199.71 M 222.68 225.64 C 218.65 230.43 216.16 236.87 217.45 243.17 C 218.57 247.50 220.94 251.90 225.13 253.92 C 226.50 257.36 229.58 259.79 233.11 260.77 C 235.85 264.02 239.97 265.47 243.64 267.37 C 250.50 270.29 258.53 267.83 263.45 262.50 C 267.65 257.60 270.03 251.35 270.41 244.92 C 272.01 237.01 269.50 228.69 264.80 222.26 C 260.96 216.97 254.62 213.45 248.00 213.65 C 238.16 212.87 228.81 218.25 222.68 225.64 Z" />
<path fill="#e89932" opacity="1.00" d=" M 289.46 205.50 C 309.49 201.72 330.58 202.95 349.99 209.26 C 330.84 207.10 311.38 209.55 293.12 215.57 C 292.16 212.13 290.92 208.76 289.46 205.50 Z" />
</g>
<g id="#b26b15ff">
<path fill="#b26b15" opacity="1.00" d=" M 219.72 144.72 C 222.02 145.64 224.31 146.62 226.57 147.66 C 225.58 151.63 224.43 155.68 221.94 159.00 C 219.39 162.68 215.58 165.52 213.88 169.77 C 212.69 173.98 214.15 178.55 212.62 182.71 C 211.45 185.62 208.26 186.98 206.67 189.59 C 205.70 191.57 205.04 193.68 204.23 195.72 C 204.02 193.48 203.54 191.21 203.90 188.96 C 204.86 186.19 207.40 184.34 208.52 181.66 C 209.53 176.79 206.25 171.93 207.95 167.11 C 209.41 162.66 212.89 159.36 215.53 155.62 C 217.87 152.42 218.56 148.43 219.72 144.72 Z" />
<path fill="#b26b15" opacity="1.00" d=" M 232.85 150.97 C 235.33 152.41 237.78 153.90 240.20 155.45 C 239.41 158.07 238.75 160.82 237.14 163.10 C 234.92 166.48 231.63 169.01 229.45 172.42 C 227.19 176.23 227.63 180.91 225.93 184.92 C 224.11 188.76 220.55 191.28 217.39 193.94 C 216.01 195.37 214.85 196.98 213.61 198.53 C 213.97 196.59 214.37 194.66 215.05 192.81 C 217.17 189.93 219.71 187.27 221.05 183.92 C 222.28 179.74 221.40 175.19 223.00 171.09 C 224.51 166.94 228.06 164.09 230.59 160.60 C 232.66 157.85 232.39 154.21 232.85 150.97 Z" />
<path fill="#b26b15" opacity="1.00" d=" M 255.78 168.24 L 255.88 168.15 C 257.83 170.19 259.78 172.25 261.68 174.34 C 257.88 176.62 254.61 179.70 250.65 181.68 C 247.60 183.21 243.98 182.59 240.88 183.87 C 237.68 186.84 237.02 191.78 233.35 194.36 C 229.74 196.97 225.95 199.30 222.40 201.99 C 221.53 202.20 219.80 202.63 218.94 202.84 C 219.85 201.41 220.76 199.95 221.98 198.76 C 224.54 196.38 227.33 194.23 229.68 191.64 C 233.30 187.60 233.58 181.38 238.00 177.95 C 241.17 175.93 245.30 176.51 248.48 174.49 C 251.19 172.75 253.45 170.43 255.78 168.24 Z" />
<path fill="#b26b15" opacity="1.00" d=" M 265.28 188.43 C 267.67 187.88 270.16 188.39 272.58 188.58 L 272.69 188.59 C 274.66 192.02 276.79 195.36 278.52 198.92 C 274.91 197.95 271.64 196.04 268.06 195.00 C 264.38 196.50 261.33 199.80 257.11 199.71 C 252.47 199.69 247.64 199.23 243.35 201.42 C 235.76 203.98 228.60 208.97 220.30 208.45 C 220.52 207.91 220.98 206.84 221.20 206.30 C 231.19 205.67 237.51 196.58 246.61 193.60 C 250.20 192.60 254.00 193.18 257.65 192.50 C 260.43 191.63 262.59 189.50 265.28 188.43 Z" />
</g>
<g id="#c5da20ff">
<path fill="#c5da20" opacity="1.00" d=" M 156.70 161.22 C 160.43 160.02 164.27 159.04 168.22 159.06 C 163.72 161.31 159.93 164.64 156.63 168.39 C 156.57 165.99 156.58 163.60 156.70 161.22 Z" />
<path fill="#c5da20" opacity="1.00" d=" M 187.83 172.70 C 189.64 178.60 188.09 185.03 185.50 190.47 C 182.98 195.55 179.22 200.66 173.57 202.42 C 168.72 203.78 163.74 201.93 159.60 199.43 C 169.18 199.95 176.26 192.69 182.65 186.64 C 185.89 185.36 187.31 182.23 186.91 178.88 C 187.00 176.79 187.37 174.73 187.83 172.70 Z" />
<path fill="#c5da20" opacity="1.00" d=" M 230.62 224.69 C 235.56 220.62 241.88 217.63 248.43 218.32 C 238.84 220.20 232.96 228.95 229.34 237.33 C 227.27 241.73 227.09 246.74 228.07 251.44 C 223.29 248.87 221.70 243.00 222.01 237.95 C 222.43 232.36 226.37 227.94 230.62 224.69 Z" />
<path fill="#c5da20" opacity="1.00" d=" M 265.05 234.79 C 266.86 238.32 265.94 242.47 266.18 246.28 C 264.97 249.07 264.22 252.03 262.88 254.77 C 261.48 257.65 259.10 259.86 257.00 262.22 C 253.79 263.25 250.41 264.04 247.04 263.41 C 243.88 262.12 240.89 260.44 237.93 258.76 C 246.67 259.77 253.49 253.40 259.17 247.71 C 262.50 245.95 265.33 243.00 264.68 238.91 C 264.69 237.53 264.81 236.15 265.05 234.79 Z" />
</g>
<g id="#333333ff">
<path fill="#333333" opacity="1.00" d=" M 170.23 162.35 C 174.02 160.89 178.48 161.88 181.54 164.46 C 184.50 167.41 184.70 172.01 183.83 175.87 C 181.16 175.21 177.91 175.98 176.70 178.69 C 175.57 180.85 176.60 183.18 177.69 185.11 C 177.65 185.48 177.58 186.22 177.54 186.59 C 174.55 189.98 170.78 192.70 166.67 194.58 C 163.56 196.03 159.63 196.39 156.80 194.14 C 156.82 188.77 156.77 183.39 156.69 178.02 C 156.72 176.49 156.55 174.83 157.60 173.57 C 160.77 168.90 164.79 164.34 170.23 162.35 Z" />
<path fill="#333333" opacity="1.00" d=" M 237.66 229.65 C 240.99 225.08 246.09 221.30 251.95 221.21 C 258.88 220.51 264.23 229.51 260.84 235.33 C 258.99 235.26 256.75 234.85 255.47 236.55 C 252.97 239.11 253.59 243.28 256.00 245.68 C 251.35 249.70 246.77 255.60 239.99 255.19 C 236.74 255.21 234.02 253.22 231.39 251.58 C 229.52 243.71 233.05 235.86 237.66 229.65 Z" />
</g>
<g id="#e97880ff">
<path fill="#e97880" opacity="1.00" d=" M 169.94 242.94 C 170.45 239.64 165.88 237.81 167.65 234.36 C 177.30 236.26 185.96 244.16 188.61 253.67 C 185.12 253.99 182.08 252.38 179.01 251.03 C 175.56 249.54 172.26 254.49 169.00 251.98 C 166.64 249.30 170.13 245.96 169.94 242.94 Z" />
</g>
<g id="#5a5a59ff">
<path fill="#5a5a59" opacity="1.00" d=" M 160.53 259.76 C 161.53 258.48 162.54 257.21 163.56 255.96 C 163.51 258.39 163.57 260.82 163.98 263.22 C 164.01 263.33 164.09 263.55 164.13 263.66 C 163.19 267.99 163.58 272.42 163.65 276.80 C 163.30 276.76 162.60 276.66 162.25 276.62 C 161.85 275.67 161.46 274.73 161.07 273.80 C 159.77 273.72 158.48 273.63 157.19 273.55 C 158.62 273.41 160.04 273.26 161.47 273.13 C 160.03 268.22 156.38 263.78 157.07 258.43 C 157.94 258.76 159.67 259.43 160.53 259.76 Z" />
</g>
</svg>
