<?xml version="1.0" encoding="UTF-8" ?>
<!DOCTYPE svg PUBLIC "-//W3C//DTD SVG 1.1//EN" "http://www.w3.org/Graphics/SVG/1.1/DTD/svg11.dtd">
<svg width="960pt" height="514pt" viewBox="0 0 960 514" version="1.1" xmlns="http://www.w3.org/2000/svg">
<g id="#f2f0d9ff">
</g>
<g id="#010101ff">
<path fill="#010101" opacity="1.00" d=" M 325.27 29.86 C 333.21 31.22 340.27 35.55 348.19 37.02 C 351.68 37.90 356.07 38.09 357.89 41.77 C 355.94 43.85 353.94 45.88 352.01 47.97 C 348.48 51.77 346.61 56.69 343.97 61.07 C 357.03 67.71 370.53 73.44 383.85 79.53 C 386.61 73.54 389.44 67.45 390.39 60.86 C 391.16 56.67 390.80 52.07 393.41 48.46 C 398.83 50.34 404.18 52.41 409.48 54.61 C 414.94 56.66 420.62 58.13 425.84 60.80 C 424.62 67.70 421.71 74.14 420.29 80.99 C 418.44 86.71 416.77 92.97 412.12 97.12 C 408.82 100.21 406.57 104.19 403.34 107.33 C 394.83 114.53 385.28 120.44 375.20 125.17 C 367.98 128.07 360.24 129.85 352.44 129.77 C 361.34 144.21 368.27 160.58 368.44 177.80 C 368.07 193.44 365.41 209.59 357.24 223.19 C 354.86 227.36 352.79 231.82 349.46 235.35 C 341.14 244.44 330.83 252.08 319.04 255.99 C 315.31 257.41 311.64 259.02 307.82 260.20 C 301.69 262.23 295.22 262.97 289.15 265.20 C 284.22 266.93 278.95 266.50 273.83 266.75 C 279.14 277.99 284.99 289.03 288.48 301.02 C 290.29 307.76 294.38 313.55 296.64 320.11 C 298.36 324.91 300.90 329.35 303.03 333.97 C 310.34 342.64 315.98 352.70 324.25 360.55 C 329.38 364.79 334.05 369.59 339.44 373.51 C 344.73 376.97 349.93 380.64 355.72 383.25 C 365.14 387.79 375.23 392.50 385.98 391.25 C 393.47 391.23 399.25 386.08 404.97 381.96 C 413.95 373.62 422.68 364.99 430.73 355.75 C 436.54 347.93 443.18 340.76 449.89 333.72 C 445.67 332.67 441.64 330.88 438.34 328.01 C 437.98 322.42 440.07 316.01 445.61 313.70 C 445.93 308.42 449.24 303.62 454.03 301.40 C 454.55 299.08 454.88 296.68 455.75 294.46 C 457.59 291.17 460.85 289.03 463.81 286.84 C 465.68 287.48 467.55 288.12 469.44 288.74 C 471.31 281.83 473.33 274.88 473.74 267.70 C 474.77 266.86 475.78 265.97 476.92 265.27 C 480.05 265.16 482.53 267.43 485.30 268.58 C 496.63 273.44 507.93 278.72 520.06 281.31 C 520.85 282.46 521.64 283.61 522.44 284.76 C 519.54 288.79 516.29 292.59 514.10 297.08 C 510.73 303.49 505.75 308.81 502.00 314.97 C 503.89 320.29 505.47 325.72 506.92 331.19 C 508.44 338.05 513.82 342.96 517.32 348.81 C 518.20 350.67 519.97 351.56 521.93 351.88 C 534.36 360.22 546.90 368.49 560.00 375.78 C 566.88 369.91 571.11 361.76 577.30 355.24 C 584.06 345.44 591.48 336.11 598.38 326.40 C 603.83 320.51 608.88 314.27 614.20 308.26 C 619.32 302.99 623.87 297.21 629.20 292.14 C 632.08 286.77 633.82 280.25 639.47 276.94 C 640.70 276.25 641.93 275.54 643.14 274.80 C 638.13 275.09 633.23 277.35 628.18 276.10 C 623.34 275.45 619.27 272.57 615.66 269.48 C 612.09 264.61 609.64 258.97 608.86 252.96 C 607.64 240.00 609.16 226.31 616.11 215.03 C 607.43 214.06 597.76 214.14 590.56 208.47 C 584.42 204.44 578.30 197.80 579.41 189.89 C 580.15 186.96 582.91 185.17 584.81 183.00 C 583.78 182.38 582.76 181.76 581.74 181.14 C 581.33 174.41 579.99 167.54 581.56 160.87 C 582.26 158.46 581.38 156.03 581.12 153.63 C 584.10 152.97 587.08 152.30 590.09 151.77 C 600.53 151.03 611.72 148.82 621.60 153.53 C 623.68 154.82 626.03 155.39 628.48 155.42 C 624.51 147.18 620.86 138.44 620.49 129.19 C 628.20 131.64 633.28 138.41 639.38 143.33 C 644.40 137.36 646.70 129.69 651.42 123.53 C 654.50 118.88 658.99 115.40 663.58 112.33 C 665.78 110.67 668.61 111.06 671.19 111.22 C 671.51 111.92 672.14 113.32 672.46 114.02 C 669.36 121.73 665.79 129.27 663.61 137.32 C 667.09 135.31 670.70 133.52 674.16 131.47 C 679.43 129.65 685.74 126.26 690.93 130.06 C 689.99 133.50 688.28 136.63 686.49 139.69 C 691.76 138.62 697.09 137.98 702.43 137.35 C 703.58 137.88 704.76 138.41 705.93 138.95 C 705.89 139.67 705.80 141.12 705.76 141.84 C 703.56 143.19 701.49 144.75 699.51 146.41 C 701.39 147.16 703.27 147.93 705.17 148.66 C 706.95 153.62 704.00 158.50 702.70 163.21 C 708.52 169.69 711.65 178.44 711.18 187.14 C 710.82 193.17 707.28 198.26 703.96 203.06 C 702.16 204.25 700.38 205.45 698.62 206.68 C 696.68 206.69 694.74 206.69 692.81 206.71 C 690.91 215.20 688.10 223.47 684.94 231.56 C 688.67 230.10 693.51 228.80 696.73 232.01 C 697.05 234.88 697.50 237.74 697.85 240.62 C 708.09 238.22 718.12 235.06 728.42 232.93 C 740.03 230.69 751.18 226.43 762.93 224.82 C 771.05 223.63 778.96 221.35 787.08 220.19 C 796.72 218.81 806.13 215.44 815.97 215.80 C 825.29 216.26 834.60 213.06 843.84 215.32 C 844.39 216.15 844.97 216.97 845.55 217.80 C 844.93 237.86 840.86 257.61 835.68 276.94 C 832.45 294.26 826.74 311.07 824.16 328.51 C 826.59 330.22 828.23 332.66 828.24 335.71 C 826.44 335.66 824.66 335.54 822.89 335.28 C 822.61 336.55 822.36 337.84 822.10 339.12 C 824.95 339.60 827.49 341.04 829.60 343.01 C 829.34 343.75 828.83 345.21 828.57 345.95 C 828.11 346.11 827.19 346.43 826.73 346.59 C 824.41 346.22 822.08 345.90 819.77 345.60 C 821.14 354.10 820.68 362.77 819.20 371.22 C 818.21 374.93 816.11 378.29 815.43 382.10 C 818.61 386.62 822.65 390.52 825.48 395.32 C 827.76 400.01 830.98 404.21 832.78 409.14 C 836.13 418.51 840.09 427.69 842.72 437.30 C 843.85 441.12 841.23 444.35 839.32 447.37 C 836.47 449.49 833.68 451.70 831.02 454.07 C 831.66 456.98 832.26 459.90 832.80 462.84 C 837.06 463.36 840.88 461.06 844.57 459.30 C 850.60 456.37 854.98 451.14 859.44 446.33 C 865.19 438.51 868.22 428.78 867.88 419.08 C 859.31 415.48 850.38 408.10 850.58 397.99 C 850.17 390.93 855.46 385.60 859.35 380.35 C 865.21 372.78 869.40 362.73 866.42 353.14 C 863.21 351.71 863.24 348.13 862.55 345.19 C 867.99 343.56 871.99 338.68 877.82 338.19 C 886.28 337.40 894.80 340.24 901.44 345.47 C 908.33 350.33 912.22 358.13 914.89 365.91 C 917.44 371.98 916.16 378.66 916.48 385.04 C 916.77 389.61 915.05 393.91 913.64 398.16 C 911.78 405.01 910.32 412.23 906.09 418.09 C 900.93 424.44 891.74 425.03 884.19 424.38 C 885.00 431.59 884.66 439.12 881.92 445.91 C 879.01 452.58 876.37 459.77 870.50 464.47 C 863.19 472.26 853.31 477.08 843.03 479.53 C 840.10 480.08 837.13 479.45 834.21 479.23 C 832.97 484.68 831.63 490.11 830.18 495.51 C 826.06 498.79 821.04 500.59 816.00 501.85 C 811.25 502.98 806.19 502.82 801.63 504.65 C 800.67 507.64 800.86 510.90 800.37 514.00 L 795.08 514.00 C 795.18 511.23 795.36 508.46 795.48 505.70 C 790.77 505.49 786.11 506.18 781.44 506.63 C 781.10 509.07 780.86 511.53 780.71 514.00 L 774.82 514.00 C 774.94 511.27 775.14 508.55 775.36 505.84 C 768.27 505.75 761.19 504.73 754.60 502.06 C 754.65 503.63 754.72 505.21 754.80 506.80 C 756.48 507.99 758.08 509.29 759.57 510.74 C 759.21 511.32 758.50 512.48 758.14 513.05 C 756.94 513.37 755.75 513.68 754.56 514.00 L 744.04 514.00 C 735.03 512.35 726.44 508.97 717.34 507.74 C 717.46 508.43 717.68 509.80 717.80 510.49 C 717.62 509.93 717.27 508.81 717.09 508.26 C 715.35 507.75 713.63 507.24 711.91 506.73 C 707.08 508.36 702.13 510.09 698.63 514.00 L 690.80 514.00 C 693.88 509.58 697.94 506.03 702.90 503.85 C 695.22 502.18 688.52 498.02 681.79 494.19 C 676.80 491.14 672.45 487.19 667.61 483.94 C 659.00 493.03 650.14 502.40 645.04 514.00 L 638.10 514.00 C 641.21 507.73 644.00 501.11 649.11 496.13 C 653.32 490.68 658.27 485.89 662.92 480.85 C 662.24 478.45 659.33 477.38 657.58 475.76 C 645.30 485.61 636.15 499.17 631.05 514.00 L 624.37 514.00 C 624.34 508.66 623.87 503.26 624.88 497.97 C 625.99 491.39 626.84 484.67 626.03 478.00 C 625.74 475.24 625.76 472.47 625.73 469.71 C 608.85 472.35 591.81 468.30 574.91 470.36 C 565.93 470.94 556.90 469.91 547.97 471.17 C 540.96 471.10 533.99 472.40 526.99 471.82 C 516.31 471.00 505.70 473.15 495.02 472.77 C 486.31 472.47 477.66 473.84 468.98 474.31 C 463.30 474.58 457.69 473.27 452.01 473.50 C 444.66 473.28 437.36 474.28 430.06 474.90 C 422.35 475.40 414.54 474.33 406.94 476.02 C 396.36 477.36 385.63 475.79 375.03 476.84 C 369.30 478.08 363.42 477.95 357.61 478.50 C 355.97 490.28 357.42 502.21 355.81 514.00 L 349.88 514.00 C 351.23 507.06 350.29 499.96 351.32 493.00 C 351.52 488.03 351.54 483.05 352.42 478.14 C 342.49 477.08 332.10 478.17 322.67 474.22 C 322.19 472.51 321.56 470.82 321.53 469.02 C 321.26 459.76 322.00 450.51 322.81 441.29 C 329.52 442.04 336.30 441.78 343.02 441.26 C 351.96 440.03 361.01 440.81 370.01 440.59 C 378.04 440.19 385.98 441.79 394.01 441.34 C 411.26 442.52 428.54 444.45 445.85 443.21 C 449.22 442.69 452.57 441.92 456.01 442.08 C 463.37 442.38 470.62 440.77 477.96 440.57 C 490.68 440.82 503.37 439.73 516.06 439.11 C 519.45 439.15 522.83 438.76 526.18 438.21 C 507.13 426.99 488.23 414.40 474.16 397.09 C 477.83 392.53 481.43 387.91 485.92 384.13 C 481.13 377.49 477.92 369.90 473.69 362.93 C 466.09 370.83 461.90 381.27 454.10 389.01 C 449.29 394.88 443.24 399.57 438.51 405.51 C 430.52 413.86 422.02 421.80 412.51 428.38 C 403.17 436.89 390.08 440.73 377.60 439.73 C 373.42 438.76 369.25 437.54 365.56 435.31 C 354.27 428.39 343.52 420.31 334.94 410.16 C 330.16 405.83 326.50 400.53 322.44 395.57 C 317.32 389.73 313.79 382.74 309.79 376.14 C 304.87 369.77 301.49 362.40 297.74 355.32 C 296.67 366.74 295.24 378.29 290.91 389.01 C 287.89 397.93 283.73 406.50 277.79 413.85 C 271.09 421.42 264.42 429.33 255.55 434.45 C 250.31 437.35 244.81 439.78 239.75 443.00 C 249.71 445.41 259.43 448.79 268.47 453.64 C 278.45 457.89 286.81 464.90 295.12 471.71 C 299.71 475.51 303.19 480.40 306.73 485.15 C 312.70 494.36 318.63 503.73 322.60 514.00 L 317.03 514.00 C 309.82 500.17 302.89 485.47 290.64 475.30 C 283.71 469.78 276.81 464.00 268.68 460.30 C 262.26 457.39 256.08 453.81 249.20 452.07 C 243.66 449.91 237.94 448.18 232.05 447.35 C 228.61 446.90 225.33 448.17 222.08 449.08 C 228.45 451.94 235.32 453.51 241.59 456.61 C 246.71 458.79 251.23 462.08 255.98 464.93 C 267.71 472.26 276.95 483.11 283.78 495.04 C 286.48 501.21 288.96 507.49 290.75 514.00 L 284.81 514.00 C 281.73 502.46 277.10 490.90 268.36 482.47 C 264.86 479.66 261.97 476.22 258.61 473.28 C 254.80 470.27 250.36 468.19 246.42 465.37 C 243.81 463.48 240.77 461.89 237.43 462.28 C 237.85 462.91 238.30 463.54 238.78 464.15 C 239.27 468.34 241.18 472.65 239.61 476.82 C 238.75 479.88 238.27 483.04 238.14 486.22 C 228.31 492.77 216.66 496.17 205.04 497.73 C 200.69 498.72 196.26 499.22 191.79 499.04 C 191.87 504.03 191.46 509.08 192.56 514.00 L 186.61 514.00 C 186.63 509.23 186.88 504.42 185.87 499.73 C 181.04 499.76 176.22 499.84 171.41 499.51 C 170.56 504.30 171.13 509.20 170.38 514.00 L 165.35 514.00 C 165.38 508.94 166.23 503.77 165.32 498.77 C 161.29 497.49 157.01 497.55 152.91 496.63 C 144.93 495.29 137.38 492.18 130.13 488.71 C 126.88 487.16 126.08 483.30 124.98 480.22 C 118.64 480.68 112.27 480.54 105.94 480.07 C 93.68 478.31 81.70 471.72 74.91 461.16 C 72.05 455.74 71.22 449.54 70.10 443.58 C 69.28 440.01 70.30 436.42 70.66 432.87 C 65.69 431.70 60.52 430.76 56.19 427.89 C 54.13 426.51 51.37 425.53 50.56 422.95 C 47.88 416.35 46.57 409.27 46.09 402.18 C 46.45 393.66 47.59 385.02 51.25 377.24 C 53.91 372.31 57.59 368.01 59.95 362.91 C 61.65 359.06 64.27 355.76 66.82 352.46 C 72.14 351.23 77.62 351.50 83.01 350.81 C 86.73 350.40 90.34 351.56 93.97 352.14 C 99.71 352.96 104.62 356.30 109.32 359.48 C 110.61 361.59 111.87 363.72 113.25 365.78 C 114.29 373.55 110.06 380.48 109.14 388.00 C 107.97 393.64 108.71 399.42 108.11 405.12 C 108.56 408.05 108.61 411.03 108.63 413.99 C 110.14 419.38 113.73 423.79 115.75 428.94 C 112.34 430.95 108.97 433.20 105.09 434.21 C 100.19 435.08 95.21 435.40 90.24 435.38 C 88.66 445.53 96.08 454.74 104.76 459.00 C 110.42 461.59 117.39 463.01 123.26 460.36 C 124.67 447.29 128.69 434.02 137.59 424.04 C 136.04 421.95 134.37 419.93 133.20 417.59 C 128.42 408.11 125.09 397.90 123.38 387.42 C 120.73 377.48 121.37 367.12 121.54 356.95 C 122.24 347.29 123.05 337.51 126.21 328.29 C 129.32 320.48 133.48 313.05 138.61 306.38 C 144.34 299.26 149.93 291.87 157.16 286.18 C 164.41 279.31 173.73 275.34 182.44 270.72 C 190.91 266.08 200.40 263.65 209.92 262.44 C 218.94 262.39 227.94 261.72 236.94 261.12 C 242.29 260.03 247.76 259.85 253.17 259.21 C 252.46 257.54 251.76 255.81 250.52 254.46 C 245.34 248.86 242.36 241.74 238.60 235.21 C 232.60 221.75 230.16 206.69 231.56 192.03 C 231.53 182.38 235.91 173.48 239.92 164.95 C 246.25 154.66 253.50 144.33 264.02 137.94 C 276.50 127.86 292.50 123.89 307.96 121.08 C 315.46 120.44 322.97 119.91 330.50 119.64 C 324.78 116.06 320.44 110.70 317.32 104.78 C 315.13 100.11 314.14 95.01 312.73 90.08 C 311.71 83.78 311.54 77.39 311.88 71.02 C 312.55 65.17 312.48 59.17 314.48 53.56 C 317.21 46.16 320.74 38.97 325.71 32.80 C 325.60 32.07 325.38 30.60 325.27 29.86 M 329.21 35.85 C 326.06 39.11 324.18 43.27 322.32 47.33 C 317.05 57.69 316.51 69.66 317.07 81.05 C 317.83 87.53 319.59 93.85 321.30 100.13 C 324.21 107.48 329.20 114.03 335.70 118.58 C 337.53 118.35 339.36 118.03 341.18 117.66 C 339.96 114.98 338.39 112.50 336.85 110.00 C 333.00 102.59 331.82 94.20 331.34 85.97 C 331.93 77.46 334.54 69.31 337.58 61.40 C 340.72 54.52 345.04 48.32 349.57 42.30 C 342.53 41.00 336.13 37.60 329.21 35.85 M 396.62 54.43 C 395.49 58.85 395.47 63.48 394.19 67.87 C 391.11 79.12 385.36 89.81 376.89 97.91 C 373.34 102.02 369.25 105.57 365.15 109.12 C 357.90 113.98 350.72 119.09 342.71 122.67 C 339.91 123.93 336.82 124.05 333.85 124.57 C 337.22 124.93 340.64 125.08 344.01 124.60 C 348.65 123.97 353.39 124.98 357.99 123.96 C 365.69 122.29 373.55 120.47 380.23 116.10 C 387.94 111.48 396.31 107.18 401.90 99.93 C 405.67 96.00 409.50 92.01 412.25 87.28 C 415.75 79.63 417.24 71.30 419.94 63.37 C 417.38 62.57 414.84 61.73 412.30 60.86 C 406.89 59.20 401.74 56.80 396.62 54.43 M 342.08 65.38 C 341.42 67.71 340.70 70.01 340.01 72.32 C 345.57 73.95 350.24 77.85 356.03 78.75 L 354.33 78.23 C 354.43 77.46 354.64 75.93 354.74 75.17 C 355.24 73.90 355.67 72.61 356.12 71.33 C 351.14 70.02 347.03 66.66 342.08 65.38 M 359.62 81.00 C 365.43 83.61 371.07 86.58 377.00 88.92 C 378.61 87.19 380.11 85.37 381.59 83.53 C 374.95 80.54 368.49 77.13 361.70 74.48 C 359.80 76.18 359.42 78.56 359.62 81.00 M 338.19 77.96 C 335.57 90.63 337.69 104.34 345.09 115.09 C 355.69 108.86 366.14 101.99 374.08 92.44 C 362.54 87.55 351.17 82.23 339.83 76.90 C 339.42 77.16 338.60 77.69 338.19 77.96 M 654.71 126.81 C 650.33 131.59 648.95 138.12 645.40 143.41 C 644.35 144.95 643.83 146.73 643.36 148.51 C 642.91 148.87 642.03 149.61 641.59 149.98 C 635.77 146.16 631.43 140.48 625.70 136.49 C 627.07 143.27 629.41 150.10 633.83 155.54 C 635.14 154.93 636.49 154.34 637.81 153.71 C 643.57 153.07 649.18 151.20 655.03 151.30 C 662.35 151.35 669.71 151.10 676.96 152.38 C 678.85 153.55 680.88 154.58 683.14 154.80 C 688.70 155.40 694.12 156.90 699.68 157.55 C 700.11 156.05 700.58 154.56 701.02 153.06 C 698.82 153.54 696.72 154.33 694.73 155.34 C 693.39 154.42 692.11 153.41 690.89 152.34 C 691.96 149.18 693.04 145.96 695.10 143.27 C 691.01 144.07 687.09 145.62 682.96 146.18 C 680.71 146.76 679.66 144.53 678.64 143.04 C 680.28 140.00 682.13 137.09 683.95 134.15 C 681.85 134.16 679.77 134.51 677.89 135.47 C 671.90 138.15 665.29 141.11 661.94 147.10 C 660.97 147.57 660.00 148.04 659.04 148.51 C 658.17 147.39 657.30 146.28 656.44 145.16 C 658.65 135.65 662.25 126.56 665.71 117.45 C 660.93 118.92 657.99 123.33 654.71 126.81 M 305.08 127.05 C 301.34 128.04 297.53 128.76 293.81 129.85 C 290.42 131.09 286.74 131.59 283.60 133.48 C 280.04 135.55 276.30 137.27 272.50 138.82 C 264.51 144.17 257.03 150.50 251.53 158.47 C 248.29 162.88 245.32 167.48 243.23 172.57 C 241.36 176.44 240.06 180.56 238.79 184.66 C 237.10 190.30 237.61 196.23 237.52 202.04 C 237.43 212.55 239.70 223.00 243.91 232.62 C 247.79 240.24 251.39 248.20 257.47 254.38 C 258.43 256.67 259.43 258.95 260.41 261.23 C 262.12 262.53 263.61 264.31 265.79 264.81 C 265.55 264.38 265.06 263.53 264.81 263.10 C 264.29 259.88 263.04 256.85 261.78 253.86 C 259.73 243.67 257.17 233.56 256.09 223.20 C 253.97 209.84 257.75 196.66 260.86 183.80 C 265.17 172.23 269.83 160.52 277.58 150.74 C 281.11 147.22 283.85 142.86 288.09 140.10 C 292.46 137.21 296.40 133.68 301.06 131.26 C 304.73 129.26 308.68 127.89 312.63 126.57 C 310.10 126.55 307.55 126.44 305.08 127.05 M 332.41 130.80 C 325.08 131.41 317.45 130.57 310.54 133.69 C 322.85 139.93 334.98 146.59 347.55 152.32 C 346.89 148.52 347.01 144.62 346.10 140.85 C 345.20 137.51 344.46 133.78 342.04 131.21 C 338.83 131.03 335.60 131.19 332.41 130.80 M 300.82 139.62 C 306.10 142.73 311.74 145.14 317.25 147.82 C 317.71 147.73 318.64 147.55 319.10 147.46 C 319.56 146.22 320.03 144.97 320.51 143.74 C 315.66 141.02 310.40 139.06 305.74 136.02 C 303.58 136.39 301.20 137.12 300.82 139.62 M 353.40 160.23 C 352.14 168.69 351.49 177.27 349.28 185.56 C 348.21 188.39 347.17 191.38 348.54 194.32 C 347.63 194.82 346.73 195.32 345.84 195.83 C 343.49 201.35 340.40 206.52 338.00 212.02 C 331.92 221.90 324.19 230.75 315.36 238.26 C 308.20 244.51 299.41 248.34 291.24 253.04 C 284.62 256.28 277.33 257.49 270.30 259.48 C 270.78 260.39 271.24 261.30 271.72 262.22 C 273.83 262.33 275.92 262.59 277.99 262.98 C 284.87 260.73 291.76 258.46 298.80 256.78 C 305.62 255.69 311.83 252.53 318.39 250.48 C 326.36 247.91 332.87 242.51 339.33 237.38 C 341.79 235.17 343.76 232.51 345.94 230.03 C 359.00 212.03 364.24 188.93 361.79 166.96 C 360.48 157.29 356.38 148.32 352.20 139.60 C 352.59 146.47 354.42 153.33 353.40 160.23 M 287.32 148.82 C 306.43 158.18 325.31 168.00 344.47 177.24 C 345.35 174.07 345.94 170.72 345.60 167.43 C 329.49 158.38 312.47 150.97 296.21 142.17 C 292.83 143.75 290.01 146.27 287.32 148.82 M 323.72 151.03 C 331.26 155.39 339.19 159.06 347.01 162.91 C 347.05 161.18 347.10 159.45 347.15 157.73 C 341.24 154.17 335.10 151.00 328.93 147.92 C 326.92 147.04 323.00 148.28 323.72 151.03 M 279.85 158.21 C 288.85 161.78 296.87 167.41 306.10 170.41 C 306.73 168.34 307.48 166.31 308.25 164.29 C 301.32 160.62 294.17 157.38 287.20 153.82 C 286.09 153.45 285.00 153.08 283.90 152.70 C 282.48 154.49 281.05 156.27 279.85 158.21 M 592.26 159.71 C 591.30 166.18 592.03 172.76 592.37 179.26 C 600.88 176.08 610.12 176.31 618.96 177.74 C 618.85 171.39 617.90 165.09 618.24 158.71 C 609.62 159.73 600.94 159.44 592.26 159.71 M 642.11 161.87 C 643.02 166.61 642.86 171.36 642.43 176.14 C 642.40 180.16 643.06 184.14 643.85 188.07 C 649.58 188.16 655.37 188.18 660.96 186.71 C 664.17 186.60 667.44 186.66 670.53 185.60 C 670.93 182.06 671.85 178.59 672.17 175.03 C 671.80 169.83 670.75 164.71 669.33 159.70 C 664.57 159.86 659.81 159.24 655.06 159.71 C 651.19 162.17 646.49 161.91 642.11 161.87 M 273.24 169.28 C 275.48 170.09 277.68 171.02 279.78 172.17 C 289.43 177.32 299.19 182.24 309.09 186.90 C 318.23 191.24 327.27 195.79 336.24 200.46 C 337.83 197.86 339.38 195.16 339.94 192.13 C 318.93 182.11 298.22 171.47 277.08 161.73 C 275.76 164.23 274.52 166.76 273.24 169.28 M 628.74 166.56 C 628.79 172.59 627.87 178.65 628.68 184.65 C 626.85 187.55 623.46 184.13 620.96 183.97 C 613.91 181.80 606.33 182.80 599.14 183.74 C 593.89 185.55 588.32 187.59 584.72 192.07 C 584.49 198.73 590.73 203.08 596.12 205.63 C 603.76 208.53 612.11 208.66 620.17 208.16 C 625.65 207.22 629.43 202.98 634.04 200.30 C 635.19 201.66 637.27 203.25 635.95 205.26 C 632.56 209.54 628.05 212.85 623.03 214.98 C 617.92 221.52 615.31 229.75 614.25 237.90 C 613.50 240.57 613.60 243.40 614.26 246.08 C 614.16 246.50 613.95 247.34 613.84 247.76 C 614.49 251.34 613.97 255.17 615.70 258.49 C 617.85 263.10 620.55 268.41 625.97 269.65 C 630.36 269.80 634.99 270.25 639.13 268.41 C 645.63 265.57 651.70 261.81 657.29 257.44 C 658.37 258.21 659.46 259.00 660.54 259.78 C 658.26 264.49 654.30 267.76 649.95 270.46 C 653.13 270.68 656.44 270.30 659.08 268.36 C 660.57 268.29 662.06 268.24 663.57 268.20 C 666.24 257.66 668.68 246.51 676.13 238.14 C 679.66 229.50 683.39 220.85 685.94 211.84 C 686.74 209.33 687.29 206.75 687.73 204.16 C 686.27 203.26 684.80 202.40 683.51 201.28 C 683.11 198.42 683.98 194.49 687.44 194.14 C 687.99 195.56 688.53 196.99 688.97 198.45 C 690.91 199.67 692.94 200.74 694.98 201.81 C 700.63 199.57 703.08 193.44 705.28 188.22 C 705.61 182.31 704.30 176.34 701.55 171.11 C 700.84 169.60 699.08 169.08 697.81 168.22 C 693.97 171.09 691.63 175.73 691.54 180.52 C 690.17 181.01 688.74 180.94 687.35 180.68 C 684.74 175.85 688.32 170.73 690.31 166.36 C 687.51 166.34 684.72 166.31 681.93 166.33 C 682.67 172.24 681.51 178.16 682.06 184.07 C 682.52 186.27 683.35 188.37 683.68 190.60 C 680.13 192.61 676.18 194.27 672.03 194.13 C 665.66 193.85 659.43 195.74 653.06 195.58 C 648.84 195.76 644.72 194.62 640.50 194.73 C 638.24 194.13 636.14 193.10 634.68 191.22 C 634.69 190.57 634.69 189.26 634.69 188.61 C 632.99 184.63 632.42 180.27 632.45 175.98 C 632.47 172.60 632.13 169.12 633.26 165.87 C 632.99 165.81 632.46 165.68 632.20 165.62 C 631.04 165.94 629.88 166.25 628.74 166.56 M 312.83 167.78 C 311.83 169.12 309.18 171.10 310.97 172.77 C 319.18 177.47 327.72 181.58 336.19 185.78 C 338.08 186.83 340.00 188.31 342.29 187.60 C 342.62 185.67 343.10 183.78 343.40 181.86 C 334.51 176.96 325.26 172.70 316.19 168.11 C 315.17 167.78 313.64 166.47 312.83 167.78 M 269.85 178.55 C 278.98 182.25 287.26 187.77 296.31 191.68 C 296.84 189.95 297.37 188.21 297.86 186.46 C 289.35 181.95 280.68 177.74 271.85 173.90 C 271.18 175.45 270.49 176.99 269.85 178.55 M 267.96 183.25 C 266.60 186.08 265.37 189.03 265.11 192.19 C 264.92 192.45 264.55 192.95 264.36 193.20 C 270.97 197.31 278.49 199.60 285.07 203.74 C 287.11 204.92 289.41 206.26 291.86 205.45 C 294.14 207.68 296.95 209.22 299.52 211.07 C 307.58 213.84 314.71 219.01 322.80 221.54 C 325.19 218.88 327.76 216.28 329.42 213.07 C 322.53 208.86 315.08 205.64 307.85 202.06 C 294.69 195.51 281.66 188.57 267.96 183.25 M 301.04 191.14 C 301.21 192.16 301.42 193.17 301.68 194.18 C 305.29 196.48 309.60 197.42 313.19 199.79 C 317.58 202.65 322.80 203.86 327.16 206.79 C 328.91 207.99 331.79 209.43 333.38 207.26 C 333.68 206.25 334.38 204.53 332.88 204.09 C 323.44 198.82 313.73 194.01 303.92 189.48 C 302.87 189.85 301.98 190.57 301.04 191.14 M 263.44 198.05 C 262.93 200.36 262.53 202.69 262.24 205.04 C 269.73 208.02 276.52 212.46 284.07 215.31 C 284.11 214.56 284.19 213.07 284.23 212.32 C 284.83 211.16 285.42 210.00 286.00 208.84 C 278.44 205.33 271.26 200.95 263.44 198.05 M 262.31 209.95 C 262.24 213.59 262.30 217.22 262.23 220.86 C 266.68 223.14 271.30 225.08 275.73 227.41 C 277.71 228.63 280.05 228.58 282.29 228.67 C 284.24 232.63 289.12 233.27 292.69 235.20 C 295.81 236.48 298.67 238.52 302.00 239.18 C 305.57 237.94 308.08 234.87 311.12 232.75 C 298.89 227.14 286.87 221.12 274.62 215.54 C 270.42 213.88 266.68 211.19 262.31 209.95 M 288.43 214.60 C 288.45 215.39 288.49 216.95 288.50 217.73 C 293.51 219.94 298.30 222.61 303.34 224.76 C 303.37 224.77 303.43 224.80 303.46 224.82 L 304.29 225.21 C 307.69 226.88 311.19 228.35 314.62 229.96 C 316.09 228.43 317.67 226.98 318.81 225.18 C 310.18 219.96 300.62 216.48 291.77 211.67 C 290.63 212.63 289.53 213.61 288.43 214.60 M 816.98 221.77 C 807.46 221.00 798.40 224.69 789.10 226.04 C 784.68 226.68 780.27 227.34 775.93 228.37 C 766.94 230.37 757.70 231.25 748.90 234.04 C 739.33 236.51 729.77 239.01 720.07 240.93 C 716.49 242.13 712.89 243.29 709.19 244.07 C 705.26 244.57 701.71 246.71 697.70 246.68 C 696.09 245.55 694.30 244.69 692.77 243.46 C 690.66 241.45 691.84 238.26 691.45 235.68 C 687.16 237.78 681.86 238.76 679.06 243.00 C 673.25 250.62 671.74 260.30 669.08 269.26 C 666.83 280.03 665.20 290.98 665.49 302.02 C 665.02 309.45 666.24 316.94 669.09 323.82 C 669.60 325.54 670.81 327.16 670.67 329.02 C 670.57 331.06 667.27 330.98 666.31 329.78 C 662.15 325.56 659.60 320.13 657.13 314.83 C 654.65 311.03 652.80 306.89 650.90 302.80 C 647.46 296.07 645.97 288.50 642.27 281.89 C 639.29 285.28 637.39 289.30 635.77 293.46 C 635.57 294.07 635.19 295.30 634.99 295.91 C 631.32 298.94 627.36 301.73 624.98 305.97 C 618.88 311.62 613.96 318.32 608.44 324.48 C 603.04 329.59 599.15 335.95 594.95 342.01 C 590.85 346.95 586.36 351.67 583.34 357.40 C 579.81 361.58 576.30 365.81 573.28 370.38 C 570.09 374.27 565.94 377.52 563.92 382.25 C 563.19 382.17 561.72 382.01 560.98 381.93 C 546.67 375.88 535.37 364.75 521.48 357.93 C 518.40 360.35 515.89 363.37 513.17 366.17 C 508.05 371.77 501.37 375.69 496.52 381.57 C 492.00 387.16 486.40 391.72 481.59 397.04 C 485.40 400.98 488.64 405.52 493.08 408.80 C 497.49 412.50 501.72 416.48 506.66 419.51 C 517.07 426.20 527.15 433.85 539.14 437.49 C 542.45 437.69 545.77 437.56 549.08 437.43 C 554.65 437.51 558.69 433.07 563.15 430.38 C 572.45 422.91 582.51 416.34 590.90 407.80 C 597.11 403.47 602.11 397.79 607.46 392.51 C 613.06 385.45 619.40 379.03 625.09 372.04 C 631.25 365.43 636.41 357.97 642.49 351.28 C 641.13 347.60 639.79 343.90 638.90 340.07 C 637.60 331.57 635.61 323.08 636.32 314.41 C 638.13 314.60 639.90 315.02 641.66 315.53 C 642.80 320.25 641.64 325.22 643.16 329.90 C 644.62 341.20 648.53 352.09 653.77 362.17 C 655.44 366.06 656.74 370.21 659.53 373.50 C 663.56 378.19 667.17 383.21 671.06 388.01 C 676.61 394.09 682.84 399.50 689.13 404.81 C 693.07 408.18 697.88 410.22 702.37 412.71 C 704.04 413.53 703.64 415.46 703.24 416.91 C 697.77 419.80 692.73 423.43 687.44 426.61 C 681.49 431.22 676.45 436.85 671.02 442.03 C 667.90 444.99 665.72 448.73 663.09 452.09 C 659.67 456.27 656.13 460.61 654.71 465.95 C 664.75 474.07 675.03 481.88 685.45 489.49 C 689.75 492.21 694.27 494.65 699.02 496.49 C 706.47 498.73 713.84 501.38 721.57 502.54 C 725.45 503.30 729.43 503.69 733.19 505.04 C 738.14 506.91 743.48 507.23 748.70 507.72 C 748.27 498.00 749.74 488.32 751.84 478.86 C 753.49 473.50 755.85 468.41 757.90 463.20 C 759.36 459.19 762.99 456.69 766.45 454.51 C 781.99 450.92 798.04 453.43 813.80 452.31 C 822.03 450.72 831.19 448.68 836.50 441.58 C 836.63 439.36 836.63 437.09 835.99 434.96 C 833.07 425.46 829.14 416.31 825.53 407.07 C 821.41 399.32 816.61 391.78 810.32 385.60 C 808.31 383.58 808.22 380.55 807.01 378.09 C 803.79 368.41 802.14 358.19 797.93 348.84 C 796.24 344.18 791.11 342.52 787.95 339.08 C 785.37 344.25 781.94 349.32 776.96 352.41 C 772.33 353.95 767.59 350.94 764.60 347.54 C 763.29 345.28 762.30 342.69 763.16 340.07 C 764.98 332.98 768.42 326.13 773.55 320.84 C 769.65 313.80 765.55 306.76 760.09 300.80 C 755.23 294.92 749.82 289.27 743.12 285.49 C 740.84 285.79 738.82 285.23 737.29 283.48 C 737.40 282.28 737.53 281.09 737.69 279.91 C 746.04 276.59 754.46 273.46 762.87 270.30 C 768.62 268.49 774.52 267.12 780.15 264.90 C 784.24 264.22 788.21 262.91 792.00 261.24 C 793.42 260.32 795.03 261.10 796.47 261.49 C 796.99 262.91 797.37 264.38 797.43 265.91 C 795.75 269.38 794.88 273.15 793.86 276.85 C 791.45 283.40 789.09 289.96 786.43 296.42 C 785.20 299.15 783.05 301.54 782.89 304.66 C 793.98 312.54 807.46 316.30 818.27 324.59 C 820.76 312.27 824.20 300.17 826.81 287.88 C 830.52 274.71 832.76 261.20 836.18 247.96 C 837.22 238.76 839.21 229.61 838.80 220.29 C 831.50 220.39 824.30 222.14 816.98 221.77 M 263.10 225.95 C 263.42 228.51 263.13 231.41 264.32 233.72 C 266.58 234.65 268.89 235.46 271.13 236.45 C 271.89 235.05 272.67 233.65 273.50 232.30 C 273.57 231.86 273.71 231.00 273.78 230.56 C 271.86 229.75 269.93 228.96 268.02 228.15 C 266.54 227.08 264.88 226.33 263.10 225.95 M 276.49 236.55 C 276.44 237.44 276.39 238.33 276.35 239.23 C 281.27 241.53 286.36 243.47 291.13 246.07 C 293.41 244.99 295.57 243.67 297.59 242.14 C 291.79 239.23 285.97 236.37 280.11 233.59 C 278.90 234.58 277.70 235.57 276.49 236.55 M 265.06 238.51 C 265.85 243.49 266.66 248.72 268.63 253.33 C 274.68 252.75 280.88 251.20 286.11 248.02 C 279.16 244.71 272.15 241.50 265.06 238.51 M 234.93 266.88 C 232.32 267.50 229.64 267.63 226.98 267.94 C 225.54 267.75 224.07 267.52 222.63 267.77 C 217.08 268.78 211.35 267.59 205.87 269.12 C 198.86 270.19 192.13 272.59 185.86 275.89 C 177.69 280.16 169.24 284.19 162.20 290.26 C 157.51 294.18 153.22 298.59 149.47 303.43 C 140.61 313.74 132.73 325.49 130.09 339.04 C 128.92 346.66 128.31 354.35 127.90 362.04 C 127.21 367.02 128.37 371.98 128.15 376.97 C 127.98 381.03 129.21 384.93 130.19 388.82 C 130.87 395.89 133.66 402.47 135.92 409.13 C 137.94 412.76 139.21 416.80 141.79 420.10 C 144.54 423.69 147.41 427.21 150.56 430.45 C 154.45 433.96 159.17 436.57 164.21 437.99 C 161.35 434.69 157.34 432.59 154.77 429.03 C 152.47 425.93 150.22 422.78 148.34 419.41 C 145.69 414.32 146.06 408.42 144.77 402.97 C 144.63 394.29 144.14 385.60 144.80 376.94 C 146.21 370.34 146.08 363.51 147.85 356.96 C 150.21 347.66 153.97 338.82 158.51 330.39 C 162.03 321.91 168.21 315.02 173.86 307.92 C 178.75 301.42 185.63 296.92 191.48 291.39 C 196.55 286.54 202.79 283.22 208.59 279.35 C 217.67 272.76 229.00 270.76 239.27 266.79 C 237.82 266.77 236.37 266.78 234.93 266.88 M 266.08 266.21 C 265.61 267.61 266.07 268.17 267.45 267.89 C 267.91 266.49 267.45 265.93 266.08 266.21 M 748.84 281.98 C 750.77 284.14 753.37 285.50 755.49 287.45 C 762.37 294.25 769.38 301.22 773.94 309.87 C 777.08 301.27 782.25 293.58 784.83 284.75 C 786.43 279.23 789.25 274.13 790.21 268.41 C 776.21 272.24 762.27 276.42 748.84 281.98 M 248.44 271.51 C 238.39 273.27 228.74 276.72 219.23 280.35 C 228.57 286.07 238.53 290.72 248.23 295.78 C 256.08 300.19 264.18 304.10 272.16 308.25 C 271.66 299.19 269.06 290.46 267.08 281.67 C 265.54 277.31 264.50 272.60 261.35 269.04 C 257.11 270.19 252.66 270.26 248.44 271.51 M 474.35 292.79 C 475.35 295.11 477.12 297.47 476.47 300.13 C 475.42 302.93 473.76 305.57 471.34 307.38 C 469.86 308.72 467.50 309.61 467.59 311.97 C 467.30 314.79 465.28 316.87 463.74 319.10 C 463.83 321.49 463.43 323.86 463.10 326.22 C 460.48 328.91 457.69 331.48 455.71 334.69 C 449.22 343.15 441.14 350.31 435.03 359.07 C 431.95 362.99 428.03 366.17 425.29 370.38 C 420.63 374.35 416.71 379.12 411.98 383.01 C 406.18 387.30 400.63 392.15 393.93 394.98 C 389.64 396.24 385.10 396.30 380.68 396.71 C 376.38 396.26 372.10 395.52 368.04 394.01 C 351.60 387.97 336.08 378.82 323.88 366.15 C 316.30 360.30 310.68 352.39 305.28 344.60 C 302.18 339.63 298.39 335.07 296.13 329.62 C 296.24 333.98 297.90 338.16 297.57 342.56 C 301.70 347.73 302.25 354.71 306.08 360.07 C 309.22 366.10 313.11 371.67 316.92 377.28 C 323.98 389.66 333.07 400.81 343.04 410.95 C 351.07 418.00 358.95 425.41 368.40 430.56 C 377.28 434.61 387.65 434.25 396.66 430.81 C 406.66 426.43 414.52 418.61 422.69 411.61 C 426.48 408.36 429.82 404.65 433.42 401.21 C 437.65 396.84 441.74 392.34 445.88 387.88 C 452.46 381.99 457.17 374.46 462.16 367.27 C 466.61 361.86 469.92 355.66 474.14 350.08 C 478.30 343.45 483.75 337.52 486.33 330.01 C 483.62 328.28 480.78 326.68 478.46 324.45 C 476.11 322.25 475.61 318.91 474.51 316.03 C 475.61 312.40 477.13 308.74 479.96 306.10 C 483.28 303.55 488.02 303.04 491.90 304.55 C 494.22 305.93 496.30 307.66 498.55 309.16 C 504.14 301.71 508.92 293.74 513.64 285.73 C 505.52 282.40 497.09 279.86 489.16 276.06 C 485.65 274.77 482.61 272.40 478.94 271.55 C 477.57 278.66 476.74 285.91 474.35 292.79 M 270.23 274.03 C 273.39 282.39 275.68 291.10 277.00 299.95 C 278.64 306.87 278.57 314.04 278.96 321.10 C 280.19 326.36 278.49 331.65 278.76 336.96 C 278.87 340.60 278.66 344.26 277.78 347.81 C 275.14 363.77 270.23 379.62 261.28 393.22 C 256.89 399.43 253.40 406.39 247.66 411.52 C 243.91 416.18 238.99 419.61 234.98 424.01 C 227.87 429.90 219.69 434.27 211.56 438.59 C 206.64 441.81 200.75 442.64 195.25 444.37 C 187.46 446.19 179.42 445.22 171.88 442.76 C 171.76 443.12 171.52 443.82 171.40 444.18 C 176.81 445.38 182.19 447.01 187.80 446.74 C 190.13 447.57 192.64 447.33 195.06 447.59 C 196.98 447.69 199.18 448.15 200.78 446.79 C 207.97 446.22 214.93 444.22 222.03 443.07 C 232.63 440.73 241.77 434.75 251.56 430.37 C 261.10 424.58 268.52 415.98 275.19 407.17 C 280.29 400.26 283.17 392.11 285.88 384.05 C 288.50 376.67 289.68 368.88 290.57 361.13 C 292.59 349.13 291.53 336.79 288.79 324.99 C 287.63 318.28 286.18 311.62 283.70 305.26 C 281.29 295.81 277.41 286.81 273.19 278.04 C 272.45 276.53 271.44 275.18 270.23 274.03 M 647.23 273.89 C 647.26 278.61 651.19 281.22 654.79 283.40 C 656.62 282.95 658.46 282.52 660.32 282.11 C 661.56 279.60 661.86 276.81 661.78 274.04 C 657.04 275.35 651.64 277.05 647.23 273.89 M 207.17 287.93 C 217.59 292.77 227.49 298.69 237.85 303.66 C 238.97 301.62 240.24 299.68 241.64 297.83 C 232.59 292.68 223.04 288.54 213.93 283.53 C 211.70 285.02 209.42 286.47 207.17 287.93 M 650.31 287.39 C 653.35 294.39 655.73 301.71 659.45 308.40 C 659.51 302.00 659.99 295.62 660.25 289.24 C 656.78 289.66 653.50 288.59 650.31 287.39 M 190.07 301.78 C 202.17 308.64 214.47 315.13 226.87 321.41 C 227.56 321.42 228.94 321.43 229.63 321.44 C 230.04 321.72 230.87 322.30 231.28 322.58 C 231.81 323.51 232.56 324.22 233.51 324.71 C 246.25 331.47 259.29 337.66 271.85 344.76 C 273.43 339.16 272.63 333.32 273.37 327.64 C 268.79 324.32 263.41 322.38 258.48 319.67 C 239.86 310.23 221.12 300.94 202.99 290.58 C 198.31 293.86 194.07 297.71 190.07 301.78 M 462.35 291.36 C 459.81 294.50 459.18 298.68 459.36 302.60 C 460.90 302.67 462.44 302.74 463.99 302.84 C 465.54 303.45 467.79 304.61 468.94 302.70 C 473.33 298.33 468.21 289.79 462.35 291.36 M 242.66 304.44 C 242.66 304.87 242.66 305.72 242.66 306.14 C 248.04 309.23 253.59 311.99 259.20 314.65 C 263.74 316.77 267.96 319.65 272.79 321.14 C 272.77 318.58 272.93 315.99 272.51 313.46 C 264.96 309.16 256.93 305.70 249.25 301.62 C 246.54 300.18 244.45 302.83 242.66 304.44 M 180.14 310.28 C 193.26 317.65 206.83 324.20 220.08 331.34 C 220.49 328.84 221.39 326.47 222.35 324.15 C 210.25 317.78 197.99 311.72 185.87 305.39 C 183.86 306.90 181.95 308.54 180.14 310.28 M 453.10 308.44 C 451.80 310.31 450.83 312.61 451.17 314.93 C 453.98 318.88 461.17 316.53 461.70 311.86 C 461.92 309.21 458.47 308.77 456.84 307.42 C 455.58 307.71 454.33 308.05 453.10 308.44 M 481.20 314.20 C 480.71 316.15 480.53 318.16 481.25 320.09 C 483.61 321.98 485.79 324.48 488.95 324.94 C 490.99 325.70 494.29 325.37 494.66 328.18 C 494.35 329.34 493.67 330.22 492.61 330.80 C 490.02 336.75 487.31 342.89 482.83 347.68 C 481.22 351.75 477.34 354.60 476.25 358.84 C 477.88 360.38 479.31 362.11 480.77 363.82 C 483.59 360.26 487.26 357.44 489.69 353.58 C 492.30 349.42 495.82 345.94 499.43 342.65 C 501.30 341.53 502.65 339.80 503.85 338.02 C 500.58 330.24 500.10 321.50 495.89 314.07 C 494.65 311.39 492.12 308.86 488.93 309.38 C 485.47 308.94 483.44 312.19 481.20 314.20 M 780.09 309.91 C 779.75 311.32 779.45 312.73 779.21 314.16 C 784.87 319.36 790.97 324.04 796.69 329.18 C 801.81 334.11 808.23 338.13 815.44 338.84 C 816.17 336.00 817.08 333.15 816.83 330.18 C 805.65 321.64 792.21 316.89 780.09 309.91 M 168.14 326.14 C 171.05 327.81 174.04 329.37 177.07 330.83 C 186.97 336.63 197.47 341.36 207.35 347.24 C 207.44 347.73 207.61 348.70 207.69 349.19 L 207.53 346.78 C 213.10 351.20 219.98 353.51 225.95 357.34 C 238.38 363.69 250.51 370.59 262.88 377.05 C 265.03 372.28 266.74 367.33 268.36 362.36 C 265.38 360.63 262.35 358.97 259.25 357.47 C 248.49 351.56 237.61 345.92 226.75 340.20 C 214.29 334.21 202.45 327.04 190.00 321.02 C 185.74 318.58 181.27 316.51 176.95 314.17 C 173.96 318.11 170.57 321.80 168.14 326.14 M 444.47 327.18 C 448.38 328.78 452.76 328.55 456.25 326.03 C 456.57 324.60 456.92 323.18 457.28 321.77 C 453.40 321.93 449.91 320.34 446.67 318.39 C 445.15 321.09 443.90 324.01 444.47 327.18 M 775.52 327.37 C 772.34 331.70 768.89 336.35 768.62 341.92 C 768.33 344.81 771.25 347.44 774.09 346.94 C 777.17 345.61 779.40 342.90 781.25 340.19 C 783.30 337.49 782.64 333.38 785.85 331.51 C 791.91 335.88 799.07 339.24 803.16 345.79 C 805.88 350.48 807.60 355.70 809.15 360.88 C 809.68 364.58 811.20 368.04 811.86 371.72 C 812.16 371.70 812.76 371.66 813.06 371.64 C 814.53 362.88 815.98 353.58 813.42 344.91 C 807.24 343.34 801.22 340.78 796.41 336.54 C 791.32 331.72 786.26 326.69 780.22 323.07 C 778.50 324.32 776.77 325.62 775.52 327.37 M 227.35 327.12 C 226.28 328.74 225.27 330.41 224.26 332.08 C 225.29 333.24 226.22 334.58 227.65 335.28 C 234.65 339.12 241.87 342.54 248.90 346.33 C 255.51 350.50 262.74 353.58 269.38 357.72 C 270.41 354.86 270.73 351.85 270.68 348.84 C 266.06 347.04 261.78 344.52 257.52 342.03 C 252.19 340.12 247.79 336.43 242.54 334.35 C 237.32 332.24 232.75 328.78 227.35 327.12 M 162.00 338.70 C 169.77 342.76 177.52 346.87 185.20 351.11 C 190.84 353.99 196.09 357.65 202.07 359.86 C 202.74 356.91 204.57 354.49 206.00 351.90 C 192.76 344.39 179.24 337.44 165.83 330.26 C 164.31 332.96 162.79 335.69 162.00 338.70 M 160.15 343.01 C 156.77 346.92 155.97 352.43 154.26 357.20 C 184.23 374.05 214.69 389.95 245.22 405.75 C 248.70 401.80 251.56 397.38 254.45 393.00 C 249.00 390.86 244.24 387.29 238.89 384.92 C 233.47 382.54 228.65 379.05 223.22 376.71 C 214.43 372.49 206.24 367.16 197.42 363.01 C 185.01 356.33 172.70 349.38 160.15 343.01 M 870.39 348.45 C 870.47 349.07 870.63 350.30 870.71 350.92 C 872.61 355.70 873.43 360.92 873.01 366.05 C 871.26 374.95 865.74 382.42 860.30 389.44 C 857.00 393.40 855.74 398.88 856.82 403.90 C 859.89 408.28 864.54 412.11 869.91 413.17 C 877.73 419.07 888.50 420.05 897.77 417.62 C 904.83 412.25 905.41 402.76 908.54 395.11 C 910.65 390.34 910.68 385.07 911.22 379.97 C 912.02 370.19 909.16 359.87 902.43 352.59 C 896.67 347.23 888.89 344.11 881.04 343.82 C 876.94 343.56 873.70 346.49 870.39 348.45 M 500.49 350.62 C 497.28 353.42 495.46 357.38 492.62 360.50 C 490.36 362.98 488.02 365.37 485.83 367.91 C 485.21 368.92 483.53 369.69 484.18 371.12 C 485.49 374.37 487.68 377.17 489.68 380.03 C 493.21 376.10 496.97 372.38 501.08 369.06 C 506.42 364.90 510.73 359.65 515.55 354.94 C 512.83 351.39 510.68 347.38 507.36 344.33 C 505.16 346.53 502.83 348.58 500.49 350.62 M 206.64 362.00 C 220.03 370.94 234.97 377.16 248.90 385.17 C 251.27 386.83 254.75 386.92 256.27 389.66 C 258.05 386.95 260.21 384.29 260.69 380.98 C 250.80 375.62 240.62 370.80 230.89 365.17 C 224.61 361.88 218.37 358.52 211.94 355.54 C 208.79 356.27 207.37 359.13 206.64 362.00 M 69.83 357.77 C 65.70 361.70 64.10 367.34 61.06 372.02 C 50.50 385.89 49.15 405.41 55.54 421.35 C 64.90 428.19 76.97 427.91 87.95 429.43 C 94.73 429.49 102.19 430.01 108.13 426.16 C 106.44 422.85 104.72 419.53 103.61 415.99 C 100.47 402.07 101.96 387.47 106.30 373.97 C 107.24 371.27 107.24 368.39 107.31 365.57 C 103.84 359.66 96.58 357.24 90.05 357.27 C 83.33 356.31 76.50 356.66 69.83 357.77 M 634.72 370.60 C 623.97 383.12 613.82 396.25 601.50 407.30 C 594.86 411.58 589.88 417.86 583.31 422.24 C 577.23 427.84 570.37 432.46 563.85 437.48 C 569.89 437.71 575.94 437.52 582.00 437.60 C 593.58 436.58 605.25 436.72 616.78 434.85 C 623.90 434.44 630.87 432.48 638.05 433.10 C 638.95 432.25 639.86 431.41 640.79 430.58 C 643.04 431.67 645.49 432.18 647.87 432.91 C 649.38 434.02 649.48 435.94 648.78 437.56 C 647.35 437.92 645.90 438.27 644.48 438.63 C 645.24 443.78 647.01 448.80 646.79 454.07 C 647.25 455.03 647.72 456.00 648.19 456.97 C 648.25 459.10 648.33 461.23 648.50 463.36 C 650.75 459.99 652.12 456.11 654.72 452.95 C 659.37 446.98 663.25 440.23 669.16 435.37 C 672.17 431.99 675.66 429.11 679.05 426.12 C 683.77 421.86 689.82 419.45 694.38 414.97 C 687.63 410.37 681.08 405.47 675.16 399.82 C 668.52 394.51 663.47 387.62 658.26 380.99 C 655.31 377.12 652.12 373.34 650.07 368.88 C 648.50 365.40 647.11 361.83 645.42 358.41 C 641.41 362.06 637.86 366.19 634.72 370.60 M 152.83 362.26 C 152.34 365.92 152.09 369.62 152.20 373.33 C 156.79 372.84 160.24 376.25 164.10 378.08 C 172.08 382.09 179.70 386.89 188.02 390.19 C 187.66 389.74 186.96 388.84 186.61 388.40 C 186.60 387.47 186.58 385.63 186.57 384.70 C 187.29 383.67 188.02 382.65 188.75 381.62 C 183.18 377.31 176.39 375.05 170.42 371.36 C 164.40 368.63 159.30 363.93 152.83 362.26 M 151.53 377.16 C 149.93 381.50 150.82 386.19 150.60 390.70 C 159.37 395.13 167.59 400.57 176.46 404.81 C 190.77 412.42 205.46 419.36 219.09 428.18 C 223.62 425.34 228.34 422.65 232.16 418.83 C 225.25 415.08 218.28 411.45 211.28 407.87 C 201.41 403.16 191.97 397.62 182.11 392.90 C 171.98 387.53 161.98 381.88 151.53 377.16 M 192.52 389.90 C 192.47 390.30 192.37 391.09 192.32 391.48 C 190.64 391.45 190.44 391.94 191.72 392.93 C 197.12 395.05 201.99 398.27 207.28 400.62 C 207.31 400.64 207.39 400.68 207.42 400.70 C 216.27 406.38 226.24 410.00 235.16 415.54 C 237.39 413.40 239.61 411.24 241.99 409.26 C 239.47 407.69 236.90 406.21 234.21 404.96 C 222.18 398.75 210.27 392.31 198.26 386.07 C 196.88 385.38 195.59 384.31 193.99 384.24 C 191.69 385.32 190.40 387.90 192.52 389.90 M 150.49 396.15 C 150.75 398.86 151.24 401.53 151.53 404.24 C 155.21 405.93 158.79 407.81 162.42 409.62 C 164.84 410.80 166.92 412.85 169.73 413.04 C 170.77 411.33 171.88 409.66 172.93 407.96 C 168.48 405.98 164.44 403.25 160.05 401.16 C 157.00 399.24 153.77 397.63 150.49 396.15 M 152.00 409.63 C 152.46 412.18 152.91 414.76 153.76 417.23 C 156.87 423.40 161.10 429.11 166.61 433.34 C 168.38 434.41 169.96 435.72 171.16 437.43 C 175.53 439.09 180.15 440.22 184.84 440.24 C 191.05 440.07 196.87 437.76 202.89 436.51 C 194.01 431.08 184.54 426.69 175.39 421.73 C 167.43 418.01 160.19 412.81 152.00 409.63 M 174.14 415.98 C 179.32 418.77 184.48 421.59 189.71 424.28 C 193.67 426.88 198.49 428.05 201.98 431.36 C 202.53 431.43 203.63 431.59 204.17 431.66 C 205.17 432.63 206.17 433.60 207.17 434.58 C 209.46 433.29 211.81 432.13 214.19 431.04 C 212.93 428.51 210.16 427.53 207.88 426.19 C 202.33 423.41 197.00 420.21 191.31 417.69 C 186.56 415.64 182.48 411.52 176.91 412.01 C 175.94 413.30 175.02 414.62 174.14 415.98 M 873.09 421.70 C 873.13 426.37 872.49 430.98 871.39 435.51 C 868.00 447.80 858.98 458.15 847.61 463.76 C 843.20 466.05 838.60 468.54 833.48 468.43 C 833.83 470.33 834.19 472.23 834.62 474.13 C 836.09 474.34 837.58 474.59 839.06 474.90 C 848.79 472.97 858.35 468.61 865.07 461.14 C 868.30 457.92 871.58 454.55 873.17 450.18 C 874.65 446.11 876.54 442.20 878.28 438.25 C 879.50 433.44 878.78 428.43 879.91 423.61 C 877.59 423.11 875.33 422.43 873.09 421.70 M 131.33 445.12 C 129.76 449.57 129.28 454.31 127.99 458.84 C 128.43 459.25 129.31 460.06 129.75 460.46 C 129.73 460.98 129.70 462.02 129.68 462.55 C 129.29 462.95 128.51 463.77 128.13 464.17 C 128.15 466.55 128.16 468.93 128.19 471.32 C 129.79 471.34 131.39 471.37 132.99 471.43 C 131.64 473.95 128.47 476.57 129.99 479.72 C 130.86 482.42 133.01 484.45 135.71 485.27 C 147.79 490.53 161.01 492.01 173.96 493.59 C 178.33 494.17 182.65 492.78 187.03 493.04 C 192.04 493.22 197.04 492.78 202.00 492.12 C 207.19 490.46 212.87 491.23 217.85 488.82 C 222.75 486.45 228.54 485.75 232.70 482.03 C 233.34 479.36 234.73 476.83 234.64 474.03 C 234.95 468.91 233.00 464.04 232.74 458.96 C 228.95 457.27 225.01 455.97 220.98 455.02 C 217.28 454.18 213.84 452.39 210.09 451.87 C 206.71 452.27 203.32 452.55 199.95 452.99 C 197.65 452.71 195.36 453.05 193.07 453.23 C 184.18 453.01 175.38 451.16 167.00 448.22 C 163.26 446.73 160.95 443.06 157.21 441.57 C 150.68 438.65 145.00 433.88 140.80 428.10 C 136.28 432.91 133.81 439.12 131.33 445.12 M 76.32 433.56 C 74.47 442.34 76.36 451.70 80.46 459.58 C 83.47 463.79 87.48 467.27 91.82 470.05 C 101.43 475.54 112.94 476.17 123.66 474.43 C 123.62 471.83 123.24 469.25 122.81 466.70 C 118.90 466.71 114.98 466.95 111.08 466.64 C 102.23 464.50 93.73 459.49 88.83 451.67 C 85.61 446.62 84.29 440.55 84.64 434.62 C 81.83 434.66 78.98 434.57 76.32 433.56 M 605.09 442.29 C 599.06 443.34 592.90 442.19 586.90 443.44 C 576.59 443.67 566.25 443.70 555.95 443.26 C 552.28 443.02 549.48 446.54 545.81 445.73 C 542.54 445.23 539.48 443.13 536.09 444.07 C 529.21 444.27 522.39 445.07 515.51 445.32 C 507.98 446.11 500.38 445.27 492.89 446.44 C 482.90 446.51 472.89 446.27 463.00 447.94 C 455.64 447.73 448.37 449.08 441.01 448.78 C 434.70 448.90 428.37 450.05 422.08 449.10 C 415.47 448.21 408.73 449.54 402.18 448.16 C 394.22 446.25 385.97 448.25 377.98 446.62 C 368.00 446.56 358.00 446.33 348.02 446.68 C 341.27 447.85 334.41 447.14 327.60 447.35 C 326.31 454.69 326.83 462.15 326.70 469.57 C 334.18 472.42 342.23 470.58 349.94 471.84 C 353.94 472.25 357.97 472.06 361.99 472.08 C 369.71 472.03 377.25 468.75 384.98 470.31 C 395.05 471.51 404.98 469.22 415.00 468.73 C 421.31 467.83 427.69 468.71 434.02 468.14 C 447.93 466.32 461.95 468.23 475.91 467.34 C 485.89 465.81 495.98 466.09 506.04 466.00 C 519.94 464.25 534.04 466.40 547.94 464.59 C 551.98 464.75 555.99 464.29 560.00 463.85 C 575.66 464.12 591.40 462.97 607.00 464.52 C 613.96 463.30 621.06 464.38 628.00 463.03 C 633.10 462.03 638.30 462.32 643.46 462.33 C 642.48 454.47 639.52 446.88 639.88 438.87 C 628.18 438.76 616.71 441.33 605.09 442.29 M 816.97 457.99 C 810.99 458.50 805.04 459.83 799.03 459.16 C 788.31 457.60 777.43 458.95 766.87 460.94 C 762.09 464.82 760.99 471.13 758.74 476.52 C 756.25 482.94 755.40 489.75 754.65 496.54 C 761.55 499.81 769.51 499.36 776.94 500.45 C 788.35 500.78 799.66 498.60 810.91 496.92 C 815.35 495.90 820.03 495.14 824.02 492.87 C 826.24 489.56 826.72 485.32 827.75 481.52 C 828.43 479.25 827.19 476.99 827.57 474.74 C 829.01 468.56 827.06 462.29 825.51 456.34 C 822.72 457.20 819.87 457.79 816.97 457.99 M 631.87 469.94 C 631.63 474.99 631.55 480.09 632.00 485.14 C 632.84 489.93 631.29 494.69 631.02 499.46 C 633.68 494.21 636.70 489.10 640.92 484.92 C 644.36 480.15 648.62 476.11 653.01 472.24 C 651.44 470.61 649.71 469.14 647.99 467.70 C 642.79 469.36 636.68 466.99 631.87 469.94 Z" />
<path fill="#010101" opacity="1.00" d=" M 714.94 285.23 C 717.85 283.41 720.25 280.79 723.58 279.66 C 727.10 281.09 731.41 282.13 733.24 285.84 C 734.90 290.68 734.31 296.03 736.30 300.80 C 738.24 300.21 740.16 299.56 742.09 298.88 C 742.92 299.17 743.77 299.47 744.62 299.78 C 746.26 302.44 747.77 305.19 749.06 308.05 C 749.67 310.44 750.18 312.86 750.33 315.34 C 749.40 315.37 747.55 315.43 746.62 315.45 C 743.83 312.13 743.09 307.69 740.68 304.14 C 739.84 304.60 738.16 305.52 737.32 305.98 C 738.16 309.09 739.23 312.14 739.83 315.32 C 741.15 316.14 743.34 316.24 743.65 318.10 C 745.33 323.36 748.07 328.17 751.24 332.67 C 753.61 332.24 756.28 333.12 756.76 335.76 C 756.07 337.79 755.11 339.73 754.31 341.72 C 752.90 341.13 751.37 340.97 750.15 341.99 C 743.92 345.52 738.09 349.96 731.24 352.22 C 721.79 357.25 711.31 359.80 701.07 362.58 C 699.78 362.69 698.50 362.76 697.22 362.81 C 694.57 358.41 693.43 353.34 691.26 348.72 C 689.77 345.01 687.48 341.64 686.55 337.72 C 687.18 335.41 690.01 336.84 691.70 336.48 C 688.88 329.35 686.23 322.15 683.07 315.16 C 682.16 316.01 681.24 316.86 680.34 317.71 C 682.09 320.90 682.37 324.55 682.89 328.09 C 683.47 329.76 684.21 331.42 684.32 333.23 C 682.48 335.48 678.33 334.14 678.02 331.26 C 677.16 327.31 677.58 323.02 675.62 319.35 C 675.24 318.15 673.45 316.33 675.07 315.34 C 677.10 313.89 679.19 312.50 681.11 310.89 C 679.29 306.13 676.33 301.89 674.83 297.01 C 673.71 292.73 674.85 287.28 679.37 285.50 C 681.14 283.98 683.37 285.40 685.37 285.58 C 689.40 289.95 692.43 295.32 693.34 301.25 C 694.35 307.11 697.91 312.03 699.66 317.64 C 700.83 322.75 703.30 327.42 705.04 332.34 C 705.68 332.46 706.96 332.70 707.60 332.82 C 707.24 330.29 706.25 327.92 705.41 325.53 C 702.19 315.69 698.40 306.03 694.82 296.32 C 694.36 292.90 693.76 289.50 693.61 286.06 C 697.94 283.18 703.26 282.88 708.12 281.41 C 708.69 281.75 709.84 282.43 710.42 282.77 C 710.16 291.53 713.56 299.84 715.93 308.14 C 718.46 313.82 718.46 320.77 722.67 325.58 C 723.68 324.96 724.71 324.34 725.75 323.74 C 724.46 319.26 723.90 314.50 721.50 310.43 C 721.09 306.56 720.08 302.79 718.91 299.09 C 717.99 294.35 715.90 289.93 714.94 285.23 M 722.72 285.26 C 722.30 285.77 721.47 286.80 721.05 287.31 C 722.64 293.57 724.17 299.84 726.38 305.93 C 727.78 305.14 729.22 304.39 730.56 303.48 C 730.21 298.44 729.00 293.44 728.19 288.45 C 727.57 285.98 724.86 285.49 722.72 285.26 M 699.04 288.73 C 699.84 294.51 702.23 299.85 703.99 305.37 C 706.52 313.66 710.16 321.56 712.34 329.97 C 714.02 329.56 715.69 329.14 717.38 328.72 C 715.97 325.73 714.58 322.72 713.65 319.55 C 710.58 308.80 706.61 298.24 705.03 287.13 C 703.03 287.66 701.03 288.19 699.04 288.73 M 680.43 290.31 C 680.10 294.35 680.55 298.53 683.18 301.78 C 684.15 304.77 685.38 307.84 687.89 309.89 C 688.30 309.49 689.12 308.68 689.53 308.28 C 688.72 305.16 687.63 302.10 687.22 298.89 C 686.23 295.73 684.50 292.91 682.42 290.37 C 681.92 290.35 680.93 290.33 680.43 290.31 M 728.15 311.06 C 728.36 314.50 729.77 317.70 730.61 321.02 C 732.05 320.64 733.39 319.98 734.69 319.26 C 734.31 315.52 733.47 311.83 731.95 308.38 C 730.69 309.24 728.81 309.56 728.15 311.06 M 688.16 312.62 C 691.32 320.07 693.86 327.75 696.94 335.22 C 697.79 335.26 698.65 335.29 699.53 335.34 C 698.87 332.55 698.14 329.77 696.91 327.18 C 694.50 322.42 694.21 316.88 691.37 312.31 C 690.29 312.41 689.22 312.51 688.16 312.62 M 715.67 335.05 C 708.84 338.77 701.04 339.49 693.75 341.88 C 696.36 346.69 698.17 351.86 700.34 356.88 C 710.48 355.17 720.06 351.22 729.52 347.31 C 735.64 344.08 741.54 340.41 747.33 336.62 C 745.03 333.30 742.93 329.85 740.97 326.32 C 739.60 325.97 738.25 325.61 736.92 325.21 C 729.50 327.82 723.26 332.86 715.67 335.05 Z" />
</g>
<g id="#8cc5faff">
<path fill="#8cc5fa" opacity="1.00" d=" M 329.21 35.85 C 336.13 37.60 342.53 41.00 349.57 42.30 C 345.04 48.32 340.72 54.52 337.58 61.40 C 334.54 69.31 331.93 77.46 331.34 85.97 C 331.82 94.20 333.00 102.59 336.85 110.00 C 338.39 112.50 339.96 114.98 341.18 117.66 C 339.36 118.03 337.53 118.35 335.70 118.58 C 329.20 114.03 324.21 107.48 321.30 100.13 C 319.59 93.85 317.83 87.53 317.07 81.05 C 316.51 69.66 317.05 57.69 322.32 47.33 C 324.18 43.27 326.06 39.11 329.21 35.85 Z" />
<path fill="#8cc5fa" opacity="1.00" d=" M 305.08 127.05 C 307.55 126.44 310.10 126.55 312.63 126.57 C 308.68 127.89 304.73 129.26 301.06 131.26 C 296.40 133.68 292.46 137.21 288.09 140.10 C 283.85 142.86 281.11 147.22 277.58 150.74 C 269.83 160.52 265.17 172.23 260.86 183.80 C 257.75 196.66 253.97 209.84 256.09 223.20 C 257.17 233.56 259.73 243.67 261.78 253.86 C 263.04 256.85 264.29 259.88 264.81 263.10 C 265.06 263.53 265.55 264.38 265.79 264.81 C 263.61 264.31 262.12 262.53 260.41 261.23 C 259.43 258.95 258.43 256.67 257.47 254.38 C 251.39 248.20 247.79 240.24 243.91 232.62 C 239.70 223.00 237.43 212.55 237.52 202.04 C 237.61 196.23 237.10 190.30 238.79 184.66 C 240.06 180.56 241.36 176.44 243.23 172.57 C 245.32 167.48 248.29 162.88 251.53 158.47 C 257.03 150.50 264.51 144.17 272.50 138.82 C 276.30 137.27 280.04 135.55 283.60 133.48 C 286.74 131.59 290.42 131.09 293.81 129.85 C 297.53 128.76 301.34 128.04 305.08 127.05 Z" />
<path fill="#8cc5fa" opacity="1.00" d=" M 234.93 266.88 C 236.37 266.78 237.82 266.77 239.27 266.79 C 229.00 270.76 217.67 272.76 208.59 279.35 C 202.79 283.22 196.55 286.54 191.48 291.39 C 185.63 296.92 178.75 301.42 173.86 307.92 C 168.21 315.02 162.03 321.91 158.51 330.39 C 153.97 338.82 150.21 347.66 147.85 356.96 C 146.08 363.51 146.21 370.34 144.80 376.94 C 144.14 385.60 144.63 394.29 144.77 402.97 C 146.06 408.42 145.69 414.32 148.34 419.41 C 150.22 422.78 152.47 425.93 154.77 429.03 C 157.34 432.59 161.35 434.69 164.21 437.99 C 159.17 436.57 154.45 433.96 150.56 430.45 C 147.41 427.21 144.54 423.69 141.79 420.10 C 139.21 416.80 137.94 412.76 135.92 409.13 C 133.66 402.47 130.87 395.89 130.19 388.82 C 129.21 384.93 127.98 381.03 128.15 376.97 C 128.37 371.98 127.21 367.02 127.90 362.04 C 128.31 354.35 128.92 346.66 130.09 339.04 C 132.73 325.49 140.61 313.74 149.47 303.43 C 153.22 298.59 157.51 294.18 162.20 290.26 C 169.24 284.19 177.69 280.16 185.86 275.89 C 192.13 272.59 198.86 270.19 205.87 269.12 C 211.35 267.59 217.08 268.78 222.63 267.77 C 224.07 267.52 225.54 267.75 226.98 267.94 C 229.64 267.63 232.32 267.50 234.93 266.88 Z" />
<path fill="#8cc5fa" opacity="1.00" d=" M 474.35 292.79 C 476.74 285.91 477.57 278.66 478.94 271.55 C 482.61 272.40 485.65 274.77 489.16 276.06 C 497.09 279.86 505.52 282.40 513.64 285.73 C 508.92 293.74 504.14 301.71 498.55 309.16 C 496.30 307.66 494.22 305.93 491.90 304.55 C 488.02 303.04 483.28 303.55 479.96 306.10 C 477.13 308.74 475.61 312.40 474.51 316.03 C 475.61 318.91 476.11 322.25 478.46 324.45 C 480.78 326.68 483.62 328.28 486.33 330.01 C 483.75 337.52 478.30 343.45 474.14 350.08 C 469.92 355.66 466.61 361.86 462.16 367.27 C 457.17 374.46 452.46 381.99 445.88 387.88 C 441.74 392.34 437.65 396.84 433.42 401.21 C 429.82 404.65 426.48 408.36 422.69 411.61 C 414.52 418.61 406.66 426.43 396.66 430.81 C 387.65 434.25 377.28 434.61 368.40 430.56 C 358.95 425.41 351.07 418.00 343.04 410.95 C 333.07 400.81 323.98 389.66 316.92 377.28 C 313.11 371.67 309.22 366.10 306.08 360.07 C 302.25 354.71 301.70 347.73 297.57 342.56 C 297.90 338.16 296.24 333.98 296.13 329.62 C 298.39 335.07 302.18 339.63 305.28 344.60 C 310.68 352.39 316.30 360.30 323.88 366.15 C 336.08 378.82 351.60 387.97 368.04 394.01 C 372.10 395.52 376.38 396.26 380.68 396.71 C 385.10 396.30 389.64 396.24 393.93 394.98 C 400.63 392.15 406.18 387.30 411.98 383.01 C 416.71 379.12 420.63 374.35 425.29 370.38 C 428.03 366.17 431.95 362.99 435.03 359.07 C 441.14 350.31 449.22 343.15 455.71 334.69 C 457.69 331.48 460.48 328.91 463.10 326.22 C 463.43 323.86 463.83 321.49 463.74 319.10 C 465.28 316.87 467.30 314.79 467.59 311.97 C 467.50 309.61 469.86 308.72 471.34 307.38 C 473.76 305.57 475.42 302.93 476.47 300.13 C 477.12 297.47 475.35 295.11 474.35 292.79 Z" />
</g>
<g id="#8cc5f9ff">
<path fill="#8cc5f9" opacity="1.00" d=" M 396.62 54.43 C 401.74 56.80 406.89 59.20 412.30 60.86 C 414.84 61.73 417.38 62.57 419.94 63.37 C 417.24 71.30 415.75 79.63 412.25 87.28 C 409.50 92.01 405.67 96.00 401.90 99.93 C 396.31 107.18 387.94 111.48 380.23 116.10 C 373.55 120.47 365.69 122.29 357.99 123.96 C 353.39 124.98 348.65 123.97 344.01 124.60 C 340.64 125.08 337.22 124.93 333.85 124.57 C 336.82 124.05 339.91 123.93 342.71 122.67 C 350.72 119.09 357.90 113.98 365.15 109.12 C 369.25 105.57 373.34 102.02 376.89 97.91 C 385.36 89.81 391.11 79.12 394.19 67.87 C 395.47 63.48 395.49 58.85 396.62 54.43 Z" />
<path fill="#8cc5f9" opacity="1.00" d=" M 353.40 160.23 C 354.42 153.33 352.59 146.47 352.20 139.60 C 356.38 148.32 360.48 157.29 361.79 166.96 C 364.24 188.93 359.00 212.03 345.94 230.03 C 343.76 232.51 341.79 235.17 339.33 237.38 C 332.87 242.51 326.36 247.91 318.39 250.48 C 311.83 252.53 305.62 255.69 298.80 256.78 C 291.76 258.46 284.87 260.73 277.99 262.98 C 275.92 262.59 273.83 262.33 271.72 262.22 C 271.24 261.30 270.78 260.39 270.30 259.48 C 277.33 257.49 284.62 256.28 291.24 253.04 C 299.41 248.34 308.20 244.51 315.36 238.26 C 324.19 230.75 331.92 221.90 338.00 212.02 C 340.40 206.52 343.49 201.35 345.84 195.83 C 346.73 195.32 347.63 194.82 348.54 194.32 C 347.17 191.38 348.21 188.39 349.28 185.56 C 351.49 177.27 352.14 168.69 353.40 160.23 Z" />
</g>
<g id="#5db6f7ff">
<path fill="#5db6f7" opacity="1.00" d=" M 342.08 65.38 C 347.03 66.66 351.14 70.02 356.12 71.33 C 355.67 72.61 355.24 73.90 354.74 75.17 C 354.64 75.93 354.43 77.46 354.33 78.23 L 356.03 78.75 C 350.24 77.85 345.57 73.95 340.01 72.32 C 340.70 70.01 341.42 67.71 342.08 65.38 Z" />
</g>
<g id="#fbed40ff">
<path fill="#fbed40" opacity="1.00" d=" M 359.62 81.00 C 359.42 78.56 359.80 76.18 361.70 74.48 C 368.49 77.13 374.95 80.54 381.59 83.53 C 380.11 85.37 378.61 87.19 377.00 88.92 C 371.07 86.58 365.43 83.61 359.62 81.00 Z" />
</g>
<g id="#ce8b42ff">
<path fill="#ce8b42" opacity="1.00" d=" M 654.71 126.81 C 657.99 123.33 660.93 118.92 665.71 117.45 C 662.25 126.56 658.65 135.65 656.44 145.16 C 657.30 146.28 658.17 147.39 659.04 148.51 C 660.00 148.04 660.97 147.57 661.94 147.10 C 665.29 141.11 671.90 138.15 677.89 135.47 C 679.77 134.51 681.85 134.16 683.95 134.15 C 682.13 137.09 680.28 140.00 678.64 143.04 C 679.66 144.53 680.71 146.76 682.96 146.18 C 687.09 145.62 691.01 144.07 695.10 143.27 C 693.04 145.96 691.96 149.18 690.89 152.34 C 692.11 153.41 693.39 154.42 694.73 155.34 C 696.72 154.33 698.82 153.54 701.02 153.06 C 700.58 154.56 700.11 156.05 699.68 157.55 C 694.12 156.90 688.70 155.40 683.14 154.80 C 680.88 154.58 678.85 153.55 676.96 152.38 C 669.71 151.10 662.35 151.35 655.03 151.30 C 649.18 151.20 643.57 153.07 637.81 153.71 C 636.49 154.34 635.14 154.93 633.83 155.54 C 629.41 150.10 627.07 143.27 625.70 136.49 C 631.43 140.48 635.77 146.16 641.59 149.98 C 642.03 149.61 642.91 148.87 643.36 148.51 C 643.83 146.73 644.35 144.95 645.40 143.41 C 648.95 138.12 650.33 131.59 654.71 126.81 Z" />
</g>
<g id="#ff3362ff">
<path fill="#ff3362" opacity="1.00" d=" M 300.82 139.62 C 301.20 137.12 303.58 136.39 305.74 136.02 C 310.40 139.06 315.66 141.02 320.51 143.74 C 320.03 144.97 319.56 146.22 319.10 147.46 C 318.64 147.55 317.71 147.73 317.25 147.82 C 311.74 145.14 306.10 142.73 300.82 139.62 Z" />
</g>
<g id="#7ae23eff">
<path fill="#7ae23e" opacity="1.00" d=" M 323.72 151.03 C 323.00 148.28 326.92 147.04 328.93 147.92 C 335.10 151.00 341.24 154.17 347.15 157.73 C 347.10 159.45 347.05 161.18 347.01 162.91 C 339.19 159.06 331.26 155.39 323.72 151.03 Z" />
</g>
<g id="#faed42ff">
<path fill="#faed42" opacity="1.00" d=" M 279.85 158.21 C 281.05 156.27 282.48 154.49 283.90 152.70 C 285.00 153.08 286.09 153.45 287.20 153.82 C 294.17 157.38 301.32 160.62 308.25 164.29 C 307.48 166.31 306.73 168.34 306.10 170.41 C 296.87 167.41 288.85 161.78 279.85 158.21 Z" />
</g>
<g id="#fdfdfdff">
<path fill="#fdfdfd" opacity="1.00" d=" M 592.26 159.71 C 600.94 159.44 609.62 159.73 618.24 158.71 C 617.90 165.09 618.85 171.39 618.96 177.74 C 610.12 176.31 600.88 176.08 592.37 179.26 C 592.03 172.76 591.30 166.18 592.26 159.71 M 593.49 163.24 C 594.16 164.33 594.78 165.47 595.59 166.48 C 598.31 167.24 601.18 167.24 603.94 167.91 C 603.95 169.28 604.02 170.64 604.14 172.00 C 605.19 172.95 606.39 173.73 607.51 174.60 C 608.02 174.61 609.03 174.62 609.54 174.63 C 610.32 174.11 611.11 173.59 611.90 173.07 C 612.30 171.01 614.29 170.24 615.86 169.22 C 615.17 163.95 609.19 165.93 605.74 164.17 C 602.54 162.63 599.18 161.43 595.58 161.72 C 594.87 162.23 594.18 162.73 593.49 163.24 Z" />
<path fill="#fdfdfd" opacity="1.00" d=" M 650.31 287.39 C 653.50 288.59 656.78 289.66 660.25 289.24 C 659.99 295.62 659.51 302.00 659.45 308.40 C 655.73 301.71 653.35 294.39 650.31 287.39 Z" />
</g>
<g id="#fefefeff">
<path fill="#fefefe" opacity="1.00" d=" M 642.11 161.87 C 646.49 161.91 651.19 162.17 655.06 159.71 C 659.81 159.24 664.57 159.86 669.33 159.70 C 670.75 164.71 671.80 169.83 672.17 175.03 C 671.85 178.59 670.93 182.06 670.53 185.60 C 667.44 186.66 664.17 186.60 660.96 186.71 C 655.37 188.18 649.58 188.16 643.85 188.07 C 643.06 184.14 642.40 180.16 642.43 176.14 C 642.86 171.36 643.02 166.61 642.11 161.87 M 643.71 174.87 C 641.44 178.42 646.31 180.65 648.99 181.54 C 650.46 180.67 651.96 179.85 653.47 179.03 C 653.48 177.20 653.49 175.36 653.54 173.53 C 653.05 173.00 652.58 172.48 652.12 171.96 C 654.29 170.34 656.45 168.69 658.82 167.35 C 658.96 165.62 658.23 164.17 657.07 162.95 C 651.93 165.99 647.18 170.03 643.71 174.87 Z" />
<path fill="#fefefe" opacity="1.00" d=" M 816.98 221.77 C 824.30 222.14 831.50 220.39 838.80 220.29 C 839.21 229.61 837.22 238.76 836.18 247.96 C 832.76 261.20 830.52 274.71 826.81 287.88 C 824.20 300.17 820.76 312.27 818.27 324.59 C 807.46 316.30 793.98 312.54 782.89 304.66 C 783.05 301.54 785.20 299.15 786.43 296.42 C 789.09 289.96 791.45 283.40 793.86 276.85 C 794.88 273.15 795.75 269.38 797.43 265.91 C 797.37 264.38 796.99 262.91 796.47 261.49 C 795.03 261.10 793.42 260.32 792.00 261.24 C 788.21 262.91 784.24 264.22 780.15 264.90 C 774.52 267.12 768.62 268.49 762.87 270.30 C 754.46 273.46 746.04 276.59 737.69 279.91 C 737.53 281.09 737.40 282.28 737.29 283.48 C 738.82 285.23 740.84 285.79 743.12 285.49 C 749.82 289.27 755.23 294.92 760.09 300.80 C 765.55 306.76 769.65 313.80 773.55 320.84 C 768.42 326.13 764.98 332.98 763.16 340.07 C 762.30 342.69 763.29 345.28 764.60 347.54 C 767.59 350.94 772.33 353.95 776.96 352.41 C 781.94 349.32 785.37 344.25 787.95 339.08 C 791.11 342.52 796.24 344.18 797.93 348.84 C 802.14 358.19 803.79 368.41 807.01 378.09 C 808.22 380.55 808.31 383.58 810.32 385.60 C 816.61 391.78 821.41 399.32 825.53 407.07 C 829.14 416.31 833.07 425.46 835.99 434.96 C 836.63 437.09 836.63 439.36 836.50 441.58 C 831.19 448.68 822.03 450.72 813.80 452.31 C 798.04 453.43 781.99 450.92 766.45 454.51 C 762.99 456.69 759.36 459.19 757.90 463.20 C 755.85 468.41 753.49 473.50 751.84 478.86 C 749.74 488.32 748.27 498.00 748.70 507.72 C 743.48 507.23 738.14 506.91 733.19 505.04 C 729.43 503.69 725.45 503.30 721.57 502.54 C 713.84 501.38 706.47 498.73 699.02 496.49 C 694.27 494.65 689.75 492.21 685.45 489.49 C 675.03 481.88 664.75 474.07 654.71 465.95 C 656.13 460.61 659.67 456.27 663.09 452.09 C 665.72 448.73 667.90 444.99 671.02 442.03 C 676.45 436.85 681.49 431.22 687.44 426.61 C 692.73 423.43 697.77 419.80 703.24 416.91 C 703.64 415.46 704.04 413.53 702.37 412.71 C 697.88 410.22 693.07 408.18 689.13 404.81 C 682.84 399.50 676.61 394.09 671.06 388.01 C 667.17 383.21 663.56 378.19 659.53 373.50 C 656.74 370.21 655.44 366.06 653.77 362.17 C 648.53 352.09 644.62 341.20 643.16 329.90 C 641.64 325.22 642.80 320.25 641.66 315.53 C 639.90 315.02 638.13 314.60 636.32 314.41 C 635.61 323.08 637.60 331.57 638.90 340.07 C 639.79 343.90 641.13 347.60 642.49 351.28 C 636.41 357.97 631.25 365.43 625.09 372.04 C 619.40 379.03 613.06 385.45 607.46 392.51 C 602.11 397.79 597.11 403.47 590.90 407.80 C 582.51 416.34 572.45 422.91 563.15 430.38 C 558.69 433.07 554.65 437.51 549.08 437.43 C 545.77 437.56 542.45 437.69 539.14 437.49 C 527.15 433.85 517.07 426.20 506.66 419.51 C 501.72 416.48 497.49 412.50 493.08 408.80 C 488.64 405.52 485.40 400.98 481.59 397.04 C 486.40 391.72 492.00 387.16 496.52 381.57 C 501.37 375.69 508.05 371.77 513.17 366.17 C 515.89 363.37 518.40 360.35 521.48 357.93 C 535.37 364.75 546.67 375.88 560.98 381.93 C 561.72 382.01 563.19 382.17 563.92 382.25 C 565.94 377.52 570.09 374.27 573.28 370.38 C 576.30 365.81 579.81 361.58 583.34 357.40 C 586.36 351.67 590.85 346.95 594.95 342.01 C 599.15 335.95 603.04 329.59 608.44 324.48 C 613.96 318.32 618.88 311.62 624.98 305.97 C 627.36 301.73 631.32 298.94 634.99 295.91 C 635.19 295.30 635.57 294.07 635.77 293.46 C 637.39 289.30 639.29 285.28 642.27 281.89 C 645.97 288.50 647.46 296.07 650.90 302.80 C 652.80 306.89 654.65 311.03 657.13 314.83 C 659.60 320.13 662.15 325.56 666.31 329.78 C 667.27 330.98 670.57 331.06 670.67 329.02 C 670.81 327.16 669.60 325.54 669.09 323.82 C 666.24 316.94 665.02 309.45 665.49 302.02 C 665.20 290.98 666.83 280.03 669.08 269.26 C 671.74 260.30 673.25 250.62 679.06 243.00 C 681.86 238.76 687.16 237.78 691.45 235.68 C 691.84 238.26 690.66 241.45 692.77 243.46 C 694.30 244.69 696.09 245.55 697.70 246.68 C 701.71 246.71 705.26 244.57 709.19 244.07 C 712.89 243.29 716.49 242.13 720.07 240.93 C 729.77 239.01 739.33 236.51 748.90 234.04 C 757.70 231.25 766.94 230.37 775.93 228.37 C 780.27 227.34 784.68 226.68 789.10 226.04 C 798.40 224.69 807.46 221.00 816.98 221.77 M 714.94 285.23 C 715.90 289.93 717.99 294.35 718.91 299.09 C 720.08 302.79 721.09 306.56 721.50 310.43 C 723.90 314.50 724.46 319.26 725.75 323.74 C 724.71 324.34 723.68 324.96 722.67 325.58 C 718.46 320.77 718.46 313.82 715.93 308.14 C 713.56 299.84 710.16 291.53 710.42 282.77 C 709.84 282.43 708.69 281.75 708.12 281.41 C 703.26 282.88 697.94 283.18 693.61 286.06 C 693.76 289.50 694.36 292.90 694.82 296.32 C 698.40 306.03 702.19 315.69 705.41 325.53 C 706.25 327.92 707.24 330.29 707.60 332.82 C 706.96 332.70 705.68 332.46 705.04 332.34 C 703.30 327.42 700.83 322.75 699.66 317.64 C 697.91 312.03 694.35 307.11 693.34 301.25 C 692.43 295.32 689.40 289.95 685.37 285.58 C 683.37 285.40 681.14 283.98 679.37 285.50 C 674.85 287.28 673.71 292.73 674.83 297.01 C 676.33 301.89 679.29 306.13 681.11 310.89 C 679.19 312.50 677.10 313.89 675.07 315.34 C 673.45 316.33 675.24 318.15 675.62 319.35 C 677.58 323.02 677.16 327.31 678.02 331.26 C 678.33 334.14 682.48 335.48 684.32 333.23 C 684.21 331.42 683.47 329.76 682.89 328.09 C 682.37 324.55 682.09 320.90 680.34 317.71 C 681.24 316.86 682.16 316.01 683.07 315.16 C 686.23 322.15 688.88 329.35 691.70 336.48 C 690.01 336.84 687.18 335.41 686.55 337.72 C 687.48 341.64 689.77 345.01 691.26 348.72 C 693.43 353.34 694.57 358.41 697.22 362.81 C 698.50 362.76 699.78 362.69 701.07 362.58 C 711.31 359.80 721.79 357.25 731.24 352.22 C 738.09 349.96 743.92 345.52 750.15 341.99 C 751.37 340.97 752.90 341.13 754.31 341.72 C 755.11 339.73 756.07 337.79 756.76 335.76 C 756.28 333.12 753.61 332.24 751.24 332.67 C 748.07 328.17 745.33 323.36 743.65 318.10 C 743.34 316.24 741.15 316.14 739.83 315.32 C 739.23 312.14 738.16 309.09 737.32 305.98 C 738.16 305.52 739.84 304.60 740.68 304.14 C 743.09 307.69 743.83 312.13 746.62 315.45 C 747.55 315.43 749.40 315.37 750.33 315.34 C 750.18 312.86 749.67 310.44 749.06 308.05 C 747.77 305.19 746.26 302.44 744.62 299.78 C 743.77 299.47 742.92 299.17 742.09 298.88 C 740.16 299.56 738.24 300.21 736.30 300.80 C 734.31 296.03 734.90 290.68 733.24 285.84 C 731.41 282.13 727.10 281.09 723.58 279.66 C 720.25 280.79 717.85 283.41 714.94 285.23 Z" />
<path fill="#fefefe" opacity="1.00" d=" M 647.23 273.89 C 651.64 277.05 657.04 275.35 661.78 274.04 C 661.86 276.81 661.56 279.60 660.32 282.11 C 658.46 282.52 656.62 282.95 654.79 283.40 C 651.19 281.22 647.26 278.61 647.23 273.89 Z" />
<path fill="#fefefe" opacity="1.00" d=" M 715.67 335.05 C 723.26 332.86 729.50 327.82 736.92 325.21 C 738.25 325.61 739.60 325.97 740.97 326.32 C 742.93 329.85 745.03 333.30 747.33 336.62 C 741.54 340.41 735.64 344.08 729.52 347.31 C 720.06 351.22 710.48 355.17 700.34 356.88 C 698.17 351.86 696.36 346.69 693.75 341.88 C 701.04 339.49 708.84 338.77 715.67 335.05 Z" />
</g>
<g id="#f2efd9ff">
</g>
<g id="#020202ff">
<path fill="#020202" opacity="1.00" d=" M 593.49 163.24 C 594.18 162.73 594.87 162.23 595.58 161.72 C 599.18 161.43 602.54 162.63 605.74 164.17 C 609.19 165.93 615.17 163.95 615.86 169.22 C 614.29 170.24 612.30 171.01 611.90 173.07 C 611.11 173.59 610.32 174.11 609.54 174.63 C 609.03 174.62 608.02 174.61 607.51 174.60 C 606.39 173.73 605.19 172.95 604.14 172.00 C 604.02 170.64 603.95 169.28 603.94 167.91 C 601.18 167.24 598.31 167.24 595.59 166.48 C 594.78 165.47 594.16 164.33 593.49 163.24 Z" />
</g>
<g id="#000000ff">
<path fill="#000000" opacity="1.00" d=" M 643.71 174.87 C 647.18 170.03 651.93 165.99 657.07 162.95 C 658.23 164.17 658.96 165.62 658.82 167.35 C 656.45 168.69 654.29 170.34 652.12 171.96 C 652.58 172.48 653.05 173.00 653.54 173.53 C 653.49 175.36 653.48 177.20 653.47 179.03 C 651.96 179.85 650.46 180.67 648.99 181.54 C 646.31 180.65 641.44 178.42 643.71 174.87 Z" />
</g>
<g id="#fde8e7ff">
<path fill="#fde8e7" opacity="1.00" d=" M 628.74 166.56 C 629.88 166.25 631.04 165.94 632.20 165.62 C 632.46 165.68 632.99 165.81 633.26 165.87 C 632.13 169.12 632.47 172.60 632.45 175.98 C 632.42 180.27 632.99 184.63 634.69 188.61 C 634.69 189.26 634.69 190.57 634.68 191.22 C 636.14 193.10 638.24 194.13 640.50 194.73 C 644.72 194.62 648.84 195.76 653.06 195.58 C 659.43 195.74 665.66 193.85 672.03 194.13 C 676.18 194.27 680.13 192.61 683.68 190.60 C 683.35 188.37 682.52 186.27 682.06 184.07 C 681.51 178.16 682.67 172.24 681.93 166.33 C 684.72 166.31 687.51 166.34 690.31 166.36 C 688.32 170.73 684.74 175.85 687.35 180.68 C 688.74 180.94 690.17 181.01 691.54 180.52 C 691.63 175.73 693.97 171.09 697.81 168.22 C 699.08 169.08 700.84 169.60 701.55 171.11 C 704.30 176.34 705.61 182.31 705.28 188.22 C 703.08 193.44 700.63 199.57 694.98 201.81 C 692.94 200.74 690.91 199.67 688.97 198.45 C 688.53 196.99 687.99 195.56 687.44 194.14 C 683.98 194.49 683.11 198.42 683.51 201.28 C 684.80 202.40 686.27 203.26 687.73 204.16 C 687.29 206.75 686.74 209.33 685.94 211.84 C 683.39 220.85 679.66 229.50 676.13 238.14 C 668.68 246.51 666.24 257.66 663.57 268.20 C 662.06 268.24 660.57 268.29 659.08 268.36 C 656.44 270.30 653.13 270.68 649.95 270.46 C 654.30 267.76 658.26 264.49 660.54 259.78 C 659.46 259.00 658.37 258.21 657.29 257.44 C 651.70 261.81 645.63 265.57 639.13 268.41 C 634.99 270.25 630.36 269.80 625.97 269.65 C 620.55 268.41 617.85 263.10 615.70 258.49 C 613.97 255.17 614.49 251.34 613.84 247.76 C 613.95 247.34 614.16 246.50 614.26 246.08 C 613.60 243.40 613.50 240.57 614.25 237.90 C 615.31 229.75 617.92 221.52 623.03 214.98 C 628.05 212.85 632.56 209.54 635.95 205.26 C 637.27 203.25 635.19 201.66 634.04 200.30 C 629.43 202.98 625.65 207.22 620.17 208.16 C 612.11 208.66 603.76 208.53 596.12 205.63 C 590.73 203.08 584.49 198.73 584.72 192.07 C 588.32 187.59 593.89 185.55 599.14 183.74 C 606.33 182.80 613.91 181.80 620.96 183.97 C 623.46 184.13 626.85 187.55 628.68 184.65 C 627.87 178.65 628.79 172.59 628.74 166.56 M 692.75 180.68 C 690.48 181.80 692.33 184.36 692.68 186.10 C 693.78 187.60 694.05 189.42 694.21 191.24 C 695.16 192.05 696.11 192.86 697.07 193.69 C 697.98 193.10 698.85 192.46 699.70 191.78 C 700.77 188.34 698.31 185.32 697.49 182.12 C 696.24 180.84 694.55 179.79 692.75 180.68 M 640.67 215.95 C 632.92 220.33 627.15 228.46 626.32 237.41 C 627.28 237.85 628.26 238.29 629.24 238.72 C 630.20 238.08 631.21 237.56 632.29 237.14 C 632.20 232.67 635.37 229.33 637.42 225.67 C 641.21 222.08 645.79 219.12 651.09 218.71 C 654.06 218.91 656.56 220.74 659.22 221.90 C 660.62 221.41 661.30 219.98 662.26 218.95 C 659.27 215.26 654.57 213.55 650.04 212.72 C 646.87 213.65 643.78 214.84 640.67 215.95 Z" />
</g>
<g id="#5cb8f7ff">
<path fill="#5cb8f7" opacity="1.00" d=" M 312.83 167.78 C 313.64 166.47 315.17 167.78 316.19 168.11 C 325.26 172.70 334.51 176.96 343.40 181.86 C 343.10 183.78 342.62 185.67 342.29 187.60 C 340.00 188.31 338.08 186.83 336.19 185.78 C 327.72 181.58 319.18 177.47 310.97 172.77 C 309.18 171.10 311.83 169.12 312.83 167.78 Z" />
</g>
<g id="#79e23cff">
<path fill="#79e23c" opacity="1.00" d=" M 269.85 178.55 C 270.49 176.99 271.18 175.45 271.85 173.90 C 280.68 177.74 289.35 181.95 297.86 186.46 C 297.37 188.21 296.84 189.95 296.31 191.68 C 287.26 187.77 278.98 182.25 269.85 178.55 Z" />
</g>
<g id="#040000ff">
<path fill="#040000" opacity="1.00" d=" M 692.75 180.68 C 694.55 179.79 696.24 180.84 697.49 182.12 C 698.31 185.32 700.77 188.34 699.70 191.78 C 698.85 192.46 697.98 193.10 697.07 193.69 C 696.11 192.86 695.16 192.05 694.21 191.24 C 694.05 189.42 693.78 187.60 692.68 186.10 C 692.33 184.36 690.48 181.80 692.75 180.68 Z" />
</g>
<g id="#fd3365ff">
<path fill="#fd3365" opacity="1.00" d=" M 301.04 191.14 C 301.98 190.57 302.87 189.85 303.92 189.48 C 313.73 194.01 323.44 198.82 332.88 204.09 C 334.38 204.53 333.68 206.25 333.38 207.26 C 331.79 209.43 328.91 207.99 327.16 206.79 C 322.80 203.86 317.58 202.65 313.19 199.79 C 309.60 197.42 305.29 196.48 301.68 194.18 C 301.42 193.17 301.21 192.16 301.04 191.14 Z" />
</g>
<g id="#5bb8f8ff">
<path fill="#5bb8f8" opacity="1.00" d=" M 263.44 198.05 C 271.26 200.95 278.44 205.33 286.00 208.84 C 285.42 210.00 284.83 211.16 284.23 212.32 C 284.19 213.07 284.11 214.56 284.07 215.31 C 276.52 212.46 269.73 208.02 262.24 205.04 C 262.53 202.69 262.93 200.36 263.44 198.05 Z" />
<path fill="#5bb8f8" opacity="1.00" d=" M 162.00 338.70 C 162.79 335.69 164.31 332.96 165.83 330.26 C 179.24 337.44 192.76 344.39 206.00 351.90 C 204.57 354.49 202.74 356.91 202.07 359.86 C 196.09 357.65 190.84 353.99 185.20 351.11 C 177.52 346.87 169.77 342.76 162.00 338.70 Z" />
</g>
<g id="#f2f0d8ff">
</g>
<g id="#fcec42ff">
<path fill="#fcec42" opacity="1.00" d=" M 288.43 214.60 C 289.53 213.61 290.63 212.63 291.77 211.67 C 300.62 216.48 310.18 219.96 318.81 225.18 C 317.67 226.98 316.09 228.43 314.62 229.96 C 311.19 228.35 307.69 226.88 304.29 225.21 L 303.46 224.82 C 303.43 224.80 303.37 224.77 303.34 224.76 C 298.30 222.61 293.51 219.94 288.50 217.73 C 288.49 216.95 288.45 215.39 288.43 214.60 Z" />
</g>
<g id="#030100ff">
<path fill="#030100" opacity="1.00" d=" M 640.67 215.95 C 643.78 214.84 646.87 213.65 650.04 212.72 C 654.57 213.55 659.27 215.26 662.26 218.95 C 661.30 219.98 660.62 221.41 659.22 221.90 C 656.56 220.74 654.06 218.91 651.09 218.71 C 645.79 219.12 641.21 222.08 637.42 225.67 C 635.37 229.33 632.20 232.67 632.29 237.14 C 631.21 237.56 630.20 238.08 629.24 238.72 C 628.26 238.29 627.28 237.85 626.32 237.41 C 627.15 228.46 632.92 220.33 640.67 215.95 Z" />
<path fill="#030100" opacity="1.00" d=" M 416.22 270.12 C 421.83 262.98 426.03 254.41 433.89 249.36 C 435.32 249.80 436.75 250.27 438.18 250.77 C 436.50 253.51 433.52 255.00 431.48 257.41 C 426.71 262.71 422.24 268.33 418.59 274.47 C 414.71 278.71 412.10 284.06 410.51 289.56 C 409.28 290.25 408.04 290.94 406.83 291.66 C 407.31 288.88 408.00 286.15 408.92 283.49 C 410.95 278.83 413.39 274.34 416.22 270.12 Z" />
</g>
<g id="#b6bd89ff">
<path fill="#b6bd89" opacity="1.00" d=" M 303.34 224.76 C 303.37 224.77 303.43 224.80 303.46 224.82 C 303.43 224.80 303.37 224.77 303.34 224.76 Z" />
</g>
<g id="#ff3364ff">
<path fill="#ff3364" opacity="1.00" d=" M 263.10 225.95 C 264.88 226.33 266.54 227.08 268.02 228.15 C 269.93 228.96 271.86 229.75 273.78 230.56 C 273.71 231.00 273.57 231.86 273.50 232.30 C 272.67 233.65 271.89 235.05 271.13 236.45 C 268.89 235.46 266.58 234.65 264.32 233.72 C 263.13 231.41 263.42 228.51 263.10 225.95 Z" />
</g>
<g id="#7be13fff">
<path fill="#7be13f" opacity="1.00" d=" M 276.49 236.55 C 277.70 235.57 278.90 234.58 280.11 233.59 C 285.97 236.37 291.79 239.23 297.59 242.14 C 295.57 243.67 293.41 244.99 291.13 246.07 C 286.36 243.47 281.27 241.53 276.35 239.23 C 276.39 238.33 276.44 237.44 276.49 236.55 Z" />
</g>
<g id="#030300ff">
<path fill="#030300" opacity="1.00" d=" M 544.04 265.86 C 544.26 265.26 544.69 264.06 544.90 263.46 C 550.92 266.03 552.25 273.33 554.07 278.95 C 555.69 285.16 556.03 291.55 556.58 297.91 C 556.88 299.45 555.82 302.19 553.80 301.22 C 551.68 297.82 552.85 293.66 552.24 289.92 C 551.37 285.25 550.30 280.61 549.00 276.04 C 548.06 272.35 546.15 269.00 544.04 265.86 Z" />
</g>
<g id="#030201ff">
<path fill="#030201" opacity="1.00" d=" M 440.62 275.86 C 444.29 272.05 447.83 268.08 451.74 264.52 C 454.29 263.88 456.04 266.28 455.78 268.63 C 445.78 275.29 438.91 285.53 431.74 294.94 C 429.39 297.71 427.72 300.93 426.09 304.15 C 423.13 308.63 421.73 313.78 420.51 318.94 C 419.47 318.79 418.43 318.65 417.40 318.51 C 417.35 313.50 419.33 308.79 421.26 304.27 C 426.55 294.05 433.63 284.95 440.62 275.86 Z" />
</g>
<g id="#73756fff">
<path fill="#73756f" opacity="1.00" d=" M 266.08 266.21 C 267.45 265.93 267.91 266.49 267.45 267.89 C 266.07 268.17 265.61 267.61 266.08 266.21 Z" />
</g>
<g id="#020100ff">
<path fill="#020100" opacity="1.00" d=" M 529.37 266.45 C 532.38 265.37 534.44 269.45 534.91 271.95 C 536.73 281.07 539.96 289.90 540.66 299.22 C 542.07 305.27 541.18 311.47 541.78 317.59 C 540.58 317.62 539.39 317.67 538.20 317.72 C 537.38 313.85 537.46 309.88 537.33 305.96 C 535.97 295.51 533.47 285.26 530.99 275.04 C 530.43 272.20 528.72 269.39 529.37 266.45 Z" />
</g>
<g id="#8bc5f9ff">
<path fill="#8bc5f9" opacity="1.00" d=" M 270.23 274.03 C 271.44 275.18 272.45 276.53 273.19 278.04 C 277.41 286.81 281.29 295.81 283.70 305.26 C 286.18 311.62 287.63 318.28 288.79 324.99 C 291.53 336.79 292.59 349.13 290.57 361.13 C 289.68 368.88 288.50 376.67 285.88 384.05 C 283.17 392.11 280.29 400.26 275.19 407.17 C 268.52 415.98 261.10 424.58 251.56 430.37 C 241.77 434.75 232.63 440.73 222.03 443.07 C 214.93 444.22 207.97 446.22 200.78 446.79 C 199.18 448.15 196.98 447.69 195.06 447.59 C 192.64 447.33 190.13 447.57 187.80 446.74 C 191.85 446.72 196.00 447.45 199.97 446.37 C 198.40 445.70 196.82 445.03 195.25 444.37 C 200.75 442.64 206.64 441.81 211.56 438.59 C 219.69 434.27 227.87 429.90 234.98 424.01 C 238.99 419.61 243.91 416.18 247.66 411.52 C 253.40 406.39 256.89 399.43 261.28 393.22 C 270.23 379.62 275.14 363.77 277.78 347.81 C 278.66 344.26 278.87 340.60 278.76 336.96 C 278.49 331.65 280.19 326.36 278.96 321.10 C 278.57 314.04 278.64 306.87 277.00 299.95 C 275.68 291.10 273.39 282.39 270.23 274.03 Z" />
</g>
<g id="#fbed3dff">
<path fill="#fbed3d" opacity="1.00" d=" M 207.17 287.93 C 209.42 286.47 211.70 285.02 213.93 283.53 C 223.04 288.54 232.59 292.68 241.64 297.83 C 240.24 299.68 238.97 301.62 237.85 303.66 C 227.49 298.69 217.59 292.77 207.17 287.93 Z" />
</g>
<g id="#e8d652ff">
<path fill="#e8d652" opacity="1.00" d=" M 722.72 285.26 C 724.86 285.49 727.57 285.98 728.19 288.45 C 729.00 293.44 730.21 298.44 730.56 303.48 C 729.22 304.39 727.78 305.14 726.38 305.93 C 724.17 299.84 722.64 293.57 721.05 287.31 C 721.47 286.80 722.30 285.77 722.72 285.26 Z" />
</g>
<g id="#4ebd84ff">
<path fill="#4ebd84" opacity="1.00" d=" M 699.04 288.73 C 701.03 288.19 703.03 287.66 705.03 287.13 C 706.61 298.24 710.58 308.80 713.65 319.55 C 714.58 322.72 715.97 325.73 717.38 328.72 C 715.69 329.14 714.02 329.56 712.34 329.97 C 710.16 321.56 706.52 313.66 703.99 305.37 C 702.23 299.85 699.84 294.51 699.04 288.73 Z" />
</g>
<g id="#f30948ff">
<path fill="#f30948" opacity="1.00" d=" M 680.43 290.31 C 680.93 290.33 681.92 290.35 682.42 290.37 C 684.50 292.91 686.23 295.73 687.22 298.89 C 687.63 302.10 688.72 305.16 689.53 308.28 C 689.12 308.68 688.30 309.49 687.89 309.89 C 685.38 307.84 684.15 304.77 683.18 301.78 C 680.55 298.53 680.10 294.35 680.43 290.31 Z" />
</g>
<g id="#fce8e7ff">
<path fill="#fce8e7" opacity="1.00" d=" M 462.35 291.36 C 468.21 289.79 473.33 298.33 468.94 302.70 C 467.79 304.61 465.54 303.45 463.99 302.84 C 462.44 302.74 460.90 302.67 459.36 302.60 C 459.18 298.68 459.81 294.50 462.35 291.36 Z" />
</g>
<g id="#5ab8f7ff">
<path fill="#5ab8f7" opacity="1.00" d=" M 242.66 304.44 C 244.45 302.83 246.54 300.18 249.25 301.62 C 256.93 305.70 264.96 309.16 272.51 313.46 C 272.93 315.99 272.77 318.58 272.79 321.14 C 267.96 319.65 263.74 316.77 259.20 314.65 C 253.59 311.99 248.04 309.23 242.66 306.14 C 242.66 305.72 242.66 304.87 242.66 304.44 Z" />
</g>
<g id="#7ae13fff">
<path fill="#7ae13f" opacity="1.00" d=" M 180.14 310.28 C 181.95 308.54 183.86 306.90 185.87 305.39 C 197.99 311.72 210.25 317.78 222.35 324.15 C 221.39 326.47 220.49 328.84 220.08 331.34 C 206.83 324.20 193.26 317.65 180.14 310.28 Z" />
</g>
<g id="#fde7e5ff">
<path fill="#fde7e5" opacity="1.00" d=" M 453.10 308.44 C 454.33 308.05 455.58 307.71 456.84 307.42 C 458.47 308.77 461.92 309.21 461.70 311.86 C 461.17 316.53 453.98 318.88 451.17 314.93 C 450.83 312.61 451.80 310.31 453.10 308.44 Z" />
</g>
<g id="#fce7e7ff">
<path fill="#fce7e7" opacity="1.00" d=" M 481.20 314.20 C 483.44 312.19 485.47 308.94 488.93 309.38 C 492.12 308.86 494.65 311.39 495.89 314.07 C 500.10 321.50 500.58 330.24 503.85 338.02 C 502.65 339.80 501.30 341.53 499.43 342.65 C 495.82 345.94 492.30 349.42 489.69 353.58 C 487.26 357.44 483.59 360.26 480.77 363.82 C 479.31 362.11 477.88 360.38 476.25 358.84 C 477.34 354.60 481.22 351.75 482.83 347.68 C 487.31 342.89 490.02 336.75 492.61 330.80 C 493.67 330.22 494.35 329.34 494.66 328.18 C 494.29 325.37 490.99 325.70 488.95 324.94 C 485.79 324.48 483.61 321.98 481.25 320.09 C 480.53 318.16 480.71 316.15 481.20 314.20 Z" />
</g>
<g id="#ead64fff">
<path fill="#ead64f" opacity="1.00" d=" M 728.15 311.06 C 728.81 309.56 730.69 309.24 731.95 308.38 C 733.47 311.83 734.31 315.52 734.69 319.26 C 733.39 319.98 732.05 320.64 730.61 321.02 C 729.77 317.70 728.36 314.50 728.15 311.06 Z" />
</g>
<g id="#fdfdfeff">
<path fill="#fdfdfe" opacity="1.00" d=" M 780.09 309.91 C 792.21 316.89 805.65 321.64 816.83 330.18 C 817.08 333.15 816.17 336.00 815.44 338.84 C 808.23 338.13 801.81 334.11 796.69 329.18 C 790.97 324.04 784.87 319.36 779.21 314.16 C 779.45 312.73 779.75 311.32 780.09 309.91 Z" />
</g>
<g id="#e4104dff">
<path fill="#e4104d" opacity="1.00" d=" M 688.16 312.62 C 689.22 312.51 690.29 312.41 691.37 312.31 C 694.21 316.88 694.50 322.42 696.91 327.18 C 698.14 329.77 698.87 332.55 699.53 335.34 C 698.65 335.29 697.79 335.26 696.94 335.22 C 693.86 327.75 691.32 320.07 688.16 312.62 Z" />
</g>
<g id="#fbe7e6ff">
<path fill="#fbe7e6" opacity="1.00" d=" M 444.47 327.18 C 443.90 324.01 445.15 321.09 446.67 318.39 C 449.91 320.34 453.40 321.93 457.28 321.77 C 456.92 323.18 456.57 324.60 456.25 326.03 C 452.76 328.55 448.38 328.78 444.47 327.18 Z" />
</g>
<g id="#fce7e6ff">
<path fill="#fce7e6" opacity="1.00" d=" M 775.52 327.37 C 776.77 325.62 778.50 324.32 780.22 323.07 C 786.26 326.69 791.32 331.72 796.41 336.54 C 801.22 340.78 807.24 343.34 813.42 344.91 C 815.98 353.58 814.53 362.88 813.06 371.64 C 812.76 371.66 812.16 371.70 811.86 371.72 C 811.20 368.04 809.68 364.58 809.15 360.88 C 807.60 355.70 805.88 350.48 803.16 345.79 C 799.07 339.24 791.91 335.88 785.85 331.51 C 782.64 333.38 783.30 337.49 781.25 340.19 C 779.40 342.90 777.17 345.61 774.09 346.94 C 771.25 347.44 768.33 344.81 768.62 341.92 C 768.89 336.35 772.34 331.70 775.52 327.37 Z" />
</g>
<g id="#ff3463ff">
<path fill="#ff3463" opacity="1.00" d=" M 227.35 327.12 C 232.75 328.78 237.32 332.24 242.54 334.35 C 247.79 336.43 252.19 340.12 257.52 342.03 C 261.78 344.52 266.06 347.04 270.68 348.84 C 270.73 351.85 270.41 354.86 269.38 357.72 C 262.74 353.58 255.51 350.50 248.90 346.33 C 241.87 342.54 234.65 339.12 227.65 335.28 C 226.22 334.58 225.29 333.24 224.26 332.08 C 225.27 330.41 226.28 328.74 227.35 327.12 Z" />
</g>
<g id="#b4aa9eff">
<path fill="#b4aa9e" opacity="1.00" d=" M 870.39 348.45 C 873.70 346.49 876.94 343.56 881.04 343.82 C 888.89 344.11 896.67 347.23 902.43 352.59 C 909.16 359.87 912.02 370.19 911.22 379.97 C 910.68 385.07 910.65 390.34 908.54 395.11 C 905.41 402.76 904.83 412.25 897.77 417.62 C 888.50 420.05 877.73 419.07 869.91 413.17 C 864.54 412.11 859.89 408.28 856.82 403.90 C 855.74 398.88 857.00 393.40 860.30 389.44 C 865.74 382.42 871.26 374.95 873.01 366.05 C 873.43 360.92 872.61 355.70 870.71 350.92 C 870.63 350.30 870.47 349.07 870.39 348.45 Z" />
<path fill="#b4aa9e" opacity="1.00" d=" M 69.83 357.77 C 76.50 356.66 83.33 356.31 90.05 357.27 C 96.58 357.24 103.84 359.66 107.31 365.57 C 107.24 368.39 107.24 371.27 106.30 373.97 C 101.96 387.47 100.47 402.07 103.61 415.99 C 104.72 419.53 106.44 422.85 108.13 426.16 C 102.19 430.01 94.73 429.49 87.95 429.43 C 76.97 427.91 64.90 428.19 55.54 421.35 C 49.15 405.41 50.50 385.89 61.06 372.02 C 64.10 367.34 65.70 361.70 69.83 357.77 Z" />
<path fill="#b4aa9e" opacity="1.00" d=" M 131.33 445.12 C 133.81 439.12 136.28 432.91 140.80 428.10 C 145.00 433.88 150.68 438.65 157.21 441.57 C 160.95 443.06 163.26 446.73 167.00 448.22 C 175.38 451.16 184.18 453.01 193.07 453.23 C 195.36 453.05 197.65 452.71 199.95 452.99 C 203.32 452.55 206.71 452.27 210.09 451.87 C 213.84 452.39 217.28 454.18 220.98 455.02 C 225.01 455.97 228.95 457.27 232.74 458.96 C 233.00 464.04 234.95 468.91 234.64 474.03 C 234.73 476.83 233.34 479.36 232.70 482.03 C 228.54 485.75 222.75 486.45 217.85 488.82 C 212.87 491.23 207.19 490.46 202.00 492.12 C 197.04 492.78 192.04 493.22 187.03 493.04 C 182.65 492.78 178.33 494.17 173.96 493.59 C 161.01 492.01 147.79 490.53 135.71 485.27 C 133.01 484.45 130.86 482.42 129.99 479.72 C 128.47 476.57 131.64 473.95 132.99 471.43 C 131.39 471.37 129.79 471.34 128.19 471.32 C 128.16 468.93 128.15 466.55 128.13 464.17 C 128.51 463.77 129.29 462.95 129.68 462.55 C 129.70 462.02 129.73 460.98 129.75 460.46 C 129.31 460.06 128.43 459.25 127.99 458.84 C 129.28 454.31 129.76 449.57 131.33 445.12 Z" />
<path fill="#b4aa9e" opacity="1.00" d=" M 816.97 457.99 C 819.87 457.79 822.72 457.20 825.51 456.34 C 827.06 462.29 829.01 468.56 827.57 474.74 C 827.19 476.99 828.43 479.25 827.75 481.52 C 826.72 485.32 826.24 489.56 824.02 492.87 C 820.03 495.14 815.35 495.90 810.91 496.92 C 799.66 498.60 788.35 500.78 776.94 500.45 C 769.51 499.36 761.55 499.81 754.65 496.54 C 755.40 489.75 756.25 482.94 758.74 476.52 C 760.99 471.13 762.09 464.82 766.87 460.94 C 777.43 458.95 788.31 457.60 799.03 459.16 C 805.04 459.83 810.99 458.50 816.97 457.99 Z" />
</g>
<g id="#fefefdff">
<path fill="#fefefd" opacity="1.00" d=" M 500.49 350.62 C 502.83 348.58 505.16 346.53 507.36 344.33 C 510.68 347.38 512.83 351.39 515.55 354.94 C 510.73 359.65 506.42 364.90 501.08 369.06 C 496.97 372.38 493.21 376.10 489.68 380.03 C 487.68 377.17 485.49 374.37 484.18 371.12 C 483.53 369.69 485.21 368.92 485.83 367.91 C 488.02 365.37 490.36 362.98 492.62 360.50 C 495.46 357.38 497.28 353.42 500.49 350.62 Z" />
</g>
<g id="#fbed41ff">
<path fill="#fbed41" opacity="1.00" d=" M 206.64 362.00 C 207.37 359.13 208.79 356.27 211.94 355.54 C 218.37 358.52 224.61 361.88 230.89 365.17 C 240.62 370.80 250.80 375.62 260.69 380.98 C 260.21 384.29 258.05 386.95 256.27 389.66 C 254.75 386.92 251.27 386.83 248.90 385.17 C 234.97 377.16 220.03 370.94 206.64 362.00 Z" />
</g>
<g id="#fd3362ff">
<path fill="#fd3362" opacity="1.00" d=" M 152.83 362.26 C 159.30 363.93 164.40 368.63 170.42 371.36 C 176.39 375.05 183.18 377.31 188.75 381.62 C 188.02 382.65 187.29 383.67 186.57 384.70 C 186.58 385.63 186.60 387.47 186.61 388.40 C 186.96 388.84 187.66 389.74 188.02 390.19 C 179.70 386.89 172.08 382.09 164.10 378.08 C 160.24 376.25 156.79 372.84 152.20 373.33 C 152.09 369.62 152.34 365.92 152.83 362.26 Z" />
</g>
<g id="#79e341ff">
<path fill="#79e341" opacity="1.00" d=" M 192.52 389.90 C 190.40 387.90 191.69 385.32 193.99 384.24 C 195.59 384.31 196.88 385.38 198.26 386.07 C 210.27 392.31 222.18 398.75 234.21 404.96 C 236.90 406.21 239.47 407.69 241.99 409.26 C 239.61 411.24 237.39 413.40 235.16 415.54 C 226.24 410.00 216.27 406.38 207.42 400.70 C 207.39 400.68 207.31 400.64 207.28 400.62 C 201.99 398.27 197.12 395.05 191.72 392.93 C 191.87 392.57 192.17 391.84 192.32 391.48 C 192.37 391.09 192.47 390.30 192.52 389.90 Z" />
</g>
<g id="#5f6a62ff">
<path fill="#5f6a62" opacity="1.00" d=" M 191.72 392.93 C 190.44 391.94 190.64 391.45 192.32 391.48 C 192.17 391.84 191.87 392.57 191.72 392.93 Z" />
</g>
<g id="#fbec40ff">
<path fill="#fbec40" opacity="1.00" d=" M 150.49 396.15 C 153.77 397.63 157.00 399.24 160.05 401.16 C 164.44 403.25 168.48 405.98 172.93 407.96 C 171.88 409.66 170.77 411.33 169.73 413.04 C 166.92 412.85 164.84 410.80 162.42 409.62 C 158.79 407.81 155.21 405.93 151.53 404.24 C 151.24 401.53 150.75 398.86 150.49 396.15 Z" />
</g>
<g id="#869183ff">
<path fill="#869183" opacity="1.00" d=" M 207.28 400.62 C 207.31 400.64 207.39 400.68 207.42 400.70 C 207.39 400.68 207.31 400.64 207.28 400.62 Z" />
</g>
<g id="#f3efd9ff">
</g>
<g id="#5bb8f9ff">
<path fill="#5bb8f9" opacity="1.00" d=" M 174.14 415.98 C 175.02 414.62 175.94 413.30 176.91 412.01 C 182.48 411.52 186.56 415.64 191.31 417.69 C 197.00 420.21 202.33 423.41 207.88 426.19 C 210.16 427.53 212.93 428.51 214.19 431.04 C 211.81 432.13 209.46 433.29 207.17 434.58 C 206.17 433.60 205.17 432.63 204.17 431.66 C 203.63 431.59 202.53 431.43 201.98 431.36 C 198.49 428.05 193.67 426.88 189.71 424.28 C 184.48 421.59 179.32 418.77 174.14 415.98 Z" />
</g>
<g id="#dadbd6ff">
<path fill="#dadbd6" opacity="1.00" d=" M 873.09 421.70 C 875.33 422.43 877.59 423.11 879.91 423.61 C 878.78 428.43 879.50 433.44 878.28 438.25 C 876.54 442.20 874.65 446.11 873.17 450.18 C 871.58 454.55 868.30 457.92 865.07 461.14 C 858.35 468.61 848.79 472.97 839.06 474.90 C 837.58 474.59 836.09 474.34 834.62 474.13 C 834.19 472.23 833.83 470.33 833.48 468.43 C 838.60 468.54 843.20 466.05 847.61 463.76 C 858.98 458.15 868.00 447.80 871.39 435.51 C 872.49 430.98 873.13 426.37 873.09 421.70 Z" />
<path fill="#dadbd6" opacity="1.00" d=" M 76.32 433.56 C 78.98 434.57 81.83 434.66 84.64 434.62 C 84.29 440.55 85.61 446.62 88.83 451.67 C 93.73 459.49 102.23 464.50 111.08 466.64 C 114.98 466.95 118.90 466.71 122.81 466.70 C 123.24 469.25 123.62 471.83 123.66 474.43 C 112.94 476.17 101.43 475.54 91.82 470.05 C 87.48 467.27 83.47 463.79 80.46 459.58 C 76.36 451.70 74.47 442.34 76.32 433.56 Z" />
</g>
<g id="#f5ce93ff">
<path fill="#f5ce93" opacity="1.00" d=" M 605.09 442.29 C 616.71 441.33 628.18 438.76 639.88 438.87 C 639.52 446.88 642.48 454.47 643.46 462.33 C 638.30 462.32 633.10 462.03 628.00 463.03 C 621.06 464.38 613.96 463.30 607.00 464.52 C 591.40 462.97 575.66 464.12 560.00 463.85 C 555.99 464.29 551.98 464.75 547.94 464.59 C 534.04 466.40 519.94 464.25 506.04 466.00 C 495.98 466.09 485.89 465.81 475.91 467.34 C 461.95 468.23 447.93 466.32 434.02 468.14 C 427.69 468.71 421.31 467.83 415.00 468.73 C 404.98 469.22 395.05 471.51 384.98 470.31 C 377.25 468.75 369.71 472.03 361.99 472.08 C 357.97 472.06 353.94 472.25 349.94 471.84 C 342.23 470.58 334.18 472.42 326.70 469.57 C 326.83 462.15 326.31 454.69 327.60 447.35 C 334.41 447.14 341.27 447.85 348.02 446.68 C 358.00 446.33 368.00 446.56 377.98 446.62 C 385.97 448.25 394.22 446.25 402.18 448.16 C 408.73 449.54 415.47 448.21 422.08 449.10 C 428.37 450.05 434.70 448.90 441.01 448.78 C 448.37 449.08 455.64 447.73 463.00 447.94 C 472.89 446.27 482.90 446.51 492.89 446.44 C 500.38 445.27 507.98 446.11 515.51 445.32 C 522.39 445.07 529.21 444.27 536.09 444.07 C 539.48 443.13 542.54 445.23 545.81 445.73 C 549.48 446.54 552.28 443.02 555.95 443.26 C 566.25 443.70 576.59 443.67 586.90 443.44 C 592.90 442.19 599.06 443.34 605.09 442.29 Z" />
<path fill="#f5ce93" opacity="1.00" d=" M 574.91 470.36 C 591.81 468.30 608.85 472.35 625.73 469.71 C 625.76 472.47 625.74 475.24 626.03 478.00 C 626.84 484.67 625.99 491.39 624.88 497.97 C 623.87 503.26 624.34 508.66 624.37 514.00 L 355.81 514.00 C 357.42 502.21 355.97 490.28 357.61 478.50 C 363.42 477.95 369.30 478.08 375.03 476.84 C 385.63 475.79 396.36 477.36 406.94 476.02 C 414.54 474.33 422.35 475.40 430.06 474.90 C 437.36 474.28 444.66 473.28 452.01 473.50 C 457.69 473.27 463.30 474.58 468.98 474.31 C 477.66 473.84 486.31 472.47 495.02 472.77 C 505.70 473.15 516.31 471.00 526.99 471.82 C 533.99 472.40 540.96 471.10 547.97 471.17 C 556.90 469.91 565.93 470.94 574.91 470.36 Z" />
</g>
<g id="#95b2deff">
<path fill="#95b2de" opacity="1.00" d=" M 171.40 444.18 C 171.52 443.82 171.76 443.12 171.88 442.76 C 179.42 445.22 187.46 446.19 195.25 444.37 C 196.82 445.03 198.40 445.70 199.97 446.37 C 196.00 447.45 191.85 446.72 187.80 446.74 C 182.19 447.01 176.81 445.38 171.40 444.18 Z" />
</g>
<g id="#8bc4f9ff">
<path fill="#8bc4f9" opacity="1.00" d=" M 222.08 449.08 C 225.33 448.17 228.61 446.90 232.05 447.35 C 237.94 448.18 243.66 449.91 249.20 452.07 C 256.08 453.81 262.26 457.39 268.68 460.30 C 276.81 464.00 283.71 469.78 290.64 475.30 C 302.89 485.47 309.82 500.17 317.03 514.00 L 290.75 514.00 C 288.96 507.49 286.48 501.21 283.78 495.04 C 276.95 483.11 267.71 472.26 255.98 464.93 C 251.23 462.08 246.71 458.79 241.59 456.61 C 235.32 453.51 228.45 451.94 222.08 449.08 Z" />
</g>
<g id="#4b7fb8ff">
<path fill="#4b7fb8" opacity="1.00" d=" M 631.05 514.00 C 636.15 499.17 645.30 485.61 657.58 475.76 C 659.33 477.38 662.24 478.45 662.92 480.85 C 658.27 485.89 653.32 490.68 649.11 496.13 C 644.00 501.11 641.21 507.73 638.10 514.00 L 631.05 514.00 Z" />
</g>
<g id="#4d80b9ff">
<path fill="#4d80b9" opacity="1.00" d=" M 667.61 483.94 C 672.45 487.19 676.80 491.14 681.79 494.19 C 688.52 498.02 695.22 502.18 702.90 503.85 C 697.94 506.03 693.88 509.58 690.80 514.00 L 645.04 514.00 C 650.14 502.40 659.00 493.03 667.61 483.94 Z" />
</g>
<g id="#dbdcd7ff">
<path fill="#dbdcd7" opacity="1.00" d=" M 171.41 499.51 C 176.22 499.84 181.04 499.76 185.87 499.73 C 186.88 504.42 186.63 509.23 186.61 514.00 L 170.38 514.00 C 171.13 509.20 170.56 504.30 171.41 499.51 Z" />
</g>
<g id="#dadcd7ff">
<path fill="#dadcd7" opacity="1.00" d=" M 781.44 506.63 C 786.11 506.18 790.77 505.49 795.48 505.70 C 795.36 508.46 795.18 511.23 795.08 514.00 L 780.71 514.00 C 780.86 511.53 781.10 509.07 781.44 506.63 Z" />
</g>
</svg>
