<?xml version="1.0" encoding="utf-8"?>
<!-- Generator: Adobe Illustrator 17.0.0, SVG Export Plug-In . SVG Version: 6.00 Build 0)  -->
<!DOCTYPE svg PUBLIC "-//W3C//DTD SVG 1.1//EN" "http://www.w3.org/Graphics/SVG/1.1/DTD/svg11.dtd">
<svg version="1.1" id="图层_1" xmlns="http://www.w3.org/2000/svg" xmlns:xlink="http://www.w3.org/1999/xlink" x="0px" y="0px"
	 width="417.202px" height="127.638px" viewBox="0 0 417.202 127.638" enable-background="new 0 0 417.202 127.638"
	 xml:space="preserve">
<g>
	<g>
		<path fill="#F19339" d="M417.516,72.519H284.219V0h133.296V72.519z M285.787,70.952h130.167V1.563H285.787V70.952z"/>
		<path fill-rule="evenodd" clip-rule="evenodd" fill="#F19339" d="M285.787,72.519H0V0h285.787V72.519z M26.85,52.51
			c-0.336,0-0.609-0.273-0.609-0.611V23.293h-16.08c-0.341,0-0.613-0.273-0.613-0.613v-2.053c0-0.34,0.273-0.618,0.613-0.618h35.44
			c0.341,0,0.613,0.277,0.613,0.618v2.053c0,0.34-0.273,0.613-0.613,0.613H29.566v28.606c0,0.338-0.273,0.611-0.609,0.611H26.85z
			 M61.931,52.51c-3.788,0-6.873-3.084-6.873-6.872V26.887c0-3.789,3.084-6.877,6.873-6.877h22.953c3.775,0,6.836,3.089,6.836,6.877
			v18.751c0,3.788-3.062,6.872-6.836,6.872H61.931z M61.931,23.293c-1.953,0-3.543,1.613-3.543,3.593v18.751
			c0,1.989,1.554,3.547,3.543,3.547h22.953c1.962,0,3.557-1.594,3.557-3.547V26.887c0-1.981-1.594-3.593-3.557-3.593H61.931z
			 M102.054,52.51c-0.341,0-0.613-0.273-0.613-0.611V20.627c0-0.34,0.272-0.618,0.613-0.618h29.219c3.766,0,6.827,3.089,6.827,6.877
			v4.163c0,3.791-3.062,6.875-6.827,6.875h-25.054c-0.34,0-0.618-0.275-0.618-0.609v-2.108c0-0.336,0.277-0.609,0.618-0.609h25.054
			c1.922,0,3.548-1.626,3.548-3.55v-4.163c0-1.981-1.595-3.593-3.548-3.593H104.77v28.606c0,0.338-0.277,0.611-0.613,0.611H102.054z
			 M154.698,52.51c-3.793,0-6.877-3.084-6.877-6.872V26.887c0-3.789,3.084-6.877,6.877-6.877h28.167
			c0.341,0,0.613,0.277,0.613,0.618v2.053c0,0.34-0.273,0.613-0.613,0.613h-28.167c-1.958,0-3.548,1.613-3.548,3.593v18.751
			c0,1.989,1.563,3.547,3.548,3.547h22.957c1.953,0,3.548-1.594,3.548-3.547v-7.713h-18.179c-0.336,0-0.613-0.275-0.613-0.609
			v-2.108c0-0.336,0.277-0.609,0.613-0.609h20.85c0.336,0,0.613,0.272,0.613,0.609v10.429c0,3.788-3.066,6.872-6.832,6.872H154.698z
			 M201.085,52.51c-3.797,0-6.877-3.084-6.877-6.872V26.887c0-3.789,3.08-6.877,6.877-6.877h28.163c0.34,0,0.618,0.277,0.618,0.618
			v2.053c0,0.34-0.277,0.613-0.618,0.613h-28.163c-1.958,0-3.552,1.613-3.552,3.593v7.713h31.715c0.34,0,0.618,0.272,0.618,0.609
			v2.108c0,0.334-0.277,0.609-0.618,0.609h-31.715v7.713c0,1.989,1.563,3.547,3.552,3.547h28.163c0.34,0,0.618,0.277,0.618,0.613
			v2.101c0,0.338-0.277,0.611-0.618,0.611H201.085z M271.473,52.51c-1.049,0-2.267-0.554-2.957-1.347l-23.702-27.643
			c-0.082-0.093-0.35-0.218-0.459-0.227h-1.444v28.606c0,0.338-0.277,0.611-0.609,0.611h-2.108c-0.336,0-0.609-0.273-0.609-0.611
			V22.68c0-1.497,1.194-2.671,2.716-2.671h2.058c1.027,0,2.253,0.55,2.984,1.335l23.675,27.661c0.05,0.041,0.354,0.173,0.459,0.179
			h1.485V20.627c0-0.34,0.273-0.618,0.613-0.618h2.058c0.341,0,0.613,0.277,0.613,0.618v29.171c0,1.522-1.172,2.712-2.671,2.712
			H271.473z"/>
		<path fill="#F19339" d="M306.291,11.102v24.888h31.601V11.102H306.291z M334.585,33.736h-24.997V13.355h24.997V33.736z"/>
		<polygon fill="#F19339" points="343.838,61.413 343.838,51.197 328.857,51.197 328.857,61.413 325.564,61.413 325.564,41.563 
			343.838,41.563 343.838,11.102 347.141,11.102 347.141,43.814 328.857,43.814 328.857,49.233 347.141,49.233 347.141,61.413 		"/>
		<polygon fill="#F19339" points="315.321,61.413 315.321,51.225 308.29,51.225 300.054,60.966 297.042,59.919 304.592,51.225 
			297.042,51.225 297.042,49.233 315.321,49.233 315.321,43.814 297.042,43.814 297.042,11.102 300.336,11.102 300.336,41.563 
			318.619,41.563 318.619,61.413 		"/>
		<rect x="309.589" y="26.455" fill="#F19339" width="19.687" height="1.99"/>
		<rect x="309.589" y="18.91" fill="#F19339" width="19.687" height="1.989"/>
		<rect x="362.994" y="21.426" fill="#F19339" width="31.011" height="1.99"/>
		<path fill="#F19339" d="M359.696,11.102v22.635h42.926V11.102H359.696z M399.315,31.488h-36.321V13.355h36.321V31.488z"/>
		<rect x="358.587" y="49.367" fill="#F19339" width="11.329" height="1.989"/>
		<path fill="#F19339" d="M355.29,39.31v22.103h23.248V39.31H355.29z M375.226,59.16h-16.639V41.563h16.639V59.16z"/>
		<rect x="386.564" y="49.367" fill="#F19339" width="11.851" height="1.989"/>
		<path fill="#F19339" d="M383.266,39.31v22.103h23.761V39.31H383.266z M403.73,59.16h-17.166V41.563h17.166V59.16z"/>
	</g>
</g>
<g>
	<path fill="#F19339" d="M8.636,103.895c0.098,0.493,0.394,1.184,0.567,1.529c-4.587,3.502-5.228,4.044-5.598,4.538
		c-0.222-0.321-0.839-0.913-1.184-1.135c0.518-0.444,1.554-1.48,1.554-2.811v-8.533H0.127v-1.751h5.573v10.333L8.636,103.895z
		 M6.046,93.389c-0.838-0.962-2.491-2.639-3.748-3.798l1.135-1.184c1.257,1.11,2.935,2.713,3.773,3.625L6.046,93.389z
		 M22.397,107.964v1.8H7.476v-1.8h5.919V88.186h1.825v7.892h5.401v1.751H15.22v10.136H22.397z"/>
	<path fill="#F19339" d="M51.62,88.038v22.393h-1.948V88.038H51.62z"/>
	<path fill="#F19339" d="M101.239,107.841v1.751H80.203V89.345h20.469v1.751H82.028v16.745H101.239z M92.385,100.714l-0.049,0.173
		l0.049-0.049c2.294,1.628,5.228,3.971,6.684,5.475l-1.209,1.258c-1.258-1.431-3.822-3.601-6.042-5.228
		c-0.937,1.899-2.96,3.724-7.202,5.13c-0.222-0.395-0.74-1.06-1.134-1.406c4.858-1.406,6.535-3.428,7.053-5.351h-7.152v-1.628h7.399
		v-0.444v-3.083h-3.872c-0.617,0.814-1.307,1.554-1.973,2.146c-0.345-0.271-1.11-0.715-1.529-0.937
		c1.603-1.257,2.984-3.157,3.773-5.154l1.727,0.419c-0.271,0.641-0.592,1.307-0.962,1.924h11.098v1.603h-6.461v3.083v0.444h7.596
		v1.628H92.385z"/>
	<path fill="#F19339" d="M130.537,88.038v22.393h-1.948V88.038H130.537z"/>
	<path fill="#F19339" d="M180.23,91.046v1.702h-16.745v5.451c0,3.773-0.543,8.952-3.897,12.355c-0.296-0.395-0.987-1.06-1.381-1.282
		c2.195-2.22,3.009-5.031,3.305-7.743c-1.135,0.764-2.244,1.455-3.28,2.071l-0.666-1.677c1.085-0.542,2.565-1.356,4.094-2.244
		c0.025-0.518,0.025-1.011,0.025-1.504v-7.127h8.706c-0.271-0.888-0.617-1.899-0.937-2.738l1.775-0.37
		c0.444,0.962,0.863,2.17,1.134,3.107H180.23z M160.155,97.804c-0.469-1.135-1.48-3.033-2.294-4.439l1.381-0.641
		c0.838,1.381,1.874,3.206,2.368,4.266L160.155,97.804z M179.416,96.398c-1.702,1.628-4.143,3.329-6.363,4.488v7.497
		c0,1.06-0.271,1.529-1.11,1.825c-0.838,0.247-2.195,0.271-4.217,0.271c-0.099-0.518-0.395-1.209-0.641-1.702
		c1.554,0.074,3.132,0.049,3.576,0.024c0.395,0,0.543-0.099,0.543-0.469v-8.163c1.529-0.74,3.329-1.899,4.686-3.008h-10.826V95.51
		h12.651l0.419-0.099L179.416,96.398z"/>
	<path fill="#F19339" d="M209.453,88.038v22.393h-1.948V88.038H209.453z"/>
	<path fill="#F19339" d="M248.789,102.514c-0.296,1.529-0.962,2.935-2.195,4.193c3.107,1.406,7.349,1.775,12.824,1.924
		c-0.321,0.444-0.666,1.209-0.764,1.8c-5.697-0.247-10.186-0.789-13.539-2.565c-1.652,1.085-3.946,1.997-7.152,2.663
		c-0.198-0.419-0.691-1.184-1.085-1.603c2.935-0.567,5.031-1.257,6.535-2.121c-1.184-0.913-2.195-2.047-3.033-3.478l1.529-0.616
		c0.838,1.282,1.825,2.293,2.984,3.058c1.135-0.962,1.702-2.071,1.997-3.255h-7.324v-9.47h7.62v-2.071h-9.864V89.32h21.307v1.652
		h-9.569v2.071h8.015v9.47H248.789z M241.316,97.039h5.869v-2.466h-5.869V97.039z M247.137,100.985
		c0.049-0.493,0.049-1.011,0.049-1.504v-0.986h-5.869v2.491H247.137z M255.275,98.494h-6.215v1.011c0,0.493-0.024,1.011-0.049,1.48
		h6.264V98.494z M249.06,94.573v2.466h6.215v-2.466H249.06z"/>
	<path fill="#F19339" d="M288.37,88.038v22.393h-1.948V88.038H288.37z"/>
	<path fill="#F19339" d="M324.401,92.896c-0.469,0.962-0.962,1.948-1.504,2.861h11.887v12.454c0,1.11-0.246,1.652-1.036,1.948
		c-0.814,0.296-2.195,0.321-4.291,0.321c-0.074-0.543-0.345-1.282-0.592-1.8c1.628,0.074,3.107,0.049,3.551,0.049
		c0.42-0.025,0.567-0.148,0.567-0.518v-2.565h-10.284v4.858h-1.8V98.618c-1.184,1.48-2.564,2.811-4.118,3.896
		c-0.222-0.37-0.789-1.06-1.159-1.406c2.96-1.997,5.204-4.957,6.782-8.212h-6.19V91.17h6.955c0.419-1.06,0.789-2.121,1.085-3.181
		l1.825,0.444c-0.296,0.913-0.592,1.85-0.962,2.737h12.552v1.727H324.401z M332.983,97.409h-10.284V99.9h10.284V97.409z
		 M332.983,104.068v-2.565h-10.284v2.565H332.983z"/>
	<path fill="#F19339" d="M367.287,88.038v22.393h-1.948V88.038H367.287z"/>
	<path fill="#F19339" d="M399.298,94.351c-0.913,2.096-2.318,4.414-3.576,5.919c-0.271-0.296-0.912-0.863-1.307-1.11
		c1.282-1.381,2.515-3.379,3.305-5.302L399.298,94.351z M403.515,107.989c-0.518-1.036-1.406-2.318-2.491-3.65
		c-1.381,2.268-3.157,4.143-5.228,5.573c-0.271-0.345-0.888-1.011-1.282-1.332c2.22-1.381,4.044-3.28,5.376-5.647
		c-0.937-1.11-1.973-2.22-2.935-3.182l1.332-0.987c0.789,0.789,1.628,1.653,2.466,2.54c0.493-1.085,0.913-2.22,1.258-3.453
		l1.702,0.345c-0.444,1.627-1.06,3.107-1.751,4.488c1.282,1.504,2.392,2.984,3.033,4.168L403.515,107.989z M406.104,93.241h-11.122
		v-1.677h5.277c-0.345-0.863-1.06-2.071-1.751-2.984l1.48-0.617c0.764,0.913,1.554,2.171,1.924,2.984l-1.332,0.616h5.524V93.241z
		 M404.452,98.84c-0.444-1.159-1.603-2.984-2.713-4.316l1.381-0.716c1.085,1.258,2.293,3.033,2.787,4.218L404.452,98.84z
		 M415.5,94.179c-0.617,4.118-1.603,7.448-3.206,10.136c1.307,2.047,2.96,3.699,4.908,4.711c-0.419,0.32-0.987,1.011-1.282,1.455
		c-1.85-1.085-3.403-2.639-4.661-4.587c-1.455,1.924-3.304,3.453-5.672,4.686c-0.222-0.32-0.888-1.035-1.257-1.356
		c2.589-1.209,4.513-2.836,5.968-4.957c-0.937-1.8-1.702-3.798-2.294-5.968c-0.419,0.814-0.888,1.578-1.356,2.269
		c-0.247-0.345-0.838-1.036-1.233-1.356c1.973-2.688,3.206-6.881,3.946-11.246l1.702,0.247c-0.271,1.455-0.567,2.885-0.937,4.242
		h6.757v1.727H415.5z M409.63,94.179c-0.197,0.592-0.37,1.159-0.592,1.726c0.518,2.392,1.282,4.661,2.269,6.634
		c1.184-2.293,1.924-5.08,2.417-8.36H409.63z"/>
</g>
</svg>
