<?xml version="1.0" encoding="UTF-8" ?>
<!DOCTYPE svg PUBLIC "-//W3C//DTD SVG 1.1//EN" "http://www.w3.org/Graphics/SVG/1.1/DTD/svg11.dtd">
<svg width="874pt" height="320pt" viewBox="0 0 874 320" version="1.1" xmlns="http://www.w3.org/2000/svg">
<g id="#ffffffff">
<path fill="#ffffff" opacity="1.00" d=" M 264.37 22.71 C 268.73 28.95 272.59 35.52 276.69 41.93 C 272.50 48.31 268.63 54.89 264.35 61.21 C 264.23 55.31 264.29 49.41 264.32 43.51 C 256.68 43.32 249.03 43.51 241.40 43.38 C 240.70 39.54 244.67 40.52 247.06 40.37 C 252.80 40.44 258.54 40.43 264.28 40.38 C 264.32 34.49 264.20 28.60 264.37 22.71 Z" />
<path fill="#ffffff" opacity="1.00" d=" M 467.15 22.51 C 471.36 28.91 475.35 35.45 479.46 41.90 C 475.31 48.34 471.33 54.87 467.16 61.29 C 466.85 55.33 467.03 49.36 466.92 43.39 C 459.48 43.46 452.03 43.40 444.59 43.43 C 444.56 42.68 444.50 41.19 444.46 40.45 C 451.96 40.38 459.45 40.43 466.94 40.42 C 467.00 34.45 466.86 28.48 467.15 22.51 Z" />
<path fill="#ffffff" opacity="1.00" d=" M 668.91 22.80 C 673.76 28.68 677.17 35.58 681.45 41.87 C 677.14 48.30 673.56 55.25 668.77 61.33 C 668.95 55.35 668.92 49.37 668.85 43.40 C 661.43 43.45 654.01 43.41 646.59 43.43 C 646.56 42.68 646.50 41.19 646.48 40.45 C 653.93 40.39 661.39 40.42 668.85 40.43 C 668.95 34.55 668.83 28.68 668.91 22.80 Z" />
<path fill="#ffffff" opacity="1.00" d=" M 61.00 22.70 C 65.19 28.97 69.51 35.24 73.01 41.91 C 69.47 48.60 65.08 54.83 60.99 61.21 C 60.73 55.28 60.90 49.34 60.83 43.41 C 53.38 43.45 45.93 43.41 38.48 43.43 C 38.46 42.68 38.40 41.19 38.37 40.44 C 45.87 40.37 53.37 40.47 60.87 40.37 C 60.89 34.48 60.72 28.59 61.00 22.70 Z" />
<path fill="#ffffff" opacity="1.00" d=" M 129.48 142.34 C 131.87 142.36 134.26 142.39 136.66 142.47 C 137.34 150.04 137.73 157.82 136.46 165.34 C 134.15 165.37 131.83 165.38 129.52 165.39 C 129.44 157.71 129.50 150.02 129.48 142.34 Z" />
<path fill="#ffffff" opacity="1.00" d=" M 693.70 151.02 C 693.66 147.06 697.42 144.32 701.00 143.67 C 703.30 143.35 705.65 143.44 707.98 143.43 C 750.62 143.50 793.26 143.37 835.90 143.49 C 839.86 143.27 842.74 147.21 842.35 150.96 C 842.31 182.30 842.40 213.64 842.31 244.98 C 842.00 249.03 840.44 254.54 835.95 255.52 C 818.64 255.92 801.29 255.31 783.99 255.81 C 781.61 257.82 782.53 261.33 782.40 264.05 C 782.30 268.61 785.28 272.63 789.08 274.87 C 791.60 276.17 794.45 276.58 797.18 277.29 C 777.95 277.68 758.69 277.60 739.46 277.34 C 743.81 276.20 748.56 275.19 751.60 271.57 C 755.71 267.68 756.00 261.66 755.81 256.36 C 754.24 255.90 752.62 255.56 750.99 255.61 C 735.65 255.67 720.32 255.62 704.99 255.65 C 698.37 256.07 693.52 249.08 693.67 242.98 C 693.71 212.33 693.65 181.67 693.70 151.02 M 699.40 151.09 C 699.28 177.67 699.32 204.27 699.38 230.86 C 700.88 231.26 702.42 231.57 703.99 231.56 C 746.69 231.51 789.38 231.54 832.08 231.54 C 833.69 231.64 836.24 231.28 835.66 229.02 C 835.65 202.48 835.77 175.93 835.59 149.39 C 833.72 149.15 831.86 148.88 830.00 148.82 C 787.65 148.84 745.29 148.81 702.94 148.84 C 701.51 148.88 698.98 149.05 699.40 151.09 M 765.35 236.50 C 759.90 238.94 758.57 246.95 762.99 251.01 C 767.81 256.12 777.63 253.08 778.41 245.98 C 779.78 239.04 771.53 233.06 765.35 236.50 Z" />
<path fill="#ffffff" opacity="1.00" d=" M 481.51 164.38 C 491.86 159.42 503.70 158.14 515.08 158.67 C 517.03 179.11 519.37 199.52 521.57 219.94 C 522.37 226.61 523.33 233.37 522.34 240.08 C 520.55 251.54 518.74 263.01 517.20 274.51 C 511.88 273.05 506.60 271.49 501.29 270.00 C 501.25 267.89 501.23 265.78 501.21 263.67 C 495.81 261.84 490.21 260.73 484.66 259.50 C 484.50 261.29 484.40 263.09 484.31 264.89 C 482.90 264.69 481.51 264.50 480.12 264.31 C 480.49 231.00 480.72 197.67 481.51 164.38 Z" />
<path fill="#ffffff" opacity="1.00" d=" M 517.63 158.77 C 526.67 159.84 535.71 160.86 544.78 161.62 C 546.26 169.39 547.20 177.25 548.48 185.05 C 546.83 185.17 545.18 185.33 543.55 185.52 C 545.21 185.68 546.86 185.73 548.53 185.81 C 550.89 201.66 553.27 217.51 555.58 233.37 C 545.65 233.34 535.72 233.27 525.79 233.24 C 524.00 218.18 522.57 203.08 520.90 188.00 C 520.76 186.51 520.64 185.02 520.52 183.54 C 528.38 184.49 536.32 184.97 544.24 184.99 C 536.40 183.17 528.29 183.98 520.38 182.74 C 519.42 174.75 519.15 166.67 517.63 158.77 M 520.96 163.51 C 520.93 165.00 520.85 166.50 520.68 167.99 C 523.74 168.31 526.83 168.42 529.91 168.54 C 529.90 169.20 529.87 170.52 529.86 171.17 C 531.17 169.27 531.71 167.00 532.00 164.74 C 528.32 164.30 524.63 163.95 520.96 163.51 Z" />
<path fill="#ffffff" opacity="1.00" d=" M 547.87 162.16 C 569.68 164.38 591.40 167.46 613.19 169.81 C 614.85 176.71 616.45 183.63 617.85 190.60 C 595.69 188.36 573.47 187.22 551.29 185.36 C 550.03 177.64 549.08 169.88 547.87 162.16 Z" />
<path fill="#ffffff" opacity="1.00" d=" M 616.24 170.32 C 622.30 170.91 628.35 171.75 634.39 172.60 C 635.88 179.00 637.45 185.38 638.90 191.79 C 632.83 191.95 626.80 191.30 620.78 190.64 C 619.28 183.86 617.60 177.12 616.24 170.32 Z" />
<path fill="#ffffff" opacity="1.00" d=" M 551.38 186.03 C 557.26 186.33 563.10 187.21 568.99 187.41 C 572.33 187.56 575.74 187.15 578.99 188.15 C 592.06 188.80 605.09 189.99 618.11 191.32 C 621.26 205.48 624.40 219.63 627.63 233.77 C 604.58 233.68 581.53 233.33 558.48 233.40 C 555.87 217.64 553.79 201.81 551.38 186.03 Z" />
<path fill="#ffffff" opacity="1.00" d=" M 621.06 191.42 C 627.09 191.66 633.07 192.69 639.13 192.50 C 642.18 206.42 645.69 220.23 648.75 234.15 C 642.61 234.12 636.43 234.45 630.35 233.53 C 627.30 219.49 623.92 205.50 621.06 191.42 Z" />
<path fill="#ffffff" opacity="1.00" d=" M 281.28 200.20 C 285.06 199.61 288.88 199.69 292.68 199.90 C 292.36 200.54 291.72 201.81 291.40 202.44 C 288.52 202.41 285.64 202.41 282.77 202.43 C 282.27 201.68 281.78 200.93 281.28 200.20 Z" />
<path fill="#ffffff" opacity="1.00" d=" M 345.15 199.91 C 348.72 199.73 352.30 199.72 355.88 199.88 C 355.71 200.51 355.36 201.78 355.18 202.41 C 352.20 202.41 349.23 202.41 346.25 202.45 C 345.88 201.60 345.51 200.75 345.15 199.91 Z" />
<path fill="#ffffff" opacity="1.00" d=" M 366.07 200.19 C 369.68 199.65 373.33 199.67 376.96 199.89 C 376.81 200.52 376.49 201.79 376.34 202.42 C 373.42 202.41 370.52 202.41 367.61 202.45 C 367.09 201.69 366.58 200.94 366.07 200.19 Z" />
<path fill="#ffffff" opacity="1.00" d=" M 387.98 199.89 C 391.58 199.68 395.21 199.65 398.79 200.19 C 398.25 200.93 397.71 201.68 397.18 202.42 C 394.29 202.41 391.40 202.41 388.51 202.43 C 388.38 201.80 388.11 200.53 387.98 199.89 Z" />
<path fill="#ffffff" opacity="1.00" d=" M 409.02 199.90 C 412.64 199.64 416.27 199.68 419.87 200.19 C 419.50 200.75 418.76 201.89 418.38 202.46 C 415.44 202.41 412.51 202.41 409.57 202.42 C 409.44 201.79 409.16 200.53 409.02 199.90 Z" />
<path fill="#ffffff" opacity="1.00" d=" M 430.14 199.89 C 433.70 199.72 437.27 199.73 440.83 199.90 C 440.45 200.75 440.07 201.61 439.69 202.47 C 436.70 202.41 433.71 202.41 430.72 202.41 C 430.58 201.78 430.29 200.52 430.14 199.89 Z" />
<path fill="#ffffff" opacity="1.00" d=" M 302.34 200.27 C 306.23 199.60 310.20 199.49 314.08 200.36 C 313.64 200.88 312.78 201.93 312.34 202.45 C 309.57 202.41 306.80 202.41 304.04 202.39 C 303.47 201.68 302.90 200.97 302.34 200.27 Z" />
<path fill="#ffffff" opacity="1.00" d=" M 324.11 199.89 C 327.67 199.69 331.25 199.71 334.81 199.97 C 334.64 200.57 334.28 201.78 334.10 202.38 C 331.03 202.41 327.96 202.41 324.89 202.43 C 324.69 201.79 324.30 200.53 324.11 199.89 Z" />
<path fill="#ffffff" opacity="1.00" d=" M 519.99 274.74 C 521.74 261.76 523.73 248.80 525.69 235.84 C 535.65 235.99 545.64 235.54 555.59 236.16 C 553.18 248.53 551.00 260.94 548.41 273.26 C 538.91 273.32 529.47 274.40 519.99 274.74 Z" />
<path fill="#ffffff" opacity="1.00" d=" M 630.04 236.72 C 636.26 236.61 642.49 236.68 648.72 236.73 C 645.93 246.99 643.16 257.26 640.25 267.49 C 633.66 267.76 627.11 268.60 620.51 268.60 C 623.73 257.99 627.10 247.42 630.04 236.72 Z" />
<path fill="#ffffff" opacity="1.00" d=" M 557.68 238.73 L 559.22 236.49 C 568.14 235.65 577.05 237.48 585.99 237.03 C 599.77 236.82 613.57 237.50 627.33 236.66 C 627.02 237.60 626.40 239.49 626.09 240.43 L 625.83 240.44 C 621.23 241.02 616.64 240.08 612.04 240.16 C 600.75 240.16 589.46 240.34 578.17 240.16 L 578.81 241.82 C 577.68 241.83 575.42 241.83 574.29 241.83 L 574.72 240.04 C 573.84 240.17 572.08 240.44 571.20 240.57 C 567.50 242.27 563.36 241.75 559.41 241.84 C 559.34 241.33 559.21 240.29 559.14 239.78 C 578.15 238.89 597.15 240.49 616.15 239.49 C 619.26 240.33 622.52 240.30 625.63 239.46 C 618.77 238.86 611.88 238.65 605.01 239.13 C 600.71 238.29 596.35 238.08 592.00 238.63 C 587.63 238.29 583.30 238.77 578.99 239.37 C 571.89 239.21 564.73 239.88 557.68 238.73 Z" />
<path fill="#ffffff" opacity="1.00" d=" M 766.34 240.34 C 769.65 237.63 775.30 240.76 774.63 245.03 C 774.56 248.97 769.32 251.31 766.28 248.84 C 763.46 247.00 763.50 242.16 766.34 240.34 Z" />
<path fill="#ffffff" opacity="1.00" d=" M 558.51 246.19 C 558.39 245.26 558.16 243.40 558.04 242.48 C 565.07 242.97 571.94 245.18 579.03 244.32 C 586.87 243.63 594.96 245.49 602.62 243.30 C 606.92 243.28 611.24 243.56 615.40 244.73 C 605.28 243.99 595.11 244.33 585.00 244.82 C 576.71 244.65 568.42 244.33 560.13 244.06 L 560.98 246.49 L 558.51 246.19 Z" />
<path fill="#ffffff" opacity="1.00" d=" M 558.16 251.72 C 557.84 250.23 557.20 247.24 556.88 245.74 C 558.03 246.36 560.32 247.59 561.47 248.21 C 570.88 248.29 580.30 248.38 589.72 248.82 L 589.26 247.30 C 591.70 247.34 594.15 247.38 596.60 247.43 C 596.62 248.00 596.65 249.13 596.67 249.70 C 591.41 249.57 586.06 250.16 580.91 248.85 C 577.32 247.95 573.63 248.89 570.00 248.83 C 566.15 248.77 562.32 248.35 558.49 248.05 L 558.16 251.72 Z" />
<path fill="#ffffff" opacity="1.00" d=" M 556.66 253.02 C 563.33 251.76 570.12 252.20 576.82 253.02 L 576.15 251.24 C 578.61 251.27 581.07 251.31 583.54 251.35 C 583.62 251.95 583.78 253.15 583.86 253.75 C 578.89 253.72 573.87 254.18 568.97 253.16 C 566.07 252.47 563.13 253.06 560.26 253.58 C 559.36 253.44 557.56 253.16 556.66 253.02 Z" />
<path fill="#ffffff" opacity="1.00" d=" M 555.33 256.36 C 556.93 256.23 558.54 256.22 560.16 256.35 C 565.96 257.09 571.52 254.68 577.33 255.27 C 577.78 257.29 575.44 256.99 574.32 257.53 C 569.59 258.69 564.81 256.78 560.06 257.51 C 558.38 257.84 556.85 256.88 555.33 256.36 Z" />
<path fill="#ffffff" opacity="1.00" d=" M 554.70 259.27 C 556.97 260.11 560.31 262.27 562.00 259.29 C 565.46 259.19 569.09 258.98 572.32 260.48 L 572.31 262.16 C 566.05 261.69 559.77 261.75 553.50 261.83 L 554.70 259.27 Z" />
<path fill="#ffffff" opacity="1.00" d=" M 487.26 263.02 C 490.97 264.08 495.35 263.80 498.48 266.34 C 494.74 266.31 491.01 265.89 487.29 265.62 C 487.28 264.97 487.27 263.67 487.26 263.02 Z" />
<path fill="#ffffff" opacity="1.00" d=" M 591.17 267.73 C 591.99 266.88 592.82 266.04 593.66 265.20 C 594.59 265.30 596.45 265.51 597.39 265.61 L 597.34 266.67 C 601.87 266.56 606.56 267.38 610.94 265.85 C 613.61 265.16 616.42 265.69 619.15 265.65 C 617.80 268.80 614.17 266.96 611.64 267.34 C 613.83 267.83 616.08 268.04 618.29 268.52 C 616.19 268.74 614.11 268.76 612.02 268.78 C 609.89 269.24 607.73 269.55 605.57 269.55 C 600.79 268.02 595.81 270.60 590.88 269.63 C 589.88 268.97 588.89 268.33 587.91 267.68 C 588.72 267.69 590.36 267.72 591.17 267.73 Z" />
<path fill="#ffffff" opacity="1.00" d=" M 555.35 269.66 C 555.38 269.09 555.44 267.96 555.47 267.39 C 561.90 267.13 568.33 267.30 574.77 267.29 C 574.61 267.94 574.31 269.25 574.15 269.90 C 576.36 269.36 579.53 270.67 581.00 268.39 C 582.88 268.31 584.76 268.27 586.66 268.26 C 586.65 268.90 586.62 270.16 586.61 270.80 C 581.90 270.87 577.18 270.72 572.47 270.81 C 572.18 270.17 571.60 268.89 571.30 268.25 C 570.56 268.25 569.06 268.24 568.31 268.24 L 568.72 269.79 C 564.26 269.72 559.80 269.67 555.35 269.66 Z" />
</g>
<g id="#3b6fb6ff">
<path fill="#3b6fb6" opacity="1.00" d=" M 54.79 0.00 L 60.89 0.00 C 60.86 6.15 60.77 12.31 61.06 18.46 C 67.85 20.15 74.20 24.08 77.56 30.39 C 82.52 38.34 81.49 49.30 75.48 56.43 C 72.07 61.26 66.50 63.73 60.98 65.31 C 60.73 150.20 60.95 235.10 60.87 320.00 L 54.81 320.00 C 54.78 235.16 54.78 150.32 54.81 65.48 C 51.67 64.70 48.46 63.96 45.61 62.37 C 34.96 56.58 30.08 41.86 36.26 31.17 C 39.77 24.00 47.03 19.51 54.77 18.27 C 54.79 12.18 54.80 6.09 54.79 0.00 M 61.00 22.70 C 60.72 28.59 60.89 34.48 60.87 40.37 C 53.37 40.47 45.87 40.37 38.37 40.44 C 38.40 41.19 38.46 42.68 38.48 43.43 C 45.93 43.41 53.38 43.45 60.83 43.41 C 60.90 49.34 60.73 55.28 60.99 61.21 C 65.08 54.83 69.47 48.60 73.01 41.91 C 69.51 35.24 65.19 28.97 61.00 22.70 Z" />
<path fill="#3b6fb6" opacity="1.00" d=" M 256.88 0.00 L 262.52 0.00 C 263.10 6.05 262.71 12.13 262.79 18.20 C 267.94 19.41 273.23 21.19 276.98 25.12 C 281.00 29.41 283.94 35.02 284.05 41.00 C 284.47 48.63 280.45 56.07 274.56 60.73 C 271.19 63.46 266.79 64.09 262.95 65.86 C 262.61 97.87 262.91 129.90 262.81 161.91 C 262.80 214.61 262.81 267.30 262.80 320.00 L 256.89 320.00 C 256.87 235.11 256.89 150.21 256.88 65.32 C 250.87 63.79 244.87 60.93 241.44 55.53 C 237.10 50.06 236.30 42.68 237.65 36.01 C 240.02 27.11 247.69 20.14 256.78 18.60 C 256.94 12.40 256.89 6.20 256.88 0.00 M 264.37 22.71 C 264.20 28.60 264.32 34.49 264.28 40.38 C 258.54 40.43 252.80 40.44 247.06 40.37 C 244.67 40.52 240.70 39.54 241.40 43.38 C 249.03 43.51 256.68 43.32 264.32 43.51 C 264.29 49.41 264.23 55.31 264.35 61.21 C 268.63 54.89 272.50 48.31 276.69 41.93 C 272.59 35.52 268.73 28.95 264.37 22.71 Z" />
<path fill="#3b6fb6" opacity="1.00" d=" M 459.66 0.00 L 465.79 0.00 C 465.50 6.06 465.70 12.13 465.65 18.19 C 470.33 19.36 475.14 20.85 478.75 24.21 C 483.56 28.77 487.11 35.18 486.77 41.97 C 487.05 48.73 483.50 55.10 478.66 59.61 C 475.10 62.94 470.32 64.37 465.69 65.49 C 465.60 150.32 465.68 235.16 465.65 320.00 L 459.69 320.00 C 459.63 235.12 459.65 150.24 459.68 65.35 C 453.73 63.77 447.70 61.01 444.28 55.63 C 438.34 48.01 438.09 36.65 443.80 28.82 C 447.23 23.18 453.32 19.94 459.62 18.54 C 459.69 12.36 459.65 6.18 459.66 0.00 M 467.15 22.51 C 466.86 28.48 467.00 34.45 466.94 40.42 C 459.45 40.43 451.96 40.38 444.46 40.45 C 444.50 41.19 444.56 42.68 444.59 43.43 C 452.03 43.40 459.48 43.46 466.92 43.39 C 467.03 49.36 466.85 55.33 467.16 61.29 C 471.33 54.87 475.31 48.34 479.46 41.90 C 475.35 35.45 471.36 28.91 467.15 22.51 Z" />
<path fill="#3b6fb6" opacity="1.00" d=" M 661.59 0.00 L 667.73 0.00 C 667.70 6.07 667.69 12.14 667.72 18.22 C 672.37 19.37 677.15 20.86 680.74 24.20 C 685.53 28.77 689.16 35.15 688.73 41.96 C 689.07 49.01 685.23 55.63 680.05 60.14 C 676.58 63.12 672.09 64.42 667.74 65.46 C 667.67 150.31 667.73 235.15 667.71 320.00 L 661.74 320.00 C 661.40 290.35 661.70 260.69 661.60 231.04 C 661.62 175.81 661.56 120.59 661.62 65.36 C 655.72 63.76 649.73 61.01 646.31 55.68 C 640.18 47.85 640.15 36.07 646.23 28.20 C 649.64 22.93 655.46 19.91 661.47 18.67 C 661.67 12.45 661.59 6.22 661.59 0.00 M 668.91 22.80 C 668.83 28.68 668.95 34.55 668.85 40.43 C 661.39 40.42 653.93 40.39 646.48 40.45 C 646.50 41.19 646.56 42.68 646.59 43.43 C 654.01 43.41 661.43 43.45 668.85 43.40 C 668.92 49.37 668.95 55.35 668.77 61.33 C 673.56 55.25 677.14 48.30 681.45 41.87 C 677.17 35.58 673.76 28.68 668.91 22.80 Z" />
<path fill="#3b6fb6" opacity="1.00" d=" M 867.53 0.00 L 874.00 0.00 L 874.00 320.00 L 867.69 320.00 C 867.32 270.68 867.64 221.35 867.53 172.03 C 867.53 114.68 867.53 57.34 867.53 0.00 Z" />
<path fill="#3b6fb6" opacity="1.00" d=" M 520.90 188.00 C 519.49 178.31 517.78 168.56 517.63 158.77 C 519.15 166.67 519.42 174.75 520.38 182.74 C 528.29 183.98 536.40 183.17 544.24 184.99 C 536.32 184.97 528.38 184.49 520.52 183.54 C 520.64 185.02 520.76 186.51 520.90 188.00 Z" />
<path fill="#3b6fb6" opacity="1.00" d=" M 520.96 163.51 C 524.63 163.95 528.32 164.30 532.00 164.74 C 531.71 167.00 531.17 169.27 529.86 171.17 C 529.87 170.52 529.90 169.20 529.91 168.54 C 526.83 168.42 523.74 168.31 520.68 167.99 C 520.85 166.50 520.93 165.00 520.96 163.51 Z" />
<path fill="#3b6fb6" opacity="1.00" d=" M 557.90 235.78 C 578.95 235.56 600.00 236.00 621.05 235.98 C 623.16 235.99 625.25 236.31 627.33 236.66 C 613.57 237.50 599.77 236.82 585.99 237.03 C 577.05 237.48 568.14 235.65 559.22 236.49 L 557.68 238.73 C 564.73 239.88 571.89 239.21 578.99 239.37 C 583.30 238.77 587.63 238.29 592.00 238.63 C 596.35 238.08 600.71 238.29 605.01 239.13 C 611.88 238.65 618.77 238.86 625.63 239.46 C 622.52 240.30 619.26 240.33 616.15 239.49 C 597.15 240.49 578.15 238.89 559.14 239.78 C 559.21 240.29 559.34 241.33 559.41 241.84 C 563.36 241.75 567.50 242.27 571.20 240.57 C 572.08 240.44 573.84 240.17 574.72 240.04 L 574.29 241.83 C 575.42 241.83 577.68 241.83 578.81 241.82 L 578.17 240.16 C 589.46 240.34 600.75 240.16 612.04 240.16 C 616.64 240.08 621.23 241.02 625.83 240.44 C 626.66 242.60 625.48 244.85 624.65 246.82 C 618.59 247.61 612.37 246.57 606.31 247.34 L 606.31 247.66 C 612.05 248.54 618.04 247.18 623.73 248.29 L 623.73 248.71 C 616.96 249.61 609.97 248.92 603.12 249.14 L 603.12 249.86 C 610.04 249.83 616.97 249.89 623.90 249.90 C 623.21 251.99 622.57 254.10 621.94 256.20 C 620.37 256.08 618.82 256.00 617.27 255.87 C 607.03 253.85 596.28 256.41 585.98 254.25 C 576.36 254.10 566.66 253.82 557.08 254.48 C 565.58 255.37 574.15 254.54 582.67 255.04 C 585.88 256.60 589.57 255.60 593.00 255.87 C 597.22 256.12 601.59 255.38 605.73 256.28 L 605.74 256.71 C 598.69 258.00 591.35 256.35 584.25 257.48 C 589.11 258.48 594.10 257.46 599.01 257.85 C 606.59 258.63 614.16 255.25 621.66 257.50 C 618.63 258.46 615.41 257.83 612.34 258.35 C 614.41 259.58 618.15 258.33 620.71 259.43 C 612.86 261.66 604.92 258.67 597.00 259.10 C 590.98 259.09 584.89 259.53 578.99 258.15 C 571.40 258.15 563.76 257.82 556.20 258.48 C 563.98 259.35 571.86 258.61 579.67 259.00 C 581.58 260.16 583.86 259.89 586.00 259.91 C 590.89 259.83 595.79 260.05 600.68 259.67 C 601.07 259.94 601.85 260.49 602.24 260.77 C 608.15 261.12 614.10 260.75 620.04 260.82 L 620.01 262.14 C 613.79 262.22 607.52 261.78 601.34 262.35 L 601.34 262.65 C 607.59 263.27 613.93 262.66 620.22 262.95 C 619.31 265.88 616.32 265.23 614.10 264.95 C 609.00 263.59 603.71 264.25 598.52 264.16 C 594.73 262.03 590.14 263.55 586.01 263.13 C 584.61 263.40 582.12 262.53 581.31 263.66 C 585.39 264.20 589.57 263.59 593.69 264.06 C 598.11 266.01 603.18 263.92 607.73 265.28 C 605.30 267.22 600.56 266.27 597.39 265.61 C 596.45 265.51 594.59 265.30 593.66 265.20 C 592.82 266.04 591.99 266.88 591.17 267.73 C 590.36 267.72 588.72 267.69 587.91 267.68 C 588.89 268.33 589.88 268.97 590.88 269.63 C 595.81 270.60 600.79 268.02 605.57 269.55 C 598.80 270.80 591.90 270.98 585.04 271.05 C 573.73 271.96 562.43 272.96 551.08 273.28 C 552.95 260.71 555.78 248.31 557.90 235.78 M 558.51 246.19 L 560.98 246.49 L 560.13 244.06 C 568.42 244.33 576.71 244.65 585.00 244.82 C 595.11 244.33 605.28 243.99 615.40 244.73 C 611.24 243.56 606.92 243.28 602.62 243.30 C 594.96 245.49 586.87 243.63 579.03 244.32 C 571.94 245.18 565.07 242.97 558.04 242.48 C 558.16 243.40 558.39 245.26 558.51 246.19 M 558.16 251.72 L 558.49 248.05 C 562.32 248.35 566.15 248.77 570.00 248.83 C 573.63 248.89 577.32 247.95 580.91 248.85 C 586.06 250.16 591.41 249.57 596.67 249.70 C 596.65 249.13 596.62 248.00 596.60 247.43 C 594.15 247.38 591.70 247.34 589.26 247.30 L 589.72 248.82 C 580.30 248.38 570.88 248.29 561.47 248.21 C 560.32 247.59 558.03 246.36 556.88 245.74 C 557.20 247.24 557.84 250.23 558.16 251.72 M 556.66 253.02 C 557.56 253.16 559.36 253.44 560.26 253.58 C 563.13 253.06 566.07 252.47 568.97 253.16 C 573.87 254.18 578.89 253.72 583.86 253.75 C 583.78 253.15 583.62 251.95 583.54 251.35 C 581.07 251.31 578.61 251.27 576.15 251.24 L 576.82 253.02 C 570.12 252.20 563.33 251.76 556.66 253.02 M 555.33 256.36 C 556.85 256.88 558.38 257.84 560.06 257.51 C 564.81 256.78 569.59 258.69 574.32 257.53 C 575.44 256.99 577.78 257.29 577.33 255.27 C 571.52 254.68 565.96 257.09 560.16 256.35 C 558.54 256.22 556.93 256.23 555.33 256.36 M 554.70 259.27 L 553.50 261.83 C 559.77 261.75 566.05 261.69 572.31 262.16 L 572.32 260.48 C 569.09 258.98 565.46 259.19 562.00 259.29 C 560.31 262.27 556.97 260.11 554.70 259.27 M 555.35 269.66 C 559.80 269.67 564.26 269.72 568.72 269.79 L 568.31 268.24 C 569.06 268.24 570.56 268.25 571.30 268.25 C 571.60 268.89 572.18 270.17 572.47 270.81 C 577.18 270.72 581.90 270.87 586.61 270.80 C 586.62 270.16 586.65 268.90 586.66 268.26 C 584.76 268.27 582.88 268.31 581.00 268.39 C 579.53 270.67 576.36 269.36 574.15 269.90 C 574.31 269.25 574.61 267.94 574.77 267.29 C 568.33 267.30 561.90 267.13 555.47 267.39 C 555.44 267.96 555.38 269.09 555.35 269.66 Z" />
</g>
<g id="#000000ff">
<path fill="#000000" opacity="1.00" d=" M 776.83 25.00 C 778.27 25.00 779.71 25.00 781.17 25.00 C 781.16 28.68 781.20 32.37 781.10 36.05 C 782.90 34.93 784.71 33.38 787.00 33.61 C 790.53 33.38 793.08 36.75 793.22 40.02 C 793.54 44.67 793.28 49.34 793.36 54.00 C 791.90 54.00 790.44 54.00 789.00 54.00 C 788.81 49.12 789.42 44.18 788.65 39.35 C 787.34 35.45 781.31 37.20 781.26 40.90 C 781.01 45.26 781.23 49.63 781.17 54.00 C 779.71 54.00 778.27 54.00 776.83 54.00 C 776.83 44.33 776.83 34.67 776.83 25.00 Z" />
<path fill="#000000" opacity="1.00" d=" M 723.67 28.07 C 727.81 26.30 733.73 24.96 737.04 28.94 C 739.77 32.43 737.87 37.41 734.08 39.17 C 735.74 40.17 737.71 41.08 738.50 42.98 C 740.38 46.75 738.45 51.80 734.56 53.37 C 730.79 55.10 726.58 54.20 722.83 52.96 C 723.21 51.82 723.59 50.68 723.99 49.54 C 726.58 50.45 729.60 51.65 732.26 50.27 C 734.81 48.99 735.73 45.35 733.87 43.12 C 732.29 40.83 729.23 41.10 726.82 40.85 C 726.82 40.14 726.83 38.72 726.84 38.01 C 729.91 38.13 734.47 36.88 733.93 32.91 C 733.94 30.68 731.48 30.21 729.93 29.39 C 728.27 29.99 726.61 30.55 724.96 31.14 C 724.53 30.11 724.07 29.09 723.67 28.07 Z" />
<path fill="#000000" opacity="1.00" d=" M 756.96 39.93 C 757.73 35.59 758.09 31.19 758.78 26.83 C 762.90 26.83 767.03 26.83 771.17 26.83 C 771.17 27.67 771.17 29.34 771.17 30.17 C 768.00 30.17 764.84 30.17 761.69 30.16 C 761.45 32.29 761.21 34.42 760.97 36.55 C 763.58 36.65 766.45 36.53 768.60 38.28 C 773.50 41.66 772.69 49.87 767.69 52.77 C 764.01 55.12 759.42 54.44 755.52 53.10 C 755.80 51.92 756.08 50.74 756.38 49.56 C 760.23 51.82 766.93 51.44 767.60 46.00 C 768.20 40.26 761.29 38.79 756.96 39.93 Z" />
<path fill="#000000" opacity="1.00" d=" M 742.82 41.40 C 746.21 41.40 749.60 41.40 753.00 41.40 C 753.00 42.14 753.00 43.62 753.00 44.36 C 749.60 44.36 746.21 44.36 742.83 44.36 C 742.83 43.62 742.82 42.14 742.82 41.40 Z" />
</g>
<g id="#003066ff">
<path fill="#003066" opacity="1.00" d=" M 123.78 125.91 C 123.88 122.76 127.69 122.95 129.48 124.58 C 129.48 128.56 129.48 132.54 129.48 136.51 C 133.37 136.62 138.09 135.85 141.02 139.05 C 143.33 141.46 142.58 145.01 142.72 148.02 C 142.49 154.10 143.14 160.25 142.38 166.29 C 140.39 171.47 134.04 171.32 129.43 171.24 C 129.68 173.36 128.98 175.82 130.42 177.64 C 131.70 179.55 133.89 180.63 136.08 181.12 C 138.75 180.62 141.20 179.28 143.89 178.85 C 154.58 177.71 165.38 177.58 176.05 178.98 C 179.02 179.38 183.01 180.65 183.36 184.15 C 183.35 187.57 180.07 189.34 177.47 190.78 C 177.37 204.17 177.53 217.56 177.39 230.95 C 177.28 241.11 174.74 251.02 174.23 261.14 L 173.79 261.85 C 173.19 270.27 171.70 278.59 170.57 286.95 C 170.29 291.93 166.17 296.05 161.55 297.41 C 157.55 298.40 153.52 295.99 151.08 292.96 C 148.07 289.36 148.44 284.41 147.62 280.06 C 145.53 260.03 141.22 240.15 141.78 219.92 C 141.77 210.17 141.80 200.41 141.77 190.65 C 138.55 188.44 135.09 186.69 131.37 185.49 C 126.59 183.91 123.54 178.99 123.70 174.04 C 123.77 158.00 123.61 141.95 123.78 125.91 M 129.48 142.34 C 129.50 150.02 129.44 157.71 129.52 165.39 C 131.83 165.38 134.15 165.37 136.46 165.34 C 137.73 157.82 137.34 150.04 136.66 142.47 C 134.26 142.39 131.87 142.36 129.48 142.34 M 143.95 184.63 C 145.13 185.34 146.33 186.02 147.52 186.73 C 147.69 202.17 147.42 217.60 147.66 233.03 C 148.46 244.90 150.92 256.59 151.81 268.46 C 156.96 268.55 162.12 268.51 167.28 268.51 C 168.98 253.35 172.02 238.26 171.63 222.95 C 171.70 211.30 171.50 199.65 171.72 188.01 C 171.59 186.10 173.94 185.61 175.12 184.53 C 164.76 183.34 154.30 183.33 143.95 184.63 Z" />
<path fill="#003066" opacity="1.00" d=" M 692.89 143.96 C 695.89 140.57 700.58 139.47 704.95 139.57 C 747.94 139.58 790.93 139.58 833.92 139.57 C 837.03 139.57 840.45 140.03 842.78 142.30 C 845.09 144.56 846.23 147.80 846.20 151.01 C 846.18 182.02 846.20 213.04 846.19 244.06 C 846.11 250.29 843.18 258.17 836.31 259.42 C 819.61 259.69 802.90 259.41 786.20 259.55 C 786.37 262.91 785.70 266.92 788.40 269.50 C 791.28 273.10 796.30 272.77 800.40 273.65 C 800.47 275.94 800.51 278.24 800.54 280.55 C 798.74 281.09 796.87 281.47 795.00 281.39 C 775.99 281.27 756.98 281.46 737.98 281.30 C 734.14 281.06 736.02 276.12 735.70 273.63 C 740.07 272.78 745.14 272.95 748.47 269.48 C 751.34 266.98 751.71 263.04 752.43 259.55 C 736.95 259.49 721.47 259.52 706.00 259.54 C 697.44 260.52 690.19 252.14 689.99 244.03 C 689.73 237.02 689.98 229.99 689.89 222.98 C 690.43 202.65 689.48 182.32 690.08 161.99 C 690.32 156.02 688.13 148.69 692.89 143.96 M 693.70 151.02 C 693.65 181.67 693.71 212.33 693.67 242.98 C 693.52 249.08 698.37 256.07 704.99 255.65 C 720.32 255.62 735.65 255.67 750.99 255.61 C 752.62 255.56 754.24 255.90 755.81 256.36 C 756.00 261.66 755.71 267.68 751.60 271.57 C 748.56 275.19 743.81 276.20 739.46 277.34 C 758.69 277.60 777.95 277.68 797.18 277.29 C 794.45 276.58 791.60 276.17 789.08 274.87 C 785.28 272.63 782.30 268.61 782.40 264.05 C 782.53 261.33 781.61 257.82 783.99 255.81 C 801.29 255.31 818.64 255.92 835.95 255.52 C 840.44 254.54 842.00 249.03 842.31 244.98 C 842.40 213.64 842.31 182.30 842.35 150.96 C 842.74 147.21 839.86 143.27 835.90 143.49 C 793.26 143.37 750.62 143.50 707.98 143.43 C 705.65 143.44 703.30 143.35 701.00 143.67 C 697.42 144.32 693.66 147.06 693.70 151.02 Z" />
<path fill="#003066" opacity="1.00" d=" M 699.40 151.09 C 698.98 149.05 701.51 148.88 702.94 148.84 C 745.29 148.81 787.65 148.84 830.00 148.82 C 831.86 148.88 833.72 149.15 835.59 149.39 C 835.77 175.93 835.65 202.48 835.66 229.02 C 836.24 231.28 833.69 231.64 832.08 231.54 C 789.38 231.54 746.69 231.51 703.99 231.56 C 702.42 231.57 700.88 231.26 699.38 230.86 C 699.32 204.27 699.28 177.67 699.40 151.09 M 703.23 152.65 C 703.11 177.67 703.21 202.68 703.18 227.70 C 746.05 227.70 788.91 227.69 831.78 227.70 C 831.76 219.47 831.86 211.24 831.74 203.01 C 831.74 194.35 831.89 185.68 831.88 177.03 C 831.80 170.00 831.57 162.95 832.04 155.93 C 831.85 154.83 831.67 153.72 831.50 152.62 C 788.74 152.69 745.99 152.64 703.23 152.65 Z" />
<path fill="#003066" opacity="1.00" d=" M 478.53 162.63 C 493.45 155.24 510.77 154.74 526.97 157.12 C 538.69 158.01 550.33 159.74 562.02 160.88 C 584.64 163.76 607.30 166.28 629.91 169.26 C 632.10 169.62 634.46 169.39 636.52 170.35 C 640.73 186.44 644.17 202.76 648.07 218.94 C 649.08 224.65 651.25 230.18 651.72 235.97 C 648.71 247.39 645.66 258.82 642.25 270.13 C 626.17 271.14 610.08 272.03 594.02 273.16 C 573.66 274.00 553.35 275.75 533.00 276.75 C 527.72 277.10 522.41 277.88 517.12 277.39 C 511.45 275.86 505.86 274.06 500.19 272.53 C 498.44 272.44 498.27 270.54 497.64 269.31 C 490.88 268.32 483.93 268.82 477.45 266.27 C 477.45 247.47 477.81 228.66 477.76 209.86 L 478.23 209.13 C 478.27 193.63 478.43 178.13 478.53 162.63 M 481.51 164.38 C 480.72 197.67 480.49 231.00 480.12 264.31 C 481.51 264.50 482.90 264.69 484.31 264.89 C 484.40 263.09 484.50 261.29 484.66 259.50 C 490.21 260.73 495.81 261.84 501.21 263.67 C 501.23 265.78 501.25 267.89 501.29 270.00 C 506.60 271.49 511.88 273.05 517.20 274.51 C 518.74 263.01 520.55 251.54 522.34 240.08 C 523.33 233.37 522.37 226.61 521.57 219.94 C 519.37 199.52 517.03 179.11 515.08 158.67 C 503.70 158.14 491.86 159.42 481.51 164.38 M 520.90 188.00 C 522.57 203.08 524.00 218.18 525.79 233.24 C 535.72 233.27 545.65 233.34 555.58 233.37 C 553.27 217.51 550.89 201.66 548.53 185.81 C 546.86 185.73 545.21 185.68 543.55 185.52 C 545.18 185.33 546.83 185.17 548.48 185.05 C 547.20 177.25 546.26 169.39 544.78 161.62 C 535.71 160.86 526.67 159.84 517.63 158.77 C 517.78 168.56 519.49 178.31 520.90 188.00 M 547.87 162.16 C 549.08 169.88 550.03 177.64 551.29 185.36 C 573.47 187.22 595.69 188.36 617.85 190.60 C 616.45 183.63 614.85 176.71 613.19 169.81 C 591.40 167.46 569.68 164.38 547.87 162.16 M 616.24 170.32 C 617.60 177.12 619.28 183.86 620.78 190.64 C 626.80 191.30 632.83 191.95 638.90 191.79 C 637.45 185.38 635.88 179.00 634.39 172.60 C 628.35 171.75 622.30 170.91 616.24 170.32 M 551.38 186.03 C 553.79 201.81 555.87 217.64 558.48 233.40 C 581.53 233.33 604.58 233.68 627.63 233.77 C 624.40 219.63 621.26 205.48 618.11 191.32 C 605.09 189.99 592.06 188.80 578.99 188.15 C 575.74 187.15 572.33 187.56 568.99 187.41 C 563.10 187.21 557.26 186.33 551.38 186.03 M 621.06 191.42 C 623.92 205.50 627.30 219.49 630.35 233.53 C 636.43 234.45 642.61 234.12 648.75 234.15 C 645.69 220.23 642.18 206.42 639.13 192.50 C 633.07 192.69 627.09 191.66 621.06 191.42 M 519.99 274.74 C 529.47 274.40 538.91 273.32 548.41 273.26 C 551.00 260.94 553.18 248.53 555.59 236.16 C 545.64 235.54 535.65 235.99 525.69 235.84 C 523.73 248.80 521.74 261.76 519.99 274.74 M 557.90 235.78 C 555.78 248.31 552.95 260.71 551.08 273.28 C 562.43 272.96 573.73 271.96 585.04 271.05 C 591.90 270.98 598.80 270.80 605.57 269.55 C 607.73 269.55 609.89 269.24 612.02 268.78 C 614.11 268.76 616.19 268.74 618.29 268.52 C 616.08 268.04 613.83 267.83 611.64 267.34 C 614.17 266.96 617.80 268.80 619.15 265.65 C 616.42 265.69 613.61 265.16 610.94 265.85 C 606.56 267.38 601.87 266.56 597.34 266.67 L 597.39 265.61 C 600.56 266.27 605.30 267.22 607.73 265.28 C 603.18 263.92 598.11 266.01 593.69 264.06 C 589.57 263.59 585.39 264.20 581.31 263.66 C 582.12 262.53 584.61 263.40 586.01 263.13 C 590.14 263.55 594.73 262.03 598.52 264.16 C 603.71 264.25 609.00 263.59 614.10 264.95 C 616.32 265.23 619.31 265.88 620.22 262.95 C 613.93 262.66 607.59 263.27 601.34 262.65 L 601.34 262.35 C 607.52 261.78 613.79 262.22 620.01 262.14 L 620.04 260.82 C 614.10 260.75 608.15 261.12 602.24 260.77 C 601.85 260.49 601.07 259.94 600.68 259.67 C 595.79 260.05 590.89 259.83 586.00 259.91 C 583.86 259.89 581.58 260.16 579.67 259.00 C 571.86 258.61 563.98 259.35 556.20 258.48 C 563.76 257.82 571.40 258.15 578.99 258.15 C 584.89 259.53 590.98 259.09 597.00 259.10 C 604.92 258.67 612.86 261.66 620.71 259.43 C 618.15 258.33 614.41 259.58 612.34 258.35 C 615.41 257.83 618.63 258.46 621.66 257.50 C 614.16 255.25 606.59 258.63 599.01 257.85 C 594.10 257.46 589.11 258.48 584.25 257.48 C 591.35 256.35 598.69 258.00 605.74 256.71 L 605.73 256.28 C 601.59 255.38 597.22 256.12 593.00 255.87 C 589.57 255.60 585.88 256.60 582.67 255.04 C 574.15 254.54 565.58 255.37 557.08 254.48 C 566.66 253.82 576.36 254.10 585.98 254.25 C 596.28 256.41 607.03 253.85 617.27 255.87 C 618.82 256.00 620.37 256.08 621.94 256.20 C 622.57 254.10 623.21 251.99 623.90 249.90 C 616.97 249.89 610.04 249.83 603.12 249.86 L 603.12 249.14 C 609.97 248.92 616.96 249.61 623.73 248.71 L 623.73 248.29 C 618.04 247.18 612.05 248.54 606.31 247.66 L 606.31 247.34 C 612.37 246.57 618.59 247.61 624.65 246.82 C 625.48 244.85 626.66 242.60 625.83 240.44 L 626.09 240.43 C 626.40 239.49 627.02 237.60 627.33 236.66 C 625.25 236.31 623.16 235.99 621.05 235.98 C 600.00 236.00 578.95 235.56 557.90 235.78 M 630.04 236.72 C 627.10 247.42 623.73 257.99 620.51 268.60 C 627.11 268.60 633.66 267.76 640.25 267.49 C 643.16 257.26 645.93 246.99 648.72 236.73 C 642.49 236.68 636.26 236.61 630.04 236.72 M 487.26 263.02 C 487.27 263.67 487.28 264.97 487.29 265.62 C 491.01 265.89 494.74 266.31 498.48 266.34 C 495.35 263.80 490.97 264.08 487.26 263.02 Z" />
<path fill="#003066" opacity="1.00" d=" M 278.05 198.50 C 283.95 197.23 290.51 196.53 296.21 198.87 C 296.29 200.14 295.59 201.26 295.21 202.44 C 296.73 202.43 298.25 202.44 299.78 202.47 C 299.55 201.17 299.33 199.88 299.15 198.59 C 305.01 197.19 311.59 196.55 317.30 198.83 C 317.89 200.19 316.63 201.26 316.20 202.44 C 318.02 202.43 319.84 202.43 321.67 202.46 C 320.84 201.28 320.31 199.95 320.26 198.50 C 326.37 197.06 332.89 196.90 338.94 198.73 C 338.42 199.99 337.87 201.23 337.33 202.48 C 339.20 202.44 341.06 202.41 342.93 202.37 C 342.25 201.48 341.57 200.59 340.90 199.71 C 343.29 197.27 346.83 197.53 349.95 197.44 C 353.11 197.47 356.41 197.30 359.36 198.63 C 360.89 200.00 358.88 201.23 358.30 202.44 C 360.15 202.43 362.00 202.43 363.86 202.44 C 363.01 201.14 361.50 198.74 363.98 198.30 C 369.46 197.03 375.57 196.85 380.93 198.79 C 380.98 200.21 380.23 201.39 379.39 202.45 C 381.21 202.42 383.04 202.42 384.87 202.44 C 384.44 201.55 384.03 200.65 383.64 199.75 C 384.47 197.68 387.17 197.83 389.01 197.55 C 393.61 197.58 398.83 196.56 402.77 199.55 C 402.14 200.49 401.52 201.43 400.90 202.37 C 402.51 202.40 404.12 202.44 405.74 202.48 C 405.48 201.28 405.21 200.08 405.05 198.87 C 408.09 197.24 411.63 197.49 414.96 197.44 C 417.75 197.52 420.75 197.39 423.23 198.90 C 423.86 200.21 422.56 201.28 422.16 202.44 C 423.97 202.43 425.79 202.43 427.61 202.47 C 426.95 201.39 426.13 200.34 426.06 199.04 C 428.69 197.25 432.00 197.55 435.02 197.44 C 438.45 197.52 442.41 197.08 445.08 199.73 C 444.40 200.59 443.72 201.46 443.05 202.33 C 445.27 202.42 447.50 202.46 449.73 202.54 C 449.77 205.96 450.94 209.68 449.23 212.87 C 446.24 211.56 448.18 207.33 447.62 204.71 C 445.88 204.70 444.13 204.69 442.40 204.68 C 442.94 216.87 441.49 228.99 439.43 240.99 C 438.63 245.27 431.99 245.28 431.26 240.97 C 430.08 235.40 429.81 229.68 428.82 224.07 C 428.20 217.64 428.51 211.16 428.44 204.71 C 426.03 204.70 423.62 204.70 421.21 204.70 C 421.71 216.85 420.27 228.96 418.29 240.92 C 417.63 244.55 412.32 245.58 410.57 242.22 C 409.00 237.66 409.08 232.73 408.23 228.02 C 406.82 220.32 407.40 212.48 407.28 204.71 C 404.83 204.71 402.39 204.71 399.95 204.71 C 399.83 211.44 400.35 218.21 399.29 224.90 C 398.52 229.91 398.11 234.97 397.33 239.98 C 397.10 242.17 395.33 244.39 392.98 244.33 C 390.96 244.52 389.87 242.52 388.66 241.27 C 388.08 231.81 385.53 222.49 386.06 212.96 C 386.14 210.20 386.00 207.43 385.88 204.67 C 383.50 204.69 381.13 204.70 378.76 204.72 C 378.65 211.48 379.13 218.29 378.14 225.01 C 377.47 229.70 376.86 234.40 376.28 239.10 C 376.00 240.85 375.55 242.92 373.79 243.75 C 371.13 245.58 367.68 243.00 367.50 240.11 C 365.66 228.40 364.33 216.58 364.83 204.70 C 362.40 204.70 359.98 204.70 357.55 204.71 C 357.42 211.25 357.92 217.84 357.08 224.35 C 356.12 230.12 355.85 236.01 354.45 241.70 C 353.11 245.47 347.27 244.87 346.52 240.99 C 345.24 234.72 344.91 228.30 343.80 222.01 C 343.49 216.24 343.69 210.46 343.59 204.69 C 341.19 204.69 338.79 204.70 336.39 204.72 C 336.24 211.17 336.80 217.67 335.81 224.08 C 335.06 229.33 334.72 234.65 333.78 239.88 C 333.57 242.29 331.53 244.58 328.98 244.36 C 327.30 243.96 325.66 242.74 325.39 240.94 C 324.25 235.98 324.03 230.86 323.21 225.85 C 321.98 218.86 322.57 211.75 322.44 204.71 C 320.03 204.70 317.63 204.70 315.23 204.69 C 315.09 211.07 315.56 217.50 314.70 223.85 C 313.92 229.71 313.07 235.55 312.48 241.43 C 311.23 242.64 310.06 244.66 308.02 244.33 C 305.62 244.35 304.69 241.90 303.67 240.18 C 303.42 232.08 301.23 224.16 301.27 216.05 C 301.26 212.27 301.29 208.50 301.28 204.73 C 298.91 204.70 296.54 204.68 294.18 204.65 C 293.35 211.71 294.39 218.85 293.28 225.89 C 292.51 231.01 292.08 236.20 291.08 241.29 C 290.13 244.93 284.53 245.38 283.26 241.75 C 281.82 236.97 281.81 231.89 281.04 226.98 C 279.77 219.63 280.29 212.14 280.19 204.72 C 278.09 204.71 275.99 204.70 273.90 204.72 C 273.97 207.56 273.87 210.42 273.37 213.23 C 270.24 210.65 272.23 206.04 271.75 202.55 C 274.05 202.47 276.36 202.43 278.67 202.44 C 278.51 201.11 278.29 199.80 278.05 198.50 M 281.28 200.20 C 281.78 200.93 282.27 201.68 282.77 202.43 C 285.64 202.41 288.52 202.41 291.40 202.44 C 291.72 201.81 292.36 200.54 292.68 199.90 C 288.88 199.69 285.06 199.61 281.28 200.20 M 345.15 199.91 C 345.51 200.75 345.88 201.60 346.25 202.45 C 349.23 202.41 352.20 202.41 355.18 202.41 C 355.36 201.78 355.71 200.51 355.88 199.88 C 352.30 199.72 348.72 199.73 345.15 199.91 M 366.07 200.19 C 366.58 200.94 367.09 201.69 367.61 202.45 C 370.52 202.41 373.42 202.41 376.34 202.42 C 376.49 201.79 376.81 200.52 376.96 199.89 C 373.33 199.67 369.68 199.65 366.07 200.19 M 387.98 199.89 C 388.11 200.53 388.38 201.80 388.51 202.43 C 391.40 202.41 394.29 202.41 397.18 202.42 C 397.71 201.68 398.25 200.93 398.79 200.19 C 395.21 199.65 391.58 199.68 387.98 199.89 M 409.02 199.90 C 409.16 200.53 409.44 201.79 409.57 202.42 C 412.51 202.41 415.44 202.41 418.38 202.46 C 418.76 201.89 419.50 200.75 419.87 200.19 C 416.27 199.68 412.64 199.64 409.02 199.90 M 430.14 199.89 C 430.29 200.52 430.58 201.78 430.72 202.41 C 433.71 202.41 436.70 202.41 439.69 202.47 C 440.07 201.61 440.45 200.75 440.83 199.90 C 437.27 199.73 433.70 199.72 430.14 199.89 M 302.34 200.27 C 302.90 200.97 303.47 201.68 304.04 202.39 C 306.80 202.41 309.57 202.41 312.34 202.45 C 312.78 201.93 313.64 200.88 314.08 200.36 C 310.20 199.49 306.23 199.60 302.34 200.27 M 324.11 199.89 C 324.30 200.53 324.69 201.79 324.89 202.43 C 327.96 202.41 331.03 202.41 334.10 202.38 C 334.28 201.78 334.64 200.57 334.81 199.97 C 331.25 199.71 327.67 199.69 324.11 199.89 M 282.36 204.69 C 282.12 214.11 282.36 223.53 284.08 232.81 C 286.13 232.77 288.19 232.73 290.25 232.67 C 291.47 223.39 292.02 214.06 291.69 204.69 C 288.57 204.70 285.46 204.70 282.36 204.69 M 388.38 204.69 C 388.13 213.99 388.44 223.27 389.77 232.49 C 390.84 232.69 391.91 232.91 392.99 233.14 C 393.76 233.00 395.30 232.72 396.07 232.59 C 397.70 223.37 397.80 214.03 397.62 204.69 C 394.54 204.70 391.45 204.70 388.38 204.69 M 303.55 204.70 C 303.34 214.11 303.53 223.52 305.25 232.80 C 307.26 232.78 309.28 232.76 311.30 232.73 C 312.97 223.47 312.86 214.07 312.76 204.70 C 309.69 204.70 306.62 204.70 303.55 204.70 M 324.73 204.70 C 324.55 212.84 324.73 220.97 325.84 229.05 C 326.09 230.29 326.33 231.54 326.56 232.79 C 328.53 232.77 330.50 232.76 332.48 232.75 C 333.91 223.47 334.62 214.12 334.25 204.72 C 331.07 204.70 327.90 204.70 324.73 204.70 M 345.86 204.71 C 345.55 214.11 346.06 223.49 347.63 232.76 C 349.59 232.77 351.55 232.77 353.52 232.78 C 355.27 223.52 355.55 214.10 355.32 204.70 C 352.16 204.70 349.01 204.70 345.86 204.71 M 367.23 204.70 C 367.11 214.10 367.05 223.53 368.77 232.82 C 370.89 232.73 373.01 232.67 375.13 232.60 C 375.34 229.05 375.63 225.51 376.17 222.00 C 376.77 216.25 376.36 210.47 376.47 204.70 C 373.39 204.70 370.31 204.70 367.23 204.70 M 409.47 204.70 C 409.15 214.09 409.70 223.44 411.10 232.73 C 413.04 232.77 414.98 232.84 416.93 232.71 C 419.19 223.57 418.82 214.06 418.82 204.71 C 415.70 204.70 412.58 204.70 409.47 204.70 M 430.62 204.71 C 430.37 214.11 430.67 223.52 432.42 232.79 C 434.39 232.77 436.36 232.76 438.35 232.75 C 439.89 223.48 440.34 214.10 440.05 204.70 C 436.91 204.70 433.76 204.70 430.62 204.71 Z" />
<path fill="#003066" opacity="1.00" d=" M 765.35 236.50 C 771.53 233.06 779.78 239.04 778.41 245.98 C 777.63 253.08 767.81 256.12 762.99 251.01 C 758.57 246.95 759.90 238.94 765.35 236.50 M 766.34 240.34 C 763.50 242.16 763.46 247.00 766.28 248.84 C 769.32 251.31 774.56 248.97 774.63 245.03 C 775.30 240.76 769.65 237.63 766.34 240.34 Z" />
</g>
</svg>
