<?xml version="1.0" encoding="UTF-8" ?>
<!DOCTYPE svg PUBLIC "-//W3C//DTD SVG 1.1//EN" "http://www.w3.org/Graphics/SVG/1.1/DTD/svg11.dtd">
<svg width="1478pt" height="548pt" viewBox="0 0 1478 548" version="1.1" xmlns="http://www.w3.org/2000/svg">
<g id="#ffffffff">
<path fill="#ffffff" opacity="1.00" d=" M 0.00 0.00 L 1478.00 0.00 L 1478.00 548.00 L 0.00 548.00 L 0.00 0.00 M 439.23 50.16 C 423.97 51.84 408.90 57.20 396.85 66.87 C 381.16 79.16 371.62 98.35 369.70 118.04 C 367.75 135.90 370.40 154.68 379.49 170.39 C 386.95 183.68 398.95 194.24 412.86 200.39 C 429.55 207.82 448.46 209.44 466.41 206.70 C 483.82 203.95 500.71 195.86 512.46 182.52 C 525.48 168.05 531.73 148.32 531.44 129.03 C 531.76 112.03 527.10 94.76 517.15 80.87 C 507.05 66.58 491.36 56.78 474.51 52.55 C 463.03 49.45 451.01 49.30 439.23 50.16 M 887.79 53.83 C 887.76 103.85 887.79 153.87 887.78 203.89 C 898.92 203.84 910.06 203.99 921.20 203.80 C 920.59 198.87 921.12 193.93 921.16 188.99 C 921.00 175.32 921.04 161.68 921.14 148.00 C 921.14 142.99 921.11 137.99 921.19 132.98 C 941.49 156.63 961.73 180.34 982.15 203.89 C 997.64 203.84 1013.14 203.97 1028.63 203.82 C 1004.28 177.14 980.15 150.26 955.89 123.50 C 978.07 100.22 1000.49 77.17 1022.62 53.84 C 1008.67 53.84 994.72 53.80 980.77 53.85 C 979.13 53.60 978.08 55.04 977.07 56.02 C 958.46 75.93 939.79 95.79 921.18 115.70 C 920.88 103.79 921.17 91.91 921.15 80.00 C 920.61 71.28 921.64 62.54 920.76 53.83 C 909.77 53.83 898.78 53.83 887.79 53.83 M 1039.87 53.83 C 1039.85 103.85 1039.85 153.87 1039.87 203.89 C 1061.27 203.88 1082.68 203.89 1104.08 203.88 C 1119.53 203.17 1136.22 199.90 1147.55 188.54 C 1159.76 176.84 1161.06 156.60 1152.68 142.38 C 1146.83 132.48 1135.80 126.95 1124.75 125.15 C 1133.91 122.41 1142.52 116.67 1147.20 108.16 C 1151.47 100.19 1151.68 90.67 1149.99 81.97 C 1148.05 72.08 1140.63 63.89 1131.60 59.76 C 1120.23 54.40 1107.34 53.81 1094.98 53.83 C 1076.61 53.83 1058.24 53.83 1039.87 53.83 M 580.50 114.78 C 580.55 110.04 580.52 105.31 580.52 100.58 C 570.29 100.59 560.06 100.56 549.83 100.60 C 549.84 135.02 549.82 169.43 549.84 203.85 C 560.51 203.93 571.18 203.86 581.85 203.89 C 581.87 186.24 581.80 168.59 581.88 150.95 C 582.07 143.75 582.59 135.50 588.26 130.29 C 592.95 125.80 599.95 125.68 605.99 126.59 C 612.14 127.99 615.63 134.17 616.60 139.99 C 617.19 144.64 617.47 149.34 617.43 154.03 C 617.41 170.65 617.43 187.27 617.42 203.89 C 628.05 203.88 638.68 203.89 649.31 203.88 C 649.31 183.23 649.35 162.57 649.29 141.91 C 648.81 132.34 648.03 122.37 643.34 113.80 C 639.91 107.26 633.76 102.32 626.77 100.06 C 621.04 98.21 614.94 97.85 608.97 98.02 C 597.50 98.45 586.19 104.65 580.50 114.78 M 689.23 109.27 C 675.86 118.98 668.04 135.56 668.51 152.01 C 668.03 166.64 674.03 181.37 684.77 191.34 C 696.01 201.84 711.77 206.82 727.01 206.27 C 739.91 206.05 753.49 202.20 762.64 192.64 C 755.73 185.13 748.58 177.86 741.61 170.42 C 739.70 172.22 737.82 174.08 735.60 175.49 C 729.90 179.29 722.44 178.76 716.18 176.82 C 708.24 174.39 702.53 167.02 701.01 159.02 C 699.62 151.45 700.27 143.11 704.55 136.53 C 712.14 124.18 732.65 122.04 741.68 133.89 C 748.55 126.41 755.70 119.19 762.64 111.77 C 754.64 103.16 742.92 99.40 731.51 98.24 C 716.74 96.93 701.26 100.39 689.23 109.27 M 810.47 101.78 C 798.30 103.98 786.96 110.52 779.01 119.99 C 770.57 129.90 765.84 142.94 766.25 155.98 C 766.31 172.15 774.41 187.95 787.21 197.77 C 799.14 207.02 815.09 211.01 829.95 208.16 C 844.16 205.70 857.18 197.19 865.20 185.20 C 872.78 174.14 875.87 160.18 873.87 146.94 C 871.80 132.71 863.72 119.50 852.04 111.13 C 840.22 102.53 824.83 99.06 810.47 101.78 M 471.20 239.21 C 471.17 241.08 471.16 242.95 471.16 244.83 C 473.18 244.85 475.21 244.86 477.25 244.86 C 477.34 242.96 477.39 241.05 477.44 239.15 C 475.36 239.15 473.28 239.17 471.20 239.21 M 504.43 239.22 C 504.41 241.12 504.40 243.03 504.42 244.95 C 506.45 244.87 508.50 244.90 510.52 244.59 C 510.73 242.79 510.79 240.98 510.82 239.17 C 508.69 239.16 506.56 239.17 504.43 239.22 M 696.03 239.00 C 695.99 249.33 696.02 259.67 696.02 270.00 C 697.94 270.00 699.86 270.00 701.80 270.00 C 701.76 259.69 701.88 249.39 701.73 239.08 C 699.82 239.05 697.92 239.02 696.03 239.00 M 922.13 239.02 C 922.08 249.35 922.12 259.67 922.12 269.99 C 924.05 269.99 925.99 270.00 927.94 270.00 C 927.92 259.69 927.99 249.37 927.90 239.06 C 925.97 239.04 924.05 239.03 922.13 239.02 M 976.06 239.03 C 976.03 242.63 976.03 246.24 976.09 249.85 C 972.70 246.77 967.52 245.95 963.59 248.48 C 955.60 253.20 956.72 267.44 965.81 270.22 C 969.41 271.67 973.15 269.98 976.10 267.90 C 976.09 268.42 976.07 269.48 976.05 270.00 C 977.98 270.00 979.92 269.99 981.86 269.99 C 981.87 259.67 981.89 249.35 981.85 239.03 C 979.91 239.03 977.98 239.02 976.06 239.03 M 376.94 240.13 C 376.92 250.09 376.92 260.05 376.93 270.01 C 378.84 270.00 380.76 269.99 382.68 269.98 C 382.70 266.96 382.70 263.93 382.71 260.91 C 387.47 260.82 392.87 261.10 396.78 257.88 C 402.05 253.65 400.96 243.85 394.52 241.33 C 388.93 239.16 382.77 240.43 376.94 240.13 M 593.30 240.32 C 584.32 242.44 579.55 253.49 583.51 261.66 C 587.25 271.02 600.66 273.59 608.10 267.14 C 615.52 261.15 615.18 248.09 607.28 242.66 C 603.34 239.62 598.00 239.43 593.30 240.32 M 802.19 240.15 C 802.12 250.10 802.17 260.05 802.16 269.99 C 804.10 269.99 806.03 269.99 807.98 270.00 C 807.98 267.28 807.98 264.56 807.99 261.84 C 809.42 260.37 810.85 258.90 812.30 257.43 C 815.48 261.62 818.67 265.80 821.84 270.00 C 824.28 270.00 826.73 270.00 829.18 269.99 C 825.05 264.31 820.66 258.82 816.47 253.18 C 820.48 248.85 824.92 244.90 828.62 240.28 C 826.24 240.16 823.87 240.11 821.50 240.07 C 816.97 244.82 812.50 249.63 808.00 254.41 C 807.97 249.64 807.99 244.88 807.97 240.12 C 806.03 240.12 804.11 240.13 802.19 240.15 M 1054.45 240.15 C 1054.36 250.09 1054.41 260.04 1054.42 269.99 C 1060.28 269.89 1066.16 270.25 1072.03 269.83 C 1076.79 269.41 1080.94 264.48 1079.35 259.69 C 1078.96 257.25 1076.76 255.91 1074.98 254.54 C 1076.46 252.62 1078.31 250.58 1077.96 247.95 C 1078.12 243.95 1074.53 240.94 1070.82 240.42 C 1065.39 239.75 1059.90 240.23 1054.45 240.15 M 404.13 247.30 C 404.06 254.86 404.10 262.43 404.10 269.99 C 406.04 269.99 407.98 270.00 409.92 270.00 C 410.13 265.66 409.18 261.04 410.90 256.93 C 412.08 254.08 415.30 253.35 417.93 252.50 C 417.88 250.56 417.82 248.62 417.77 246.68 C 414.82 246.99 412.13 248.24 409.95 250.23 C 409.88 249.51 409.75 248.05 409.69 247.32 C 407.83 247.30 405.98 247.29 404.13 247.30 M 422.68 251.60 C 418.25 257.55 420.57 267.68 427.93 270.03 C 432.89 272.02 438.40 269.99 442.00 266.34 C 440.81 265.23 439.62 264.14 438.44 263.05 C 436.03 264.39 433.32 266.51 430.41 265.45 C 428.26 264.95 427.33 262.74 426.14 261.13 C 431.66 260.84 437.18 261.03 442.70 260.91 C 442.17 257.11 442.12 252.71 439.11 249.89 C 434.59 245.37 426.15 246.18 422.68 251.60 M 447.26 253.38 C 443.90 259.39 447.05 268.16 453.85 270.06 C 458.72 271.97 464.19 269.95 467.51 266.12 C 466.37 265.00 465.24 263.90 464.11 262.80 C 461.67 264.10 459.11 266.17 456.18 265.13 C 450.63 263.61 450.28 254.69 455.65 252.68 C 458.57 250.77 461.28 253.64 463.69 255.05 C 464.94 253.68 466.19 252.31 467.44 250.94 C 464.94 249.12 462.30 247.02 459.05 247.00 C 454.27 246.37 449.38 249.09 447.26 253.38 M 471.37 247.30 C 471.27 254.86 471.33 262.42 471.33 269.99 C 473.22 269.99 475.10 270.00 477.00 270.00 C 476.98 262.45 477.04 254.89 476.96 247.33 C 475.09 247.30 473.23 247.29 471.37 247.30 M 486.70 247.77 C 482.25 249.30 480.74 256.41 484.96 259.04 C 487.92 260.76 491.41 261.36 494.32 263.22 C 493.86 264.43 492.98 265.41 492.23 266.44 C 489.33 265.50 486.48 264.40 483.76 263.04 C 482.83 264.42 481.90 265.79 480.98 267.17 C 485.07 269.63 490.09 271.83 494.86 269.98 C 499.33 268.91 501.54 262.21 497.87 259.09 C 494.99 256.22 489.76 256.79 487.60 253.18 C 490.45 250.48 494.18 252.86 497.12 254.05 C 497.88 252.52 498.64 251.00 499.37 249.46 C 495.47 247.68 490.91 245.96 486.70 247.77 M 504.77 247.29 C 504.69 254.86 504.72 262.43 504.74 270.00 C 506.66 269.99 508.59 270.00 510.52 270.00 C 510.39 262.42 510.79 254.83 510.26 247.27 C 508.42 247.27 506.59 247.27 504.77 247.29 M 523.46 247.50 C 517.53 249.41 513.59 256.30 515.65 262.33 C 517.59 269.78 527.56 273.16 533.81 268.84 C 540.07 265.33 541.15 255.85 536.33 250.72 C 533.18 247.20 527.89 246.18 523.46 247.50 M 544.15 247.17 C 544.03 254.78 544.11 262.39 544.10 269.99 C 546.04 269.99 547.98 270.00 549.93 270.00 C 550.05 265.18 549.56 260.31 550.19 255.52 C 551.26 251.62 557.62 251.28 558.62 255.38 C 559.50 260.19 558.83 265.14 559.01 270.00 C 560.93 270.00 562.87 269.99 564.80 269.99 C 564.51 263.99 565.61 257.79 564.02 251.93 C 562.25 246.39 554.57 245.55 550.53 249.10 C 549.21 246.70 546.38 247.38 544.15 247.17 M 618.70 247.28 C 618.61 254.85 618.64 262.42 618.68 269.99 C 620.58 269.99 622.48 270.00 624.40 270.00 C 624.53 265.17 623.94 260.27 624.83 255.50 C 625.54 251.69 632.05 251.24 632.96 255.13 C 633.75 260.04 633.20 265.04 633.33 270.00 C 635.21 270.00 637.10 270.00 639.00 270.00 C 638.92 264.60 639.17 259.20 638.92 253.81 C 638.80 249.82 634.90 246.75 631.03 246.97 C 628.37 246.60 626.25 248.36 624.27 249.82 C 624.22 249.19 624.12 247.92 624.08 247.29 C 622.28 247.28 620.48 247.28 618.70 247.28 M 647.16 250.17 C 641.08 255.48 642.76 266.81 650.42 269.72 C 655.56 272.18 661.48 270.09 665.22 266.15 C 664.02 265.10 662.87 264.01 661.58 263.09 C 658.85 264.01 656.15 266.38 653.15 264.94 C 647.86 262.89 648.13 254.23 653.56 252.50 C 656.44 250.93 658.90 253.73 661.20 255.09 C 662.43 253.74 663.66 252.38 664.90 251.01 C 660.32 246.23 652.00 245.31 647.16 250.17 M 675.34 247.46 C 671.90 248.62 669.02 251.26 667.69 254.65 C 665.13 260.90 668.97 268.86 675.71 270.25 C 683.24 272.84 692.18 265.95 691.03 257.91 C 691.09 250.20 682.33 245.07 675.34 247.46 M 715.31 247.39 C 712.09 248.44 709.30 250.74 707.81 253.79 C 705.02 259.89 707.94 268.35 714.80 270.05 C 722.86 273.35 732.53 265.52 730.81 256.95 C 730.00 249.78 721.99 245.32 715.31 247.39 M 736.69 250.71 C 732.04 255.97 734.16 265.84 741.15 267.86 C 745.09 269.38 749.16 267.69 752.57 265.70 C 751.59 267.87 750.96 270.72 748.40 271.57 C 744.65 273.06 740.81 270.98 737.32 269.75 C 736.52 271.20 735.75 272.67 734.98 274.14 C 740.36 276.80 746.83 278.07 752.53 275.61 C 756.48 273.76 757.65 269.06 757.84 265.07 C 757.98 259.15 757.84 253.24 757.84 247.32 C 755.94 247.29 754.05 247.27 752.17 247.26 C 752.13 247.88 752.05 249.14 752.01 249.77 C 747.72 245.84 740.34 246.03 736.69 250.71 M 761.38 247.33 C 764.28 255.09 767.80 262.61 770.86 270.31 C 769.01 271.95 766.74 272.15 764.54 271.17 C 763.90 272.72 763.26 274.27 762.66 275.83 C 765.52 276.60 768.66 277.64 771.57 276.51 C 774.31 275.22 775.48 272.21 776.60 269.60 C 779.46 262.24 782.29 254.88 785.18 247.53 C 783.17 247.39 781.16 247.27 779.16 247.19 C 777.20 252.44 775.34 257.73 773.55 263.04 C 771.67 257.73 769.57 252.50 767.52 247.26 C 765.46 247.27 763.42 247.29 761.38 247.33 M 832.15 247.18 C 832.03 254.78 832.11 262.39 832.10 269.99 C 834.03 269.99 835.97 270.00 837.93 270.00 C 838.05 265.14 837.53 260.23 838.22 255.40 C 839.39 251.61 845.63 251.33 846.62 255.38 C 847.50 260.19 846.83 265.14 847.01 270.00 C 848.93 270.00 850.86 269.99 852.80 269.99 C 852.74 264.98 853.01 259.96 852.69 254.96 C 852.45 252.10 851.16 248.95 848.33 247.80 C 845.12 246.18 841.28 246.96 838.53 249.09 C 837.20 246.70 834.38 247.38 832.15 247.18 M 865.33 247.46 C 858.91 249.41 855.10 257.03 857.73 263.28 C 860.31 270.50 870.43 273.07 876.33 268.32 C 881.93 264.54 882.70 255.77 878.22 250.85 C 875.10 247.27 869.79 246.18 865.33 247.46 M 883.71 247.32 C 885.91 255.10 888.58 262.75 891.15 270.42 C 892.79 270.42 894.45 270.43 896.12 270.43 C 897.71 265.78 899.25 261.11 900.80 256.45 C 902.40 261.08 903.90 265.75 905.44 270.41 C 907.13 270.40 908.82 270.39 910.53 270.38 C 913.00 262.77 915.52 255.17 918.02 247.56 C 916.10 247.39 914.19 247.27 912.28 247.15 C 910.69 251.77 909.44 256.50 907.77 261.09 C 906.06 256.57 905.15 251.74 903.04 247.38 C 901.51 247.18 899.99 247.14 898.48 247.07 C 896.91 251.75 895.52 256.50 893.69 261.10 C 892.35 256.47 890.99 251.86 889.57 247.26 C 887.61 247.27 885.65 247.29 883.71 247.32 M 937.24 249.21 C 930.33 254.26 931.52 267.18 939.98 269.96 C 945.02 272.08 950.67 270.01 954.33 266.25 C 953.11 265.20 951.89 264.15 950.68 263.11 C 948.57 264.23 946.41 265.25 944.23 266.20 C 941.68 265.25 939.57 263.53 938.31 261.11 C 943.87 260.83 949.45 261.06 955.02 260.87 C 954.63 257.63 954.39 254.19 952.57 251.37 C 949.36 246.46 941.69 245.45 937.24 249.21 M 990.90 248.87 C 984.30 253.24 985.36 265.19 993.06 267.75 C 997.04 269.39 1001.29 267.87 1004.71 265.67 C 1003.82 267.90 1003.16 270.77 1000.57 271.60 C 996.79 273.01 992.96 270.93 989.43 269.74 C 988.71 271.22 988.01 272.71 987.33 274.20 C 992.39 276.64 998.33 277.93 1003.79 275.98 C 1007.97 274.76 1009.95 270.11 1009.94 266.07 C 1010.10 259.77 1009.94 253.48 1009.94 247.19 C 1007.75 247.55 1004.26 246.26 1003.81 249.38 C 1000.16 246.46 994.72 246.11 990.90 248.87 M 1019.24 249.21 C 1012.33 254.26 1013.52 267.18 1021.98 269.96 C 1027.02 272.08 1032.67 270.00 1036.33 266.25 C 1035.10 265.20 1033.88 264.15 1032.68 263.11 C 1030.57 264.23 1028.42 265.25 1026.24 266.20 C 1023.68 265.25 1021.57 263.54 1020.31 261.11 C 1025.87 260.83 1031.45 261.06 1037.02 260.87 C 1036.62 257.63 1036.39 254.18 1034.57 251.37 C 1031.36 246.45 1023.69 245.45 1019.24 249.21 M 1084.71 248.97 C 1085.18 250.52 1085.67 252.07 1086.18 253.62 C 1089.31 253.01 1092.70 251.46 1095.81 252.98 C 1096.95 253.84 1097.66 255.12 1098.59 256.21 C 1094.51 256.28 1090.03 255.15 1086.30 257.27 C 1082.27 259.46 1081.65 265.97 1085.36 268.74 C 1088.75 271.62 1093.83 271.15 1097.33 268.69 C 1098.96 270.46 1101.48 269.90 1103.63 270.12 C 1103.63 265.48 1103.87 260.84 1103.53 256.21 C 1103.24 253.30 1102.39 249.93 1099.55 248.51 C 1094.89 246.00 1089.37 247.10 1084.71 248.97 M 1112.68 247.78 C 1108.49 249.26 1106.85 255.70 1110.42 258.63 C 1113.41 260.76 1117.24 261.20 1120.32 263.22 C 1119.86 264.45 1118.95 265.41 1118.20 266.44 C 1115.31 265.49 1112.47 264.40 1109.76 263.04 C 1108.82 264.42 1107.88 265.80 1106.98 267.19 C 1111.07 269.63 1116.09 271.83 1120.87 269.98 C 1125.61 268.86 1127.65 261.50 1123.33 258.64 C 1120.19 256.61 1116.45 255.77 1113.19 253.98 C 1115.71 250.32 1120.02 252.62 1123.12 254.05 C 1123.87 252.52 1124.63 250.99 1125.37 249.45 C 1121.46 247.68 1116.88 245.95 1112.68 247.78 M 1132.83 249.76 C 1127.00 254.80 1127.76 265.65 1134.75 269.29 C 1139.93 272.25 1146.68 270.60 1150.49 266.16 C 1149.30 265.13 1148.13 264.11 1146.96 263.10 C 1144.85 264.21 1142.74 265.67 1140.31 265.79 C 1137.46 265.66 1135.87 263.19 1134.45 261.08 C 1140.01 260.86 1145.58 261.02 1151.15 260.91 C 1150.88 257.63 1150.79 254.09 1148.76 251.34 C 1145.36 246.17 1137.19 245.44 1132.83 249.76 M 132.03 368.48 C 131.62 377.01 130.97 385.54 130.57 394.08 C 132.71 395.51 134.86 396.93 137.00 398.37 C 141.90 396.63 147.94 395.02 152.50 398.49 C 156.17 401.41 155.09 407.97 150.67 409.55 C 144.66 412.19 138.38 408.58 133.93 404.64 C 131.58 407.40 129.24 410.16 126.97 412.99 C 134.80 420.69 147.58 423.20 157.50 418.30 C 166.70 413.62 168.47 400.28 162.69 392.32 C 157.59 386.03 148.61 385.79 141.25 387.01 C 141.45 384.16 141.64 381.31 141.87 378.46 C 149.17 378.45 156.46 378.46 163.76 378.45 C 163.76 375.12 163.76 371.80 163.76 368.47 C 153.18 368.48 142.61 368.47 132.03 368.48 M 178.26 374.35 C 172.65 381.25 172.99 393.03 180.18 398.72 C 186.79 403.42 196.42 403.86 203.21 399.29 C 202.15 403.26 200.75 407.96 196.56 409.65 C 191.23 411.96 185.59 409.06 181.36 405.83 C 179.36 408.77 177.30 411.68 175.34 414.65 C 182.51 420.83 193.18 422.55 201.90 418.89 C 208.85 415.80 212.87 408.49 214.11 401.26 C 215.33 393.97 215.38 386.26 212.79 379.25 C 210.39 372.76 203.97 368.09 197.06 367.79 C 190.28 367.05 182.70 368.83 178.26 374.35 M 227.03 368.48 C 226.62 377.01 225.97 385.54 225.57 394.08 C 227.71 395.51 229.86 396.93 232.00 398.37 C 236.53 396.82 241.81 395.23 246.32 397.73 C 249.56 399.28 250.71 403.74 248.85 406.76 C 247.17 409.78 243.31 410.65 240.12 410.39 C 235.77 410.01 232.19 407.30 228.93 404.64 C 226.58 407.40 224.24 410.16 221.97 412.99 C 226.60 417.30 232.53 420.35 238.93 420.63 C 246.65 421.56 255.78 418.82 259.25 411.27 C 262.33 404.31 261.55 394.64 255.09 389.81 C 249.67 385.89 242.58 386.06 236.25 387.02 C 236.45 384.16 236.64 381.31 236.87 378.46 C 244.17 378.45 251.46 378.46 258.76 378.46 C 258.76 375.13 258.76 371.80 258.76 368.47 C 248.18 368.48 237.61 368.47 227.03 368.48 M 509.36 368.02 C 499.97 378.98 490.51 389.89 481.14 400.86 C 481.79 403.57 482.43 406.28 483.11 408.99 C 491.44 408.98 499.77 408.99 508.10 408.99 C 508.10 412.65 508.09 416.32 508.12 419.98 C 511.76 420.00 515.41 420.00 519.06 420.00 C 519.06 416.33 519.06 412.65 519.06 408.99 C 521.37 408.98 523.68 408.98 526.00 408.99 C 526.00 405.84 526.00 402.70 526.00 399.57 C 523.68 399.56 521.37 399.56 519.06 399.56 C 519.05 389.08 519.09 378.60 519.04 368.12 C 515.81 368.01 512.58 368.02 509.36 368.02 M 560.14 368.02 C 550.69 378.93 541.32 389.92 531.87 400.83 C 532.53 403.55 533.18 406.27 533.85 408.98 C 542.21 408.99 550.56 408.99 558.92 408.99 C 558.91 412.65 558.91 416.33 558.93 420.00 C 562.58 420.00 566.23 420.00 569.88 420.00 C 569.88 416.33 569.88 412.66 569.88 408.99 C 572.18 408.98 574.48 408.98 576.79 408.97 C 576.81 405.84 576.81 402.71 576.80 399.58 C 574.49 399.56 572.19 399.56 569.89 399.56 C 569.81 389.08 570.01 378.61 569.79 368.14 C 566.57 368.00 563.35 368.02 560.14 368.02 M 583.07 368.47 C 582.94 371.77 582.94 375.07 582.95 378.37 C 590.91 378.37 598.88 378.38 606.85 378.37 C 599.35 392.26 591.55 405.98 584.21 419.95 C 588.55 420.03 592.90 419.99 597.24 420.00 C 604.41 406.58 611.51 393.12 618.72 379.72 C 620.91 376.35 619.76 372.16 620.01 368.40 C 607.70 368.44 595.38 368.30 583.07 368.47 M 620.16 400.37 C 619.46 403.11 621.19 406.15 621.58 408.98 C 629.94 409.00 638.29 408.97 646.65 408.99 C 646.65 412.66 646.64 416.32 646.68 419.99 C 650.32 420.00 653.96 420.00 657.60 420.00 C 657.60 416.33 657.60 412.66 657.60 408.99 C 659.90 408.98 662.20 408.98 664.51 408.98 C 664.53 405.84 664.53 402.71 664.52 399.57 C 662.21 399.56 659.91 399.56 657.62 399.55 C 657.50 389.06 657.80 378.56 657.45 368.07 C 654.26 368.02 651.07 368.03 647.88 368.03 C 638.65 378.81 629.25 389.47 620.16 400.37 M 912.01 368.41 C 911.99 371.70 911.99 374.99 912.00 378.29 C 918.60 378.30 925.21 378.28 931.82 378.30 C 927.84 382.39 923.83 386.45 919.82 390.50 C 920.40 392.95 921.03 395.39 921.66 397.84 C 925.98 398.02 931.00 397.31 934.55 400.35 C 937.67 402.93 936.46 408.52 932.66 409.81 C 926.76 412.12 920.70 408.45 916.78 404.20 C 914.05 406.65 911.38 409.16 908.76 411.72 C 915.80 420.25 928.62 423.26 938.74 418.88 C 947.32 415.14 950.29 403.36 945.42 395.64 C 942.94 391.94 938.58 390.36 934.48 389.27 C 938.63 385.21 942.81 381.19 946.99 377.16 C 946.98 374.24 946.98 371.32 946.98 368.41 C 935.32 368.39 923.66 368.39 912.01 368.41 M 959.44 374.38 C 955.01 380.26 956.76 389.39 962.98 393.31 C 957.43 395.80 954.32 401.99 955.44 407.94 C 956.30 414.62 962.71 418.95 968.92 420.09 C 976.07 421.41 984.22 420.87 990.17 416.27 C 995.05 412.51 996.34 405.38 994.08 399.84 C 992.84 396.86 990.08 395.00 987.51 393.29 C 991.68 390.29 994.26 385.22 993.23 380.04 C 992.50 373.01 985.46 368.87 979.06 367.98 C 972.10 367.12 963.91 368.43 959.44 374.38 M 1289.39 368.55 C 1288.88 371.79 1289.17 375.09 1289.15 378.36 C 1297.13 378.39 1305.12 378.37 1313.11 378.37 C 1305.60 392.25 1297.80 405.98 1290.47 419.96 C 1294.81 420.03 1299.15 419.99 1303.50 420.00 C 1310.73 406.39 1317.97 392.80 1325.23 379.21 C 1327.09 375.92 1326.02 371.98 1326.28 368.40 C 1313.98 368.50 1301.67 368.18 1289.39 368.55 M 1338.95 372.97 C 1332.90 378.81 1332.18 389.17 1336.94 395.99 C 1342.89 403.50 1354.71 404.33 1362.64 399.58 C 1361.49 403.52 1359.98 408.18 1355.73 409.74 C 1350.43 411.72 1345.02 408.95 1340.87 405.78 C 1338.80 408.73 1336.72 411.68 1334.74 414.70 C 1342.41 421.18 1354.10 422.97 1363.03 418.11 C 1370.74 413.65 1373.93 404.37 1374.30 395.91 C 1374.77 387.92 1374.13 378.77 1368.12 372.80 C 1364.00 368.54 1357.80 367.28 1352.08 367.66 C 1347.27 367.83 1342.41 369.55 1338.95 372.97 M 124.00 436.00 C 124.00 436.50 124.00 437.50 124.00 438.00 C 171.33 438.00 218.67 438.00 266.00 438.00 C 266.00 437.50 266.00 436.50 266.00 436.00 C 218.67 436.00 171.33 436.00 124.00 436.00 M 480.00 436.00 C 480.00 436.50 480.00 437.50 480.00 438.00 C 542.67 438.00 605.33 438.00 668.00 438.00 C 668.00 437.50 668.00 436.50 668.00 436.00 C 605.33 436.00 542.67 436.00 480.00 436.00 M 906.00 436.00 C 906.00 436.50 906.00 437.50 906.00 438.00 C 936.67 438.00 967.33 438.00 998.00 438.00 C 998.00 437.50 998.00 436.50 998.00 436.00 C 967.33 436.00 936.67 436.00 906.00 436.00 M 1284.00 436.00 C 1284.00 436.50 1284.00 437.50 1284.00 438.00 C 1315.33 438.00 1346.67 438.00 1378.00 438.00 C 1378.00 437.50 1378.00 436.50 1378.00 436.00 C 1346.67 436.00 1315.33 436.00 1284.00 436.00 M 518.29 452.41 C 518.26 459.60 518.27 466.80 518.28 474.00 C 519.03 474.00 520.51 474.00 521.26 474.00 C 521.29 466.79 521.27 459.58 521.27 452.37 C 520.27 452.38 519.27 452.39 518.29 452.41 M 596.64 452.72 C 596.64 453.77 596.65 454.83 596.66 455.90 C 597.75 455.88 598.85 455.87 599.95 455.87 C 599.97 455.11 599.99 453.58 600.00 452.82 C 598.87 452.78 597.75 452.74 596.64 452.72 M 155.82 454.69 C 149.81 458.48 149.44 468.59 155.46 472.55 C 159.94 475.61 165.99 474.43 170.14 471.35 C 170.13 468.43 170.13 465.53 170.13 462.62 C 167.18 462.62 164.22 462.62 161.27 462.63 C 161.27 463.32 161.27 464.68 161.27 465.36 C 163.22 465.36 165.17 465.37 167.12 465.38 C 167.13 466.91 167.13 468.43 167.12 469.97 C 163.98 471.41 159.92 472.33 157.06 469.79 C 152.42 466.10 154.06 457.30 160.03 456.07 C 162.83 455.22 165.41 456.78 167.74 458.12 C 168.21 457.50 169.15 456.27 169.62 455.65 C 165.69 452.82 159.97 451.67 155.82 454.69 M 502.95 453.09 C 499.82 460.04 496.66 466.98 493.61 473.97 C 494.42 473.98 496.04 474.00 496.85 474.02 C 497.62 472.27 498.41 470.53 499.20 468.80 C 502.61 468.80 506.02 468.80 509.44 468.80 C 510.22 470.53 511.00 472.28 511.79 474.02 C 512.63 474.01 514.31 474.00 515.14 473.99 C 512.03 467.01 508.93 460.03 505.78 453.07 C 505.07 453.08 503.66 453.09 502.95 453.09 M 857.96 453.23 C 857.96 453.95 857.95 455.39 857.95 456.11 C 860.19 456.10 862.43 456.10 864.69 456.11 C 864.69 462.07 864.67 468.03 864.70 473.99 C 865.47 474.00 867.01 474.00 867.78 474.00 C 867.78 468.04 867.78 462.07 867.79 456.11 C 870.02 456.10 872.26 456.10 874.52 456.11 C 874.48 455.14 874.45 454.19 874.42 453.24 C 868.93 453.21 863.44 453.23 857.96 453.23 M 963.18 453.25 C 963.15 454.19 963.13 455.15 963.12 456.10 C 965.39 456.10 967.67 456.10 969.95 456.11 C 969.95 462.07 969.95 468.04 969.96 474.00 C 970.72 474.00 972.24 474.00 973.00 474.00 C 973.00 468.04 973.00 462.07 973.00 456.11 C 975.27 456.10 977.54 456.10 979.83 456.10 C 979.79 455.39 979.72 453.97 979.68 453.26 C 974.18 453.20 968.68 453.21 963.18 453.25 M 1290.21 453.25 C 1290.16 460.16 1290.19 467.07 1290.19 473.99 C 1295.03 473.78 1300.56 475.04 1304.68 471.75 C 1310.03 467.99 1309.99 458.99 1304.56 455.33 C 1300.35 452.44 1295.00 453.35 1290.21 453.25 M 527.26 453.98 C 526.96 455.90 527.61 458.54 525.09 459.14 C 525.07 459.64 525.02 460.62 525.00 461.12 C 525.52 461.13 526.56 461.16 527.08 461.17 C 527.16 464.65 526.78 468.18 527.37 471.63 C 528.26 474.78 531.90 474.20 534.43 474.08 C 534.52 473.39 534.71 472.01 534.81 471.32 C 533.36 471.16 531.73 471.53 530.46 470.68 C 529.77 467.56 530.15 464.33 530.07 461.17 C 531.61 461.15 533.17 461.14 534.72 461.13 C 534.72 460.47 534.70 459.16 534.70 458.51 C 533.16 458.49 531.62 458.48 530.09 458.49 C 530.07 457.00 530.06 455.53 530.05 454.05 C 529.35 454.04 527.96 454.00 527.26 453.98 M 585.41 454.01 C 585.35 455.23 585.30 456.45 585.26 457.68 C 584.20 458.61 583.33 459.71 582.69 460.97 C 583.35 461.04 584.68 461.17 585.35 461.24 C 585.44 464.77 585.00 468.36 585.71 471.85 C 586.62 474.86 590.23 474.09 592.63 474.12 C 592.75 473.41 592.98 472.01 593.09 471.31 C 591.71 471.30 590.34 471.23 588.99 471.08 C 587.83 467.91 588.49 464.46 588.34 461.17 C 589.88 461.15 591.42 461.13 592.97 461.12 C 592.97 460.47 592.96 459.17 592.96 458.51 C 591.42 458.49 589.90 458.48 588.38 458.48 C 588.34 456.99 588.30 455.50 588.27 454.02 C 587.56 454.02 586.12 454.01 585.41 454.01 M 176.76 459.69 C 172.21 463.09 172.81 471.51 178.24 473.72 C 181.71 475.24 185.49 473.87 188.21 471.54 C 187.60 470.95 186.99 470.36 186.38 469.78 C 184.52 470.62 182.56 472.16 180.40 471.55 C 178.34 471.15 177.46 469.10 176.49 467.51 C 180.57 467.36 184.65 467.46 188.74 467.36 C 188.24 465.03 188.23 462.37 186.53 460.52 C 184.18 457.65 179.60 457.47 176.76 459.69 M 194.87 460.23 L 195.09 458.47 C 194.33 458.49 192.81 458.53 192.05 458.55 C 192.04 463.70 192.04 468.84 192.05 473.99 C 192.81 473.99 194.32 474.00 195.07 474.00 C 195.19 470.51 194.68 466.94 195.47 463.51 C 196.48 460.34 201.63 460.09 202.50 463.49 C 203.15 466.94 202.72 470.50 202.84 474.00 C 203.59 474.00 205.10 474.00 205.85 474.00 C 205.51 469.50 206.81 464.59 204.75 460.39 C 202.36 457.10 197.65 457.89 194.87 460.23 M 212.92 473.16 C 216.45 475.44 220.99 474.22 223.89 471.49 C 223.46 471.07 222.60 470.21 222.17 469.79 C 220.11 470.72 217.83 472.42 215.49 471.34 C 213.78 470.77 213.23 468.86 212.31 467.52 C 216.35 467.35 220.39 467.45 224.44 467.39 C 224.66 462.68 221.28 457.15 215.95 458.28 C 208.95 458.98 207.13 469.64 212.92 473.16 M 229.84 458.84 C 227.31 459.86 226.46 463.59 228.40 465.54 C 230.68 467.23 233.70 467.51 235.93 469.30 C 235.32 473.39 230.20 471.05 227.83 469.87 C 227.46 470.45 226.74 471.60 226.37 472.17 C 229.00 473.51 231.91 474.82 234.93 474.07 C 238.06 473.70 239.88 469.69 238.00 467.13 C 235.77 464.90 231.96 465.09 230.02 462.52 C 231.67 459.68 235.03 461.45 237.38 462.16 C 237.68 461.59 238.28 460.45 238.58 459.88 C 235.85 458.79 232.72 457.39 229.84 458.84 M 539.82 459.83 C 535.77 463.16 535.97 470.55 540.63 473.28 C 544.14 475.38 548.55 474.17 551.42 471.55 C 550.82 470.95 550.23 470.35 549.64 469.76 C 547.74 470.60 545.74 472.20 543.54 471.53 C 541.58 471.00 540.75 469.00 539.64 467.52 C 543.77 467.36 547.91 467.46 552.05 467.34 C 551.51 464.95 551.46 462.21 549.67 460.35 C 547.18 457.57 542.63 457.54 539.82 459.83 M 555.31 458.53 C 555.28 463.68 555.29 468.83 555.31 473.99 C 556.06 473.99 557.56 474.00 558.31 474.01 C 558.39 470.97 558.03 467.83 558.98 464.90 C 559.90 461.45 565.74 462.30 564.41 457.79 C 562.06 458.39 559.92 459.51 558.05 461.04 C 558.14 460.40 558.34 459.13 558.43 458.50 C 557.39 458.50 556.35 458.51 555.31 458.53 M 567.42 459.60 C 568.04 463.38 571.58 460.74 573.98 461.04 C 576.02 461.06 576.86 463.08 577.84 464.51 C 573.80 464.25 566.89 463.50 566.50 469.25 C 566.54 474.98 573.88 475.41 577.48 472.57 C 577.43 472.93 577.33 473.64 577.28 474.00 C 578.02 474.00 579.50 474.00 580.24 474.00 C 580.07 469.79 580.83 465.42 579.60 461.34 C 577.17 456.98 571.30 458.21 567.42 459.60 M 596.83 458.49 C 596.81 463.66 596.82 468.83 596.83 474.01 C 597.58 474.00 599.07 473.99 599.82 473.99 C 599.83 468.83 599.83 463.67 599.81 458.52 C 598.81 458.50 597.82 458.50 596.83 458.49 M 609.33 458.63 C 605.34 459.66 603.04 464.11 603.88 468.04 C 604.51 472.16 608.92 474.99 612.95 474.19 C 618.27 473.87 621.57 467.37 619.22 462.75 C 617.65 459.05 613.04 457.27 609.33 458.63 M 627.47 459.61 C 626.28 459.13 625.09 458.53 623.93 458.06 C 623.78 463.37 623.87 468.68 623.86 474.00 C 624.62 474.00 626.13 474.00 626.89 474.00 C 626.92 470.70 626.68 467.39 627.07 464.12 C 627.51 460.85 632.59 459.74 634.02 462.90 C 635.04 466.48 634.38 470.30 634.56 473.99 C 635.32 473.99 636.82 474.00 637.57 474.01 C 637.33 469.71 638.23 465.22 636.87 461.07 C 635.13 457.56 630.34 457.49 627.47 459.61 M 644.61 458.63 C 641.53 459.36 640.40 464.22 643.21 465.93 C 645.38 467.19 647.90 467.73 650.04 469.06 C 649.99 469.52 649.90 470.43 649.85 470.89 C 647.19 472.68 644.34 470.75 641.81 469.77 C 641.37 470.91 640.34 472.38 642.10 472.86 C 644.59 474.36 647.88 474.76 650.58 473.59 C 653.02 472.51 653.81 468.94 652.09 466.92 C 649.61 465.18 646.57 464.47 643.96 462.97 C 645.60 459.73 649.08 461.25 651.67 462.19 C 651.96 461.61 652.54 460.46 652.83 459.89 C 650.25 458.88 647.39 457.51 644.61 458.63 M 877.63 458.48 C 877.86 462.82 876.92 467.39 878.37 471.58 C 880.38 475.41 885.71 474.76 888.59 472.30 C 888.51 472.73 888.37 473.58 888.30 474.00 C 889.05 474.00 890.56 473.99 891.31 473.99 C 891.34 468.82 891.33 463.65 891.33 458.49 C 890.32 458.49 889.32 458.50 888.34 458.51 C 888.24 461.96 888.65 465.47 887.99 468.88 C 887.21 471.86 882.60 472.46 881.16 469.70 C 880.18 466.07 880.79 462.23 880.64 458.52 C 879.63 458.50 878.62 458.49 877.63 458.48 M 898.97 460.05 L 898.96 458.43 C 898.23 458.47 896.78 458.54 896.05 458.57 C 896.04 463.71 896.04 468.85 896.05 473.99 C 896.81 473.99 898.32 474.00 899.07 474.00 C 899.18 470.51 898.68 466.93 899.47 463.50 C 900.28 460.58 904.78 460.06 905.88 463.05 C 906.56 466.65 906.14 470.35 906.23 474.00 C 906.99 474.00 908.51 474.00 909.27 474.00 C 909.37 470.50 908.90 466.93 909.64 463.48 C 910.35 460.49 915.10 460.07 916.05 463.11 C 916.81 466.68 916.34 470.37 916.44 474.00 C 917.20 474.00 918.71 474.00 919.47 474.00 C 919.30 469.73 920.00 465.33 918.87 461.16 C 916.93 457.07 911.19 457.50 908.50 460.59 C 906.06 457.50 901.84 457.64 898.97 460.05 M 928.40 458.74 C 925.05 459.87 923.02 463.44 923.19 466.89 C 923.31 471.35 927.66 474.96 932.08 474.24 C 937.04 474.12 940.49 468.71 939.19 464.07 C 938.21 459.44 932.65 456.96 928.40 458.74 M 943.31 458.53 C 943.28 463.68 943.29 468.83 943.31 473.99 C 944.06 473.99 945.56 474.00 946.31 474.01 C 946.39 470.98 946.03 467.85 946.97 464.92 C 947.87 461.45 953.75 462.31 952.41 457.79 C 950.05 458.39 947.92 459.51 946.05 461.03 C 946.14 460.40 946.34 459.13 946.43 458.49 C 945.38 458.50 944.34 458.51 943.31 458.53 M 991.93 458.48 C 990.44 462.40 988.96 466.33 987.50 470.26 C 985.88 466.33 984.21 462.41 982.58 458.48 C 981.75 458.50 980.08 458.54 979.25 458.56 C 981.52 463.84 983.88 469.07 986.22 474.32 C 984.76 475.77 982.89 476.11 980.92 475.77 C 980.64 476.36 980.09 477.53 979.82 478.11 C 982.42 478.78 986.04 479.53 987.65 476.67 C 990.67 470.85 992.63 464.54 995.21 458.51 C 994.10 458.50 993.01 458.49 991.93 458.48 M 1001.11 460.80 C 1001.18 460.22 1001.32 459.06 1001.40 458.48 C 1000.62 458.49 999.08 458.53 998.31 458.55 C 998.29 465.25 998.28 471.96 998.31 478.67 C 999.07 478.68 1000.59 478.70 1001.35 478.71 C 1001.33 476.47 1001.30 474.24 1001.22 472.02 C 1003.71 474.09 1007.32 475.23 1010.29 473.40 C 1015.91 470.27 1015.27 460.17 1008.80 458.44 C 1005.93 457.33 1003.24 459.07 1001.11 460.80 M 1018.12 462.32 C 1015.79 466.66 1017.89 473.18 1023.05 474.13 C 1026.44 475.07 1029.68 473.41 1031.95 470.97 C 1029.14 468.74 1026.46 472.57 1023.54 471.46 C 1021.72 470.88 1021.00 468.97 1019.97 467.56 C 1024.05 467.33 1028.15 467.45 1032.24 467.39 C 1031.82 464.71 1031.60 461.57 1029.30 459.75 C 1025.87 456.79 1019.94 458.22 1018.12 462.32 M 1037.71 458.80 C 1035.28 459.73 1034.21 463.11 1035.84 465.21 C 1038.11 467.52 1042.11 467.19 1044.00 470.00 C 1041.73 473.01 1038.20 471.05 1035.57 469.86 C 1035.20 470.43 1034.48 471.57 1034.11 472.14 C 1036.80 473.59 1039.88 474.86 1042.99 474.01 C 1045.44 473.51 1047.09 470.71 1046.28 468.33 C 1045.17 464.40 1038.92 465.78 1037.79 461.97 C 1039.98 460.10 1042.69 461.34 1045.06 462.13 C 1045.49 461.38 1045.93 460.64 1046.39 459.90 C 1043.67 458.85 1040.59 457.38 1037.71 458.80 M 1315.81 460.97 C 1315.84 460.36 1315.89 459.14 1315.91 458.53 C 1315.15 458.52 1313.63 458.50 1312.87 458.49 C 1312.84 463.66 1312.84 468.83 1312.86 474.00 C 1313.61 474.00 1315.12 474.00 1315.87 474.00 C 1316.00 470.83 1315.42 467.47 1316.65 464.47 C 1317.47 462.30 1319.98 461.87 1321.87 461.02 C 1321.76 459.94 1321.66 458.87 1321.59 457.81 C 1319.47 458.50 1317.49 459.52 1315.81 460.97 M 1324.63 458.48 C 1324.75 462.61 1324.17 466.82 1325.07 470.89 C 1326.36 474.85 1331.44 474.96 1334.56 473.18 C 1335.75 473.72 1337.00 473.96 1338.29 474.33 C 1338.36 469.05 1338.32 463.77 1338.33 458.49 C 1337.31 458.49 1336.32 458.50 1335.34 458.51 C 1335.24 461.98 1335.66 465.52 1334.97 468.95 C 1334.12 471.87 1329.58 472.44 1328.16 469.70 C 1327.18 466.06 1327.78 462.23 1327.64 458.52 C 1326.62 458.50 1325.62 458.49 1324.63 458.48 M 1347.36 458.52 C 1341.91 459.83 1340.40 468.00 1344.95 471.23 C 1348.02 474.07 1352.51 472.74 1355.38 470.30 C 1354.74 472.13 1354.64 474.62 1352.59 475.50 C 1349.76 476.89 1346.67 475.44 1344.04 474.30 C 1343.60 475.14 1343.18 475.99 1342.77 476.84 C 1346.40 478.42 1350.75 479.61 1354.50 477.70 C 1356.67 476.72 1357.82 474.36 1357.91 472.06 C 1358.12 467.41 1358.03 462.75 1357.86 458.10 C 1356.47 458.34 1355.35 458.98 1354.50 460.04 C 1352.41 458.62 1349.85 457.52 1347.36 458.52 M 1364.72 458.80 C 1362.06 459.79 1361.09 463.71 1363.26 465.66 C 1365.67 467.42 1369.19 467.41 1371.00 470.00 C 1368.74 473.02 1365.20 471.05 1362.56 469.86 C 1362.20 470.43 1361.48 471.57 1361.11 472.14 C 1364.01 473.75 1367.46 475.02 1370.76 473.78 C 1373.21 472.75 1374.14 469.64 1372.96 467.32 C 1370.54 465.12 1367.13 464.55 1364.34 462.95 C 1366.15 459.99 1369.46 461.09 1372.07 462.15 C 1372.40 461.59 1373.05 460.46 1373.37 459.90 C 1370.66 458.84 1367.58 457.39 1364.72 458.80 Z" />
<path fill="#ffffff" opacity="1.00" d=" M 441.00 81.09 C 453.99 78.92 468.14 81.15 478.81 89.21 C 490.83 98.08 497.11 113.27 496.86 127.99 C 497.35 140.75 493.26 153.96 484.40 163.34 C 466.88 182.16 433.27 181.97 415.93 163.01 C 407.05 153.38 403.20 139.92 403.81 127.01 C 403.89 112.99 409.71 98.57 420.98 89.87 C 426.79 85.35 433.75 82.34 441.00 81.09 Z" />
<path fill="#ffffff" opacity="1.00" d=" M 1073.15 81.89 C 1081.13 81.90 1089.11 81.84 1097.10 81.91 C 1102.69 82.16 1108.67 83.19 1113.12 86.85 C 1119.72 92.47 1119.03 104.08 1112.23 109.26 C 1107.67 112.87 1101.65 113.60 1096.04 113.80 C 1088.41 113.88 1080.77 113.79 1073.15 113.83 C 1073.16 103.18 1073.15 92.54 1073.15 81.89 Z" />
<path fill="#ffffff" opacity="1.00" d=" M 817.15 115.92 C 828.38 114.95 839.87 119.16 847.84 127.11 C 858.31 137.31 862.33 153.59 857.44 167.42 C 854.05 177.56 846.36 186.14 836.62 190.55 C 824.95 196.03 810.59 195.11 799.69 188.24 C 785.77 179.82 778.06 162.07 782.12 146.22 C 785.59 129.92 800.53 117.01 817.15 115.92 M 813.44 120.62 C 805.23 122.23 797.68 126.92 792.57 133.54 C 782.86 145.69 782.90 164.36 792.65 176.47 C 801.41 188.10 817.71 192.79 831.42 188.16 C 842.93 184.42 852.05 174.29 854.52 162.44 C 857.84 148.34 851.18 132.68 838.79 125.20 C 831.34 120.37 822.08 119.22 813.44 120.62 Z" />
<path fill="#ffffff" opacity="1.00" d=" M 816.32 135.26 C 827.84 132.49 840.28 142.20 840.39 154.07 C 841.40 166.39 828.95 177.27 816.91 174.77 C 807.58 173.24 799.94 164.54 800.17 155.01 C 799.91 145.66 807.22 137.04 816.32 135.26 M 816.35 140.60 C 809.66 142.30 804.73 149.11 805.37 156.01 C 805.75 163.86 813.23 170.46 821.08 169.83 C 829.10 169.61 836.06 162.04 835.16 153.97 C 835.02 144.82 825.00 137.93 816.35 140.60 Z" />
<path fill="#ffffff" opacity="1.00" d=" M 1073.15 141.87 C 1082.99 141.93 1092.84 141.72 1102.68 141.98 C 1109.63 142.69 1117.59 144.02 1122.14 149.92 C 1127.10 156.95 1124.53 167.78 1117.14 172.11 C 1112.38 175.19 1106.54 175.67 1101.02 175.82 C 1091.73 175.86 1082.44 175.81 1073.15 175.84 C 1073.16 164.52 1073.15 153.19 1073.15 141.87 Z" />
<path fill="#ffffff" opacity="1.00" d=" M 596.35 245.26 C 602.20 244.23 608.03 250.08 607.19 255.99 C 607.33 262.98 598.14 268.13 592.58 263.38 C 585.65 258.81 588.03 246.62 596.35 245.26 Z" />
<path fill="#ffffff" opacity="1.00" d=" M 382.72 245.59 C 385.85 245.80 389.29 245.19 392.18 246.71 C 395.12 248.38 394.64 253.34 391.52 254.54 C 388.73 255.65 385.63 255.21 382.70 255.39 C 382.70 252.12 382.70 248.85 382.72 245.59 Z" />
<path fill="#ffffff" opacity="1.00" d=" M 1060.00 245.53 C 1063.53 245.63 1067.20 245.16 1070.63 246.28 C 1072.92 247.54 1072.33 251.23 1069.88 251.91 C 1066.65 252.74 1063.29 252.43 1060.01 252.50 C 1059.99 250.17 1059.99 247.85 1060.00 245.53 Z" />
<path fill="#ffffff" opacity="1.00" d=" M 425.98 256.87 C 427.25 254.57 428.84 251.43 432.01 251.92 C 434.77 251.92 435.81 254.89 436.99 256.87 C 433.32 257.05 429.65 257.04 425.98 256.87 Z" />
<path fill="#ffffff" opacity="1.00" d=" M 521.39 256.45 C 522.23 253.84 524.97 252.85 527.14 251.61 C 529.32 252.79 532.21 253.59 533.00 256.26 C 534.55 259.91 532.40 265.16 528.06 265.30 C 523.38 266.15 519.56 260.62 521.39 256.45 Z" />
<path fill="#ffffff" opacity="1.00" d=" M 673.49 255.68 C 674.50 253.43 677.04 252.74 679.01 251.61 C 681.72 252.89 685.16 254.51 685.19 258.03 C 685.91 261.70 682.87 265.67 679.01 265.33 C 674.22 265.60 671.31 259.62 673.49 255.68 Z" />
<path fill="#ffffff" opacity="1.00" d=" M 714.21 254.21 C 715.59 253.08 717.28 252.41 718.87 251.62 C 721.49 252.99 724.84 254.57 725.06 257.97 C 725.79 261.92 722.14 266.11 718.05 265.28 C 712.84 264.93 710.99 257.81 714.21 254.21 Z" />
<path fill="#ffffff" opacity="1.00" d=" M 744.30 252.22 C 748.52 250.72 753.70 255.44 751.69 259.76 C 749.85 264.11 742.80 264.61 740.80 260.17 C 738.88 257.20 741.15 253.16 744.30 252.22 Z" />
<path fill="#ffffff" opacity="1.00" d=" M 863.47 255.72 C 864.46 253.45 867.02 252.75 869.00 251.61 C 871.70 252.89 875.15 254.49 875.19 258.00 C 875.91 261.67 872.90 265.66 869.03 265.33 C 864.25 265.62 861.33 259.67 863.47 255.72 Z" />
<path fill="#ffffff" opacity="1.00" d=" M 938.28 256.89 C 939.39 253.60 942.17 251.63 945.64 251.63 C 946.98 253.34 948.25 255.11 949.45 256.93 C 945.72 257.03 942.00 257.04 938.28 256.89 Z" />
<path fill="#ffffff" opacity="1.00" d=" M 968.36 252.42 C 972.22 250.84 976.49 255.17 976.09 259.05 C 976.18 262.99 972.05 266.52 968.17 265.08 C 962.75 263.08 962.90 254.30 968.36 252.42 Z" />
<path fill="#ffffff" opacity="1.00" d=" M 992.65 258.87 C 991.78 255.49 994.64 252.01 998.07 251.94 C 1000.62 251.78 1002.42 253.95 1004.31 255.32 C 1004.04 257.63 1004.36 260.58 1002.10 262.03 C 999.02 264.56 993.20 263.17 992.65 258.87 Z" />
<path fill="#ffffff" opacity="1.00" d=" M 1020.28 256.89 C 1021.40 253.59 1024.18 251.61 1027.68 251.65 C 1028.99 253.36 1030.25 255.12 1031.44 256.94 C 1027.72 257.03 1023.99 257.04 1020.28 256.89 Z" />
<path fill="#ffffff" opacity="1.00" d=" M 1138.14 251.90 C 1139.40 251.90 1140.68 251.90 1141.96 251.88 C 1143.30 253.45 1144.52 255.12 1145.63 256.88 C 1141.86 257.06 1138.10 257.05 1134.35 256.86 C 1135.48 255.12 1136.78 253.48 1138.14 251.90 Z" />
<path fill="#ffffff" opacity="1.00" d=" M 1060.00 257.74 C 1063.85 257.85 1067.83 257.29 1071.58 258.36 C 1074.37 259.18 1074.10 263.59 1071.38 264.32 C 1067.75 265.65 1063.76 264.83 1060.00 265.01 C 1059.99 262.59 1059.99 260.16 1060.00 257.74 Z" />
<path fill="#ffffff" opacity="1.00" d=" M 1088.86 262.05 C 1091.07 258.73 1095.42 260.11 1098.63 260.72 C 1097.79 262.45 1097.35 264.75 1095.35 265.53 C 1092.74 267.08 1087.64 265.87 1088.86 262.05 Z" />
<path fill="#ffffff" opacity="1.00" d=" M 190.35 378.24 C 195.52 375.84 203.40 378.92 203.14 385.31 C 203.23 393.21 191.49 395.35 187.22 389.62 C 184.34 385.98 185.96 379.88 190.35 378.24 Z" />
<path fill="#ffffff" opacity="1.00" d=" M 971.37 378.24 C 975.37 376.11 982.13 377.90 982.40 383.09 C 982.35 389.87 971.98 391.31 968.79 386.00 C 966.94 383.28 968.44 379.45 971.37 378.24 Z" />
<path fill="#ffffff" opacity="1.00" d=" M 1349.52 378.47 C 1354.64 375.87 1362.60 378.69 1362.63 385.13 C 1362.79 392.05 1353.76 394.79 1348.69 391.34 C 1343.85 388.62 1344.43 380.59 1349.52 378.47 Z" />
<path fill="#ffffff" opacity="1.00" d=" M 558.93 384.27 C 558.90 389.36 558.93 394.45 558.91 399.54 C 554.57 399.58 550.24 399.55 545.90 399.58 C 550.22 394.45 554.54 389.33 558.93 384.27 Z" />
<path fill="#ffffff" opacity="1.00" d=" M 646.64 384.27 C 646.65 389.35 646.68 394.43 646.62 399.52 C 642.31 399.59 637.99 399.57 633.69 399.54 C 637.96 394.42 642.32 389.36 646.64 384.27 Z" />
<path fill="#ffffff" opacity="1.00" d=" M 495.16 399.57 C 499.45 394.48 503.73 389.40 508.08 384.37 C 508.10 389.43 508.12 394.49 508.07 399.56 C 503.77 399.56 499.46 399.56 495.16 399.57 Z" />
<path fill="#ffffff" opacity="1.00" d=" M 971.21 399.32 C 975.82 397.80 983.43 398.94 983.99 404.86 C 982.93 412.40 971.14 413.02 967.22 407.49 C 965.13 404.21 967.80 400.18 971.21 399.32 Z" />
<path fill="#ffffff" opacity="1.00" d=" M 1293.31 455.98 C 1296.30 456.20 1299.69 455.78 1302.28 457.64 C 1306.23 460.17 1306.38 466.71 1302.60 469.47 C 1299.95 471.54 1296.40 471.03 1293.28 471.19 C 1293.27 466.12 1293.24 461.05 1293.31 455.98 Z" />
<path fill="#ffffff" opacity="1.00" d=" M 500.35 466.00 C 501.67 463.01 502.99 460.02 504.33 457.05 C 505.63 460.03 506.96 463.01 508.26 466.00 C 505.62 466.00 502.98 466.00 500.35 466.00 Z" />
<path fill="#ffffff" opacity="1.00" d=" M 176.46 465.08 C 177.52 463.41 178.49 460.82 180.87 460.90 C 183.53 460.37 184.71 463.17 185.68 465.07 C 182.61 465.13 179.54 465.13 176.46 465.08 Z" />
<path fill="#ffffff" opacity="1.00" d=" M 212.25 465.07 C 213.32 463.31 214.41 460.55 216.96 460.90 C 219.46 460.60 220.46 463.35 221.51 465.08 C 218.42 465.13 215.33 465.13 212.25 465.07 Z" />
<path fill="#ffffff" opacity="1.00" d=" M 539.62 465.09 C 540.78 463.13 542.14 460.34 544.92 460.90 C 547.22 460.93 547.99 463.42 548.93 465.07 C 545.83 465.12 542.72 465.13 539.62 465.09 Z" />
<path fill="#ffffff" opacity="1.00" d=" M 610.23 461.21 C 614.03 459.74 617.87 464.11 616.63 467.77 C 615.94 471.17 611.32 472.82 608.74 470.39 C 605.64 468.04 606.44 462.38 610.23 461.21 Z" />
<path fill="#ffffff" opacity="1.00" d=" M 929.27 461.40 C 932.80 459.57 936.95 463.25 936.25 466.98 C 936.12 470.64 931.39 472.96 928.49 470.61 C 925.29 468.43 925.72 463.00 929.27 461.40 Z" />
<path fill="#ffffff" opacity="1.00" d=" M 1004.31 461.39 C 1007.47 459.71 1011.16 462.82 1011.01 466.15 C 1011.38 469.65 1007.37 472.95 1004.12 471.02 C 1000.37 469.16 1000.50 463.12 1004.31 461.39 Z" />
<path fill="#ffffff" opacity="1.00" d=" M 1020.01 465.06 C 1021.04 463.15 1022.29 460.43 1024.96 460.90 C 1027.37 460.79 1028.22 463.44 1029.34 465.08 C 1026.22 465.13 1023.11 465.13 1020.01 465.06 Z" />
<path fill="#ffffff" opacity="1.00" d=" M 1348.29 461.22 C 1351.34 459.99 1355.38 462.44 1355.00 465.91 C 1354.73 469.61 1349.59 471.45 1346.96 468.92 C 1344.38 466.86 1345.17 462.32 1348.29 461.22 Z" />
<path fill="#ffffff" opacity="1.00" d=" M 570.41 467.40 C 572.64 466.02 575.31 466.83 577.73 467.13 C 577.43 470.12 574.57 472.94 571.48 471.51 C 569.50 471.22 568.85 468.64 570.41 467.40 Z" />
</g>
<g id="#000000ff">
<path fill="#000000" opacity="1.00" d=" M 439.23 50.16 C 451.01 49.30 463.03 49.45 474.51 52.55 C 491.36 56.78 507.05 66.58 517.15 80.87 C 527.10 94.76 531.76 112.03 531.44 129.03 C 531.73 148.32 525.48 168.05 512.46 182.52 C 500.71 195.86 483.82 203.95 466.41 206.70 C 448.46 209.44 429.55 207.82 412.86 200.39 C 398.95 194.24 386.95 183.68 379.49 170.39 C 370.40 154.68 367.75 135.90 369.70 118.04 C 371.62 98.35 381.16 79.16 396.85 66.87 C 408.90 57.20 423.97 51.84 439.23 50.16 M 441.00 81.09 C 433.75 82.34 426.79 85.35 420.98 89.87 C 409.71 98.57 403.89 112.99 403.81 127.01 C 403.20 139.92 407.05 153.38 415.93 163.01 C 433.27 181.97 466.88 182.16 484.40 163.34 C 493.26 153.96 497.35 140.75 496.86 127.99 C 497.11 113.27 490.83 98.08 478.81 89.21 C 468.14 81.15 453.99 78.92 441.00 81.09 Z" />
<path fill="#000000" opacity="1.00" d=" M 887.79 53.83 C 898.78 53.83 909.77 53.83 920.76 53.83 C 921.64 62.54 920.61 71.28 921.15 80.00 C 921.17 91.91 920.88 103.79 921.18 115.70 C 939.79 95.79 958.46 75.93 977.07 56.02 C 978.08 55.04 979.13 53.60 980.77 53.85 C 994.72 53.80 1008.67 53.84 1022.62 53.84 C 1000.49 77.17 978.07 100.22 955.89 123.50 C 980.15 150.26 1004.28 177.14 1028.63 203.82 C 1013.14 203.97 997.64 203.84 982.15 203.89 C 961.73 180.34 941.49 156.63 921.19 132.98 C 921.11 137.99 921.14 142.99 921.14 148.00 C 921.04 161.68 921.00 175.32 921.16 188.99 C 921.12 193.93 920.59 198.87 921.20 203.80 C 910.06 203.99 898.92 203.84 887.78 203.89 C 887.79 153.87 887.76 103.85 887.79 53.83 Z" />
<path fill="#000000" opacity="1.00" d=" M 1039.87 53.83 C 1058.24 53.83 1076.61 53.83 1094.98 53.83 C 1107.34 53.81 1120.23 54.40 1131.60 59.76 C 1140.63 63.89 1148.05 72.08 1149.99 81.97 C 1151.68 90.67 1151.47 100.19 1147.20 108.16 C 1142.52 116.67 1133.91 122.41 1124.75 125.15 C 1135.80 126.95 1146.83 132.48 1152.68 142.38 C 1161.06 156.60 1159.76 176.84 1147.55 188.54 C 1136.22 199.90 1119.53 203.17 1104.08 203.88 C 1082.68 203.89 1061.27 203.88 1039.87 203.89 C 1039.85 153.87 1039.85 103.85 1039.87 53.83 M 1073.15 81.89 C 1073.15 92.54 1073.16 103.18 1073.15 113.83 C 1080.77 113.79 1088.41 113.88 1096.04 113.80 C 1101.65 113.60 1107.67 112.87 1112.23 109.26 C 1119.03 104.08 1119.72 92.47 1113.12 86.85 C 1108.67 83.19 1102.69 82.16 1097.10 81.91 C 1089.11 81.84 1081.13 81.90 1073.15 81.89 M 1073.15 141.87 C 1073.15 153.19 1073.16 164.52 1073.15 175.84 C 1082.44 175.81 1091.73 175.86 1101.02 175.82 C 1106.54 175.67 1112.38 175.19 1117.14 172.11 C 1124.53 167.78 1127.10 156.95 1122.14 149.92 C 1117.59 144.02 1109.63 142.69 1102.68 141.98 C 1092.84 141.72 1082.99 141.93 1073.15 141.87 Z" />
<path fill="#000000" opacity="1.00" d=" M 580.50 114.78 C 586.19 104.65 597.50 98.45 608.97 98.02 C 614.94 97.85 621.04 98.21 626.77 100.06 C 633.76 102.32 639.91 107.26 643.34 113.80 C 648.03 122.37 648.81 132.34 649.29 141.91 C 649.35 162.57 649.31 183.23 649.31 203.88 C 638.68 203.89 628.05 203.88 617.42 203.89 C 617.43 187.27 617.41 170.65 617.43 154.03 C 617.47 149.34 617.19 144.64 616.60 139.99 C 615.63 134.17 612.14 127.99 605.99 126.59 C 599.95 125.68 592.95 125.80 588.26 130.29 C 582.59 135.50 582.07 143.75 581.88 150.95 C 581.80 168.59 581.87 186.24 581.85 203.89 C 571.18 203.86 560.51 203.93 549.84 203.85 C 549.82 169.43 549.84 135.02 549.83 100.60 C 560.06 100.56 570.29 100.59 580.52 100.58 C 580.52 105.31 580.55 110.04 580.50 114.78 Z" />
<path fill="#000000" opacity="1.00" d=" M 689.23 109.27 C 701.26 100.39 716.74 96.93 731.51 98.24 C 742.92 99.40 754.64 103.16 762.64 111.77 C 755.70 119.19 748.55 126.41 741.68 133.89 C 732.65 122.04 712.14 124.18 704.55 136.53 C 700.27 143.11 699.62 151.45 701.01 159.02 C 702.53 167.02 708.24 174.39 716.18 176.82 C 722.44 178.76 729.90 179.29 735.60 175.49 C 737.82 174.08 739.70 172.22 741.61 170.42 C 748.58 177.86 755.73 185.13 762.64 192.64 C 753.49 202.20 739.91 206.05 727.01 206.27 C 711.77 206.82 696.01 201.84 684.77 191.34 C 674.03 181.37 668.03 166.64 668.51 152.01 C 668.04 135.56 675.86 118.98 689.23 109.27 Z" />
<path fill="#000000" opacity="1.00" d=" M 132.03 368.48 C 142.61 368.47 153.18 368.48 163.76 368.47 C 163.76 371.80 163.76 375.12 163.76 378.45 C 156.46 378.46 149.17 378.45 141.87 378.46 C 141.64 381.31 141.45 384.16 141.25 387.01 C 148.61 385.79 157.59 386.03 162.69 392.32 C 168.47 400.28 166.70 413.62 157.50 418.30 C 147.58 423.20 134.80 420.69 126.97 412.99 C 129.24 410.16 131.58 407.40 133.93 404.64 C 138.38 408.58 144.66 412.19 150.67 409.55 C 155.09 407.97 156.17 401.41 152.50 398.49 C 147.94 395.02 141.90 396.63 137.00 398.37 C 134.86 396.93 132.71 395.51 130.57 394.08 C 130.97 385.54 131.62 377.01 132.03 368.48 Z" />
<path fill="#000000" opacity="1.00" d=" M 178.26 374.35 C 182.70 368.83 190.28 367.05 197.06 367.79 C 203.97 368.09 210.39 372.76 212.79 379.25 C 215.38 386.26 215.33 393.97 214.11 401.26 C 212.87 408.49 208.85 415.80 201.90 418.89 C 193.18 422.55 182.51 420.83 175.34 414.65 C 177.30 411.68 179.36 408.77 181.36 405.83 C 185.59 409.06 191.23 411.96 196.56 409.65 C 200.75 407.96 202.15 403.26 203.21 399.29 C 196.42 403.86 186.79 403.42 180.18 398.72 C 172.99 393.03 172.65 381.25 178.26 374.35 M 190.35 378.24 C 185.96 379.88 184.34 385.98 187.22 389.62 C 191.49 395.35 203.23 393.21 203.14 385.31 C 203.40 378.92 195.52 375.84 190.35 378.24 Z" />
<path fill="#000000" opacity="1.00" d=" M 227.03 368.48 C 237.61 368.47 248.18 368.48 258.76 368.47 C 258.76 371.80 258.76 375.13 258.76 378.46 C 251.46 378.46 244.17 378.45 236.87 378.46 C 236.64 381.31 236.45 384.16 236.25 387.02 C 242.58 386.06 249.67 385.89 255.09 389.81 C 261.55 394.64 262.33 404.31 259.25 411.27 C 255.78 418.82 246.65 421.56 238.93 420.63 C 232.53 420.35 226.60 417.30 221.97 412.99 C 224.24 410.16 226.58 407.40 228.93 404.64 C 232.19 407.30 235.77 410.01 240.12 410.39 C 243.31 410.65 247.17 409.78 248.85 406.76 C 250.71 403.74 249.56 399.28 246.32 397.73 C 241.81 395.23 236.53 396.82 232.00 398.37 C 229.86 396.93 227.71 395.51 225.57 394.08 C 225.97 385.54 226.62 377.01 227.03 368.48 Z" />
</g>
<g id="#2377caff">
<path fill="#2377ca" opacity="1.00" d=" M 810.47 101.78 C 824.83 99.06 840.22 102.53 852.04 111.13 C 863.72 119.50 871.80 132.71 873.87 146.94 C 875.87 160.18 872.78 174.14 865.20 185.20 C 857.18 197.19 844.16 205.70 829.95 208.16 C 815.09 211.01 799.14 207.02 787.21 197.77 C 774.41 187.95 766.31 172.15 766.25 155.98 C 765.84 142.94 770.57 129.90 779.01 119.99 C 786.96 110.52 798.30 103.98 810.47 101.78 M 817.15 115.92 C 800.53 117.01 785.59 129.92 782.12 146.22 C 778.06 162.07 785.77 179.82 799.69 188.24 C 810.59 195.11 824.95 196.03 836.62 190.55 C 846.36 186.14 854.05 177.56 857.44 167.42 C 862.33 153.59 858.31 137.31 847.84 127.11 C 839.87 119.16 828.38 114.95 817.15 115.92 Z" />
<path fill="#2377ca" opacity="1.00" d=" M 813.44 120.62 C 822.08 119.22 831.34 120.37 838.79 125.20 C 851.18 132.68 857.84 148.34 854.52 162.44 C 852.05 174.29 842.93 184.42 831.42 188.16 C 817.71 192.79 801.41 188.10 792.65 176.47 C 782.90 164.36 782.86 145.69 792.57 133.54 C 797.68 126.92 805.23 122.23 813.44 120.62 M 816.32 135.26 C 807.22 137.04 799.91 145.66 800.17 155.01 C 799.94 164.54 807.58 173.24 816.91 174.77 C 828.95 177.27 841.40 166.39 840.39 154.07 C 840.28 142.20 827.84 132.49 816.32 135.26 Z" />
<path fill="#2377ca" opacity="1.00" d=" M 816.35 140.60 C 825.00 137.93 835.02 144.82 835.16 153.97 C 836.06 162.04 829.10 169.61 821.08 169.83 C 813.23 170.46 805.75 163.86 805.37 156.01 C 804.73 149.11 809.66 142.30 816.35 140.60 Z" />
</g>
<g id="#fd9827ff">
<path fill="#fd9827" opacity="1.00" d=" M 471.20 239.21 C 473.28 239.17 475.36 239.15 477.44 239.15 C 477.39 241.05 477.34 242.96 477.25 244.86 C 475.21 244.86 473.18 244.85 471.16 244.83 C 471.16 242.95 471.17 241.08 471.20 239.21 Z" />
<path fill="#fd9827" opacity="1.00" d=" M 504.43 239.22 C 506.56 239.17 508.69 239.16 510.82 239.17 C 510.79 240.98 510.73 242.79 510.52 244.59 C 508.50 244.90 506.45 244.87 504.42 244.95 C 504.40 243.03 504.41 241.12 504.43 239.22 Z" />
<path fill="#fd9827" opacity="1.00" d=" M 696.03 239.00 C 697.92 239.02 699.82 239.05 701.73 239.08 C 701.88 249.39 701.76 259.69 701.80 270.00 C 699.86 270.00 697.94 270.00 696.02 270.00 C 696.02 259.67 695.99 249.33 696.03 239.00 Z" />
<path fill="#fd9827" opacity="1.00" d=" M 922.13 239.02 C 924.05 239.03 925.97 239.04 927.90 239.06 C 927.99 249.37 927.92 259.69 927.94 270.00 C 925.99 270.00 924.05 269.99 922.12 269.99 C 922.12 259.67 922.08 249.35 922.13 239.02 Z" />
<path fill="#fd9827" opacity="1.00" d=" M 976.06 239.03 C 977.98 239.02 979.91 239.03 981.85 239.03 C 981.89 249.35 981.87 259.67 981.86 269.99 C 979.92 269.99 977.98 270.00 976.05 270.00 C 976.07 269.48 976.09 268.42 976.10 267.90 C 973.15 269.98 969.41 271.67 965.81 270.22 C 956.72 267.44 955.60 253.20 963.59 248.48 C 967.52 245.95 972.70 246.77 976.09 249.85 C 976.03 246.24 976.03 242.63 976.06 239.03 M 968.36 252.42 C 962.90 254.30 962.75 263.08 968.17 265.08 C 972.05 266.52 976.18 262.99 976.09 259.05 C 976.49 255.17 972.22 250.84 968.36 252.42 Z" />
<path fill="#fd9827" opacity="1.00" d=" M 376.94 240.13 C 382.77 240.43 388.93 239.16 394.52 241.33 C 400.96 243.85 402.05 253.65 396.78 257.88 C 392.87 261.10 387.47 260.82 382.71 260.91 C 382.70 263.93 382.70 266.96 382.68 269.98 C 380.76 269.99 378.84 270.00 376.93 270.01 C 376.92 260.05 376.92 250.09 376.94 240.13 M 382.72 245.59 C 382.70 248.85 382.70 252.12 382.70 255.39 C 385.63 255.21 388.73 255.65 391.52 254.54 C 394.64 253.34 395.12 248.38 392.18 246.71 C 389.29 245.19 385.85 245.80 382.72 245.59 Z" />
<path fill="#fd9827" opacity="1.00" d=" M 593.30 240.32 C 598.00 239.43 603.34 239.62 607.28 242.66 C 615.18 248.09 615.52 261.15 608.10 267.14 C 600.66 273.59 587.25 271.02 583.51 261.66 C 579.55 253.49 584.32 242.44 593.30 240.32 M 596.35 245.26 C 588.03 246.62 585.65 258.81 592.58 263.38 C 598.14 268.13 607.33 262.98 607.19 255.99 C 608.03 250.08 602.20 244.23 596.35 245.26 Z" />
<path fill="#fd9827" opacity="1.00" d=" M 802.19 240.15 C 804.11 240.13 806.03 240.12 807.97 240.12 C 807.99 244.88 807.97 249.64 808.00 254.41 C 812.50 249.63 816.97 244.82 821.50 240.07 C 823.87 240.11 826.24 240.16 828.62 240.28 C 824.92 244.90 820.48 248.85 816.47 253.18 C 820.66 258.82 825.05 264.31 829.18 269.99 C 826.73 270.00 824.28 270.00 821.84 270.00 C 818.67 265.80 815.48 261.62 812.30 257.43 C 810.85 258.90 809.42 260.37 807.99 261.84 C 807.98 264.56 807.98 267.28 807.98 270.00 C 806.03 269.99 804.10 269.99 802.16 269.99 C 802.17 260.05 802.12 250.10 802.19 240.15 Z" />
<path fill="#fd9827" opacity="1.00" d=" M 1054.45 240.15 C 1059.90 240.23 1065.39 239.75 1070.82 240.42 C 1074.53 240.94 1078.12 243.95 1077.96 247.95 C 1078.31 250.58 1076.46 252.62 1074.98 254.54 C 1076.76 255.91 1078.96 257.25 1079.35 259.69 C 1080.94 264.48 1076.79 269.41 1072.03 269.83 C 1066.16 270.25 1060.28 269.89 1054.42 269.99 C 1054.41 260.04 1054.36 250.09 1054.45 240.15 M 1060.00 245.53 C 1059.99 247.85 1059.99 250.17 1060.01 252.50 C 1063.29 252.43 1066.65 252.74 1069.88 251.91 C 1072.33 251.23 1072.92 247.54 1070.63 246.28 C 1067.20 245.16 1063.53 245.63 1060.00 245.53 M 1060.00 257.74 C 1059.99 260.16 1059.99 262.59 1060.00 265.01 C 1063.76 264.83 1067.75 265.65 1071.38 264.32 C 1074.10 263.59 1074.37 259.18 1071.58 258.36 C 1067.83 257.29 1063.85 257.85 1060.00 257.74 Z" />
<path fill="#fd9827" opacity="1.00" d=" M 404.13 247.30 C 405.98 247.29 407.83 247.30 409.69 247.32 C 409.75 248.05 409.88 249.51 409.95 250.23 C 412.13 248.24 414.82 246.99 417.77 246.68 C 417.82 248.62 417.88 250.56 417.93 252.50 C 415.30 253.35 412.08 254.08 410.90 256.93 C 409.18 261.04 410.13 265.66 409.92 270.00 C 407.98 270.00 406.04 269.99 404.10 269.99 C 404.10 262.43 404.06 254.86 404.13 247.30 Z" />
<path fill="#fd9827" opacity="1.00" d=" M 422.68 251.60 C 426.15 246.18 434.59 245.37 439.11 249.89 C 442.12 252.71 442.17 257.11 442.70 260.91 C 437.18 261.03 431.66 260.84 426.14 261.13 C 427.33 262.74 428.26 264.95 430.41 265.45 C 433.32 266.51 436.03 264.39 438.44 263.05 C 439.62 264.14 440.81 265.23 442.00 266.34 C 438.40 269.99 432.89 272.02 427.93 270.03 C 420.57 267.68 418.25 257.55 422.68 251.60 M 425.98 256.87 C 429.65 257.04 433.32 257.05 436.99 256.87 C 435.81 254.89 434.77 251.92 432.01 251.92 C 428.84 251.43 427.25 254.57 425.98 256.87 Z" />
<path fill="#fd9827" opacity="1.00" d=" M 447.26 253.38 C 449.38 249.09 454.27 246.37 459.05 247.00 C 462.30 247.02 464.94 249.12 467.44 250.94 C 466.19 252.31 464.94 253.68 463.69 255.05 C 461.28 253.64 458.57 250.77 455.65 252.68 C 450.28 254.69 450.63 263.61 456.18 265.13 C 459.11 266.17 461.67 264.10 464.11 262.80 C 465.24 263.90 466.37 265.00 467.51 266.12 C 464.19 269.95 458.72 271.97 453.85 270.06 C 447.05 268.16 443.90 259.39 447.26 253.38 Z" />
<path fill="#fd9827" opacity="1.00" d=" M 471.37 247.30 C 473.23 247.29 475.09 247.30 476.96 247.33 C 477.04 254.89 476.98 262.45 477.00 270.00 C 475.10 270.00 473.22 269.99 471.33 269.99 C 471.33 262.42 471.27 254.86 471.37 247.30 Z" />
<path fill="#fd9827" opacity="1.00" d=" M 486.70 247.77 C 490.91 245.96 495.47 247.68 499.37 249.46 C 498.64 251.00 497.88 252.52 497.12 254.05 C 494.18 252.86 490.45 250.48 487.60 253.18 C 489.76 256.79 494.99 256.22 497.87 259.09 C 501.54 262.21 499.33 268.91 494.86 269.98 C 490.09 271.83 485.07 269.63 480.98 267.17 C 481.90 265.79 482.83 264.42 483.76 263.04 C 486.48 264.40 489.33 265.50 492.23 266.44 C 492.98 265.41 493.86 264.43 494.32 263.22 C 491.41 261.36 487.92 260.76 484.96 259.04 C 480.74 256.41 482.25 249.30 486.70 247.77 Z" />
<path fill="#fd9827" opacity="1.00" d=" M 504.77 247.29 C 506.59 247.27 508.42 247.27 510.26 247.27 C 510.79 254.83 510.39 262.42 510.52 270.00 C 508.59 270.00 506.66 269.99 504.74 270.00 C 504.72 262.43 504.69 254.86 504.77 247.29 Z" />
<path fill="#fd9827" opacity="1.00" d=" M 523.46 247.50 C 527.89 246.18 533.18 247.20 536.33 250.72 C 541.15 255.85 540.07 265.33 533.81 268.84 C 527.56 273.16 517.59 269.78 515.65 262.33 C 513.59 256.30 517.53 249.41 523.46 247.50 M 521.39 256.45 C 519.56 260.62 523.38 266.15 528.06 265.30 C 532.40 265.16 534.55 259.91 533.00 256.26 C 532.21 253.59 529.32 252.79 527.14 251.61 C 524.97 252.85 522.23 253.84 521.39 256.45 Z" />
<path fill="#fd9827" opacity="1.00" d=" M 544.15 247.17 C 546.38 247.38 549.21 246.70 550.53 249.10 C 554.57 245.55 562.25 246.39 564.02 251.93 C 565.61 257.79 564.51 263.99 564.80 269.99 C 562.87 269.99 560.93 270.00 559.01 270.00 C 558.83 265.14 559.50 260.19 558.62 255.38 C 557.62 251.28 551.26 251.62 550.19 255.52 C 549.56 260.31 550.05 265.18 549.93 270.00 C 547.98 270.00 546.04 269.99 544.10 269.99 C 544.11 262.39 544.03 254.78 544.15 247.17 Z" />
<path fill="#fd9827" opacity="1.00" d=" M 618.70 247.28 C 620.48 247.28 622.28 247.28 624.08 247.29 C 624.12 247.92 624.22 249.19 624.27 249.82 C 626.25 248.36 628.37 246.60 631.03 246.97 C 634.90 246.75 638.80 249.82 638.92 253.81 C 639.17 259.20 638.92 264.60 639.00 270.00 C 637.10 270.00 635.21 270.00 633.33 270.00 C 633.20 265.04 633.75 260.04 632.96 255.13 C 632.05 251.24 625.54 251.69 624.83 255.50 C 623.94 260.27 624.53 265.17 624.40 270.00 C 622.48 270.00 620.58 269.99 618.68 269.99 C 618.64 262.42 618.61 254.85 618.70 247.28 Z" />
<path fill="#fd9827" opacity="1.00" d=" M 647.16 250.17 C 652.00 245.31 660.32 246.23 664.90 251.01 C 663.66 252.38 662.43 253.74 661.20 255.09 C 658.90 253.73 656.44 250.93 653.56 252.50 C 648.13 254.23 647.86 262.89 653.15 264.94 C 656.15 266.38 658.85 264.01 661.58 263.09 C 662.87 264.01 664.02 265.10 665.22 266.15 C 661.48 270.09 655.56 272.18 650.42 269.72 C 642.76 266.81 641.08 255.48 647.16 250.17 Z" />
<path fill="#fd9827" opacity="1.00" d=" M 675.34 247.46 C 682.33 245.07 691.09 250.20 691.03 257.91 C 692.18 265.95 683.24 272.84 675.71 270.25 C 668.97 268.86 665.13 260.90 667.69 254.65 C 669.02 251.26 671.90 248.62 675.34 247.46 M 673.49 255.68 C 671.31 259.62 674.22 265.60 679.01 265.33 C 682.87 265.67 685.91 261.70 685.19 258.03 C 685.16 254.51 681.72 252.89 679.01 251.61 C 677.04 252.74 674.50 253.43 673.49 255.68 Z" />
<path fill="#fd9827" opacity="1.00" d=" M 715.31 247.39 C 721.99 245.32 730.00 249.78 730.81 256.95 C 732.53 265.52 722.86 273.35 714.80 270.05 C 707.94 268.35 705.02 259.89 707.81 253.79 C 709.30 250.74 712.09 248.44 715.31 247.39 M 714.21 254.21 C 710.99 257.81 712.84 264.93 718.05 265.28 C 722.14 266.11 725.79 261.92 725.06 257.97 C 724.84 254.57 721.49 252.99 718.87 251.62 C 717.28 252.41 715.59 253.08 714.21 254.21 Z" />
<path fill="#fd9827" opacity="1.00" d=" M 736.69 250.71 C 740.34 246.03 747.72 245.84 752.01 249.77 C 752.05 249.14 752.13 247.88 752.17 247.26 C 754.05 247.27 755.94 247.29 757.84 247.32 C 757.84 253.24 757.98 259.15 757.84 265.07 C 757.65 269.06 756.48 273.76 752.53 275.61 C 746.83 278.07 740.36 276.80 734.98 274.14 C 735.75 272.67 736.52 271.20 737.32 269.75 C 740.81 270.98 744.65 273.06 748.40 271.57 C 750.96 270.72 751.59 267.87 752.57 265.70 C 749.16 267.69 745.09 269.38 741.15 267.86 C 734.16 265.84 732.04 255.97 736.69 250.71 M 744.30 252.22 C 741.15 253.16 738.88 257.20 740.80 260.17 C 742.80 264.61 749.85 264.11 751.69 259.76 C 753.70 255.44 748.52 250.72 744.30 252.22 Z" />
<path fill="#fd9827" opacity="1.00" d=" M 761.38 247.33 C 763.42 247.29 765.46 247.27 767.52 247.26 C 769.57 252.50 771.67 257.73 773.55 263.04 C 775.34 257.73 777.20 252.44 779.16 247.19 C 781.16 247.27 783.17 247.39 785.18 247.53 C 782.29 254.88 779.46 262.24 776.60 269.60 C 775.48 272.21 774.31 275.22 771.57 276.51 C 768.66 277.64 765.52 276.60 762.66 275.83 C 763.26 274.27 763.90 272.72 764.54 271.17 C 766.74 272.15 769.01 271.95 770.86 270.31 C 767.80 262.61 764.28 255.09 761.38 247.33 Z" />
<path fill="#fd9827" opacity="1.00" d=" M 832.15 247.18 C 834.38 247.38 837.20 246.70 838.53 249.09 C 841.28 246.96 845.12 246.18 848.33 247.80 C 851.16 248.95 852.45 252.10 852.69 254.96 C 853.01 259.96 852.74 264.98 852.80 269.99 C 850.86 269.99 848.93 270.00 847.01 270.00 C 846.83 265.14 847.50 260.19 846.62 255.38 C 845.63 251.33 839.39 251.61 838.22 255.40 C 837.53 260.23 838.05 265.14 837.93 270.00 C 835.97 270.00 834.03 269.99 832.10 269.99 C 832.11 262.39 832.03 254.78 832.15 247.18 Z" />
<path fill="#fd9827" opacity="1.00" d=" M 865.33 247.46 C 869.79 246.18 875.10 247.27 878.22 250.85 C 882.70 255.77 881.93 264.54 876.33 268.32 C 870.43 273.07 860.31 270.50 857.73 263.28 C 855.10 257.03 858.91 249.41 865.33 247.46 M 863.47 255.72 C 861.33 259.67 864.25 265.62 869.03 265.33 C 872.90 265.66 875.91 261.67 875.19 258.00 C 875.15 254.49 871.70 252.89 869.00 251.61 C 867.02 252.75 864.46 253.45 863.47 255.72 Z" />
<path fill="#fd9827" opacity="1.00" d=" M 883.71 247.32 C 885.65 247.29 887.61 247.27 889.57 247.26 C 890.99 251.86 892.35 256.47 893.69 261.10 C 895.52 256.50 896.91 251.75 898.48 247.07 C 899.99 247.14 901.51 247.18 903.04 247.38 C 905.15 251.74 906.06 256.57 907.77 261.09 C 909.44 256.50 910.69 251.77 912.28 247.15 C 914.19 247.27 916.10 247.39 918.02 247.56 C 915.52 255.17 913.00 262.77 910.53 270.38 C 908.82 270.39 907.13 270.40 905.44 270.41 C 903.90 265.75 902.40 261.08 900.80 256.45 C 899.25 261.11 897.71 265.78 896.12 270.43 C 894.45 270.43 892.79 270.42 891.15 270.42 C 888.58 262.75 885.91 255.10 883.71 247.32 Z" />
<path fill="#fd9827" opacity="1.00" d=" M 937.24 249.21 C 941.69 245.45 949.36 246.46 952.57 251.37 C 954.39 254.19 954.63 257.63 955.02 260.87 C 949.45 261.06 943.87 260.83 938.31 261.11 C 939.57 263.53 941.68 265.25 944.23 266.20 C 946.41 265.25 948.57 264.23 950.68 263.11 C 951.89 264.15 953.11 265.20 954.33 266.25 C 950.67 270.01 945.02 272.08 939.98 269.96 C 931.52 267.18 930.33 254.26 937.24 249.21 M 938.28 256.89 C 942.00 257.04 945.72 257.03 949.45 256.93 C 948.25 255.11 946.98 253.34 945.64 251.63 C 942.17 251.63 939.39 253.60 938.28 256.89 Z" />
<path fill="#fd9827" opacity="1.00" d=" M 990.90 248.87 C 994.72 246.11 1000.16 246.46 1003.81 249.38 C 1004.26 246.26 1007.75 247.55 1009.94 247.19 C 1009.94 253.48 1010.10 259.77 1009.94 266.07 C 1009.95 270.11 1007.97 274.76 1003.79 275.98 C 998.33 277.93 992.39 276.64 987.33 274.20 C 988.01 272.71 988.71 271.22 989.43 269.74 C 992.96 270.93 996.79 273.01 1000.57 271.60 C 1003.16 270.77 1003.82 267.90 1004.71 265.67 C 1001.29 267.87 997.04 269.39 993.06 267.75 C 985.36 265.19 984.30 253.24 990.90 248.87 M 992.65 258.87 C 993.20 263.17 999.02 264.56 1002.10 262.03 C 1004.36 260.58 1004.04 257.63 1004.31 255.32 C 1002.42 253.95 1000.62 251.78 998.07 251.94 C 994.64 252.01 991.78 255.49 992.65 258.87 Z" />
<path fill="#fd9827" opacity="1.00" d=" M 1019.24 249.21 C 1023.69 245.45 1031.36 246.45 1034.57 251.37 C 1036.39 254.18 1036.62 257.63 1037.02 260.87 C 1031.45 261.06 1025.87 260.83 1020.31 261.11 C 1021.57 263.54 1023.68 265.25 1026.24 266.20 C 1028.42 265.25 1030.57 264.23 1032.68 263.11 C 1033.88 264.15 1035.10 265.20 1036.33 266.25 C 1032.67 270.00 1027.02 272.08 1021.98 269.96 C 1013.52 267.18 1012.33 254.26 1019.24 249.21 M 1020.28 256.89 C 1023.99 257.04 1027.72 257.03 1031.44 256.94 C 1030.25 255.12 1028.99 253.36 1027.68 251.65 C 1024.18 251.61 1021.40 253.59 1020.28 256.89 Z" />
<path fill="#fd9827" opacity="1.00" d=" M 1084.71 248.97 C 1089.37 247.10 1094.89 246.00 1099.55 248.51 C 1102.39 249.93 1103.24 253.30 1103.53 256.21 C 1103.87 260.84 1103.63 265.48 1103.63 270.12 C 1101.48 269.90 1098.96 270.46 1097.33 268.69 C 1093.83 271.15 1088.75 271.62 1085.36 268.74 C 1081.65 265.97 1082.27 259.46 1086.30 257.27 C 1090.03 255.15 1094.51 256.28 1098.59 256.21 C 1097.66 255.12 1096.95 253.84 1095.81 252.98 C 1092.70 251.46 1089.31 253.01 1086.18 253.62 C 1085.67 252.07 1085.18 250.52 1084.71 248.97 M 1088.86 262.05 C 1087.64 265.87 1092.74 267.08 1095.35 265.53 C 1097.35 264.75 1097.79 262.45 1098.63 260.72 C 1095.42 260.11 1091.07 258.73 1088.86 262.05 Z" />
<path fill="#fd9827" opacity="1.00" d=" M 1112.68 247.78 C 1116.88 245.95 1121.46 247.68 1125.37 249.45 C 1124.63 250.99 1123.87 252.52 1123.12 254.05 C 1120.02 252.62 1115.71 250.32 1113.19 253.98 C 1116.45 255.77 1120.19 256.61 1123.33 258.64 C 1127.65 261.50 1125.61 268.86 1120.87 269.98 C 1116.09 271.83 1111.07 269.63 1106.98 267.19 C 1107.88 265.80 1108.82 264.42 1109.76 263.04 C 1112.47 264.40 1115.31 265.49 1118.20 266.44 C 1118.95 265.41 1119.86 264.45 1120.32 263.22 C 1117.24 261.20 1113.41 260.76 1110.42 258.63 C 1106.85 255.70 1108.49 249.26 1112.68 247.78 Z" />
<path fill="#fd9827" opacity="1.00" d=" M 1132.83 249.76 C 1137.19 245.44 1145.36 246.17 1148.76 251.34 C 1150.79 254.09 1150.88 257.63 1151.15 260.91 C 1145.58 261.02 1140.01 260.86 1134.45 261.08 C 1135.87 263.19 1137.46 265.66 1140.31 265.79 C 1142.74 265.67 1144.85 264.21 1146.96 263.10 C 1148.13 264.11 1149.30 265.13 1150.49 266.16 C 1146.68 270.60 1139.93 272.25 1134.75 269.29 C 1127.76 265.65 1127.00 254.80 1132.83 249.76 M 1138.14 251.90 C 1136.78 253.48 1135.48 255.12 1134.35 256.86 C 1138.10 257.05 1141.86 257.06 1145.63 256.88 C 1144.52 255.12 1143.30 253.45 1141.96 251.88 C 1140.68 251.90 1139.40 251.90 1138.14 251.90 Z" />
<path fill="#fd9827" opacity="1.00" d=" M 124.00 436.00 C 171.33 436.00 218.67 436.00 266.00 436.00 C 266.00 436.50 266.00 437.50 266.00 438.00 C 218.67 438.00 171.33 438.00 124.00 438.00 C 124.00 437.50 124.00 436.50 124.00 436.00 Z" />
<path fill="#fd9827" opacity="1.00" d=" M 480.00 436.00 C 542.67 436.00 605.33 436.00 668.00 436.00 C 668.00 436.50 668.00 437.50 668.00 438.00 C 605.33 438.00 542.67 438.00 480.00 438.00 C 480.00 437.50 480.00 436.50 480.00 436.00 Z" />
<path fill="#fd9827" opacity="1.00" d=" M 906.00 436.00 C 936.67 436.00 967.33 436.00 998.00 436.00 C 998.00 436.50 998.00 437.50 998.00 438.00 C 967.33 438.00 936.67 438.00 906.00 438.00 C 906.00 437.50 906.00 436.50 906.00 436.00 Z" />
<path fill="#fd9827" opacity="1.00" d=" M 1284.00 436.00 C 1315.33 436.00 1346.67 436.00 1378.00 436.00 C 1378.00 436.50 1378.00 437.50 1378.00 438.00 C 1346.67 438.00 1315.33 438.00 1284.00 438.00 C 1284.00 437.50 1284.00 436.50 1284.00 436.00 Z" />
</g>
<g id="#212121ff">
<path fill="#212121" opacity="1.00" d=" M 509.36 368.02 C 512.58 368.02 515.81 368.01 519.04 368.12 C 519.09 378.60 519.05 389.08 519.06 399.56 C 521.37 399.56 523.68 399.56 526.00 399.57 C 526.00 402.70 526.00 405.84 526.00 408.99 C 523.68 408.98 521.37 408.98 519.06 408.99 C 519.06 412.65 519.06 416.33 519.06 420.00 C 515.41 420.00 511.76 420.00 508.12 419.98 C 508.09 416.32 508.10 412.65 508.10 408.99 C 499.77 408.99 491.44 408.98 483.11 408.99 C 482.43 406.28 481.79 403.57 481.14 400.86 C 490.51 389.89 499.97 378.98 509.36 368.02 M 495.16 399.57 C 499.46 399.56 503.77 399.56 508.07 399.56 C 508.12 394.49 508.10 389.43 508.08 384.37 C 503.73 389.40 499.45 394.48 495.16 399.57 Z" />
<path fill="#212121" opacity="1.00" d=" M 560.14 368.02 C 563.35 368.02 566.57 368.00 569.79 368.14 C 570.01 378.61 569.81 389.08 569.89 399.56 C 572.19 399.56 574.49 399.56 576.80 399.58 C 576.81 402.71 576.81 405.84 576.79 408.97 C 574.48 408.98 572.18 408.98 569.88 408.99 C 569.88 412.66 569.88 416.33 569.88 420.00 C 566.23 420.00 562.58 420.00 558.93 420.00 C 558.91 416.33 558.91 412.65 558.92 408.99 C 550.56 408.99 542.21 408.99 533.85 408.98 C 533.18 406.27 532.53 403.55 531.87 400.83 C 541.32 389.92 550.69 378.93 560.14 368.02 M 558.93 384.27 C 554.54 389.33 550.22 394.45 545.90 399.58 C 550.24 399.55 554.57 399.58 558.91 399.54 C 558.93 394.45 558.90 389.36 558.93 384.27 Z" />
<path fill="#212121" opacity="1.00" d=" M 583.07 368.47 C 595.38 368.30 607.70 368.44 620.01 368.40 C 619.76 372.16 620.91 376.35 618.72 379.72 C 611.51 393.12 604.41 406.58 597.24 420.00 C 592.90 419.99 588.55 420.03 584.21 419.95 C 591.55 405.98 599.35 392.26 606.85 378.37 C 598.88 378.38 590.91 378.37 582.95 378.37 C 582.94 375.07 582.94 371.77 583.07 368.47 Z" />
<path fill="#212121" opacity="1.00" d=" M 620.16 400.37 C 629.25 389.47 638.65 378.81 647.88 368.03 C 651.07 368.03 654.26 368.02 657.45 368.07 C 657.80 378.56 657.50 389.06 657.62 399.55 C 659.91 399.56 662.21 399.56 664.52 399.57 C 664.53 402.71 664.53 405.84 664.51 408.98 C 662.20 408.98 659.90 408.98 657.60 408.99 C 657.60 412.66 657.60 416.33 657.60 420.00 C 653.96 420.00 650.32 420.00 646.68 419.99 C 646.64 416.32 646.65 412.66 646.65 408.99 C 638.29 408.97 629.94 409.00 621.58 408.98 C 621.19 406.15 619.46 403.11 620.16 400.37 M 646.64 384.27 C 642.32 389.36 637.96 394.42 633.69 399.54 C 637.99 399.57 642.31 399.59 646.62 399.52 C 646.68 394.43 646.65 389.35 646.64 384.27 Z" />
<path fill="#212121" opacity="1.00" d=" M 912.01 368.41 C 923.66 368.39 935.32 368.39 946.98 368.41 C 946.98 371.32 946.98 374.24 946.99 377.16 C 942.81 381.19 938.63 385.21 934.48 389.27 C 938.58 390.36 942.94 391.94 945.42 395.64 C 950.29 403.36 947.32 415.14 938.74 418.88 C 928.62 423.26 915.80 420.25 908.76 411.72 C 911.38 409.16 914.05 406.65 916.78 404.20 C 920.70 408.45 926.76 412.12 932.66 409.81 C 936.46 408.52 937.67 402.93 934.55 400.35 C 931.00 397.31 925.98 398.02 921.66 397.84 C 921.03 395.39 920.40 392.95 919.82 390.50 C 923.83 386.45 927.84 382.39 931.82 378.30 C 925.21 378.28 918.60 378.30 912.00 378.29 C 911.99 374.99 911.99 371.70 912.01 368.41 Z" />
<path fill="#212121" opacity="1.00" d=" M 959.44 374.38 C 963.91 368.43 972.10 367.12 979.06 367.98 C 985.46 368.87 992.50 373.01 993.23 380.04 C 994.26 385.22 991.68 390.29 987.51 393.29 C 990.08 395.00 992.84 396.86 994.08 399.84 C 996.34 405.38 995.05 412.51 990.17 416.27 C 984.22 420.87 976.07 421.41 968.92 420.09 C 962.71 418.95 956.30 414.62 955.44 407.94 C 954.32 401.99 957.43 395.80 962.98 393.31 C 956.76 389.39 955.01 380.26 959.44 374.38 M 971.37 378.24 C 968.44 379.45 966.94 383.28 968.79 386.00 C 971.98 391.31 982.35 389.87 982.40 383.09 C 982.13 377.90 975.37 376.11 971.37 378.24 M 971.21 399.32 C 967.80 400.18 965.13 404.21 967.22 407.49 C 971.14 413.02 982.93 412.40 983.99 404.86 C 983.43 398.94 975.82 397.80 971.21 399.32 Z" />
<path fill="#212121" opacity="1.00" d=" M 1289.39 368.55 C 1301.67 368.18 1313.98 368.50 1326.28 368.40 C 1326.02 371.98 1327.09 375.92 1325.23 379.21 C 1317.97 392.80 1310.73 406.39 1303.50 420.00 C 1299.15 419.99 1294.81 420.03 1290.47 419.96 C 1297.80 405.98 1305.60 392.25 1313.11 378.37 C 1305.12 378.37 1297.13 378.39 1289.15 378.36 C 1289.17 375.09 1288.88 371.79 1289.39 368.55 Z" />
<path fill="#212121" opacity="1.00" d=" M 1338.95 372.97 C 1342.41 369.55 1347.27 367.83 1352.08 367.66 C 1357.80 367.28 1364.00 368.54 1368.12 372.80 C 1374.13 378.77 1374.77 387.92 1374.30 395.91 C 1373.93 404.37 1370.74 413.65 1363.03 418.11 C 1354.10 422.97 1342.41 421.18 1334.74 414.70 C 1336.72 411.68 1338.80 408.73 1340.87 405.78 C 1345.02 408.95 1350.43 411.72 1355.73 409.74 C 1359.98 408.18 1361.49 403.52 1362.64 399.58 C 1354.71 404.33 1342.89 403.50 1336.94 395.99 C 1332.18 389.17 1332.90 378.81 1338.95 372.97 M 1349.52 378.47 C 1344.43 380.59 1343.85 388.62 1348.69 391.34 C 1353.76 394.79 1362.79 392.05 1362.63 385.13 C 1362.60 378.69 1354.64 375.87 1349.52 378.47 Z" />
<path fill="#212121" opacity="1.00" d=" M 518.29 452.41 C 519.27 452.39 520.27 452.38 521.27 452.37 C 521.27 459.58 521.29 466.79 521.26 474.00 C 520.51 474.00 519.03 474.00 518.28 474.00 C 518.27 466.80 518.26 459.60 518.29 452.41 Z" />
<path fill="#212121" opacity="1.00" d=" M 596.64 452.72 C 597.75 452.74 598.87 452.78 600.00 452.82 C 599.99 453.58 599.97 455.11 599.95 455.87 C 598.85 455.87 597.75 455.88 596.66 455.90 C 596.65 454.83 596.64 453.77 596.64 452.72 Z" />
<path fill="#212121" opacity="1.00" d=" M 155.82 454.69 C 159.97 451.67 165.69 452.82 169.62 455.65 C 169.15 456.27 168.21 457.50 167.74 458.12 C 165.41 456.78 162.83 455.22 160.03 456.07 C 154.06 457.30 152.42 466.10 157.06 469.79 C 159.92 472.33 163.98 471.41 167.12 469.97 C 167.13 468.43 167.13 466.91 167.12 465.38 C 165.17 465.37 163.22 465.36 161.27 465.36 C 161.27 464.68 161.27 463.32 161.27 462.63 C 164.22 462.62 167.18 462.62 170.13 462.62 C 170.13 465.53 170.13 468.43 170.14 471.35 C 165.99 474.43 159.94 475.61 155.46 472.55 C 149.44 468.59 149.81 458.48 155.82 454.69 Z" />
<path fill="#212121" opacity="1.00" d=" M 502.95 453.09 C 503.66 453.09 505.07 453.08 505.78 453.07 C 508.93 460.03 512.03 467.01 515.14 473.99 C 514.31 474.00 512.63 474.01 511.79 474.02 C 511.00 472.28 510.22 470.53 509.44 468.80 C 506.02 468.80 502.61 468.80 499.20 468.80 C 498.41 470.53 497.62 472.27 496.85 474.02 C 496.04 474.00 494.42 473.98 493.61 473.97 C 496.66 466.98 499.82 460.04 502.95 453.09 M 500.35 466.00 C 502.98 466.00 505.62 466.00 508.26 466.00 C 506.96 463.01 505.63 460.03 504.33 457.05 C 502.99 460.02 501.67 463.01 500.35 466.00 Z" />
<path fill="#212121" opacity="1.00" d=" M 857.96 453.23 C 863.44 453.23 868.93 453.21 874.42 453.24 C 874.45 454.19 874.48 455.14 874.52 456.11 C 872.26 456.10 870.02 456.10 867.79 456.11 C 867.78 462.07 867.78 468.04 867.78 474.00 C 867.01 474.00 865.47 474.00 864.70 473.99 C 864.67 468.03 864.69 462.07 864.69 456.11 C 862.43 456.10 860.19 456.10 857.95 456.11 C 857.95 455.39 857.96 453.95 857.96 453.23 Z" />
<path fill="#212121" opacity="1.00" d=" M 963.18 453.25 C 968.68 453.21 974.18 453.20 979.68 453.26 C 979.72 453.97 979.79 455.39 979.83 456.10 C 977.54 456.10 975.27 456.10 973.00 456.11 C 973.00 462.07 973.00 468.04 973.00 474.00 C 972.24 474.00 970.72 474.00 969.96 474.00 C 969.95 468.04 969.95 462.07 969.95 456.11 C 967.67 456.10 965.39 456.10 963.12 456.10 C 963.13 455.15 963.15 454.19 963.18 453.25 Z" />
<path fill="#212121" opacity="1.00" d=" M 1290.21 453.25 C 1295.00 453.35 1300.35 452.44 1304.56 455.33 C 1309.99 458.99 1310.03 467.99 1304.68 471.75 C 1300.56 475.04 1295.03 473.78 1290.19 473.99 C 1290.19 467.07 1290.16 460.16 1290.21 453.25 M 1293.31 455.98 C 1293.24 461.05 1293.27 466.12 1293.28 471.19 C 1296.40 471.03 1299.95 471.54 1302.60 469.47 C 1306.38 466.71 1306.23 460.17 1302.28 457.64 C 1299.69 455.78 1296.30 456.20 1293.31 455.98 Z" />
<path fill="#212121" opacity="1.00" d=" M 527.26 453.98 C 527.96 454.00 529.35 454.04 530.05 454.05 C 530.06 455.53 530.07 457.00 530.09 458.49 C 531.62 458.48 533.16 458.49 534.70 458.51 C 534.70 459.16 534.72 460.47 534.72 461.13 C 533.17 461.14 531.61 461.15 530.07 461.17 C 530.15 464.33 529.77 467.56 530.46 470.68 C 531.73 471.53 533.36 471.16 534.81 471.32 C 534.71 472.01 534.52 473.39 534.43 474.08 C 531.90 474.20 528.26 474.78 527.37 471.63 C 526.78 468.18 527.16 464.65 527.08 461.17 C 526.56 461.16 525.52 461.13 525.00 461.12 C 525.02 460.62 525.07 459.64 525.09 459.14 C 527.61 458.54 526.96 455.90 527.26 453.98 Z" />
<path fill="#212121" opacity="1.00" d=" M 585.41 454.01 C 586.12 454.01 587.56 454.02 588.27 454.02 C 588.30 455.50 588.34 456.99 588.38 458.48 C 589.90 458.48 591.42 458.49 592.96 458.51 C 592.96 459.17 592.97 460.47 592.97 461.12 C 591.42 461.13 589.88 461.15 588.34 461.17 C 588.49 464.46 587.83 467.91 588.99 471.08 C 590.34 471.23 591.71 471.30 593.09 471.31 C 592.98 472.01 592.75 473.41 592.63 474.12 C 590.23 474.09 586.62 474.86 585.71 471.85 C 585.00 468.36 585.44 464.77 585.35 461.24 C 584.68 461.17 583.35 461.04 582.69 460.97 C 583.33 459.71 584.20 458.61 585.26 457.68 C 585.30 456.45 585.35 455.23 585.41 454.01 Z" />
<path fill="#212121" opacity="1.00" d=" M 176.76 459.69 C 179.60 457.47 184.18 457.65 186.53 460.52 C 188.23 462.37 188.24 465.03 188.74 467.36 C 184.65 467.46 180.57 467.36 176.49 467.51 C 177.46 469.10 178.34 471.15 180.40 471.55 C 182.56 472.16 184.52 470.62 186.38 469.78 C 186.99 470.36 187.60 470.95 188.21 471.54 C 185.49 473.87 181.71 475.24 178.24 473.72 C 172.81 471.51 172.21 463.09 176.76 459.69 M 176.46 465.08 C 179.54 465.13 182.61 465.13 185.68 465.07 C 184.71 463.17 183.53 460.37 180.87 460.90 C 178.49 460.82 177.52 463.41 176.46 465.08 Z" />
<path fill="#212121" opacity="1.00" d=" M 194.87 460.23 C 197.65 457.89 202.36 457.10 204.75 460.39 C 206.81 464.59 205.51 469.50 205.85 474.00 C 205.10 474.00 203.59 474.00 202.84 474.00 C 202.72 470.50 203.15 466.94 202.50 463.49 C 201.63 460.09 196.48 460.34 195.47 463.51 C 194.68 466.94 195.19 470.51 195.07 474.00 C 194.32 474.00 192.81 473.99 192.05 473.99 C 192.04 468.84 192.04 463.70 192.05 458.55 C 192.81 458.53 194.33 458.49 195.09 458.47 L 194.87 460.23 Z" />
<path fill="#212121" opacity="1.00" d=" M 212.92 473.16 C 207.13 469.64 208.95 458.98 215.95 458.28 C 221.28 457.15 224.66 462.68 224.44 467.39 C 220.39 467.45 216.35 467.35 212.31 467.52 C 213.23 468.86 213.78 470.77 215.49 471.34 C 217.83 472.42 220.11 470.72 222.17 469.79 C 222.60 470.21 223.46 471.07 223.89 471.49 C 220.99 474.22 216.45 475.44 212.92 473.16 M 212.25 465.07 C 215.33 465.13 218.42 465.13 221.51 465.08 C 220.46 463.35 219.46 460.60 216.96 460.90 C 214.41 460.55 213.32 463.31 212.25 465.07 Z" />
<path fill="#212121" opacity="1.00" d=" M 229.84 458.84 C 232.72 457.39 235.85 458.79 238.58 459.88 C 238.28 460.45 237.68 461.59 237.38 462.16 C 235.03 461.45 231.67 459.68 230.02 462.52 C 231.96 465.09 235.77 464.90 238.00 467.13 C 239.88 469.69 238.06 473.70 234.93 474.07 C 231.91 474.82 229.00 473.51 226.37 472.17 C 226.74 471.60 227.46 470.45 227.83 469.87 C 230.20 471.05 235.32 473.39 235.93 469.30 C 233.70 467.51 230.68 467.23 228.40 465.54 C 226.46 463.59 227.31 459.86 229.84 458.84 Z" />
<path fill="#212121" opacity="1.00" d=" M 539.82 459.83 C 542.63 457.54 547.18 457.57 549.67 460.35 C 551.46 462.21 551.51 464.95 552.05 467.34 C 547.91 467.46 543.77 467.36 539.64 467.52 C 540.75 469.00 541.58 471.00 543.54 471.53 C 545.74 472.20 547.74 470.60 549.64 469.76 C 550.23 470.35 550.82 470.95 551.42 471.55 C 548.55 474.17 544.14 475.38 540.63 473.28 C 535.97 470.55 535.77 463.16 539.82 459.83 M 539.62 465.09 C 542.72 465.13 545.83 465.12 548.93 465.07 C 547.99 463.42 547.22 460.93 544.92 460.90 C 542.14 460.34 540.78 463.13 539.62 465.09 Z" />
<path fill="#212121" opacity="1.00" d=" M 555.31 458.53 C 556.35 458.51 557.39 458.50 558.43 458.50 C 558.34 459.13 558.14 460.40 558.05 461.04 C 559.92 459.51 562.06 458.39 564.41 457.79 C 565.74 462.30 559.90 461.45 558.98 464.90 C 558.03 467.83 558.39 470.97 558.31 474.01 C 557.56 474.00 556.06 473.99 555.31 473.99 C 555.29 468.83 555.28 463.68 555.31 458.53 Z" />
<path fill="#212121" opacity="1.00" d=" M 567.42 459.60 C 571.30 458.21 577.17 456.98 579.60 461.34 C 580.83 465.42 580.07 469.79 580.24 474.00 C 579.50 474.00 578.02 474.00 577.28 474.00 C 577.33 473.64 577.43 472.93 577.48 472.57 C 573.88 475.41 566.54 474.98 566.50 469.25 C 566.89 463.50 573.80 464.25 577.84 464.51 C 576.86 463.08 576.02 461.06 573.98 461.04 C 571.58 460.74 568.04 463.38 567.42 459.60 M 570.41 467.40 C 568.85 468.64 569.50 471.22 571.48 471.51 C 574.57 472.94 577.43 470.12 577.73 467.13 C 575.31 466.83 572.64 466.02 570.41 467.40 Z" />
<path fill="#212121" opacity="1.00" d=" M 596.83 458.49 C 597.82 458.50 598.81 458.50 599.81 458.52 C 599.83 463.67 599.83 468.83 599.82 473.99 C 599.07 473.99 597.58 474.00 596.83 474.01 C 596.82 468.83 596.81 463.66 596.83 458.49 Z" />
<path fill="#212121" opacity="1.00" d=" M 609.33 458.63 C 613.04 457.27 617.65 459.05 619.22 462.75 C 621.57 467.37 618.27 473.87 612.95 474.19 C 608.92 474.99 604.51 472.16 603.88 468.04 C 603.04 464.11 605.34 459.66 609.33 458.63 M 610.23 461.21 C 606.44 462.38 605.64 468.04 608.74 470.39 C 611.32 472.82 615.94 471.17 616.63 467.77 C 617.87 464.11 614.03 459.74 610.23 461.21 Z" />
<path fill="#212121" opacity="1.00" d=" M 627.47 459.61 C 630.34 457.49 635.13 457.56 636.87 461.07 C 638.23 465.22 637.33 469.71 637.57 474.01 C 636.82 474.00 635.32 473.99 634.56 473.99 C 634.38 470.30 635.04 466.48 634.02 462.90 C 632.59 459.74 627.51 460.85 627.07 464.12 C 626.68 467.39 626.92 470.70 626.89 474.00 C 626.13 474.00 624.62 474.00 623.86 474.00 C 623.87 468.68 623.78 463.37 623.93 458.06 C 625.09 458.53 626.28 459.13 627.47 459.61 Z" />
<path fill="#212121" opacity="1.00" d=" M 644.61 458.63 C 647.39 457.51 650.25 458.88 652.83 459.89 C 652.54 460.46 651.96 461.61 651.67 462.19 C 649.08 461.25 645.60 459.73 643.96 462.97 C 646.57 464.47 649.61 465.18 652.09 466.92 C 653.81 468.94 653.02 472.51 650.58 473.59 C 647.88 474.76 644.59 474.36 642.10 472.86 C 640.34 472.38 641.37 470.91 641.81 469.77 C 644.34 470.75 647.19 472.68 649.85 470.89 C 649.90 470.43 649.99 469.52 650.04 469.06 C 647.90 467.73 645.38 467.19 643.21 465.93 C 640.40 464.22 641.53 459.36 644.61 458.63 Z" />
<path fill="#212121" opacity="1.00" d=" M 877.63 458.48 C 878.62 458.49 879.63 458.50 880.64 458.52 C 880.79 462.23 880.18 466.07 881.16 469.70 C 882.60 472.46 887.21 471.86 887.99 468.88 C 888.65 465.47 888.24 461.96 888.34 458.51 C 889.32 458.50 890.32 458.49 891.33 458.49 C 891.33 463.65 891.34 468.82 891.31 473.99 C 890.56 473.99 889.05 474.00 888.30 474.00 C 888.37 473.58 888.51 472.73 888.59 472.30 C 885.71 474.76 880.38 475.41 878.37 471.58 C 876.92 467.39 877.86 462.82 877.63 458.48 Z" />
<path fill="#212121" opacity="1.00" d=" M 898.97 460.05 C 901.84 457.64 906.06 457.50 908.50 460.59 C 911.19 457.50 916.93 457.07 918.87 461.16 C 920.00 465.33 919.30 469.73 919.47 474.00 C 918.71 474.00 917.20 474.00 916.44 474.00 C 916.34 470.37 916.81 466.68 916.05 463.11 C 915.10 460.07 910.35 460.49 909.64 463.48 C 908.90 466.93 909.37 470.50 909.27 474.00 C 908.51 474.00 906.99 474.00 906.23 474.00 C 906.14 470.35 906.56 466.65 905.88 463.05 C 904.78 460.06 900.28 460.58 899.47 463.50 C 898.68 466.93 899.18 470.51 899.07 474.00 C 898.32 474.00 896.81 473.99 896.05 473.99 C 896.04 468.85 896.04 463.71 896.05 458.57 C 896.78 458.54 898.23 458.47 898.96 458.43 L 898.97 460.05 Z" />
<path fill="#212121" opacity="1.00" d=" M 928.40 458.74 C 932.65 456.96 938.21 459.44 939.19 464.07 C 940.49 468.71 937.04 474.12 932.08 474.24 C 927.66 474.96 923.31 471.35 923.19 466.89 C 923.02 463.44 925.05 459.87 928.40 458.74 M 929.27 461.40 C 925.72 463.00 925.29 468.43 928.49 470.61 C 931.39 472.96 936.12 470.64 936.25 466.98 C 936.95 463.25 932.80 459.57 929.27 461.40 Z" />
<path fill="#212121" opacity="1.00" d=" M 943.31 458.53 C 944.34 458.51 945.38 458.50 946.43 458.49 C 946.34 459.13 946.14 460.40 946.05 461.03 C 947.92 459.51 950.05 458.39 952.41 457.79 C 953.75 462.31 947.87 461.45 946.97 464.92 C 946.03 467.85 946.39 470.98 946.31 474.01 C 945.56 474.00 944.06 473.99 943.31 473.99 C 943.29 468.83 943.28 463.68 943.31 458.53 Z" />
<path fill="#212121" opacity="1.00" d=" M 991.93 458.48 C 993.01 458.49 994.10 458.50 995.21 458.51 C 992.63 464.54 990.67 470.85 987.65 476.67 C 986.04 479.53 982.42 478.78 979.82 478.11 C 980.09 477.53 980.64 476.36 980.92 475.77 C 982.89 476.11 984.76 475.77 986.22 474.32 C 983.88 469.07 981.52 463.84 979.25 458.56 C 980.08 458.54 981.75 458.50 982.58 458.48 C 984.21 462.41 985.88 466.33 987.50 470.26 C 988.96 466.33 990.44 462.40 991.93 458.48 Z" />
<path fill="#212121" opacity="1.00" d=" M 1001.11 460.80 C 1003.24 459.07 1005.93 457.33 1008.80 458.44 C 1015.27 460.17 1015.91 470.27 1010.29 473.40 C 1007.32 475.23 1003.71 474.09 1001.22 472.02 C 1001.30 474.24 1001.33 476.47 1001.35 478.71 C 1000.59 478.70 999.07 478.68 998.31 478.67 C 998.28 471.96 998.29 465.25 998.31 458.55 C 999.08 458.53 1000.62 458.49 1001.40 458.48 C 1001.32 459.06 1001.18 460.22 1001.11 460.80 M 1004.31 461.39 C 1000.50 463.12 1000.37 469.16 1004.12 471.02 C 1007.37 472.95 1011.38 469.65 1011.01 466.15 C 1011.16 462.82 1007.47 459.71 1004.31 461.39 Z" />
<path fill="#212121" opacity="1.00" d=" M 1018.12 462.32 C 1019.94 458.22 1025.87 456.79 1029.30 459.75 C 1031.60 461.57 1031.82 464.71 1032.24 467.39 C 1028.15 467.45 1024.05 467.33 1019.97 467.56 C 1021.00 468.97 1021.72 470.88 1023.54 471.46 C 1026.46 472.57 1029.14 468.74 1031.95 470.97 C 1029.68 473.41 1026.44 475.07 1023.05 474.13 C 1017.89 473.18 1015.79 466.66 1018.12 462.32 M 1020.01 465.06 C 1023.11 465.13 1026.22 465.13 1029.34 465.08 C 1028.22 463.44 1027.37 460.79 1024.96 460.90 C 1022.29 460.43 1021.04 463.15 1020.01 465.06 Z" />
<path fill="#212121" opacity="1.00" d=" M 1037.71 458.80 C 1040.59 457.38 1043.67 458.85 1046.39 459.90 C 1045.93 460.64 1045.49 461.38 1045.06 462.13 C 1042.69 461.34 1039.98 460.10 1037.79 461.97 C 1038.92 465.78 1045.17 464.40 1046.28 468.33 C 1047.09 470.71 1045.44 473.51 1042.99 474.01 C 1039.88 474.86 1036.80 473.59 1034.11 472.14 C 1034.48 471.57 1035.20 470.43 1035.57 469.86 C 1038.20 471.05 1041.73 473.01 1044.00 470.00 C 1042.11 467.19 1038.11 467.52 1035.84 465.21 C 1034.21 463.11 1035.28 459.73 1037.71 458.80 Z" />
<path fill="#212121" opacity="1.00" d=" M 1315.81 460.97 C 1317.49 459.52 1319.47 458.50 1321.59 457.81 C 1321.66 458.87 1321.76 459.94 1321.87 461.02 C 1319.98 461.87 1317.47 462.30 1316.65 464.47 C 1315.42 467.47 1316.00 470.83 1315.87 474.00 C 1315.12 474.00 1313.61 474.00 1312.86 474.00 C 1312.84 468.83 1312.84 463.66 1312.87 458.49 C 1313.63 458.50 1315.15 458.52 1315.91 458.53 C 1315.89 459.14 1315.84 460.36 1315.81 460.97 Z" />
<path fill="#212121" opacity="1.00" d=" M 1324.63 458.48 C 1325.62 458.49 1326.62 458.50 1327.64 458.52 C 1327.78 462.23 1327.18 466.06 1328.16 469.70 C 1329.58 472.44 1334.12 471.87 1334.97 468.95 C 1335.66 465.52 1335.24 461.98 1335.34 458.51 C 1336.32 458.50 1337.31 458.49 1338.33 458.49 C 1338.32 463.77 1338.36 469.05 1338.29 474.33 C 1337.00 473.96 1335.75 473.72 1334.56 473.18 C 1331.44 474.96 1326.36 474.85 1325.07 470.89 C 1324.17 466.82 1324.75 462.61 1324.63 458.48 Z" />
<path fill="#212121" opacity="1.00" d=" M 1347.36 458.52 C 1349.85 457.52 1352.41 458.62 1354.50 460.04 C 1355.35 458.98 1356.47 458.34 1357.86 458.10 C 1358.03 462.75 1358.12 467.41 1357.91 472.06 C 1357.82 474.36 1356.67 476.72 1354.50 477.70 C 1350.75 479.61 1346.40 478.42 1342.77 476.84 C 1343.18 475.99 1343.60 475.14 1344.04 474.30 C 1346.67 475.44 1349.76 476.89 1352.59 475.50 C 1354.64 474.62 1354.74 472.13 1355.38 470.30 C 1352.51 472.74 1348.02 474.07 1344.95 471.23 C 1340.40 468.00 1341.91 459.83 1347.36 458.52 M 1348.29 461.22 C 1345.17 462.32 1344.38 466.86 1346.96 468.92 C 1349.59 471.45 1354.73 469.61 1355.00 465.91 C 1355.38 462.44 1351.34 459.99 1348.29 461.22 Z" />
<path fill="#212121" opacity="1.00" d=" M 1364.72 458.80 C 1367.58 457.39 1370.66 458.84 1373.37 459.90 C 1373.05 460.46 1372.40 461.59 1372.07 462.15 C 1369.46 461.09 1366.15 459.99 1364.34 462.95 C 1367.13 464.55 1370.54 465.12 1372.96 467.32 C 1374.14 469.64 1373.21 472.75 1370.76 473.78 C 1367.46 475.02 1364.01 473.75 1361.11 472.14 C 1361.48 471.57 1362.20 470.43 1362.56 469.86 C 1365.20 471.05 1368.74 473.02 1371.00 470.00 C 1369.19 467.41 1365.67 467.42 1363.26 465.66 C 1361.09 463.71 1362.06 459.79 1364.72 458.80 Z" />
</g>
</svg>
