<?xml version="1.0" encoding="UTF-8" ?>
<!DOCTYPE svg PUBLIC "-//W3C//DTD SVG 1.1//EN" "http://www.w3.org/Graphics/SVG/1.1/DTD/svg11.dtd">
<svg width="387pt" height="400pt" viewBox="0 0 387 400" version="1.1" xmlns="http://www.w3.org/2000/svg">
<g id="#ede3aeff">
</g>
<g id="#f9fae2ff">
</g>
<g id="#f6f7e1ff">
</g>
<g id="#f4f6ddff">
</g>
<g id="#a5a698ff">
<path fill="#a5a698" opacity="1.00" d=" M 292.72 19.56 C 299.37 18.09 289.52 3.52 301.09 7.83 L 302.17 7.79 C 307.18 11.39 302.06 21.57 304.89 27.18 C 304.99 28.48 305.10 29.78 305.21 31.08 C 304.64 31.08 303.49 31.09 302.92 31.09 C 300.52 24.17 309.47 5.20 296.11 9.04 C 294.69 12.11 299.08 22.45 292.72 19.56 Z" />
</g>
<g id="#070807ff">
<path fill="#070807" opacity="1.00" d=" M 109.00 14.00 C 108.19 9.64 109.54 7.00 115.05 8.90 C 114.97 11.52 114.88 14.13 114.79 16.75 C 114.32 20.15 113.87 23.57 113.98 27.00 C 114.01 28.35 113.98 29.69 113.89 31.04 C 112.84 31.43 111.87 31.98 111.00 32.69 C 107.21 34.16 104.87 33.87 103.99 31.82 C 104.47 29.40 104.27 27.11 103.42 24.95 L 102.99 23.90 C 103.73 16.38 100.01 23.40 100.97 27.09 C 100.52 28.23 102.00 31.34 99.98 31.00 C 97.32 31.00 94.66 30.98 92.00 30.95 C 91.75 30.67 91.26 30.11 91.01 29.83 C 91.32 27.49 91.16 25.23 90.54 23.04 C 89.83 21.05 89.86 18.90 89.98 16.82 C 90.21 15.20 90.13 13.54 89.48 12.02 C 88.46 9.25 90.28 8.57 94.95 10.01 C 93.97 12.41 94.83 28.27 97.91 20.27 C 98.03 18.57 98.06 16.87 98.11 15.17 C 97.15 9.74 107.47 8.55 105.98 14.01 C 106.17 17.54 106.14 21.69 108.80 24.38 C 108.94 20.92 109.10 17.46 109.00 14.00 Z" />
</g>
<g id="#b2b59dff">
<path fill="#b2b59d" opacity="1.00" d=" M 115.05 8.90 C 115.83 9.51 116.45 10.27 116.90 11.19 C 116.94 15.80 117.06 20.40 116.99 25.01 C 115.88 23.60 115.29 21.49 115.24 18.69 C 115.12 18.21 114.90 17.24 114.79 16.75 C 114.88 14.13 114.97 11.52 115.05 8.90 Z" />
</g>
<g id="#9b9770ff">
<path fill="#9b9770" opacity="1.00" d=" M 127.28 19.29 C 128.21 16.84 125.32 10.08 128.05 9.05 C 127.74 12.41 128.76 16.11 127.28 19.29 Z" />
</g>
<g id="#060506ff">
<path fill="#060506" opacity="1.00" d=" M 128.05 9.05 C 130.03 8.91 132.01 8.91 133.99 9.07 C 134.00 13.99 133.95 18.92 134.00 23.84 C 134.13 26.61 134.05 29.36 133.76 32.10 C 131.90 31.96 130.04 31.90 128.18 31.88 C 127.95 30.48 127.47 27.67 127.23 26.26 C 123.26 24.42 124.02 28.49 123.71 31.12 C 121.78 30.99 119.85 30.90 117.93 30.84 C 118.00 23.89 118.02 16.95 117.99 10.00 C 119.64 9.92 121.29 9.93 122.94 10.05 C 123.16 13.11 122.29 16.46 123.73 19.30 C 124.10 20.47 126.90 20.46 127.28 19.29 C 128.76 16.11 127.74 12.41 128.05 9.05 Z" />
</g>
<g id="#8a886dff">
<path fill="#8a886d" opacity="1.00" d=" M 133.99 9.07 C 134.24 11.56 134.75 16.54 135.00 19.04 C 137.41 19.36 134.60 14.39 137.12 15.07 C 136.67 18.40 136.24 21.77 136.92 25.10 C 136.26 23.81 135.42 22.95 134.00 23.84 C 133.95 18.92 134.00 13.99 133.99 9.07 Z" />
</g>
<g id="#0c0a09ff">
<path fill="#0c0a09" opacity="1.00" d=" M 137.12 15.07 C 138.56 7.80 149.70 6.60 153.69 12.30 C 157.32 18.35 157.51 30.76 148.81 32.08 C 146.94 31.95 145.06 31.96 143.19 32.08 C 139.80 31.94 137.57 28.13 136.92 25.10 C 136.24 21.77 136.67 18.40 137.12 15.07 M 145.12 14.83 C 142.34 16.42 143.69 25.83 145.00 26.99 C 146.76 27.47 147.76 27.14 148.01 26.00 C 149.86 22.80 149.83 19.41 147.93 15.83 C 149.17 14.01 145.13 12.74 145.12 14.83 Z" />
</g>
<g id="#0d0c0bff">
<path fill="#0d0c0b" opacity="1.00" d=" M 167.55 15.62 C 165.31 5.86 182.69 5.86 180.45 15.62 C 181.48 21.12 182.70 26.57 183.72 32.06 C 182.12 32.04 178.94 32.00 177.34 31.97 C 176.59 28.95 171.37 27.13 170.57 30.96 C 168.77 30.93 166.98 30.95 165.20 31.09 C 163.51 28.06 167.64 20.22 167.55 15.62 M 173.04 19.20 L 172.63 19.97 C 169.90 21.15 173.32 26.43 174.66 23.03 C 174.74 22.51 174.90 21.47 174.97 20.95 C 176.82 17.82 171.87 13.86 173.04 19.20 Z" />
</g>
<g id="#0d0d0bff">
<path fill="#0d0d0b" opacity="1.00" d=" M 184.95 13.22 C 188.60 5.51 202.70 8.05 203.12 17.05 C 197.70 19.84 196.06 14.39 191.98 13.93 C 190.93 17.58 194.90 18.75 197.70 19.00 C 205.65 19.93 203.91 33.47 195.82 32.07 C 194.27 31.97 192.73 31.97 191.19 32.07 C 188.38 31.85 184.97 29.87 184.68 26.81 C 185.36 25.91 186.08 25.03 186.80 24.16 C 187.62 24.08 189.26 23.92 190.08 23.84 C 190.59 24.57 191.11 25.30 191.64 26.02 C 192.94 30.35 197.05 25.28 194.12 23.56 C 192.45 22.89 190.71 22.43 188.99 21.91 C 187.28 21.13 185.50 19.59 184.95 17.77 C 185.02 16.26 185.02 14.74 184.95 13.22 Z" />
</g>
<g id="#070708ff">
<path fill="#070708" opacity="1.00" d=" M 212.95 16.12 C 214.96 13.04 213.75 6.22 220.03 8.97 C 223.00 8.21 223.20 9.71 221.95 12.01 C 218.00 17.79 219.36 24.22 222.32 30.09 C 221.73 33.37 217.76 31.61 215.31 32.04 C 215.23 27.25 211.60 25.39 210.63 30.99 C 208.81 30.93 206.99 30.94 205.18 31.10 C 204.99 24.07 204.97 17.04 205.01 10.01 C 210.71 7.75 211.79 10.95 211.04 15.27 C 210.07 18.40 212.33 19.78 212.95 16.12 Z" />
</g>
<g id="#4c4b3aff">
<path fill="#4c4b3a" opacity="1.00" d=" M 225.00 9.97 C 226.73 9.24 238.19 6.66 239.02 10.83 C 234.38 10.05 229.69 9.97 225.00 9.97 Z" />
</g>
<g id="#0a0a09ff">
<path fill="#0a0a09" opacity="1.00" d=" M 241.01 11.08 C 245.00 5.55 259.83 9.67 259.08 18.19 C 258.94 20.06 258.94 21.94 259.08 23.81 C 259.36 28.59 254.25 32.16 249.82 32.06 C 248.16 32.06 244.85 32.05 243.19 32.05 C 242.65 31.78 241.55 31.25 241.00 30.98 C 241.00 24.35 240.96 17.71 241.01 11.08 M 248.02 27.08 C 249.21 27.11 250.20 26.68 250.98 25.79 C 252.80 22.77 252.81 19.51 251.01 16.01 C 250.76 14.87 249.76 14.53 248.01 15.01 C 245.42 16.18 246.65 25.85 248.02 27.08 Z" />
<path fill="#0a0a09" opacity="1.00" d=" M 308.82 9.07 C 312.24 9.80 317.05 7.54 319.97 10.17 L 320.27 10.92 C 319.61 12.62 319.47 14.62 320.68 16.12 C 321.42 19.06 322.26 21.96 323.13 24.87 C 323.37 27.27 323.55 29.67 323.67 32.08 C 322.12 32.04 319.01 31.95 317.45 31.91 C 316.72 28.30 312.49 28.09 310.57 30.91 C 308.78 30.93 306.99 30.95 305.21 31.08 C 305.10 29.78 304.99 28.48 304.89 27.18 C 306.44 26.30 306.25 24.35 305.83 22.89 L 306.16 22.16 C 307.43 21.07 307.39 19.30 306.83 17.85 L 307.16 17.12 C 308.30 16.05 308.43 14.44 308.10 12.98 C 309.18 11.99 309.50 10.39 308.82 9.07 M 313.15 19.06 L 312.74 19.71 C 308.15 25.76 320.24 24.61 314.95 19.84 C 317.17 16.27 311.42 14.51 313.15 19.06 Z" />
</g>
<g id="#3a3835ff">
<path fill="#3a3835" opacity="1.00" d=" M 268.02 10.01 C 270.96 7.32 279.32 9.83 283.98 8.97 L 283.98 9.95 C 278.65 9.99 273.34 10.00 268.02 10.01 Z" />
</g>
<g id="#797a70ff">
<path fill="#797a70" opacity="1.00" d=" M 283.98 8.97 L 284.63 9.21 C 284.93 9.34 285.53 9.58 285.83 9.70 C 285.91 11.14 285.95 12.58 285.98 14.02 C 285.48 14.00 284.50 13.96 284.00 13.93 C 284.00 12.61 283.99 11.28 283.98 9.95 L 283.98 8.97 Z" />
</g>
<g id="#797a72ff">
<path fill="#797a72" opacity="1.00" d=" M 285.83 9.70 C 293.95 5.73 294.24 13.17 292.72 19.56 C 291.55 15.10 294.24 6.70 285.83 9.70 Z" />
</g>
<g id="#080807ff">
<path fill="#080807" opacity="1.00" d=" M 296.11 9.04 C 309.47 5.20 300.52 24.17 302.92 31.09 L 302.78 32.09 C 300.91 31.96 299.05 31.90 297.18 31.89 C 296.94 30.48 296.47 27.67 296.23 26.26 C 295.38 26.25 293.69 26.24 292.85 26.23 C 291.08 26.68 292.18 29.40 292.07 30.76 C 280.88 34.80 287.87 19.69 285.98 14.02 C 285.95 12.58 285.91 11.14 285.83 9.70 C 294.24 6.70 291.55 15.10 292.72 19.56 C 299.08 22.45 294.69 12.11 296.11 9.04 Z" />
</g>
<g id="#636556ff">
<path fill="#636556" opacity="1.00" d=" M 308.10 9.07 L 308.82 9.07 C 309.50 10.39 309.18 11.99 308.10 12.98 C 307.66 11.66 307.66 10.35 308.10 9.07 Z" />
</g>
<g id="#92938dff">
<path fill="#92938d" opacity="1.00" d=" M 323.01 10.03 C 324.21 7.55 329.60 9.82 332.10 8.95 C 332.57 9.20 333.52 9.71 334.00 9.97 C 330.32 10.00 326.68 10.00 323.01 10.03 Z" />
</g>
<g id="#303327ff">
<path fill="#303327" opacity="1.00" d=" M 94.95 10.01 C 96.99 9.62 95.54 12.78 96.02 13.92 C 94.87 17.22 95.49 19.34 97.91 20.27 C 94.83 28.27 93.97 12.41 94.95 10.01 Z" />
</g>
<g id="#404235ff">
<path fill="#404235" opacity="1.00" d=" M 116.90 11.19 C 117.17 10.89 117.72 10.30 117.99 10.00 C 118.02 16.95 118.00 23.89 117.93 30.84 L 117.28 31.20 C 116.99 29.15 116.96 27.08 116.99 25.01 C 117.06 20.40 116.94 15.80 116.90 11.19 Z" />
</g>
<g id="#424236ff">
<path fill="#424236" opacity="1.00" d=" M 122.94 10.05 C 126.27 9.91 123.24 16.90 123.73 19.30 C 122.29 16.46 123.16 13.11 122.94 10.05 Z" />
</g>
<g id="#5f5e52ff">
<path fill="#5f5e52" opacity="1.00" d=" M 205.18 31.10 C 203.53 26.74 202.74 14.16 205.01 10.01 C 204.97 17.04 204.99 24.07 205.18 31.10 Z" />
</g>
<g id="#757768ff">
<path fill="#757768" opacity="1.00" d=" M 223.99 10.93 C 224.24 10.69 224.75 10.21 225.00 9.97 C 224.99 16.64 225.03 23.32 224.98 30.00 L 224.01 29.97 C 224.00 23.62 223.98 17.28 223.99 10.93 Z" />
</g>
<g id="#080808ff">
<path fill="#080808" opacity="1.00" d=" M 225.00 9.97 C 229.69 9.97 234.38 10.05 239.02 10.83 C 239.15 12.18 239.30 13.53 239.46 14.88 C 236.93 13.94 228.11 14.51 231.71 17.84 C 233.49 17.95 235.29 17.97 237.09 18.08 C 238.46 22.86 234.43 23.03 232.04 24.21 C 232.06 24.65 232.12 25.54 232.14 25.98 C 234.03 27.61 236.31 27.93 239.00 26.95 C 238.99 28.29 238.98 29.64 238.99 30.99 C 237.31 31.71 225.47 34.49 224.98 30.00 C 225.03 23.32 224.99 16.64 225.00 9.97 Z" />
<path fill="#080808" opacity="1.00" d=" M 234.05 42.07 C 237.06 42.01 240.15 41.86 243.18 41.93 C 245.03 52.65 243.03 63.59 244.65 74.33 C 247.08 80.29 236.60 75.48 234.04 76.97 C 233.95 65.34 233.93 53.70 234.05 42.07 Z" />
</g>
<g id="#040403ff">
<path fill="#040403" opacity="1.00" d=" M 268.02 10.01 C 273.34 10.00 278.65 9.99 283.98 9.95 C 283.99 11.28 284.00 12.61 284.00 13.93 C 284.22 16.19 280.46 13.99 279.71 15.75 C 278.36 20.97 279.25 26.62 278.97 31.99 C 267.86 35.73 275.19 21.10 272.75 15.84 C 272.32 14.09 269.59 15.18 268.25 15.06 C 267.95 13.39 267.92 11.69 268.02 10.01 Z" />
</g>
<g id="#090907ff">
<path fill="#090907" opacity="1.00" d=" M 323.01 10.03 C 326.68 10.00 330.32 10.00 334.00 9.97 C 335.68 9.96 337.38 10.00 339.06 10.25 C 338.92 12.06 338.92 13.88 339.05 15.69 C 331.02 15.05 336.52 25.79 334.75 31.03 C 333.12 31.03 329.86 31.03 328.23 31.03 C 328.18 30.53 328.09 29.54 328.04 29.04 C 327.52 23.62 330.94 14.78 322.94 15.03 C 322.83 13.37 322.87 11.69 323.01 10.03 Z" />
</g>
<g id="#a7a37cff">
<path fill="#a7a37c" opacity="1.00" d=" M 339.06 10.25 C 340.85 10.63 340.88 15.37 339.05 15.69 C 338.92 13.88 338.92 12.06 339.06 10.25 Z" />
</g>
<g id="#f1f3e0ff">
</g>
<g id="#a4a795ff">
<path fill="#a4a795" opacity="1.00" d=" M 239.02 10.83 C 239.51 10.89 240.51 11.01 241.01 11.08 C 240.96 17.71 241.00 24.35 241.00 30.98 C 240.50 30.98 239.50 30.98 238.99 30.99 C 238.98 29.64 238.99 28.29 239.00 26.95 L 239.09 26.29 C 240.14 22.54 240.03 18.68 239.46 14.88 C 239.30 13.53 239.15 12.18 239.02 10.83 Z" />
</g>
<g id="#949685ff">
<path fill="#949685" opacity="1.00" d=" M 320.27 10.92 C 321.58 12.38 321.38 14.43 320.68 16.12 C 319.47 14.62 319.61 12.62 320.27 10.92 Z" />
</g>
<g id="#87845fff">
<path fill="#87845f" opacity="1.00" d=" M 89.48 12.02 C 90.13 13.54 90.21 15.20 89.98 16.82 C 88.02 16.64 88.47 13.18 89.48 12.02 Z" />
</g>
<g id="#908d70ff">
<path fill="#908d70" opacity="1.00" d=" M 184.95 17.77 C 183.12 17.71 183.12 13.29 184.95 13.22 C 185.02 14.74 185.02 16.26 184.95 17.77 Z" />
</g>
<g id="#7f836eff">
<path fill="#7f836e" opacity="1.00" d=" M 307.16 17.12 C 306.62 15.72 306.45 13.72 308.10 12.98 C 308.43 14.44 308.30 16.05 307.16 17.12 Z" />
</g>
<g id="#8e967dff">
<path fill="#8e967d" opacity="1.00" d=" M 96.02 13.92 C 96.54 14.23 97.59 14.86 98.11 15.17 C 98.06 16.87 98.03 18.57 97.91 20.27 C 95.49 19.34 94.87 17.22 96.02 13.92 Z" />
</g>
<g id="#626856ff">
<path fill="#626856" opacity="1.00" d=" M 105.98 14.01 C 108.14 18.01 106.86 18.11 109.00 14.00 C 109.10 17.46 108.94 20.92 108.80 24.38 C 106.14 21.69 106.17 17.54 105.98 14.01 Z" />
</g>
<g id="#87847eff">
<path fill="#87847e" opacity="1.00" d=" M 145.12 14.83 C 145.13 12.74 149.17 14.01 147.93 15.83 C 146.98 15.54 146.04 15.21 145.12 14.83 Z" />
</g>
<g id="#bdbfb4ff">
<path fill="#bdbfb4" opacity="1.00" d=" M 191.98 13.93 C 196.06 14.39 197.70 19.84 203.12 17.05 C 201.77 17.54 199.06 18.51 197.70 19.00 C 194.90 18.75 190.93 17.58 191.98 13.93 Z" />
</g>
<g id="#afb096ff">
<path fill="#afb096" opacity="1.00" d=" M 145.00 26.99 C 143.69 25.83 142.34 16.42 145.12 14.83 C 145.06 18.88 145.02 22.93 145.00 26.99 Z" />
</g>
<g id="#f2f2daff">
</g>
<g id="#7a7a79ff">
<path fill="#7a7a79" opacity="1.00" d=" M 211.04 15.27 C 211.52 15.48 212.47 15.90 212.95 16.12 C 212.33 19.78 210.07 18.40 211.04 15.27 Z" />
</g>
<g id="#909283ff">
<path fill="#909283" opacity="1.00" d=" M 231.71 17.84 C 228.11 14.51 236.93 13.94 239.46 14.88 C 236.92 15.83 232.76 14.78 231.71 17.84 Z" />
</g>
<g id="#eff2ddff">
</g>
<g id="#3b3d32ff">
<path fill="#3b3d32" opacity="1.00" d=" M 248.02 27.08 C 246.65 25.85 245.42 16.18 248.01 15.01 C 248.00 19.03 248.01 23.06 248.02 27.08 Z" />
</g>
<g id="#ebedd8ff">
</g>
<g id="#817e5fff">
<path fill="#817e5f" opacity="1.00" d=" M 268.25 15.06 C 269.59 15.18 272.32 14.09 272.75 15.84 C 271.54 16.50 268.54 16.69 268.25 15.06 Z" />
</g>
<g id="#a1a393ff">
</g>
<g id="#595849ff">
<path fill="#595849" opacity="1.00" d=" M 147.93 15.83 C 149.83 19.41 149.86 22.80 148.01 26.00 C 148.00 22.61 147.96 19.22 147.93 15.83 Z" />
</g>
<g id="#888a7fff">
<path fill="#888a7f" opacity="1.00" d=" M 173.04 19.20 C 171.87 13.86 176.82 17.82 174.97 20.95 C 174.50 20.16 173.85 19.58 173.04 19.20 Z" />
</g>
<g id="#9c9e92ff">
<path fill="#9c9e92" opacity="1.00" d=" M 251.01 16.01 C 252.81 19.51 252.80 22.77 250.98 25.79 C 251.01 22.53 250.98 19.27 251.01 16.01 Z" />
</g>
<g id="#938f72ff">
<path fill="#938f72" opacity="1.00" d=" M 278.97 31.99 C 279.25 26.62 278.36 20.97 279.71 15.75 C 279.11 20.46 281.78 29.00 278.97 31.99 Z" />
</g>
<g id="#75766fff">
<path fill="#75766f" opacity="1.00" d=" M 313.15 19.06 C 311.42 14.51 317.17 16.27 314.95 19.84 C 314.50 19.65 313.60 19.26 313.15 19.06 Z" />
</g>
<g id="#626846ff">
<path fill="#626846" opacity="1.00" d=" M 113.98 27.00 C 113.87 23.57 114.32 20.15 114.79 16.75 C 114.90 17.24 115.12 18.21 115.24 18.69 C 114.72 21.20 116.43 26.22 113.98 27.00 Z" />
</g>
<g id="#5a5c50ff">
<path fill="#5a5c50" opacity="1.00" d=" M 237.09 18.08 C 240.88 19.84 237.40 27.83 232.04 24.21 C 234.43 23.03 238.46 22.86 237.09 18.08 Z" />
</g>
<g id="#92896bff">
<path fill="#92896b" opacity="1.00" d=" M 259.08 18.19 C 260.85 18.74 260.85 23.26 259.08 23.81 C 258.94 21.94 258.94 20.06 259.08 18.19 Z" />
</g>
<g id="#8c8e83ff">
<path fill="#8c8e83" opacity="1.00" d=" M 306.16 22.16 C 305.60 20.71 305.57 18.95 306.83 17.85 C 307.39 19.30 307.43 21.07 306.16 22.16 Z" />
</g>
<g id="#e4e7dbff">
<path fill="#e4e7db" opacity="1.00" d=" M 173.04 19.20 C 173.85 19.58 174.50 20.16 174.97 20.95 C 174.90 21.47 174.74 22.51 174.66 23.03 C 173.14 23.03 172.73 21.16 172.63 19.97 L 173.04 19.20 Z" />
</g>
<g id="#dfe1d5ff">
<path fill="#dfe1d5" opacity="1.00" d=" M 313.15 19.06 C 313.60 19.26 314.50 19.65 314.95 19.84 C 316.13 23.81 311.85 23.54 312.74 19.71 L 313.15 19.06 Z" />
</g>
<g id="#7f8274ff">
<path fill="#7f8274" opacity="1.00" d=" M 100.97 27.09 C 100.01 23.40 103.73 16.38 102.99 23.90 C 102.32 24.95 102.21 26.53 100.97 27.09 Z" />
</g>
<g id="#767b6eff">
<path fill="#767b6e" opacity="1.00" d=" M 174.66 23.03 C 173.32 26.43 169.90 21.15 172.63 19.97 C 172.73 21.16 173.14 23.03 174.66 23.03 Z" />
</g>
<g id="#606258ff">
<path fill="#606258" opacity="1.00" d=" M 314.95 19.84 C 320.24 24.61 308.15 25.76 312.74 19.71 C 311.85 23.54 316.13 23.81 314.95 19.84 Z" />
</g>
<g id="#84867bff">
<path fill="#84867b" opacity="1.00" d=" M 188.99 21.91 C 190.71 22.43 192.45 22.89 194.12 23.56 C 192.94 24.02 192.11 24.84 191.64 26.02 C 191.11 25.30 190.59 24.57 190.08 23.84 C 189.81 23.35 189.26 22.39 188.99 21.91 Z" />
</g>
<g id="#908f6eff">
<path fill="#908f6e" opacity="1.00" d=" M 90.54 23.04 C 91.16 25.23 91.32 27.49 91.01 29.83 C 88.80 28.92 89.48 24.82 90.54 23.04 Z" />
</g>
<g id="#898a82ff">
<path fill="#898a82" opacity="1.00" d=" M 304.89 27.18 C 304.30 25.70 304.81 24.05 305.83 22.89 C 306.25 24.35 306.44 26.30 304.89 27.18 Z" />
</g>
<g id="#686854ff">
<path fill="#686854" opacity="1.00" d=" M 184.68 26.81 C 182.34 26.07 185.04 22.51 186.80 24.16 C 186.08 25.03 185.36 25.91 184.68 26.81 Z" />
</g>
<g id="#dcddd3ff">
<path fill="#dcddd3" opacity="1.00" d=" M 191.64 26.02 C 192.11 24.84 192.94 24.02 194.12 23.56 C 197.05 25.28 192.94 30.35 191.64 26.02 Z" />
</g>
<g id="#474a3dff">
<path fill="#474a3d" opacity="1.00" d=" M 103.42 24.95 C 104.27 27.11 104.47 29.40 103.99 31.82 C 101.84 30.84 102.58 26.84 103.42 24.95 Z" />
</g>
<g id="#8d8670ff">
<path fill="#8d8670" opacity="1.00" d=" M 127.23 26.26 C 127.47 27.67 127.95 30.48 128.18 31.88 C 126.17 31.32 126.41 27.80 127.23 26.26 Z" />
</g>
<g id="#626550ff">
<path fill="#626550" opacity="1.00" d=" M 232.14 25.98 C 233.88 26.06 237.36 26.21 239.09 26.29 L 239.00 26.95 C 236.31 27.93 234.03 27.61 232.14 25.98 Z" />
</g>
<g id="#86836bff">
<path fill="#86836b" opacity="1.00" d=" M 292.07 30.76 C 292.18 29.40 291.08 26.68 292.85 26.23 C 293.48 27.45 293.68 30.44 292.07 30.76 Z" />
</g>
<g id="#63624dff">
<path fill="#63624d" opacity="1.00" d=" M 296.23 26.26 C 296.47 27.67 296.94 30.48 297.18 31.89 C 295.17 31.31 295.42 27.80 296.23 26.26 Z" />
</g>
<g id="#847f65ff">
<path fill="#847f65" opacity="1.00" d=" M 222.32 30.09 L 223.15 30.04 C 225.01 35.10 215.34 33.65 215.31 32.04 C 217.76 31.61 221.73 33.37 222.32 30.09 Z" />
</g>
<g id="#b0ad7eff">
<path fill="#b0ad7e" opacity="1.00" d=" M 92.00 30.95 C 94.66 30.98 97.32 31.00 99.98 31.00 C 99.41 32.69 92.52 32.73 92.00 30.95 Z" />
</g>
<g id="#827d62ff">
<path fill="#827d62" opacity="1.00" d=" M 111.00 32.69 C 111.87 31.98 112.84 31.43 113.89 31.04 C 115.11 32.78 112.06 34.12 111.00 32.69 Z" />
</g>
<g id="#aea97fff">
<path fill="#aea97f" opacity="1.00" d=" M 117.28 31.20 L 117.93 30.84 C 119.85 30.90 121.78 30.99 123.71 31.12 C 122.85 32.71 118.14 32.80 117.28 31.20 Z" />
</g>
<g id="#928d6eff">
<path fill="#928d6e" opacity="1.00" d=" M 165.20 31.09 C 166.98 30.95 168.77 30.93 170.57 30.96 C 170.49 32.93 165.62 32.83 165.20 31.09 Z" />
</g>
<g id="#737053ff">
<path fill="#737053" opacity="1.00" d=" M 205.18 31.10 C 206.99 30.94 208.81 30.93 210.63 30.99 C 210.39 32.91 205.67 32.82 205.18 31.10 Z" />
</g>
<g id="#908d6eff">
<path fill="#908d6e" opacity="1.00" d=" M 305.21 31.08 C 306.99 30.95 308.78 30.93 310.57 30.91 C 310.50 32.93 305.62 32.83 305.21 31.08 Z" />
</g>
<g id="#797555ff">
<path fill="#797555" opacity="1.00" d=" M 328.23 31.03 C 329.86 31.03 333.12 31.03 334.75 31.03 C 334.01 32.91 328.99 32.90 328.23 31.03 Z" />
</g>
<g id="#858164ff">
<path fill="#858164" opacity="1.00" d=" M 128.18 31.88 C 130.04 31.90 131.90 31.96 133.76 32.10 C 133.20 33.83 128.59 33.82 128.18 31.88 Z" />
</g>
<g id="#938e75ff">
<path fill="#938e75" opacity="1.00" d=" M 143.19 32.08 C 145.06 31.96 146.94 31.95 148.81 32.08 C 148.27 33.86 143.73 33.86 143.19 32.08 Z" />
</g>
<g id="#918c71ff">
<path fill="#918c71" opacity="1.00" d=" M 177.34 31.97 C 178.94 32.00 182.12 32.04 183.72 32.06 C 183.04 33.90 177.86 33.95 177.34 31.97 Z" />
</g>
<g id="#928d76ff">
<path fill="#928d76" opacity="1.00" d=" M 191.19 32.07 C 192.73 31.97 194.27 31.97 195.82 32.07 C 195.67 33.85 191.32 33.86 191.19 32.07 Z" />
</g>
<g id="#a09a7dff">
<path fill="#a09a7d" opacity="1.00" d=" M 243.19 32.05 C 244.85 32.05 248.16 32.06 249.82 32.06 C 248.95 33.90 244.04 33.91 243.19 32.05 Z" />
</g>
<g id="#868366ff">
<path fill="#868366" opacity="1.00" d=" M 297.18 31.89 C 299.05 31.90 300.91 31.96 302.78 32.09 C 302.19 33.82 297.60 33.82 297.18 31.89 Z" />
</g>
<g id="#989171ff">
<path fill="#989171" opacity="1.00" d=" M 317.45 31.91 C 319.01 31.95 322.12 32.04 323.67 32.08 C 323.07 33.88 317.72 33.98 317.45 31.91 Z" />
</g>
<g id="#8f8d72ff">
<path fill="#8f8d72" opacity="1.00" d=" M 100.98 42.01 C 101.65 40.30 108.36 40.29 109.01 42.01 C 106.33 41.99 103.66 41.99 100.98 42.01 Z" />
</g>
<g id="#716e5cff">
<path fill="#716e5c" opacity="1.00" d=" M 139.98 41.99 C 139.50 40.16 148.71 40.23 148.97 42.01 C 145.96 42.00 142.98 42.00 139.98 41.99 Z" />
</g>
<g id="#5f604dff">
<path fill="#5f604d" opacity="1.00" d=" M 186.00 42.02 C 185.57 40.12 194.48 40.26 195.03 41.97 C 192.00 41.97 189.01 41.97 186.00 42.02 Z" />
</g>
<g id="#7c7962ff">
<path fill="#7c7962" opacity="1.00" d=" M 258.96 41.97 C 259.77 40.31 266.23 40.30 267.05 41.98 C 264.34 41.98 261.65 41.97 258.96 41.97 Z" />
</g>
<g id="#3f3d32ff">
<path fill="#3f3d32" opacity="1.00" d=" M 297.96 42.00 C 298.12 38.74 304.56 41.72 307.01 41.07 L 306.97 42.03 C 303.94 42.01 300.97 42.00 297.96 42.00 Z" />
</g>
<g id="#66644eff">
<path fill="#66644e" opacity="1.00" d=" M 307.01 41.07 C 309.07 45.75 308.04 54.66 307.70 61.27 C 306.87 54.89 306.97 48.45 306.97 42.03 L 307.01 41.07 Z" />
</g>
<g id="#5c5b48ff">
<path fill="#5c5b48" opacity="1.00" d=" M 319.97 42.01 C 323.30 40.14 326.65 40.14 330.02 41.99 C 326.65 41.98 323.33 41.97 319.97 42.01 Z" />
</g>
<g id="#08080bff">
<path fill="#08080b" opacity="1.00" d=" M 89.43 58.73 C 90.25 52.04 92.73 42.35 100.98 42.01 C 103.66 41.99 106.33 41.99 109.01 42.01 C 110.76 42.20 112.42 42.86 114.07 43.44 C 114.61 43.90 115.15 44.37 115.69 44.84 C 117.19 46.62 118.38 48.64 119.19 50.82 C 119.32 52.39 119.58 55.53 119.71 57.10 C 119.83 59.08 119.88 61.07 119.88 63.05 C 118.36 64.33 118.77 66.42 119.32 68.07 C 118.56 70.88 114.39 73.77 117.72 76.27 C 121.55 80.19 114.12 81.77 111.94 84.03 C 110.96 83.65 109.96 83.33 108.94 83.09 C 107.93 75.66 99.12 79.61 95.04 74.96 C 92.48 72.65 90.51 69.62 89.90 66.19 C 89.76 63.70 89.60 61.21 89.43 58.73 M 102.02 53.07 C 99.66 55.09 100.65 65.25 102.01 66.94 C 102.34 67.45 102.99 68.47 103.32 68.98 C 102.87 70.81 107.09 70.86 106.79 69.05 L 106.92 68.09 C 107.19 67.57 107.74 66.53 108.01 66.01 C 110.57 64.78 109.31 55.06 108.02 53.99 C 107.77 53.49 107.27 52.48 107.01 51.98 C 107.40 47.01 102.64 50.46 102.02 53.07 Z" />
</g>
<g id="#5f605aff">
<path fill="#5f605a" opacity="1.00" d=" M 121.72 44.11 C 120.67 41.99 121.84 41.54 123.90 41.90 C 123.37 45.37 123.12 48.88 122.23 52.28 C 122.12 50.78 122.02 49.28 121.94 47.78 C 121.94 46.55 121.87 45.33 121.72 44.11 Z" />
</g>
<g id="#070709ff">
<path fill="#070709" opacity="1.00" d=" M 123.90 41.90 C 126.95 42.44 130.38 42.28 133.03 44.07 C 132.98 45.64 132.90 47.20 132.82 48.77 C 132.47 53.49 130.83 58.66 132.76 63.24 C 132.99 63.75 133.46 64.79 133.69 65.30 C 134.09 67.98 137.01 69.00 138.21 66.21 C 139.32 59.93 139.73 53.20 138.39 46.87 C 138.76 45.11 136.84 41.19 139.98 41.99 C 142.98 42.00 145.96 42.00 148.97 42.01 C 149.02 43.41 149.02 44.80 148.95 46.19 C 149.08 47.63 149.34 50.49 149.47 51.93 C 149.87 53.68 150.24 55.44 150.55 57.21 C 150.29 59.16 150.12 61.12 149.92 63.07 C 148.27 64.30 148.62 66.48 149.38 68.12 C 147.76 71.93 145.34 75.84 141.24 77.30 C 137.78 77.22 134.34 77.15 130.89 77.05 C 130.41 76.82 129.44 76.36 128.96 76.14 C 128.85 74.61 127.47 73.58 125.98 73.95 C 124.84 71.70 123.72 69.44 122.77 67.11 C 123.69 64.49 123.57 62.11 122.40 59.96 C 122.29 57.40 122.24 54.84 122.23 52.28 C 123.12 48.88 123.37 45.37 123.90 41.90 Z" />
</g>
<g id="#343525ff">
<path fill="#343525" opacity="1.00" d=" M 153.05 43.07 C 154.53 40.27 161.68 42.61 165.27 42.28 C 161.20 42.74 157.13 42.92 153.05 43.07 Z" />
</g>
<g id="#030405ff">
<path fill="#030405" opacity="1.00" d=" M 165.27 42.28 C 168.74 42.70 176.82 39.51 175.03 45.90 C 175.05 47.61 175.14 49.32 175.28 51.03 C 171.31 52.33 160.92 47.48 162.95 54.97 C 163.89 57.89 170.12 55.23 172.98 56.01 C 173.01 58.03 173.03 60.05 173.02 62.08 C 169.91 62.68 166.57 62.47 163.73 63.99 C 162.41 64.55 162.19 67.58 163.73 67.95 C 167.47 68.84 171.27 69.19 175.14 69.01 C 177.81 77.01 173.15 77.83 167.23 76.80 C 162.85 76.28 158.45 76.26 154.07 75.81 C 153.60 69.47 154.87 62.95 153.33 56.70 L 153.17 55.82 C 152.81 51.59 152.85 47.31 153.05 43.07 C 157.13 42.92 161.20 42.74 165.27 42.28 Z" />
</g>
<g id="#0a0b0bff">
<path fill="#0a0b0b" opacity="1.00" d=" M 177.09 47.31 C 179.40 44.62 182.29 42.19 186.00 42.02 C 189.01 41.97 192.00 41.97 195.03 41.97 C 201.22 41.81 204.71 48.45 205.07 53.87 C 202.32 54.11 199.51 53.94 197.01 55.20 C 194.22 53.67 192.71 50.71 190.13 48.96 C 186.96 52.19 190.31 55.75 193.82 56.46 C 195.40 56.97 197.07 56.89 198.70 56.90 C 201.40 58.30 203.95 60.12 205.18 63.01 C 205.41 63.51 205.87 64.53 206.10 65.04 C 206.25 70.20 203.68 76.01 198.28 77.29 C 195.42 77.31 192.56 77.03 189.76 77.64 L 189.03 77.74 C 187.97 76.44 186.17 76.62 184.83 77.36 C 180.81 76.02 177.72 72.86 176.48 68.80 C 175.83 62.27 183.83 65.95 187.70 65.15 C 187.88 68.15 191.34 72.20 193.91 68.76 C 194.60 63.60 187.67 62.59 183.85 62.07 C 180.50 60.52 177.81 57.80 176.71 54.23 C 176.80 52.50 176.99 49.04 177.09 47.31 Z" />
</g>
<g id="#4f4d3aff">
<path fill="#4f4d3a" opacity="1.00" d=" M 206.07 42.05 C 213.97 42.63 224.74 40.56 230.99 43.01 C 223.01 43.11 215.02 42.69 207.04 43.10 C 207.00 45.73 207.04 48.37 207.15 51.00 C 203.75 51.02 206.70 44.46 206.07 42.05 Z" />
</g>
<g id="#666550ff">
<path fill="#666550" opacity="1.00" d=" M 243.18 41.93 C 243.62 41.96 244.49 42.03 244.92 42.06 C 244.92 52.81 245.41 63.60 244.65 74.33 C 243.03 63.59 245.03 52.65 243.18 41.93 Z" />
</g>
<g id="#060608ff">
<path fill="#060608" opacity="1.00" d=" M 258.97 77.02 C 243.04 74.63 243.82 44.83 258.96 41.97 C 261.65 41.97 264.34 41.98 267.05 41.98 C 272.81 42.13 276.44 47.73 276.99 52.99 C 277.01 57.34 277.01 61.69 277.02 66.04 C 276.85 71.26 272.46 76.81 267.04 77.03 C 264.34 77.02 261.65 77.02 258.97 77.02 M 260.01 52.98 C 257.66 55.37 258.63 64.93 259.99 67.01 C 259.93 72.49 267.72 69.81 266.02 65.03 C 268.61 64.62 267.28 54.32 266.03 53.98 C 267.30 48.93 259.23 46.91 260.01 52.98 Z" />
</g>
<g id="#060607ff">
<path fill="#060607" opacity="1.00" d=" M 297.96 42.00 C 300.97 42.00 303.94 42.01 306.97 42.03 C 306.97 48.45 306.87 54.89 307.70 61.27 C 306.30 65.25 311.41 76.38 306.00 77.01 C 303.42 76.99 300.86 76.96 298.30 76.92 C 295.65 72.79 294.23 68.04 291.78 63.81 C 288.27 57.58 290.50 71.16 290.61 73.32 C 293.26 79.12 283.35 74.52 281.05 75.98 C 281.08 65.37 280.64 54.72 281.24 44.14 C 282.66 43.97 285.50 43.65 286.92 43.48 C 293.65 40.73 292.79 51.47 296.01 54.98 C 297.69 59.72 299.88 55.55 299.06 52.81 C 299.33 50.49 299.15 48.24 298.53 46.05 C 298.10 44.73 297.91 43.38 297.96 42.00 Z" />
</g>
<g id="#090909ff">
<path fill="#090909" opacity="1.00" d=" M 310.98 53.98 C 310.19 48.28 314.08 42.49 319.97 42.01 C 323.33 41.97 326.65 41.98 330.02 41.99 C 333.43 42.84 338.05 44.52 338.43 48.66 C 341.83 57.41 331.54 62.49 324.82 64.07 C 323.17 64.06 319.87 64.03 318.22 64.02 C 313.58 53.67 323.53 59.47 327.34 54.77 C 327.39 53.59 327.49 51.23 327.54 50.04 C 323.99 46.73 321.80 50.85 320.83 53.96 C 318.36 53.96 313.44 53.98 310.98 53.98 Z" />
</g>
<g id="#898a7dff">
<path fill="#898a7d" opacity="1.00" d=" M 114.07 43.44 C 115.62 42.75 118.84 42.20 119.75 43.72 C 118.38 44.04 117.02 44.40 115.69 44.84 C 115.15 44.37 114.61 43.90 114.07 43.44 Z" />
</g>
<g id="#020304ff">
<path fill="#020304" opacity="1.00" d=" M 207.04 43.10 C 215.02 42.69 223.01 43.11 230.99 43.01 C 231.20 45.71 231.12 48.39 230.75 51.05 C 227.61 49.91 225.44 50.15 224.23 51.78 C 224.04 58.40 223.28 65.20 224.82 71.72 C 226.42 79.74 218.39 76.41 214.00 77.00 C 212.88 68.73 216.11 59.40 212.97 51.59 C 211.52 51.44 208.61 51.15 207.15 51.00 C 207.04 48.37 207.00 45.73 207.04 43.10 Z" />
</g>
<g id="#4c493aff">
<path fill="#4c493a" opacity="1.00" d=" M 281.24 44.14 C 281.44 41.79 285.56 42.24 286.92 43.48 C 285.50 43.65 282.66 43.97 281.24 44.14 Z" />
</g>
<g id="#e2e4e3ff">
<path fill="#e2e4e3" opacity="1.00" d=" M 115.69 44.84 C 117.02 44.40 118.38 44.04 119.75 43.72 C 120.25 43.82 121.23 44.01 121.72 44.11 C 121.87 45.33 121.94 46.55 121.94 47.78 C 121.47 50.33 121.13 52.90 120.48 55.42 C 120.74 53.77 120.29 52.07 119.19 50.82 C 118.38 48.64 117.19 46.62 115.69 44.84 Z" />
</g>
<g id="#9e9f9fff">
<path fill="#9e9f9f" opacity="1.00" d=" M 133.03 44.07 C 134.15 44.25 134.69 44.84 134.65 45.85 C 133.92 52.31 134.08 58.82 133.69 65.30 C 133.46 64.79 132.99 63.75 132.76 63.24 C 132.83 58.41 132.91 53.59 132.82 48.77 C 132.90 47.20 132.98 45.64 133.03 44.07 Z" />
</g>
<g id="#f0f1f3ff">
<path fill="#f0f1f3" opacity="1.00" d=" M 133.69 65.30 C 134.08 58.82 133.92 52.31 134.65 45.85 C 135.89 46.19 137.14 46.53 138.39 46.87 C 137.97 53.31 137.95 59.77 138.21 66.21 C 137.01 69.00 134.09 67.98 133.69 65.30 Z" />
</g>
<g id="#6f6e5aff">
<path fill="#6f6e5a" opacity="1.00" d=" M 148.95 46.19 C 151.19 46.54 150.69 50.56 149.47 51.93 C 149.34 50.49 149.08 47.63 148.95 46.19 Z" />
</g>
<g id="#ababa6ff">
<path fill="#ababa6" opacity="1.00" d=" M 175.03 45.90 C 175.55 46.25 176.57 46.95 177.09 47.31 C 176.99 49.04 176.80 52.50 176.71 54.23 C 176.23 53.17 175.76 52.09 175.28 51.03 C 175.14 49.32 175.05 47.61 175.03 45.90 Z" />
</g>
<g id="#6b6a55ff">
<path fill="#6b6a55" opacity="1.00" d=" M 298.53 46.05 C 299.15 48.24 299.33 50.49 299.06 52.81 C 296.81 51.97 297.52 47.84 298.53 46.05 Z" />
</g>
<g id="#909193ff">
<path fill="#909193" opacity="1.00" d=" M 138.39 46.87 C 139.73 53.20 139.32 59.93 138.21 66.21 C 137.95 59.77 137.97 53.31 138.39 46.87 Z" />
</g>
<g id="#a8a8acff">
<path fill="#a8a8ac" opacity="1.00" d=" M 120.48 55.42 C 121.13 52.90 121.47 50.33 121.94 47.78 C 122.02 49.28 122.12 50.78 122.23 52.28 C 122.24 54.84 122.29 57.40 122.40 59.96 C 122.15 60.64 121.65 62.01 121.40 62.70 C 121.11 63.49 120.81 64.28 120.51 65.07 C 120.36 64.56 120.04 63.56 119.88 63.05 C 119.88 61.07 119.83 59.08 119.71 57.10 C 119.90 56.68 120.29 55.84 120.48 55.42 Z" />
</g>
<g id="#ebeceeff">
<path fill="#ebecee" opacity="1.00" d=" M 102.02 53.07 C 102.64 50.46 107.40 47.01 107.01 51.98 C 107.00 57.35 107.09 62.72 106.92 68.09 L 106.79 69.05 C 105.63 68.95 104.48 68.93 103.32 68.98 C 102.99 68.47 102.34 67.45 102.01 66.94 C 101.99 62.31 101.96 57.69 102.02 53.07 Z" />
</g>
<g id="#363538ff">
<path fill="#363538" opacity="1.00" d=" M 132.76 63.24 C 130.83 58.66 132.47 53.49 132.82 48.77 C 132.91 53.59 132.83 58.41 132.76 63.24 Z" />
</g>
<g id="#d6d9dbff">
<path fill="#d6d9db" opacity="1.00" d=" M 190.13 48.96 C 192.71 50.71 194.22 53.67 197.01 55.20 C 195.96 55.64 194.89 56.06 193.82 56.46 C 190.31 55.75 186.96 52.19 190.13 48.96 Z" />
</g>
<g id="#e5dbaaff">
</g>
<g id="#7b785eff">
<path fill="#7b785e" opacity="1.00" d=" M 327.54 50.04 C 327.49 51.23 327.39 53.59 327.34 54.77 C 326.17 53.57 326.33 51.17 327.54 50.04 Z" />
</g>
<g id="#5b5a5bff">
<path fill="#5b5a5b" opacity="1.00" d=" M 119.19 50.82 C 120.29 52.07 120.74 53.77 120.48 55.42 C 120.29 55.84 119.90 56.68 119.71 57.10 C 119.58 55.53 119.32 52.39 119.19 50.82 Z" />
</g>
<g id="#929491ff">
<path fill="#929491" opacity="1.00" d=" M 162.95 54.97 C 160.92 47.48 171.31 52.33 175.28 51.03 C 172.03 52.95 163.18 49.01 163.86 54.94 L 162.95 54.97 Z" />
</g>
<g id="#edeeeeff">
<path fill="#edeeee" opacity="1.00" d=" M 175.28 51.03 C 175.76 52.09 176.23 53.17 176.71 54.23 C 177.81 57.80 180.50 60.52 183.85 62.07 C 184.66 62.59 185.46 63.12 186.26 63.65 C 182.36 64.36 175.10 61.87 175.35 67.98 C 171.64 67.30 167.91 67.02 164.14 67.14 C 164.04 66.35 163.84 64.77 163.73 63.99 C 166.82 63.97 169.93 64.11 173.03 63.95 C 174.84 64.20 174.80 55.52 172.99 55.03 C 169.93 54.92 166.91 54.97 163.86 54.94 C 163.18 49.01 172.03 52.95 175.28 51.03 Z" />
</g>
<g id="#4c4e3aff">
<path fill="#4c4e3a" opacity="1.00" d=" M 207.15 51.00 C 208.61 51.15 211.52 51.44 212.97 51.59 C 211.46 52.55 207.83 52.96 207.15 51.00 Z" />
</g>
<g id="#78765bff">
<path fill="#78765b" opacity="1.00" d=" M 224.23 51.78 C 225.44 50.15 227.61 49.91 230.75 51.05 C 229.76 52.88 226.07 52.34 224.23 51.78 Z" />
</g>
<g id="#bfbfc4ff">
<path fill="#bfbfc4" opacity="1.00" d=" M 107.01 51.98 C 107.27 52.48 107.77 53.49 108.02 53.99 C 108.00 58.00 108.00 62.00 108.01 66.01 C 107.74 66.53 107.19 67.57 106.92 68.09 C 107.09 62.72 107.00 57.35 107.01 51.98 Z" />
</g>
<g id="#555652ff">
<path fill="#555652" opacity="1.00" d=" M 212.97 51.59 C 216.11 59.40 212.88 68.73 214.00 77.00 L 213.02 77.01 C 212.89 72.27 213.02 67.54 212.96 62.81 C 212.96 62.30 212.96 61.30 212.96 60.80 C 213.01 58.14 213.01 55.48 212.98 52.82 L 212.97 51.59 Z" />
</g>
<g id="#57575aff">
<path fill="#57575a" opacity="1.00" d=" M 102.01 66.94 C 100.65 65.25 99.66 55.09 102.02 53.07 C 101.96 57.69 101.99 62.31 102.01 66.94 Z" />
</g>
<g id="#f7f7daff">
</g>
<g id="#87856fff">
<path fill="#87856f" opacity="1.00" d=" M 259.99 67.01 C 258.63 64.93 257.66 55.37 260.01 52.98 C 259.96 57.66 259.98 62.33 259.99 67.01 Z" />
</g>
<g id="#595948ff">
<path fill="#595948" opacity="1.00" d=" M 276.99 52.99 C 278.37 54.64 279.43 64.03 277.02 66.04 C 277.01 61.69 277.01 57.34 276.99 52.99 Z" />
</g>
<g id="#505056ff">
<path fill="#505056" opacity="1.00" d=" M 108.02 53.99 C 109.31 55.06 110.57 64.78 108.01 66.01 C 108.00 62.00 108.00 58.00 108.02 53.99 Z" />
</g>
<g id="#8b8c83ff">
<path fill="#8b8c83" opacity="1.00" d=" M 197.01 55.20 C 199.51 53.94 202.32 54.11 205.07 53.87 L 204.81 54.78 C 201.86 54.11 199.83 54.82 198.70 56.90 C 197.07 56.89 195.40 56.97 193.82 56.46 C 194.89 56.06 195.96 55.64 197.01 55.20 Z" />
</g>
<g id="#45463fff">
<path fill="#45463f" opacity="1.00" d=" M 266.03 53.98 C 267.28 54.32 268.61 64.62 266.02 65.03 C 266.00 61.35 266.00 57.66 266.03 53.98 Z" />
</g>
<g id="#56575bff">
<path fill="#56575b" opacity="1.00" d=" M 162.95 54.97 L 163.86 54.94 C 166.91 54.97 169.93 54.92 172.99 55.03 L 172.98 56.01 C 170.12 55.23 163.89 57.89 162.95 54.97 Z" />
</g>
<g id="#b3b5b5ff">
<path fill="#b3b5b5" opacity="1.00" d=" M 172.99 55.03 C 174.80 55.52 174.84 64.20 173.03 63.95 C 173.03 63.48 173.02 62.55 173.02 62.08 C 173.03 60.05 173.01 58.03 172.98 56.01 L 172.99 55.03 Z" />
</g>
<g id="#929395ff">
<path fill="#929395" opacity="1.00" d=" M 150.55 57.21 C 151.21 56.87 152.51 56.17 153.17 55.82 L 153.33 56.70 C 153.08 63.46 152.93 70.23 152.99 77.00 C 150.66 72.35 152.70 64.69 151.89 58.77 C 151.16 60.17 150.55 61.63 149.92 63.07 C 150.12 61.12 150.29 59.16 150.55 57.21 Z" />
</g>
<g id="#222425ff">
<path fill="#222425" opacity="1.00" d=" M 153.33 56.70 C 154.87 62.95 153.60 69.47 154.07 75.81 C 158.45 76.26 162.85 76.28 167.23 76.80 C 163.07 76.95 158.92 77.12 154.77 77.31 C 154.32 77.23 153.44 77.07 152.99 77.00 C 152.93 70.23 153.08 63.46 153.33 56.70 Z" />
</g>
<g id="#9f9c7eff">
<path fill="#9f9c7e" opacity="1.00" d=" M 80.85 59.72 C 82.21 59.50 85.02 58.04 83.76 60.63 C 72.45 62.63 63.64 72.96 65.96 84.75 C 60.98 75.60 69.99 62.08 80.85 59.72 Z" />
</g>
<g id="#82807cff">
<path fill="#82807c" opacity="1.00" d=" M 85.34 60.11 C 84.08 58.14 88.37 59.27 89.43 58.73 C 89.60 61.21 89.76 63.70 89.90 66.19 C 89.99 62.32 89.42 59.02 85.34 60.11 Z" />
</g>
<g id="#e0e2dfff">
<path fill="#e0e2df" opacity="1.00" d=" M 149.92 63.07 C 150.55 61.63 151.16 60.17 151.89 58.77 C 152.70 64.69 150.66 72.35 152.99 77.00 C 153.44 77.07 154.32 77.23 154.77 77.31 C 161.73 78.34 168.80 78.15 175.82 77.93 C 176.01 74.89 175.92 71.81 176.48 68.80 C 177.72 72.86 180.81 76.02 184.83 77.36 C 186.00 78.45 187.66 78.41 189.03 77.74 L 189.76 77.64 C 192.59 77.64 195.58 78.42 198.28 77.29 C 203.68 76.01 206.25 70.20 206.10 65.04 C 208.17 63.72 210.51 62.96 212.96 62.81 C 213.02 67.54 212.89 72.27 213.02 77.01 C 215.13 78.19 226.65 81.00 225.34 74.03 C 227.28 75.72 227.02 78.80 227.25 81.17 C 225.86 85.18 222.78 88.22 220.09 91.38 C 215.39 88.63 222.76 85.99 221.94 83.19 C 209.42 82.51 197.92 85.12 185.23 84.60 C 181.08 86.04 182.89 79.24 179.55 78.41 C 173.55 84.41 164.06 80.23 156.66 82.44 C 148.97 80.02 140.84 84.62 133.18 81.82 C 128.75 78.88 123.12 87.69 123.62 78.87 C 122.74 86.58 114.33 83.02 110.46 88.43 C 108.52 86.49 106.77 82.95 103.95 85.81 C 106.99 78.68 97.58 83.43 94.24 80.51 C 91.34 88.32 82.25 80.89 78.18 84.06 C 78.54 89.71 74.86 84.63 72.85 82.98 C 69.99 82.29 69.48 85.86 67.98 87.45 C 67.31 86.55 66.63 85.64 65.96 84.75 C 63.64 72.96 72.45 62.63 83.76 60.63 C 84.16 60.50 84.95 60.24 85.34 60.11 C 89.42 59.02 89.99 62.32 89.90 66.19 C 90.51 69.62 92.48 72.65 95.04 74.96 C 99.12 79.61 107.93 75.66 108.94 83.09 C 108.47 85.19 111.16 86.07 111.94 84.03 C 114.12 81.77 121.55 80.19 117.72 76.27 C 114.39 73.77 118.56 70.88 119.32 68.07 C 119.84 67.11 120.23 66.11 120.51 65.07 C 120.81 64.28 121.11 63.49 121.40 62.70 C 121.51 64.26 122.03 65.75 122.77 67.11 C 123.72 69.44 124.84 71.70 125.98 73.95 C 126.24 75.39 127.52 76.27 128.96 76.14 C 129.44 76.36 130.41 76.82 130.89 77.05 C 134.29 78.23 137.74 78.31 141.24 77.30 C 145.34 75.84 147.76 71.93 149.38 68.12 C 150.44 66.64 150.39 64.75 149.92 63.07 Z" />
</g>
<g id="#5a5b5fff">
<path fill="#5a5b5f" opacity="1.00" d=" M 122.40 59.96 C 123.57 62.11 123.69 64.49 122.77 67.11 C 122.03 65.75 121.51 64.26 121.40 62.70 C 121.65 62.01 122.15 60.64 122.40 59.96 Z" />
</g>
<g id="#8e8d7eff">
<path fill="#8e8d7e" opacity="1.00" d=" M 205.18 63.01 C 207.70 62.04 210.26 61.11 212.96 60.80 C 212.96 61.30 212.96 62.30 212.96 62.81 C 210.51 62.96 208.17 63.72 206.10 65.04 C 205.87 64.53 205.41 63.51 205.18 63.01 Z" />
</g>
<g id="#3a3c3cff">
<path fill="#3a3c3c" opacity="1.00" d=" M 163.73 63.99 C 166.57 62.47 169.91 62.68 173.02 62.08 C 173.02 62.55 173.03 63.48 173.03 63.95 C 169.93 64.11 166.82 63.97 163.73 63.99 Z" />
</g>
<g id="#c7c8c6ff">
<path fill="#c7c8c6" opacity="1.00" d=" M 183.85 62.07 C 187.67 62.59 194.60 63.60 193.91 68.76 C 191.34 72.20 187.88 68.15 187.70 65.15 C 187.34 64.77 186.62 64.03 186.26 63.65 C 185.46 63.12 184.66 62.59 183.85 62.07 Z" />
</g>
<g id="#656859ff">
<path fill="#656859" opacity="1.00" d=" M 290.61 73.32 C 290.50 71.16 288.27 57.58 291.78 63.81 C 291.38 66.98 291.04 70.15 290.61 73.32 Z" />
</g>
<g id="#4c4d51ff">
<path fill="#4c4d51" opacity="1.00" d=" M 119.32 68.07 C 118.77 66.42 118.36 64.33 119.88 63.05 C 120.04 63.56 120.36 64.56 120.51 65.07 C 120.23 66.11 119.84 67.11 119.32 68.07 Z" />
</g>
<g id="#616266ff">
<path fill="#616266" opacity="1.00" d=" M 149.38 68.12 C 148.62 66.48 148.27 64.30 149.92 63.07 C 150.39 64.75 150.44 66.64 149.38 68.12 Z" />
</g>
<g id="#505155ff">
<path fill="#505155" opacity="1.00" d=" M 163.73 67.95 C 162.19 67.58 162.41 64.55 163.73 63.99 C 163.84 64.77 164.04 66.35 164.14 67.14 L 163.73 67.95 Z" />
</g>
<g id="#919392ff">
<path fill="#919392" opacity="1.00" d=" M 175.35 67.98 C 175.10 61.87 182.36 64.36 186.26 63.65 C 186.62 64.03 187.34 64.77 187.70 65.15 C 183.83 65.95 175.83 62.27 176.48 68.80 C 175.92 71.81 176.01 74.89 175.82 77.93 C 168.80 78.15 161.73 78.34 154.77 77.31 C 158.92 77.12 163.07 76.95 167.23 76.80 C 173.15 77.83 177.81 77.01 175.14 69.01 L 175.35 67.98 Z" />
</g>
<g id="#777a6dff">
<path fill="#777a6d" opacity="1.00" d=" M 318.22 64.02 C 319.87 64.03 323.17 64.06 324.82 64.07 C 323.95 65.88 319.00 65.93 318.22 64.02 Z" />
</g>
<g id="#66695bff">
<path fill="#66695b" opacity="1.00" d=" M 320.23 66.93 C 320.68 65.12 325.32 65.12 325.77 66.94 C 323.92 67.04 322.07 67.03 320.23 66.93 Z" />
</g>
<g id="#b2b4b4ff">
<path fill="#b2b4b4" opacity="1.00" d=" M 164.14 67.14 C 167.91 67.02 171.64 67.30 175.35 67.98 C 171.47 67.96 167.60 68.07 163.73 67.95 L 164.14 67.14 Z" />
</g>
<g id="#0c0b0aff">
<path fill="#0c0b0a" opacity="1.00" d=" M 325.67 77.74 C 318.58 81.04 312.84 69.26 320.23 66.93 C 322.07 67.03 323.92 67.04 325.77 66.94 C 331.62 67.74 331.00 76.56 325.67 77.74 Z" />
</g>
<g id="#323434ff">
<path fill="#323434" opacity="1.00" d=" M 163.73 67.95 C 167.60 68.07 171.47 67.96 175.35 67.98 L 175.14 69.01 C 171.27 69.19 167.47 68.84 163.73 67.95 Z" />
</g>
<g id="#8f9093ff">
<path fill="#8f9093" opacity="1.00" d=" M 103.32 68.98 C 104.48 68.93 105.63 68.95 106.79 69.05 C 107.09 70.86 102.87 70.81 103.32 68.98 Z" />
</g>
<g id="#848581ff">
<path fill="#848581" opacity="1.00" d=" M 214.00 77.00 C 218.39 76.41 226.42 79.74 224.82 71.72 C 225.72 71.98 225.89 72.75 225.34 74.03 C 226.65 81.00 215.13 78.19 213.02 77.01 L 214.00 77.00 Z" />
</g>
<g id="#6c6e6dff">
<path fill="#6c6e6d" opacity="1.00" d=" M 125.98 73.95 C 127.47 73.58 128.85 74.61 128.96 76.14 C 127.52 76.27 126.24 75.39 125.98 73.95 Z" />
</g>
<g id="#5b5d5cff">
<path fill="#5b5d5c" opacity="1.00" d=" M 130.89 77.05 C 134.34 77.15 137.78 77.22 141.24 77.30 C 137.74 78.31 134.29 78.23 130.89 77.05 Z" />
</g>
<g id="#5e605dff">
<path fill="#5e605d" opacity="1.00" d=" M 184.83 77.36 C 186.17 76.62 187.97 76.44 189.03 77.74 C 187.66 78.41 186.00 78.45 184.83 77.36 Z" />
</g>
<g id="#4d4f4dff">
<path fill="#4d4f4d" opacity="1.00" d=" M 189.76 77.64 C 192.56 77.03 195.42 77.31 198.28 77.29 C 195.58 78.42 192.59 77.64 189.76 77.64 Z" />
</g>
<g id="#5f5f47ff">
<path fill="#5f5f47" opacity="1.00" d=" M 258.97 77.02 C 261.65 77.02 264.34 77.02 267.04 77.03 C 266.24 78.69 259.74 78.70 258.97 77.02 Z" />
</g>
<g id="#908b64ff">
<path fill="#908b64" opacity="1.00" d=" M 298.30 76.92 C 300.86 76.96 303.42 76.99 306.00 77.01 C 305.59 78.76 297.94 78.61 298.30 76.92 Z" />
</g>
<g id="#d7d9d5ff">
<path fill="#d7d9d5" opacity="1.00" d=" M 179.55 78.41 C 182.89 79.24 181.08 86.04 185.23 84.60 C 197.92 85.12 209.42 82.51 221.94 83.19 C 222.76 85.99 215.39 88.63 220.09 91.38 C 219.33 92.25 218.56 93.11 217.78 93.96 C 215.56 93.59 215.62 96.09 216.98 97.10 C 221.49 99.73 213.40 107.96 215.79 101.04 C 210.36 97.55 196.91 96.59 195.29 106.02 C 193.78 105.17 192.46 104.03 191.00 103.09 C 189.82 102.22 188.34 102.19 186.96 101.99 C 186.37 100.94 185.84 99.86 185.31 98.79 C 185.50 94.45 180.77 96.41 177.82 96.11 C 176.23 95.88 175.19 94.58 174.02 93.62 C 172.73 93.59 170.14 93.54 168.84 93.51 L 168.11 93.91 C 166.61 93.61 165.29 94.59 165.02 96.07 C 163.57 97.82 162.12 99.63 161.54 101.88 C 160.69 103.47 160.67 105.31 161.16 107.01 C 158.80 108.27 156.06 109.19 154.71 111.70 C 154.49 112.02 154.05 112.65 153.83 112.97 C 154.78 124.76 148.05 114.64 152.47 110.79 C 154.78 107.26 160.61 104.01 157.73 99.34 C 154.08 95.88 147.23 99.24 142.60 97.72 C 141.99 93.33 133.77 93.50 133.42 97.79 C 119.98 97.46 106.54 97.37 93.10 98.48 C 89.58 94.59 87.68 102.92 83.78 100.36 C 84.56 99.36 85.30 98.34 85.96 97.26 C 79.43 95.40 71.40 94.11 67.98 87.45 C 69.48 85.86 69.99 82.29 72.85 82.98 C 74.86 84.63 78.54 89.71 78.18 84.06 C 82.25 80.89 91.34 88.32 94.24 80.51 C 97.58 83.43 106.99 78.68 103.95 85.81 C 106.77 82.95 108.52 86.49 110.46 88.43 C 114.33 83.02 122.74 86.58 123.62 78.87 C 123.12 87.69 128.75 78.88 133.18 81.82 C 140.84 84.62 148.97 80.02 156.66 82.44 C 164.06 80.23 173.55 84.41 179.55 78.41 Z" />
</g>
<g id="#a4a086ff">
<path fill="#a4a086" opacity="1.00" d=" M 227.25 81.17 C 229.33 84.16 222.78 93.12 217.78 93.96 C 218.56 93.11 219.33 92.25 220.09 91.38 C 222.78 88.22 225.86 85.18 227.25 81.17 Z" />
</g>
<g id="#797b7aff">
<path fill="#797b7a" opacity="1.00" d=" M 108.94 83.09 C 109.96 83.33 110.96 83.65 111.94 84.03 C 111.16 86.07 108.47 85.19 108.94 83.09 Z" />
</g>
<g id="#919076ff">
<path fill="#919076" opacity="1.00" d=" M 65.96 84.75 C 66.63 85.64 67.31 86.55 67.98 87.45 C 71.40 94.11 79.43 95.40 85.96 97.26 C 85.30 98.34 84.56 99.36 83.78 100.36 C 76.42 104.51 75.91 114.11 77.85 121.43 C 78.48 130.02 85.51 141.62 95.25 140.56 C 101.48 138.99 106.24 133.02 106.51 126.61 C 106.18 125.24 108.97 126.10 108.83 127.10 C 110.96 134.80 119.12 139.19 126.90 136.99 C 131.83 135.25 134.55 130.36 138.00 126.75 C 141.68 131.23 146.26 136.52 152.92 135.00 C 157.58 133.63 155.74 127.62 156.10 123.83 C 157.22 126.61 155.91 130.94 158.93 132.75 C 152.52 139.25 143.59 136.45 137.98 129.92 C 133.36 134.40 128.41 140.09 120.95 139.03 C 115.35 138.71 110.78 134.84 107.23 131.12 C 105.43 138.14 98.64 143.79 91.09 141.95 C 74.71 135.87 69.66 109.60 83.06 98.12 C 76.39 95.88 65.95 93.48 65.96 84.75 Z" />
</g>
<g id="#6f7375ff">
<path fill="#6f7375" opacity="1.00" d=" M 168.84 93.51 C 170.14 93.54 172.73 93.59 174.02 93.62 C 172.50 94.81 170.32 94.70 168.84 93.51 Z" />
</g>
<g id="#828885ff">
<path fill="#828885" opacity="1.00" d=" M 165.02 96.07 C 165.29 94.59 166.61 93.61 168.11 93.91 C 167.82 95.37 166.50 96.32 165.02 96.07 Z" />
</g>
<g id="#1a2020ff">
<path fill="#1a2020" opacity="1.00" d=" M 168.11 93.91 L 168.84 93.51 C 170.32 94.70 172.50 94.81 174.02 93.62 C 175.19 94.58 176.23 95.88 177.82 96.11 C 180.40 96.75 183.24 96.95 185.31 98.79 C 185.84 99.86 186.37 100.94 186.96 101.99 C 186.77 102.54 186.40 103.63 186.21 104.17 C 185.67 104.34 184.60 104.68 184.06 104.85 C 183.02 103.67 181.32 103.47 179.92 104.08 C 179.38 104.23 178.29 104.54 177.75 104.70 C 174.23 105.22 172.23 106.68 174.76 109.97 C 173.82 110.21 172.89 110.49 171.97 110.80 C 170.67 111.25 169.37 111.72 168.08 112.19 C 166.05 112.51 166.50 115.12 167.74 116.10 L 167.86 117.02 C 167.92 117.74 168.05 119.19 168.12 119.91 C 167.75 120.39 167.00 121.33 166.63 121.80 C 164.17 122.06 165.85 124.61 165.84 126.13 C 165.87 126.52 165.93 127.30 165.96 127.69 C 165.26 128.76 164.56 129.83 163.89 130.91 C 161.62 130.65 160.59 131.80 160.81 134.04 C 160.34 133.71 159.40 133.07 158.93 132.75 C 155.91 130.94 157.22 126.61 156.10 123.83 C 155.74 122.61 155.23 121.44 154.82 120.25 C 154.77 117.39 154.73 114.54 154.71 111.70 C 156.06 109.19 158.80 108.27 161.16 107.01 C 163.13 106.05 162.06 103.43 161.54 101.88 C 162.12 99.63 163.57 97.82 165.02 96.07 C 166.50 96.32 167.82 95.37 168.11 93.91 Z" />
</g>
<g id="#717071ff">
<path fill="#717071" opacity="1.00" d=" M 216.98 97.10 C 215.62 96.09 215.56 93.59 217.78 93.96 C 217.87 94.43 218.06 95.37 218.16 95.84 C 217.86 96.16 217.27 96.79 216.98 97.10 Z" />
</g>
<g id="#cdd0cdff">
<path fill="#cdd0cd" opacity="1.00" d=" M 133.42 97.79 C 133.77 93.50 141.99 93.33 142.60 97.72 C 147.23 99.24 154.08 95.88 157.73 99.34 C 160.61 104.01 154.78 107.26 152.47 110.79 C 138.88 105.99 124.34 113.76 110.44 110.11 C 108.73 116.59 98.43 111.50 93.53 112.99 C 93.55 107.95 86.13 111.74 83.77 109.04 C 79.30 111.52 82.49 118.96 77.85 121.43 C 75.91 114.11 76.42 104.51 83.78 100.36 C 87.68 102.92 89.58 94.59 93.10 98.48 C 106.54 97.37 119.98 97.46 133.42 97.79 Z" />
</g>
<g id="#8e9492ff">
<path fill="#8e9492" opacity="1.00" d=" M 177.82 96.11 C 180.77 96.41 185.50 94.45 185.31 98.79 C 183.24 96.95 180.40 96.75 177.82 96.11 Z" />
</g>
<g id="#c9cdc7ff">
<path fill="#c9cdc7" opacity="1.00" d=" M 218.16 95.84 C 219.63 97.58 221.14 99.50 221.03 101.92 C 221.99 105.98 221.23 110.08 221.50 114.16 C 221.37 114.36 221.12 114.76 220.99 114.96 C 216.41 117.79 213.42 122.98 207.94 124.73 L 207.31 124.65 C 201.05 125.85 197.72 121.70 197.36 115.78 C 196.74 112.79 193.62 111.44 191.93 109.12 C 191.84 107.08 191.57 105.05 191.00 103.09 C 192.46 104.03 193.78 105.17 195.29 106.02 C 196.91 96.59 210.36 97.55 215.79 101.04 C 213.40 107.96 221.49 99.73 216.98 97.10 C 217.27 96.79 217.86 96.16 218.16 95.84 Z" />
</g>
<g id="#5e6864ff">
<path fill="#5e6864" opacity="1.00" d=" M 161.16 107.01 C 160.67 105.31 160.69 103.47 161.54 101.88 C 162.06 103.43 163.13 106.05 161.16 107.01 Z" />
</g>
<g id="#83847cff">
<path fill="#83847c" opacity="1.00" d=" M 186.96 101.99 C 188.34 102.19 189.82 102.22 191.00 103.09 C 191.57 105.05 191.84 107.08 191.93 109.12 C 191.46 109.09 190.52 109.03 190.05 109.00 C 190.29 105.84 190.19 102.78 186.21 104.17 C 186.40 103.63 186.77 102.54 186.96 101.99 Z" />
</g>
<g id="#8c8a70ff">
<path fill="#8c8a70" opacity="1.00" d=" M 221.03 101.92 C 223.76 104.79 223.21 110.43 221.50 114.16 C 221.23 110.08 221.99 105.98 221.03 101.92 Z" />
</g>
<g id="#e6daccff">
<path fill="#e6dacc" opacity="1.00" d=" M 177.75 104.70 C 178.29 104.54 179.38 104.23 179.92 104.08 C 180.88 105.38 182.67 105.51 184.06 104.85 C 184.60 104.68 185.67 104.34 186.21 104.17 C 190.19 102.78 190.29 105.84 190.05 109.00 C 190.27 113.14 194.61 115.56 196.35 119.17 C 197.15 121.32 197.97 123.45 198.75 125.61 C 198.17 127.40 197.57 129.19 196.97 130.97 C 194.18 137.40 186.18 141.06 179.89 137.19 C 178.60 136.16 177.30 135.14 176.01 134.12 C 175.07 128.07 168.82 132.24 165.96 127.69 C 165.93 127.30 165.87 126.52 165.84 126.13 C 170.94 130.34 178.02 123.98 173.27 119.52 L 172.71 118.70 C 175.27 114.28 185.63 115.60 181.39 107.86 C 180.34 106.91 179.12 106.18 177.93 105.43 L 177.75 104.70 M 180.24 118.07 C 176.19 121.49 184.80 119.20 185.73 120.20 C 188.53 121.98 185.82 125.56 185.94 128.12 C 192.35 124.68 187.67 114.62 180.24 118.07 M 190.39 128.42 C 188.81 129.82 186.17 130.60 185.91 132.96 C 187.65 132.80 190.39 131.00 190.33 134.02 C 190.97 133.26 194.21 131.35 192.07 131.03 C 189.62 131.14 193.45 126.21 190.39 128.42 Z" />
</g>
<g id="#7f7f79ff">
<path fill="#7f7f79" opacity="1.00" d=" M 179.92 104.08 C 181.32 103.47 183.02 103.67 184.06 104.85 C 182.67 105.51 180.88 105.38 179.92 104.08 Z" />
</g>
<g id="#979690ff">
<path fill="#979690" opacity="1.00" d=" M 174.76 109.97 C 172.23 106.68 174.23 105.22 177.75 104.70 L 177.93 105.43 C 177.48 106.63 177.06 107.84 176.65 109.05 C 176.18 109.28 175.23 109.74 174.76 109.97 Z" />
</g>
<g id="#43403bff">
<path fill="#43403b" opacity="1.00" d=" M 176.65 109.05 C 177.06 107.84 177.48 106.63 177.93 105.43 C 179.12 106.18 180.34 106.91 181.39 107.86 C 180.61 108.50 179.82 109.15 179.04 109.80 C 178.44 109.61 177.25 109.23 176.65 109.05 Z" />
</g>
<g id="#87817aff">
<path fill="#87817a" opacity="1.00" d=" M 181.39 107.86 C 185.63 115.60 175.27 114.28 172.71 118.70 C 170.66 118.71 169.68 119.80 169.94 121.85 C 169.30 121.23 168.70 120.58 168.12 119.91 C 168.05 119.19 167.92 117.74 167.86 117.02 C 171.40 120.49 177.25 111.31 171.97 110.80 C 172.89 110.49 173.82 110.21 174.76 109.97 C 173.40 115.65 182.54 114.22 179.04 109.80 C 179.82 109.15 180.61 108.50 181.39 107.86 Z" />
</g>
<g id="#c5c8c3ff">
<path fill="#c5c8c3" opacity="1.00" d=" M 77.85 121.43 C 82.49 118.96 79.30 111.52 83.77 109.04 C 86.13 111.74 93.55 107.95 93.53 112.99 C 98.43 111.50 108.73 116.59 110.44 110.11 C 124.34 113.76 138.88 105.99 152.47 110.79 C 148.05 114.64 154.78 124.76 153.83 112.97 C 153.71 115.48 154.04 117.90 154.82 120.25 C 155.23 121.44 155.74 122.61 156.10 123.83 C 155.74 127.62 157.58 133.63 152.92 135.00 C 146.26 136.52 141.68 131.23 138.00 126.75 C 134.55 130.36 131.83 135.25 126.90 136.99 C 119.12 139.19 110.96 134.80 108.83 127.10 C 108.97 126.10 106.18 125.24 106.51 126.61 C 106.24 133.02 101.48 138.99 95.25 140.56 C 85.51 141.62 78.48 130.02 77.85 121.43 Z" />
</g>
<g id="#eeece7ff">
<path fill="#eeece7" opacity="1.00" d=" M 174.76 109.97 C 175.23 109.74 176.18 109.28 176.65 109.05 C 177.25 109.23 178.44 109.61 179.04 109.80 C 182.54 114.22 173.40 115.65 174.76 109.97 Z" />
</g>
<g id="#1e1f1cff">
<path fill="#1e1f1c" opacity="1.00" d=" M 190.05 109.00 C 190.52 109.03 191.46 109.09 191.93 109.12 C 193.62 111.44 196.74 112.79 197.36 115.78 C 197.03 116.91 196.70 118.04 196.35 119.17 C 194.61 115.56 190.27 113.14 190.05 109.00 Z" />
</g>
<g id="#eae0d5ff">
<path fill="#eae0d5" opacity="1.00" d=" M 168.08 112.19 C 169.37 111.72 170.67 111.25 171.97 110.80 C 177.25 111.31 171.40 120.49 167.86 117.02 L 167.74 116.10 C 168.13 114.82 168.24 113.51 168.08 112.19 Z" />
</g>
<g id="#969377ff">
<path fill="#969377" opacity="1.00" d=" M 294.65 123.93 C 289.80 114.93 310.64 106.73 315.07 112.78 C 307.08 110.80 294.96 114.14 294.65 123.93 Z" />
</g>
<g id="#676967ff">
<path fill="#676967" opacity="1.00" d=" M 153.83 112.97 C 154.05 112.65 154.49 112.02 154.71 111.70 C 154.73 114.54 154.77 117.39 154.82 120.25 C 154.04 117.90 153.71 115.48 153.83 112.97 Z" />
</g>
<g id="#787873ff">
<path fill="#787873" opacity="1.00" d=" M 167.74 116.10 C 166.50 115.12 166.05 112.51 168.08 112.19 C 168.24 113.51 168.13 114.82 167.74 116.10 Z" />
</g>
<g id="#e3e5e2ff">
<path fill="#e3e5e2" opacity="1.00" d=" M 294.65 123.93 C 294.96 114.14 307.08 110.80 315.07 112.78 L 316.05 112.90 C 322.51 114.16 327.38 118.74 332.64 122.32 C 334.30 123.89 336.11 120.71 335.29 119.16 C 344.11 106.64 367.87 116.61 362.20 131.88 C 367.47 131.13 373.10 132.13 376.22 136.79 C 376.17 138.85 376.12 140.91 375.94 142.97 C 373.06 145.31 374.64 141.87 374.88 140.07 C 354.10 138.89 332.79 142.08 312.07 138.01 C 298.28 143.16 282.66 137.74 268.68 140.15 C 269.02 142.95 274.27 152.37 268.22 151.34 C 268.33 149.88 269.26 148.31 268.36 146.93 C 266.91 145.25 265.22 143.78 263.81 142.06 C 264.00 135.23 267.26 127.70 273.93 124.97 C 280.67 121.89 287.79 124.60 293.75 128.04 C 293.89 127.38 294.18 126.08 294.33 125.43 C 294.41 125.05 294.57 124.31 294.65 123.93 Z" />
</g>
<g id="#929177ff">
<path fill="#929177" opacity="1.00" d=" M 316.05 112.90 C 321.38 109.41 328.68 121.13 335.29 119.16 C 336.11 120.71 334.30 123.89 332.64 122.32 C 327.38 118.74 322.51 114.16 316.05 112.90 Z" />
</g>
<g id="#979372ff">
<path fill="#979372" opacity="1.00" d=" M 335.29 119.16 C 342.43 104.42 368.82 114.76 364.11 130.88 C 368.05 129.02 378.91 133.16 376.22 136.79 C 373.10 132.13 367.47 131.13 362.20 131.88 C 367.87 116.61 344.11 106.64 335.29 119.16 Z" />
</g>
<g id="#929377ff">
<path fill="#929377" opacity="1.00" d=" M 207.94 124.73 C 213.42 122.98 216.41 117.79 220.99 114.96 C 219.79 120.63 213.29 124.54 207.94 124.73 Z" />
</g>
<g id="#7d7d6cff">
<path fill="#7d7d6c" opacity="1.00" d=" M 197.36 115.78 C 197.72 121.70 201.05 125.85 207.31 124.65 C 206.75 127.98 201.28 125.00 198.75 125.61 C 197.97 123.45 197.15 121.32 196.35 119.17 C 196.70 118.04 197.03 116.91 197.36 115.78 Z" />
</g>
<g id="#8a7f72ff">
<path fill="#8a7f72" opacity="1.00" d=" M 180.24 118.07 C 187.67 114.62 192.35 124.68 185.94 128.12 C 185.82 125.56 188.53 121.98 185.73 120.20 C 184.80 119.20 176.19 121.49 180.24 118.07 Z" />
</g>
<g id="#292824ff">
<path fill="#292824" opacity="1.00" d=" M 169.94 121.85 C 169.68 119.80 170.66 118.71 172.71 118.70 L 173.27 119.52 C 172.97 120.13 172.36 121.36 172.06 121.97 C 171.53 121.94 170.47 121.88 169.94 121.85 Z" />
</g>
<g id="#eaedeaff">
<path fill="#eaedea" opacity="1.00" d=" M 168.12 119.91 C 168.70 120.58 169.30 121.23 169.94 121.85 C 170.47 121.88 171.53 121.94 172.06 121.97 C 174.71 126.17 165.85 127.66 166.63 121.80 C 167.00 121.33 167.75 120.39 168.12 119.91 Z" />
</g>
<g id="#7b7b76ff">
<path fill="#7b7b76" opacity="1.00" d=" M 173.27 119.52 C 178.02 123.98 170.94 130.34 165.84 126.13 C 165.85 124.61 164.17 122.06 166.63 121.80 C 165.85 127.66 174.71 126.17 172.06 121.97 C 172.36 121.36 172.97 120.13 173.27 119.52 Z" />
</g>
<g id="#939078ff">
<path fill="#939078" opacity="1.00" d=" M 272.96 123.94 C 279.98 121.55 287.54 122.94 294.33 125.43 C 294.18 126.08 293.89 127.38 293.75 128.04 C 287.79 124.60 280.67 121.89 273.93 124.97 C 267.26 127.70 264.00 135.23 263.81 142.06 C 263.23 141.35 262.66 140.65 262.09 139.93 C 264.17 133.78 266.30 126.48 272.96 123.94 Z" />
</g>
<g id="#766d66ff">
<path fill="#766d66" opacity="1.00" d=" M 163.89 130.91 C 164.56 129.83 165.26 128.76 165.96 127.69 C 168.82 132.24 175.07 128.07 176.01 134.12 C 175.61 134.01 174.83 133.78 174.44 133.67 C 172.48 129.66 167.61 136.71 168.00 131.97 C 168.24 126.67 165.39 135.65 163.47 131.82 L 163.89 130.91 Z" />
</g>
<g id="#8c8275ff">
<path fill="#8c8275" opacity="1.00" d=" M 190.39 128.42 C 193.45 126.21 189.62 131.14 192.07 131.03 C 194.21 131.35 190.97 133.26 190.33 134.02 C 190.39 131.00 187.65 132.80 185.91 132.96 C 186.17 130.60 188.81 129.82 190.39 128.42 Z" />
</g>
<g id="#e6ded2ff">
<path fill="#e6ded2" opacity="1.00" d=" M 163.47 131.82 C 165.39 135.65 168.24 126.67 168.00 131.97 C 167.61 136.71 172.48 129.66 174.44 133.67 C 173.99 134.21 173.09 135.28 172.64 135.82 C 168.92 141.21 171.27 149.12 172.48 155.19 C 173.04 155.32 174.18 155.59 174.74 155.72 C 177.70 155.75 181.50 154.93 181.22 158.75 C 180.70 158.85 179.67 159.05 179.15 159.16 C 177.72 158.64 175.82 158.48 174.91 159.99 C 170.57 161.24 168.60 158.21 168.93 154.17 C 168.80 148.10 167.63 141.96 164.18 136.86 C 163.91 135.28 160.19 132.11 163.47 131.82 Z" />
</g>
<g id="#ada587ff">
<path fill="#ada587" opacity="1.00" d=" M 160.81 134.04 C 160.59 131.80 161.62 130.65 163.89 130.91 L 163.47 131.82 C 160.19 132.11 163.91 135.28 164.18 136.86 C 167.63 141.96 168.80 148.10 168.93 154.17 C 168.55 153.87 167.77 153.28 167.38 152.99 C 166.75 146.08 164.01 139.93 160.81 134.04 Z" />
</g>
<g id="#756e57ff">
<path fill="#756e57" opacity="1.00" d=" M 196.97 130.97 C 200.19 132.04 196.08 135.41 195.94 137.56 C 190.82 138.49 185.70 141.24 180.36 139.25 C 180.24 138.73 180.01 137.70 179.89 137.19 C 186.18 141.06 194.18 137.40 196.97 130.97 Z" />
</g>
<g id="#232118ff">
<path fill="#232118" opacity="1.00" d=" M 174.44 133.67 C 174.83 133.78 175.61 134.01 176.01 134.12 C 177.30 135.14 178.60 136.16 179.89 137.19 C 180.01 137.70 180.24 138.73 180.36 139.25 C 178.28 140.71 176.52 139.09 174.94 137.75 C 174.17 137.11 173.40 136.46 172.64 135.82 C 173.09 135.28 173.99 134.21 174.44 133.67 Z" />
</g>
<g id="#a9ad82ff">
<path fill="#a9ad82" opacity="1.00" d=" M 210.98 134.97 C 211.71 133.31 218.33 133.30 219.01 134.99 C 216.33 135.01 213.65 135.00 210.98 134.97 Z" />
</g>
<g id="#4f7570ff">
<path fill="#4f7570" opacity="1.00" d=" M 205.11 136.45 C 206.82 135.20 208.90 134.81 210.98 134.97 C 213.65 135.00 216.33 135.01 219.01 134.99 C 223.03 133.53 225.01 134.24 224.95 137.13 C 225.03 138.82 225.23 140.52 225.58 142.18 C 225.66 142.59 225.80 143.40 225.88 143.80 C 225.62 144.31 225.10 145.32 224.84 145.82 C 220.00 144.37 213.39 145.15 209.80 140.97 C 214.60 141.67 219.16 143.50 223.98 144.12 C 228.05 131.52 212.24 136.32 205.32 137.12 L 205.11 136.45 Z" />
</g>
<g id="#8b866cff">
<path fill="#8b866c" opacity="1.00" d=" M 172.48 155.19 C 171.27 149.12 168.92 141.21 172.64 135.82 C 173.40 136.46 174.17 137.11 174.94 137.75 C 169.67 138.98 171.05 151.68 176.19 151.30 C 174.05 151.69 172.58 152.89 172.48 155.19 Z" />
</g>
<g id="#829179ff">
<path fill="#829179" opacity="1.00" d=" M 202.53 139.22 C 201.62 137.86 203.66 135.52 205.11 136.45 L 205.32 137.12 C 204.52 137.98 203.60 138.72 202.53 139.22 Z" />
</g>
<g id="#97d1d6ff">
<path fill="#97d1d6" opacity="1.00" d=" M 205.32 137.12 C 212.24 136.32 228.05 131.52 223.98 144.12 C 219.16 143.50 214.60 141.67 209.80 140.97 C 213.39 145.15 220.00 144.37 224.84 145.82 C 227.86 145.81 231.29 145.65 229.75 149.64 C 228.30 154.17 227.68 158.97 225.78 163.35 C 216.17 162.00 207.48 157.75 199.50 152.45 C 192.02 150.75 189.67 160.74 183.26 162.99 C 183.16 162.56 182.97 161.69 182.88 161.26 C 182.93 159.05 182.85 156.81 181.99 154.74 C 182.05 154.32 182.17 153.48 182.23 153.05 C 183.86 153.28 185.67 153.40 187.09 152.37 C 188.72 151.61 190.00 150.32 191.18 148.99 C 193.48 143.71 199.85 143.77 202.53 139.22 C 203.60 138.72 204.52 137.98 205.32 137.12 Z" />
</g>
<g id="#f2f0c5ff">
</g>
<g id="#a0987bff">
<path fill="#a0987b" opacity="1.00" d=" M 224.95 137.13 C 231.63 137.65 240.98 145.70 246.33 139.27 C 249.05 138.34 252.16 140.15 254.08 141.96 C 253.09 142.15 252.10 142.33 251.11 142.49 C 247.79 143.25 246.31 142.84 248.89 139.73 C 242.35 145.65 233.53 140.54 226.04 139.25 C 225.92 139.99 225.70 141.45 225.58 142.18 C 225.23 140.52 225.03 138.82 224.95 137.13 Z" />
</g>
<g id="#5c7562ff">
<path fill="#5c7562" opacity="1.00" d=" M 195.94 137.56 C 198.18 141.67 199.49 140.21 202.53 139.22 C 199.85 143.77 193.48 143.71 191.18 148.99 C 190.86 148.69 190.20 148.09 189.88 147.79 C 191.55 144.00 198.18 142.22 195.94 137.56 Z" />
</g>
<g id="#d8dad7ff">
<path fill="#d8dad7" opacity="1.00" d=" M 268.68 140.15 C 282.66 137.74 298.28 143.16 312.07 138.01 C 332.79 142.08 354.10 138.89 374.88 140.07 C 374.64 141.87 373.06 145.31 375.94 142.97 C 376.01 146.68 376.11 150.42 375.92 154.14 C 373.62 152.51 367.80 150.61 367.62 154.86 C 339.30 146.29 307.58 153.30 278.03 150.93 C 282.69 156.76 274.17 151.77 271.00 152.99 C 275.55 157.04 281.32 159.79 284.67 165.08 C 285.65 166.80 289.14 168.36 287.06 170.45 C 281.86 164.87 275.65 160.34 268.93 156.76 C 268.66 154.96 268.21 153.17 268.22 151.34 C 274.27 152.37 269.02 142.95 268.68 140.15 Z" />
</g>
<g id="#e1daccff">
<path fill="#e1dacc" opacity="1.00" d=" M 226.04 139.25 C 233.53 140.54 242.35 145.65 248.89 139.73 C 246.31 142.84 247.79 143.25 251.11 142.49 C 250.06 144.29 249.49 146.76 247.26 147.45 C 241.41 146.32 235.75 143.71 229.70 144.10 C 228.43 144.00 227.15 143.90 225.88 143.80 C 225.80 143.40 225.66 142.59 225.58 142.18 C 225.70 141.45 225.92 139.99 226.04 139.25 Z" />
</g>
<g id="#2a364dff">
<path fill="#2a364d" opacity="1.00" d=" M 254.08 141.96 C 256.73 141.10 259.07 139.16 262.09 139.93 C 262.66 140.65 263.23 141.35 263.81 142.06 C 265.22 143.78 266.91 145.25 268.36 146.93 C 267.61 148.67 266.75 150.36 265.83 152.02 C 263.78 153.66 259.53 154.82 262.17 157.94 C 261.81 159.42 261.37 160.87 260.93 162.32 C 260.11 160.24 259.17 158.22 258.40 156.13 C 260.41 152.73 265.21 151.54 265.73 147.18 C 264.73 144.14 261.86 142.49 258.77 142.47 C 252.00 143.42 246.70 154.45 239.57 149.42 C 236.68 147.21 232.99 149.26 229.75 149.64 C 231.29 145.65 227.86 145.81 224.84 145.82 C 225.10 145.32 225.62 144.31 225.88 143.80 C 227.15 143.90 228.43 144.00 229.70 144.10 C 234.49 147.36 241.77 150.35 247.26 147.45 C 249.49 146.76 250.06 144.29 251.11 142.49 C 252.10 142.33 253.09 142.15 254.08 141.96 Z" />
</g>
<g id="#263d7bff">
<path fill="#263d7b" opacity="1.00" d=" M 239.57 149.42 C 246.70 154.45 252.00 143.42 258.77 142.47 C 261.86 142.49 264.73 144.14 265.73 147.18 C 265.21 151.54 260.41 152.73 258.40 156.13 C 259.17 158.22 260.11 160.24 260.93 162.32 C 260.98 162.91 261.08 164.11 261.13 164.70 C 258.67 169.16 253.06 165.17 249.14 164.76 C 244.26 162.61 241.40 170.28 236.14 167.83 C 232.48 166.92 228.95 165.39 225.78 163.35 C 227.68 158.97 228.30 154.17 229.75 149.64 C 232.99 149.26 236.68 147.21 239.57 149.42 Z" />
</g>
<g id="#70746fff">
<path fill="#70746f" opacity="1.00" d=" M 229.70 144.10 C 235.75 143.71 241.41 146.32 247.26 147.45 C 241.77 150.35 234.49 147.36 229.70 144.10 Z" />
</g>
<g id="#8e8e84ff">
<path fill="#8e8e84" opacity="1.00" d=" M 268.36 146.93 C 269.26 148.31 268.33 149.88 268.22 151.34 C 268.21 153.17 268.66 154.96 268.93 156.76 C 268.65 157.10 268.09 157.78 267.81 158.12 C 266.76 156.23 266.20 154.13 265.83 152.02 C 266.75 150.36 267.61 148.67 268.36 146.93 Z" />
</g>
<g id="#131813ff">
<path fill="#131813" opacity="1.00" d=" M 176.19 151.30 C 180.69 149.91 185.26 148.75 189.88 147.79 C 190.20 148.09 190.86 148.69 191.18 148.99 C 190.00 150.32 188.72 151.61 187.09 152.37 C 185.65 152.00 182.60 150.83 182.23 153.05 C 182.17 153.48 182.05 154.32 181.99 154.74 C 179.57 155.06 177.15 155.38 174.74 155.72 C 174.18 155.59 173.04 155.32 172.48 155.19 C 172.58 152.89 174.05 151.69 176.19 151.30 Z" />
</g>
<g id="#ced1ceff">
<path fill="#ced1ce" opacity="1.00" d=" M 278.03 150.93 C 307.58 153.30 339.30 146.29 367.62 154.86 C 367.80 150.61 373.62 152.51 375.92 154.14 C 376.56 156.96 373.84 159.85 375.95 162.43 C 373.46 164.16 371.12 166.19 368.22 167.20 C 351.60 166.94 335.12 164.17 318.35 164.35 C 317.73 170.36 309.47 170.71 307.78 166.10 C 302.98 164.92 307.05 167.42 306.07 169.70 C 303.17 168.59 298.58 166.27 296.96 170.02 C 294.23 175.42 290.13 175.71 287.06 170.45 C 289.14 168.36 285.65 166.80 284.67 165.08 C 281.32 159.79 275.55 157.04 271.00 152.99 C 274.17 151.77 282.69 156.76 278.03 150.93 Z" />
</g>
<g id="#5a6a74ff">
<path fill="#5a6a74" opacity="1.00" d=" M 182.23 153.05 C 182.60 150.83 185.65 152.00 187.09 152.37 C 185.67 153.40 183.86 153.28 182.23 153.05 Z" />
</g>
<g id="#060709ff">
<path fill="#060709" opacity="1.00" d=" M 183.26 162.99 C 189.67 160.74 192.02 150.75 199.50 152.45 C 207.48 157.75 216.17 162.00 225.78 163.35 C 228.95 165.39 232.48 166.92 236.14 167.83 C 241.40 170.28 244.26 162.61 249.14 164.76 C 253.06 165.17 258.67 169.16 261.13 164.70 C 262.43 165.12 263.72 165.58 264.99 166.09 L 265.20 167.07 C 265.05 168.43 264.94 169.80 264.87 171.17 C 270.11 174.73 276.30 185.84 282.96 179.11 C 283.19 179.30 283.64 179.68 283.87 179.87 C 284.18 180.13 284.79 180.66 285.10 180.92 C 287.38 181.90 289.07 183.57 290.69 185.39 C 292.23 187.44 296.91 184.45 293.23 183.57 C 293.96 180.53 295.78 183.76 297.03 184.78 C 298.31 186.19 299.52 187.68 300.78 189.12 C 301.03 190.48 301.25 191.87 301.65 193.21 C 303.67 197.94 305.41 202.84 306.00 207.98 C 306.00 212.65 306.05 217.33 305.96 222.01 C 303.61 240.77 291.13 256.38 276.26 267.26 C 256.81 280.81 234.76 289.97 212.89 298.83 C 204.85 300.72 197.91 306.71 196.45 315.05 C 196.33 316.50 196.08 319.39 195.96 320.83 C 195.96 321.41 195.97 322.58 195.98 323.16 C 195.71 325.46 195.86 327.73 196.43 329.96 C 198.50 338.85 202.26 354.52 189.84 357.00 C 188.53 356.80 187.18 356.91 186.00 357.56 C 179.47 359.11 171.05 354.23 170.97 347.02 C 170.79 334.93 171.67 322.78 170.29 310.74 C 166.75 293.26 186.14 282.98 199.87 277.85 C 222.88 267.01 247.70 259.25 268.78 244.79 C 275.56 238.81 281.25 231.22 283.30 222.29 C 284.06 218.14 284.49 213.78 283.44 209.66 C 280.34 196.34 272.18 183.18 259.03 177.94 C 254.42 175.02 248.87 174.76 244.00 172.58 C 242.84 171.84 241.44 171.82 240.13 171.98 C 239.59 171.87 238.53 171.65 237.99 171.54 C 236.46 170.89 234.78 170.83 233.15 170.98 C 232.59 170.87 231.48 170.65 230.93 170.54 C 229.49 170.39 226.61 170.09 225.17 169.94 C 217.39 170.01 209.62 170.03 201.85 169.94 C 200.41 170.08 197.54 170.38 196.10 170.53 C 195.28 170.63 193.63 170.83 192.81 170.93 C 191.35 171.09 188.44 171.40 186.98 171.56 L 185.92 171.84 C 184.58 171.80 183.25 172.00 182.00 172.49 C 176.76 173.50 171.31 174.63 167.00 178.01 C 157.84 183.64 156.19 196.53 146.05 201.03 C 137.31 206.26 126.36 195.58 130.57 186.63 C 135.69 169.27 153.35 161.71 167.38 152.99 C 167.77 153.28 168.55 153.87 168.93 154.17 C 168.60 158.21 170.57 161.24 174.91 159.99 C 176.37 160.39 178.06 160.37 179.15 159.16 C 179.67 159.05 180.70 158.85 181.22 158.75 C 181.78 159.58 182.33 160.42 182.88 161.26 C 182.97 161.69 183.16 162.56 183.26 162.99 Z" />
</g>
<g id="#e3dad0ff">
<path fill="#e3dad0" opacity="1.00" d=" M 262.17 157.94 C 259.53 154.82 263.78 153.66 265.83 152.02 C 266.20 154.13 266.76 156.23 267.81 158.12 C 268.29 159.03 268.78 159.93 269.29 160.84 C 269.69 163.94 267.92 165.96 265.20 167.07 L 264.99 166.09 C 264.44 163.26 263.44 160.53 262.17 157.94 Z" />
</g>
<g id="#5c6966ff">
<path fill="#5c6966" opacity="1.00" d=" M 174.74 155.72 C 177.15 155.38 179.57 155.06 181.99 154.74 C 182.85 156.81 182.93 159.05 182.88 161.26 C 182.33 160.42 181.78 159.58 181.22 158.75 C 181.50 154.93 177.70 155.75 174.74 155.72 Z" />
</g>
<g id="#171b1dff">
<path fill="#171b1d" opacity="1.00" d=" M 267.81 158.12 C 268.09 157.78 268.65 157.10 268.93 156.76 C 275.65 160.34 281.86 164.87 287.06 170.45 C 290.13 175.71 294.23 175.42 296.96 170.02 C 299.67 168.97 303.20 168.16 304.86 171.30 C 306.04 177.30 300.07 180.55 297.03 184.78 C 295.78 183.76 293.96 180.53 293.23 183.57 C 296.91 184.45 292.23 187.44 290.69 185.39 C 289.07 183.57 287.38 181.90 285.10 180.92 C 287.67 181.70 290.46 180.17 289.72 177.32 C 283.98 172.13 277.85 167.38 271.72 162.67 C 270.92 162.04 270.09 161.45 269.29 160.84 C 268.78 159.93 268.29 159.03 267.81 158.12 Z" />
</g>
<g id="#848284ff">
<path fill="#848284" opacity="1.00" d=" M 262.17 157.94 C 263.44 160.53 264.44 163.26 264.99 166.09 C 263.72 165.58 262.43 165.12 261.13 164.70 C 261.08 164.11 260.98 162.91 260.93 162.32 C 261.37 160.87 261.81 159.42 262.17 157.94 Z" />
</g>
<g id="#938880ff">
<path fill="#938880" opacity="1.00" d=" M 174.91 159.99 C 175.82 158.48 177.72 158.64 179.15 159.16 C 178.06 160.37 176.37 160.39 174.91 159.99 Z" />
</g>
<g id="#857f7bff">
<path fill="#857f7b" opacity="1.00" d=" M 269.29 160.84 C 270.09 161.45 270.92 162.04 271.72 162.67 C 270.86 165.00 271.97 167.67 274.12 168.85 C 273.43 168.86 272.03 168.88 271.33 168.89 C 270.86 165.06 264.82 167.83 265.80 171.03 L 264.87 171.17 C 264.94 169.80 265.05 168.43 265.20 167.07 C 267.92 165.96 269.69 163.94 269.29 160.84 Z" />
</g>
<g id="#9e9b79ff">
<path fill="#9e9b79" opacity="1.00" d=" M 375.95 162.43 C 379.76 162.45 372.53 167.40 370.95 167.92 C 368.50 169.96 363.10 168.87 362.96 172.99 C 360.18 184.61 345.00 189.90 335.04 183.94 C 333.56 183.16 331.40 180.71 330.33 183.33 C 324.96 193.43 311.81 196.50 302.20 191.06 C 302.06 191.60 301.79 192.67 301.65 193.21 C 301.25 191.87 301.03 190.48 300.78 189.12 C 312.04 195.38 326.17 191.04 331.21 179.20 C 337.33 182.15 344.82 187.71 352.00 182.94 C 361.05 181.15 359.41 168.58 368.22 167.20 C 371.12 166.19 373.46 164.16 375.95 162.43 Z" />
</g>
<g id="#cecdcdff">
<path fill="#cecdcd" opacity="1.00" d=" M 274.12 168.85 C 271.97 167.67 270.86 165.00 271.72 162.67 C 277.85 167.38 283.98 172.13 289.72 177.32 C 290.46 180.17 287.67 181.70 285.10 180.92 C 284.79 180.66 284.18 180.13 283.87 179.87 C 284.49 177.72 284.53 175.12 282.29 173.92 C 280.74 170.78 277.41 169.34 274.12 168.85 Z" />
</g>
<g id="#c4c8c3ff">
<path fill="#c4c8c3" opacity="1.00" d=" M 318.35 164.35 C 335.12 164.17 351.60 166.94 368.22 167.20 C 359.41 168.58 361.05 181.15 352.00 182.94 C 344.82 187.71 337.33 182.15 331.21 179.20 C 326.17 191.04 312.04 195.38 300.78 189.12 C 299.52 187.68 298.31 186.19 297.03 184.78 C 300.07 180.55 306.04 177.30 304.86 171.30 C 303.20 168.16 299.67 168.97 296.96 170.02 C 298.58 166.27 303.17 168.59 306.07 169.70 C 307.05 167.42 302.98 164.92 307.78 166.10 C 309.47 170.71 317.73 170.36 318.35 164.35 Z" />
</g>
<g id="#eeeeebff">
<path fill="#eeeeeb" opacity="1.00" d=" M 265.80 171.03 C 264.82 167.83 270.86 165.06 271.33 168.89 C 269.67 170.03 267.87 171.00 265.80 171.03 Z" />
</g>
<g id="#131c1cff">
<path fill="#131c1c" opacity="1.00" d=" M 265.80 171.03 C 267.87 171.00 269.67 170.03 271.33 168.89 C 272.03 168.88 273.43 168.86 274.12 168.85 C 277.41 169.34 280.74 170.78 282.29 173.92 C 282.36 175.66 282.66 177.39 282.96 179.11 C 276.30 185.84 270.11 174.73 264.87 171.17 L 265.80 171.03 Z" />
</g>
<g id="#65654dff">
<path fill="#65654d" opacity="1.00" d=" M 196.10 170.53 C 197.54 170.38 200.41 170.08 201.85 169.94 L 201.95 170.59 C 200.39 171.95 197.70 171.65 196.10 170.53 Z" />
</g>
<g id="#bfba93ff">
<path fill="#bfba93" opacity="1.00" d=" M 201.85 169.94 C 209.62 170.03 217.39 170.01 225.17 169.94 L 225.07 170.59 C 217.45 171.11 209.54 171.55 201.95 170.59 L 201.85 169.94 Z" />
</g>
<g id="#6f6e53ff">
<path fill="#6f6e53" opacity="1.00" d=" M 225.17 169.94 C 226.61 170.09 229.49 170.39 230.93 170.54 C 229.31 171.64 226.62 171.95 225.07 170.59 L 225.17 169.94 Z" />
</g>
<g id="#74724bff">
<path fill="#74724b" opacity="1.00" d=" M 186.98 171.56 C 188.44 171.40 191.35 171.09 192.81 170.93 C 192.47 173.22 188.42 172.70 186.98 171.56 Z" />
</g>
<g id="#8e895eff">
<path fill="#8e895e" opacity="1.00" d=" M 233.15 170.98 C 234.78 170.83 236.46 170.89 237.99 171.54 C 236.80 172.53 233.33 172.99 233.15 170.98 Z" />
</g>
<g id="#878665ff">
<path fill="#878665" opacity="1.00" d=" M 182.00 172.49 C 183.25 172.00 184.58 171.80 185.92 171.84 C 186.09 173.76 182.88 173.67 182.00 172.49 Z" />
</g>
<g id="#706f53ff">
<path fill="#706f53" opacity="1.00" d=" M 240.13 171.98 C 241.44 171.82 242.84 171.84 244.00 172.58 C 243.10 173.61 240.03 173.79 240.13 171.98 Z" />
</g>
<g id="#5e6260ff">
<path fill="#5e6260" opacity="1.00" d=" M 282.29 173.92 C 284.53 175.12 284.49 177.72 283.87 179.87 C 283.64 179.68 283.19 179.30 282.96 179.11 C 282.66 177.39 282.36 175.66 282.29 173.92 Z" />
</g>
<g id="#a69e77ff">
<path fill="#a69e77" opacity="1.00" d=" M 306.00 207.98 C 307.34 210.04 308.37 219.71 305.96 222.01 C 306.05 217.33 306.00 212.65 306.00 207.98 Z" />
</g>
<g id="#96926bff">
<path fill="#96926b" opacity="1.00" d=" M 283.44 209.66 C 284.49 213.78 284.06 218.14 283.30 222.29 C 282.90 218.07 282.94 213.86 283.44 209.66 Z" />
</g>
<g id="#8b8560ff">
<path fill="#8b8560" opacity="1.00" d=" M 170.29 310.74 C 171.67 322.78 170.79 334.93 170.97 347.02 C 168.74 336.80 170.40 322.49 170.29 310.74 Z" />
</g>
<g id="#a19c74ff">
<path fill="#a19c74" opacity="1.00" d=" M 195.96 320.83 C 196.08 319.39 196.33 316.50 196.45 315.05 C 197.67 316.43 198.16 320.40 195.96 320.83 Z" />
</g>
<g id="#a29e77ff">
<path fill="#a29e77" opacity="1.00" d=" M 195.98 323.16 C 198.20 324.06 197.52 328.18 196.43 329.96 C 195.86 327.73 195.71 325.46 195.98 323.16 Z" />
</g>
<g id="#7a734dff">
<path fill="#7a734d" opacity="1.00" d=" M 186.00 357.56 C 187.18 356.91 188.53 356.80 189.84 357.00 C 189.99 358.83 186.85 358.64 186.00 357.56 Z" />
</g>
<g id="#08080aff">
<path fill="#08080a" opacity="1.00" d=" M 169.67 381.67 C 174.66 370.58 189.31 373.38 197.78 378.22 C 205.56 382.86 198.97 393.18 192.02 394.01 C 187.66 394.01 183.32 394.03 178.98 394.01 C 174.06 392.68 164.67 387.55 169.67 381.67 Z" />
</g>
<g id="#978f75ff">
<path fill="#978f75" opacity="1.00" d=" M 178.98 394.01 C 183.32 394.03 187.66 394.01 192.02 394.01 C 190.33 395.35 180.91 396.44 178.98 394.01 Z" />
</g>
</svg>
