<?xml version="1.0" encoding="UTF-8" ?>
<!DOCTYPE svg PUBLIC "-//W3C//DTD SVG 1.1//EN" "http://www.w3.org/Graphics/SVG/1.1/DTD/svg11.dtd">
<svg width="730pt" height="683pt" viewBox="0 0 730 683" version="1.1" xmlns="http://www.w3.org/2000/svg">
<g id="#5a88b2fa">
<path fill="#5a88b2" opacity="0.98" d=" M 33.00 0.00 L 165.00 0.00 C 165.00 113.34 164.99 226.68 165.01 340.02 C 178.47 340.03 191.92 340.05 205.38 340.01 C 205.41 286.36 205.42 232.70 205.38 179.05 C 219.25 179.01 233.12 179.05 246.99 179.02 C 247.01 157.35 246.99 135.67 247.00 114.00 C 389.33 114.00 531.67 114.00 674.00 114.00 C 674.00 157.67 674.00 201.33 674.00 245.00 C 531.67 245.00 389.33 245.00 247.00 245.00 C 246.99 223.66 247.01 202.32 246.99 180.98 C 233.78 180.99 220.56 180.91 207.35 181.02 C 207.38 234.15 207.35 287.28 207.36 340.42 C 220.57 340.63 233.78 340.48 246.99 340.50 C 247.01 319.00 246.99 297.50 247.00 276.00 C 389.33 276.00 531.67 276.00 674.00 276.00 C 674.00 319.67 674.00 363.33 674.00 407.00 C 531.67 407.00 389.33 407.00 247.00 407.00 C 246.98 385.49 247.03 363.98 246.97 342.47 C 233.78 342.52 220.59 342.45 207.39 342.50 C 207.32 395.55 207.38 448.59 207.36 501.64 C 220.57 501.64 233.77 501.62 246.98 501.65 C 247.02 480.10 246.98 458.55 247.00 437.00 C 389.33 437.00 531.67 437.00 674.00 437.00 C 674.12 459.76 673.72 482.57 674.30 505.30 C 673.62 526.51 674.19 547.77 674.00 569.00 C 531.67 569.00 389.33 569.00 247.00 569.00 C 246.99 547.20 247.01 525.41 246.99 503.61 C 233.13 503.58 219.26 503.60 205.40 503.61 C 205.39 450.00 205.42 396.40 205.38 342.80 C 191.92 342.77 178.47 342.78 165.01 342.80 C 164.98 456.20 165.01 569.60 165.00 683.00 L 33.00 683.00 C 33.00 455.33 33.00 227.67 33.00 0.00 M 35.02 2.02 C 34.98 228.34 34.98 454.66 35.02 680.98 C 77.67 681.02 120.33 681.02 162.98 680.98 C 163.02 454.66 163.02 228.34 162.98 2.02 C 120.33 1.98 77.67 1.98 35.02 2.02 M 249.02 116.02 C 248.98 158.34 248.98 200.66 249.02 242.98 C 390.01 243.02 531.00 243.02 671.98 242.98 C 672.02 200.66 672.02 158.34 671.98 116.02 C 530.99 115.98 390.01 115.98 249.02 116.02 M 249.02 278.02 C 248.98 320.34 248.98 362.66 249.02 404.98 C 390.00 405.02 530.99 405.02 671.98 404.98 C 672.02 362.66 672.02 320.34 671.98 278.02 C 531.00 277.98 390.01 277.98 249.02 278.02 M 249.02 439.02 C 248.98 481.67 248.98 524.33 249.02 566.98 C 390.01 567.02 531.00 567.02 671.98 566.98 C 672.02 524.33 672.02 481.67 671.99 439.02 C 531.00 438.98 390.01 438.98 249.02 439.02 Z" />
</g>
<g id="#ffffffff">
<path fill="#ffffff" opacity="1.00" d=" M 35.02 2.02 C 77.67 1.98 120.33 1.98 162.98 2.02 C 163.02 228.34 163.02 454.66 162.98 680.98 C 120.33 681.02 77.67 681.02 35.02 680.98 C 34.98 454.66 34.98 228.34 35.02 2.02 M 96.32 247.37 C 93.28 247.53 89.99 249.15 89.24 252.34 C 88.24 255.09 89.85 257.72 91.66 259.68 C 90.12 260.77 89.04 262.21 89.37 264.20 C 96.40 264.28 103.43 264.21 110.46 264.24 C 110.46 262.74 110.46 261.25 110.46 259.75 C 105.72 259.66 100.96 260.00 96.23 259.60 C 92.47 259.28 91.12 253.06 95.23 252.13 C 100.22 251.22 105.38 251.94 110.44 251.74 C 110.45 250.25 110.46 248.75 110.45 247.26 C 105.74 247.36 101.02 247.11 96.32 247.37 M 95.32 269.26 C 89.17 270.93 87.14 279.24 90.97 284.02 C 94.86 288.85 102.76 289.17 107.62 285.66 C 112.25 282.07 111.99 274.18 107.31 270.73 C 103.89 268.31 99.25 267.99 95.32 269.26 M 82.16 291.96 C 81.34 292.90 80.78 294.34 81.64 295.46 C 82.56 297.31 85.93 297.04 86.25 294.95 C 87.20 292.52 84.19 290.60 82.16 291.96 M 89.54 291.99 C 89.54 293.48 89.53 294.97 89.53 296.46 C 96.51 296.46 103.49 296.46 110.47 296.46 C 110.46 294.97 110.46 293.48 110.46 291.99 C 103.49 292.00 96.51 292.00 89.54 291.99 M 89.55 300.28 C 89.54 301.92 89.53 303.56 89.51 305.20 C 87.80 305.26 86.10 305.30 84.39 305.37 C 84.83 306.77 85.26 308.18 85.69 309.59 C 86.92 309.67 88.16 309.76 89.40 309.85 C 89.47 310.56 89.60 311.99 89.67 312.70 C 90.61 312.75 91.55 312.80 92.49 312.87 C 92.60 312.08 92.81 310.51 92.92 309.72 C 97.68 309.53 102.52 310.18 107.23 309.32 C 111.02 308.57 112.08 303.21 110.10 300.38 C 107.25 299.85 107.52 303.09 106.77 304.91 C 102.13 305.56 97.44 305.20 92.77 305.26 C 92.73 303.57 92.71 301.89 92.66 300.21 C 91.62 300.23 90.58 300.26 89.55 300.28 M 89.56 320.41 C 88.27 323.54 89.42 326.90 90.37 329.94 C 91.41 329.85 92.45 329.72 93.48 329.52 C 92.85 327.26 91.63 324.83 92.50 322.47 C 93.10 320.72 95.23 320.60 96.65 319.86 C 97.34 323.10 97.37 326.76 99.59 329.43 C 102.24 332.52 107.82 332.53 110.04 328.94 C 111.85 326.31 110.83 323.07 109.15 320.69 C 109.96 319.18 110.47 317.55 110.78 315.87 C 106.15 316.11 101.51 315.90 96.88 316.04 C 93.94 316.09 90.52 317.35 89.56 320.41 M 89.53 334.00 C 89.53 335.64 89.55 337.29 89.57 338.94 C 87.86 338.99 86.15 339.01 84.44 339.07 C 84.84 340.49 85.26 341.92 85.68 343.34 C 86.80 343.42 87.92 343.50 89.04 343.58 C 89.36 345.41 90.43 346.62 92.25 346.96 C 92.55 345.77 92.85 344.59 93.15 343.41 C 98.02 343.28 103.02 344.03 107.80 342.89 C 111.36 341.70 111.23 337.29 110.72 334.26 C 109.73 334.32 108.74 334.38 107.75 334.45 C 107.51 335.85 107.24 337.26 106.91 338.65 C 102.21 339.27 97.46 338.91 92.73 339.00 C 92.72 337.33 92.72 335.66 92.72 334.00 C 91.92 334.00 90.32 334.00 89.53 334.00 M 96.46 348.70 C 90.69 349.57 87.44 356.31 89.71 361.53 C 92.26 368.11 101.37 369.26 106.90 365.92 C 111.49 363.11 112.26 356.15 108.92 352.10 C 106.04 348.43 100.76 347.70 96.46 348.70 M 89.14 377.21 C 88.28 380.07 90.19 382.62 91.99 384.63 C 91.27 384.88 89.82 385.39 89.10 385.65 C 89.33 386.41 89.77 387.94 90.00 388.70 C 96.81 388.80 103.62 388.66 110.43 388.74 C 110.45 387.25 110.46 385.75 110.45 384.26 C 105.97 384.21 101.48 384.42 97.00 384.19 C 94.46 384.20 92.10 381.68 92.78 379.12 C 93.02 377.07 95.29 376.40 97.04 376.28 C 101.51 376.13 105.99 376.28 110.46 376.25 C 110.46 374.74 110.46 373.25 110.46 371.76 C 105.63 371.86 100.79 371.57 95.96 371.89 C 92.92 372.10 89.74 374.01 89.14 377.21 M 96.32 394.37 C 93.28 394.53 89.99 396.15 89.24 399.34 C 88.24 402.09 89.86 404.72 91.66 406.68 C 90.12 407.77 89.04 409.21 89.36 411.20 C 96.40 411.28 103.43 411.21 110.46 411.24 C 110.46 409.74 110.46 408.25 110.46 406.75 C 105.72 406.66 100.95 407.00 96.22 406.60 C 92.46 406.28 91.12 400.05 95.23 399.13 C 100.22 398.22 105.38 398.94 110.44 398.74 C 110.46 397.24 110.45 395.75 110.44 394.26 C 105.73 394.36 101.02 394.11 96.32 394.37 M 81.52 423.72 C 81.53 425.49 81.53 427.27 81.54 429.06 C 91.17 431.99 100.78 435.02 110.43 437.91 C 110.45 436.80 110.49 434.59 110.51 433.49 C 107.68 432.63 104.84 431.80 102.00 430.98 C 102.00 427.99 102.00 425.00 102.00 422.02 C 104.84 421.15 107.67 420.28 110.49 419.37 C 110.47 417.85 110.46 416.34 110.45 414.83 C 100.79 417.75 91.15 420.72 81.52 423.72 Z" />
<path fill="#ffffff" opacity="1.00" d=" M 249.02 116.02 C 390.01 115.98 530.99 115.98 671.98 116.02 C 672.02 158.34 672.02 200.66 671.98 242.98 C 531.00 243.02 390.01 243.02 249.02 242.98 C 248.98 200.66 248.98 158.34 249.02 116.02 M 373.03 162.24 C 372.96 171.16 373.02 180.08 373.00 189.01 C 373.74 189.00 375.22 189.00 375.96 189.00 C 376.04 188.33 376.19 187.00 376.26 186.34 C 378.95 189.42 383.95 189.98 386.80 186.79 C 390.22 182.42 390.34 174.90 385.91 171.17 C 383.07 168.89 379.42 170.37 376.73 172.09 C 376.72 168.82 376.72 165.55 376.73 162.29 C 375.49 162.27 374.26 162.26 373.03 162.24 M 455.03 162.24 C 454.98 165.47 455.00 168.71 455.00 171.95 C 452.16 169.55 447.79 169.29 445.20 172.21 C 441.65 176.73 441.64 184.81 446.77 188.18 C 449.81 190.11 453.27 188.34 455.68 186.25 C 455.64 186.94 455.56 188.31 455.53 189.00 C 456.33 189.00 457.93 189.00 458.73 189.00 C 458.71 180.09 458.72 171.19 458.73 162.29 C 457.49 162.27 456.26 162.26 455.03 162.24 M 289.64 165.60 C 283.81 170.37 283.53 180.11 288.30 185.70 C 292.52 189.97 299.08 189.26 304.41 187.96 C 304.50 183.64 304.46 179.32 304.46 175.00 C 301.82 175.00 299.18 175.00 296.54 175.00 C 296.54 175.74 296.53 177.22 296.53 177.96 C 297.95 177.99 299.38 178.02 300.81 178.06 C 300.77 180.65 300.76 183.24 300.69 185.84 C 297.49 186.13 293.69 186.29 291.41 183.57 C 288.10 179.37 288.03 172.65 291.54 168.55 C 294.62 165.59 299.20 165.94 303.00 166.98 C 303.26 165.95 303.53 164.91 303.81 163.88 C 299.12 162.58 293.66 162.50 289.64 165.60 M 592.16 163.03 C 589.33 164.21 591.22 168.56 593.87 167.21 C 596.75 166.30 594.72 162.09 592.16 163.03 M 550.24 166.52 C 550.02 167.62 549.82 168.72 549.65 169.83 C 548.99 169.96 547.68 170.23 547.02 170.36 C 547.08 170.89 547.22 171.94 547.28 172.46 C 547.91 172.63 549.18 172.98 549.81 173.15 C 549.88 177.37 549.39 181.65 550.09 185.82 C 550.83 189.34 556.89 190.52 558.11 186.78 C 556.70 186.15 555.05 186.01 553.84 185.03 C 553.04 181.01 553.63 176.88 553.46 172.82 C 554.88 172.75 556.30 172.70 557.74 172.65 C 557.76 172.01 557.80 170.74 557.82 170.10 C 556.35 170.04 554.89 169.99 553.44 169.94 C 553.45 168.49 553.46 167.05 553.47 165.61 C 552.66 165.84 551.05 166.29 550.24 166.52 M 580.25 166.51 C 580.02 167.61 579.82 168.72 579.65 169.83 C 578.99 169.96 577.67 170.23 577.01 170.37 C 577.08 170.89 577.22 171.94 577.29 172.46 C 577.92 172.64 579.18 172.98 579.81 173.15 C 579.88 177.37 579.39 181.65 580.09 185.82 C 580.82 188.92 584.45 189.41 587.09 188.82 C 589.30 186.15 585.41 186.18 583.84 185.06 C 583.05 181.03 583.62 176.89 583.46 172.82 C 584.88 172.75 586.30 172.70 587.73 172.65 C 587.75 172.01 587.80 170.74 587.82 170.10 C 586.35 170.04 584.89 169.99 583.44 169.94 C 583.45 168.49 583.46 167.05 583.47 165.62 C 582.67 165.84 581.05 166.29 580.25 166.51 M 308.38 182.79 C 309.22 187.04 313.77 189.50 317.87 188.96 C 320.05 188.69 323.47 188.64 322.25 185.47 C 319.51 185.67 316.44 186.74 313.92 185.17 C 312.35 184.27 312.11 182.29 311.38 180.81 C 315.47 180.64 319.58 180.84 323.67 180.57 C 323.61 176.25 322.20 170.33 316.91 170.02 C 310.29 169.35 306.72 177.23 308.38 182.79 M 327.60 169.65 C 327.46 176.10 327.57 182.55 327.54 189.00 C 328.46 189.00 330.31 189.00 331.24 189.00 C 331.32 184.74 331.02 180.46 331.38 176.21 C 331.78 172.64 337.59 171.62 338.47 175.45 C 339.13 179.92 338.60 184.49 338.76 189.00 C 339.69 189.00 341.54 189.00 342.46 189.00 C 342.17 183.80 343.18 178.41 341.75 173.34 C 340.00 169.19 334.60 169.31 331.51 171.84 C 330.81 170.21 329.14 169.97 327.60 169.65 M 350.78 188.05 C 353.94 189.68 357.54 188.81 360.82 188.08 C 360.66 187.42 360.34 186.12 360.19 185.47 C 357.65 185.74 354.90 186.59 352.49 185.35 C 350.64 184.61 350.40 182.37 349.64 180.79 C 353.71 180.66 357.80 180.80 361.88 180.63 C 361.89 176.21 360.41 170.18 354.98 170.00 C 345.82 169.42 342.99 184.26 350.78 188.05 M 393.70 171.04 C 393.77 171.75 393.92 173.16 394.00 173.86 C 396.36 173.31 399.15 171.81 401.36 173.61 C 401.93 174.78 402.42 176.00 402.82 177.24 C 399.62 177.83 395.74 177.73 393.47 180.47 C 390.98 183.15 392.54 188.22 396.23 188.79 C 398.44 189.49 400.51 188.16 402.41 187.20 C 402.92 189.10 404.69 189.09 406.33 189.23 C 405.84 184.03 407.04 178.59 405.45 173.55 C 403.39 168.91 397.62 169.88 393.70 171.04 M 414.39 170.42 C 411.44 171.21 409.51 174.88 411.11 177.65 C 412.76 179.93 415.64 180.65 417.77 182.36 C 417.88 183.44 417.91 184.51 417.88 185.60 C 415.55 186.62 413.15 186.02 410.88 185.22 C 410.58 186.15 410.30 187.08 410.02 188.02 C 412.99 188.82 416.28 189.56 419.15 187.98 C 422.31 186.39 422.62 181.26 419.63 179.33 C 417.75 178.03 415.68 177.04 413.77 175.78 C 414.21 174.84 414.70 173.93 415.26 173.05 C 416.89 172.30 418.64 173.21 420.30 173.40 C 420.52 172.77 420.96 171.51 421.18 170.88 C 418.96 170.38 416.63 169.54 414.39 170.42 M 428.78 188.05 C 431.94 189.68 435.54 188.81 438.82 188.08 C 438.66 187.43 438.35 186.12 438.19 185.47 C 435.65 185.74 432.90 186.59 430.49 185.35 C 428.64 184.61 428.40 182.37 427.64 180.79 C 431.71 180.66 435.80 180.80 439.88 180.63 C 439.89 176.21 438.41 170.18 432.98 170.00 C 423.82 169.43 420.99 184.26 428.78 188.05 M 471.70 171.04 C 471.77 171.75 471.92 173.16 472.00 173.86 C 474.36 173.31 477.15 171.81 479.36 173.61 C 479.93 174.78 480.42 175.99 480.82 177.24 C 477.62 177.83 473.74 177.73 471.47 180.47 C 468.98 183.15 470.54 188.21 474.23 188.79 C 476.44 189.49 478.51 188.16 480.41 187.20 C 480.92 189.10 482.69 189.10 484.33 189.23 C 484.10 184.82 484.44 180.40 484.09 176.01 C 483.91 173.74 482.61 171.45 480.43 170.60 C 477.61 169.30 474.54 170.53 471.70 171.04 M 489.34 169.68 C 489.20 176.12 489.31 182.56 489.27 188.99 C 490.51 188.99 491.75 189.00 493.00 189.01 C 493.10 184.72 492.78 180.42 493.16 176.15 C 493.57 172.89 498.80 171.57 500.04 174.99 C 501.13 179.55 500.27 184.35 500.53 189.00 C 501.46 189.00 503.31 189.00 504.23 189.00 C 504.16 184.65 504.40 180.29 504.13 175.95 C 503.99 173.39 502.40 170.73 499.77 170.17 C 497.42 169.43 495.23 170.77 493.22 171.79 C 492.28 170.48 490.92 169.82 489.34 169.68 M 509.34 169.68 C 509.20 176.12 509.31 182.56 509.27 188.99 C 510.51 188.99 511.75 189.00 513.00 189.01 C 513.10 184.72 512.78 180.42 513.16 176.15 C 513.58 172.88 518.81 171.57 520.04 175.00 C 521.13 179.55 520.27 184.35 520.53 189.00 C 521.46 189.00 523.31 189.00 524.23 189.00 C 524.16 184.65 524.40 180.30 524.13 175.96 C 524.00 173.40 522.40 170.73 519.77 170.17 C 517.42 169.43 515.23 170.77 513.23 171.79 C 512.27 170.49 510.92 169.82 509.34 169.68 M 533.50 170.65 C 527.91 172.84 527.04 180.55 529.70 185.29 C 532.56 190.46 541.18 189.94 543.61 184.65 C 545.16 181.23 545.14 177.01 543.31 173.71 C 541.40 170.37 536.95 169.23 533.50 170.65 M 561.51 171.01 C 561.59 171.73 561.75 173.19 561.83 173.91 C 564.01 173.33 566.41 172.02 568.62 173.24 C 569.89 174.18 569.93 175.93 570.44 177.30 C 567.13 177.83 562.95 177.81 560.86 180.91 C 558.75 183.78 560.65 188.37 564.19 188.85 C 566.32 189.40 568.28 188.13 570.14 187.28 C 570.85 188.92 572.54 189.02 574.09 189.27 C 573.90 185.15 574.12 181.03 573.94 176.92 C 573.87 174.43 572.77 171.78 570.39 170.69 C 567.56 169.27 564.41 170.50 561.51 171.01 M 591.27 170.01 C 591.28 176.33 591.28 182.66 591.27 188.99 C 592.50 188.99 593.75 189.00 595.00 189.01 C 595.00 182.67 595.00 176.33 595.00 169.99 C 593.75 170.00 592.50 170.00 591.27 170.01 M 604.45 170.59 C 598.66 172.65 597.69 180.61 600.52 185.40 C 603.10 189.84 609.99 189.98 613.28 186.30 C 616.00 182.84 616.12 177.72 614.16 173.88 C 612.37 170.49 607.91 169.23 604.45 170.59 M 619.77 169.83 C 619.76 176.22 619.76 182.61 619.76 189.00 C 620.69 189.00 622.54 189.00 623.47 189.00 C 623.65 184.56 623.05 180.05 623.78 175.67 C 624.56 172.50 629.85 171.87 630.67 175.33 C 631.39 179.84 630.82 184.45 631.00 189.01 C 632.24 189.00 633.48 188.99 634.73 189.00 C 634.38 183.69 635.57 178.14 633.85 173.02 C 631.80 168.96 626.39 169.48 623.41 172.16 C 623.34 169.90 621.56 169.80 619.77 169.83 Z" />
<path fill="#ffffff" opacity="1.00" d=" M 311.51 177.94 C 312.21 175.65 313.25 172.91 316.00 172.57 C 318.73 172.84 319.53 175.62 320.21 177.81 C 317.31 178.03 314.41 178.04 311.51 177.94 Z" />
<path fill="#ffffff" opacity="1.00" d=" M 349.71 177.90 C 350.47 175.60 351.82 172.11 354.89 172.79 C 357.44 173.17 357.77 175.91 358.26 177.95 C 355.41 178.02 352.56 178.02 349.71 177.90 Z" />
<path fill="#ffffff" opacity="1.00" d=" M 379.44 173.29 C 384.85 171.39 386.71 178.97 385.05 182.81 C 384.21 186.49 378.77 187.19 377.23 183.65 C 376.42 180.29 375.77 175.22 379.44 173.29 Z" />
<path fill="#ffffff" opacity="1.00" d=" M 427.71 177.90 C 428.47 175.60 429.82 172.11 432.89 172.79 C 435.44 173.17 435.77 175.91 436.26 177.95 C 433.41 178.02 430.56 178.02 427.71 177.90 Z" />
<path fill="#ffffff" opacity="1.00" d=" M 449.46 173.33 C 451.96 171.97 454.97 174.34 454.93 177.01 C 455.16 180.18 455.61 184.75 451.83 185.99 C 445.35 186.58 444.71 175.92 449.46 173.33 Z" />
<path fill="#ffffff" opacity="1.00" d=" M 534.47 173.40 C 537.19 171.42 540.61 174.26 540.78 177.18 C 541.63 180.60 540.51 186.34 536.06 186.21 C 530.93 184.73 530.67 176.40 534.47 173.40 Z" />
<path fill="#ffffff" opacity="1.00" d=" M 605.44 173.26 C 607.83 171.69 610.94 173.91 611.36 176.47 C 612.37 179.83 611.80 184.98 607.91 186.17 C 601.72 186.26 601.05 176.18 605.44 173.26 Z" />
<path fill="#ffffff" opacity="1.00" d=" M 396.00 183.88 C 395.67 180.37 400.11 180.05 402.65 179.86 C 402.38 181.69 402.97 184.04 401.30 185.36 C 399.70 186.86 396.00 186.60 396.00 183.88 Z" />
<path fill="#ffffff" opacity="1.00" d=" M 474.00 183.89 C 473.66 180.37 478.11 180.04 480.65 179.86 C 480.38 181.69 480.97 184.04 479.30 185.36 C 477.70 186.86 474.01 186.60 474.00 183.89 Z" />
<path fill="#ffffff" opacity="1.00" d=" M 563.75 183.05 C 564.28 180.09 568.04 180.23 570.35 179.80 C 570.28 182.02 570.62 185.39 567.79 186.03 C 565.78 187.03 563.15 185.37 563.75 183.05 Z" />
<path fill="#ffffff" opacity="1.00" d=" M 96.36 273.48 C 100.49 272.08 107.92 273.22 107.76 278.78 C 106.07 284.73 96.78 284.98 93.08 280.87 C 90.84 278.05 93.20 274.18 96.36 273.48 Z" />
<path fill="#ffffff" opacity="1.00" d=" M 249.02 278.02 C 390.01 277.98 531.00 277.98 671.98 278.02 C 672.02 320.34 672.02 362.66 671.98 404.98 C 530.99 405.02 390.00 405.02 249.02 404.98 C 248.98 362.66 248.98 320.34 249.02 278.02 M 311.54 296.00 C 311.53 306.00 311.53 316.00 311.54 326.00 C 313.03 325.99 314.52 325.99 316.01 326.00 C 316.46 321.20 314.49 315.58 318.25 311.73 C 321.06 316.41 323.76 321.15 326.38 325.94 C 328.09 325.98 329.80 325.99 331.52 326.00 C 328.22 320.23 324.80 314.52 321.45 308.78 C 324.64 304.53 327.86 300.29 330.97 295.97 C 329.14 296.10 327.19 295.67 325.47 296.37 C 322.21 300.83 319.12 305.42 316.01 309.99 C 315.98 305.32 316.00 300.66 316.01 296.00 C 314.51 296.00 313.03 296.00 311.54 296.00 M 408.54 295.53 C 408.54 305.69 408.53 315.84 408.54 326.00 C 410.02 325.99 411.51 325.99 413.00 326.00 C 413.00 315.85 412.99 305.69 413.01 295.54 C 411.51 295.53 410.02 295.53 408.54 295.53 M 451.77 296.00 C 451.76 299.67 451.71 303.34 451.87 307.01 C 449.55 305.88 447.00 304.33 444.33 305.23 C 435.89 307.55 435.12 321.44 442.64 325.30 C 446.00 327.06 449.66 325.39 452.15 322.98 C 452.28 323.74 452.53 325.25 452.65 326.01 C 453.55 326.00 455.35 326.00 456.24 326.00 C 456.23 316.00 456.24 306.00 456.24 296.00 C 454.74 296.00 453.25 296.00 451.77 296.00 M 513.00 296.00 C 513.01 306.00 512.99 316.00 513.00 326.00 C 514.21 326.00 515.43 326.00 516.66 326.01 C 516.70 325.24 516.78 323.70 516.83 322.93 C 518.98 324.87 521.73 326.72 524.79 325.84 C 533.44 323.87 534.45 310.10 527.26 305.79 C 523.88 303.94 520.02 305.50 517.35 307.84 C 517.53 303.89 517.46 299.94 517.46 296.00 C 515.96 296.00 514.48 296.00 513.00 296.00 M 605.54 296.00 C 605.54 299.81 605.47 303.63 605.64 307.45 C 603.36 305.60 600.30 304.17 597.40 305.43 C 589.96 308.31 589.27 320.01 595.23 324.68 C 598.68 327.18 603.21 325.83 605.95 322.96 C 606.05 323.72 606.24 325.24 606.34 326.00 C 607.55 326.00 608.77 326.00 610.00 326.00 C 610.00 316.00 609.99 306.00 610.01 296.00 C 608.51 296.00 607.02 296.00 605.54 296.00 M 333.76 305.00 C 333.77 312.00 333.76 319.00 333.76 326.00 C 335.25 325.99 336.74 325.99 338.24 326.00 C 338.32 321.40 338.06 316.80 338.33 312.21 C 338.85 308.21 345.48 307.21 346.47 311.46 C 347.15 316.26 346.59 321.16 346.76 326.00 C 348.25 325.99 349.74 325.99 351.23 326.00 C 351.15 321.32 351.42 316.63 351.11 311.96 C 350.99 308.59 348.47 305.25 344.95 305.03 C 342.12 304.54 339.81 306.47 337.74 308.08 C 337.64 307.31 337.43 305.76 337.33 304.99 C 336.44 305.00 334.65 305.00 333.76 305.00 M 363.33 305.19 C 354.91 306.23 352.70 318.30 358.44 323.59 C 362.63 327.60 370.51 326.33 373.13 321.12 C 375.08 317.24 374.99 312.18 372.39 308.63 C 370.39 305.82 366.67 304.51 363.33 305.19 M 376.33 305.01 C 378.28 312.06 380.36 319.08 382.33 326.13 C 383.65 325.97 385.06 326.13 386.33 325.64 C 388.10 320.48 389.61 315.23 390.83 309.91 C 391.96 315.35 393.61 320.66 395.14 326.00 C 396.46 326.00 397.78 326.00 399.11 326.00 C 401.20 319.00 403.34 312.01 405.44 305.01 C 403.99 305.00 402.56 305.00 401.12 305.00 C 399.77 310.68 398.17 316.31 397.22 322.09 C 396.00 316.33 394.32 310.69 392.75 305.02 C 391.56 305.01 390.38 305.00 389.20 305.00 C 387.59 310.50 386.07 316.04 384.52 321.57 C 383.39 316.03 382.07 310.54 380.87 305.02 C 379.35 305.00 377.84 305.00 376.33 305.01 M 421.51 306.53 C 415.83 310.58 415.77 320.45 421.51 324.46 C 425.22 326.80 429.80 326.01 433.80 324.98 C 433.68 324.23 433.44 322.72 433.32 321.97 C 430.39 322.24 427.18 323.24 424.42 321.76 C 422.26 320.84 421.94 318.30 421.11 316.40 C 425.79 316.08 430.47 316.32 435.16 316.18 C 434.84 313.18 434.84 309.75 432.58 307.45 C 429.81 304.39 424.80 304.28 421.51 306.53 M 465.52 325.34 C 468.70 327.02 472.09 325.25 474.78 323.50 C 474.47 326.10 474.53 329.67 471.64 330.85 C 468.81 332.39 465.64 331.10 462.83 330.25 C 462.57 331.42 462.30 332.58 462.05 333.76 C 466.08 335.03 470.70 335.79 474.57 333.59 C 478.00 331.82 478.85 327.62 478.96 324.10 C 479.08 317.73 478.96 311.36 479.00 304.99 C 477.78 304.99 476.57 305.00 475.37 305.00 C 475.27 305.69 475.08 307.06 474.98 307.74 C 472.94 305.79 470.10 304.29 467.22 305.24 C 458.70 307.58 457.82 321.49 465.52 325.34 M 488.00 306.08 C 481.53 309.70 481.26 320.49 487.41 324.55 C 491.10 326.81 495.57 325.96 499.53 325.03 C 499.41 324.20 499.16 322.54 499.04 321.72 C 496.21 322.32 493.06 323.26 490.32 321.82 C 488.05 320.97 487.69 318.32 486.86 316.36 C 491.53 316.12 496.21 316.32 500.88 316.17 C 500.59 313.44 500.62 310.43 498.89 308.13 C 496.50 304.74 491.49 304.13 488.00 306.08 M 535.84 306.70 C 536.12 307.24 536.66 308.33 536.93 308.88 C 540.46 308.36 545.67 306.91 546.86 311.67 C 543.44 312.36 539.58 312.32 536.76 314.67 C 533.57 317.39 533.79 323.31 537.73 325.26 C 540.71 326.99 544.14 325.47 546.62 323.59 C 546.38 326.49 548.90 326.07 550.93 326.09 C 550.19 320.43 551.55 314.57 550.07 309.04 C 547.58 303.59 540.33 304.61 535.84 306.70 M 559.41 305.49 C 556.28 306.36 553.75 310.29 555.66 313.31 C 557.38 316.17 561.10 316.53 563.38 318.74 C 564.51 320.16 563.36 322.39 561.65 322.64 C 559.45 323.06 557.28 322.21 555.14 321.82 C 555.01 322.61 554.74 324.21 554.61 325.01 C 557.50 325.65 560.58 326.59 563.50 325.46 C 567.12 324.69 569.26 320.07 567.18 316.91 C 565.25 314.31 561.86 313.61 559.25 311.92 C 559.28 311.18 559.33 309.72 559.36 308.99 C 561.67 307.92 564.16 308.39 566.56 308.91 C 566.70 308.17 566.98 306.69 567.12 305.95 C 564.61 305.34 561.92 304.42 559.41 305.49 M 576.04 305.94 C 569.23 309.38 568.90 320.67 575.34 324.65 C 579.03 326.79 583.39 325.93 587.31 325.01 C 587.21 324.26 587.01 322.76 586.92 322.01 C 583.79 322.26 580.35 323.30 577.48 321.54 C 575.60 320.46 575.36 318.13 574.74 316.28 C 579.36 316.19 583.97 316.28 588.59 316.20 C 588.37 313.49 588.39 310.55 586.74 308.25 C 584.47 304.84 579.54 304.14 576.04 305.94 M 503.70 355.30 C 504.94 357.11 506.84 355.52 508.39 355.11 C 508.13 353.58 508.03 350.96 505.91 351.01 C 503.72 350.62 501.92 353.75 503.70 355.30 M 456.60 356.18 C 456.58 357.33 456.58 358.49 456.59 359.65 C 455.34 359.97 454.10 360.30 452.87 360.65 C 453.34 362.48 454.91 363.20 456.57 363.73 C 456.73 368.40 455.95 373.23 457.12 377.80 C 458.29 381.37 462.73 381.23 465.76 380.72 C 465.67 379.71 465.60 378.72 465.53 377.72 C 464.13 377.52 462.74 377.31 461.37 377.07 C 460.74 372.48 461.07 367.85 461.00 363.24 C 462.66 363.23 464.33 363.23 466.00 363.23 C 466.00 362.42 466.00 360.81 466.00 360.00 C 464.33 359.99 462.67 360.00 461.01 360.00 C 460.99 358.30 460.99 356.60 460.98 354.91 C 459.52 355.33 458.05 355.75 456.60 356.18 M 490.38 356.17 C 490.32 357.39 490.27 358.62 490.23 359.85 C 489.44 359.95 487.87 360.15 487.08 360.26 C 487.12 360.89 487.20 362.17 487.24 362.80 C 488.26 363.06 489.29 363.31 490.33 363.57 C 490.42 368.11 489.83 372.73 490.68 377.23 C 491.54 381.34 496.70 381.57 499.92 380.37 C 499.79 377.53 497.01 377.44 494.93 376.70 C 494.58 372.22 494.76 367.73 494.73 363.24 C 496.38 363.24 498.04 363.23 499.71 363.24 C 499.72 362.43 499.72 360.81 499.73 360.00 C 498.05 360.00 496.39 359.99 494.72 359.99 C 494.71 358.30 494.72 356.61 494.72 354.93 C 493.27 355.34 491.82 355.76 490.38 356.17 M 368.78 363.96 C 371.36 363.74 373.97 362.87 376.57 363.40 C 378.09 363.83 378.57 365.50 379.39 366.67 C 375.87 367.40 371.75 367.28 369.00 369.97 C 365.93 372.79 366.49 378.73 370.51 380.38 C 373.41 381.94 376.59 380.36 379.11 378.84 C 379.33 379.39 379.76 380.50 379.97 381.05 C 380.83 381.04 382.55 381.01 383.41 381.00 C 382.90 375.71 383.68 370.37 382.93 365.12 C 382.10 361.19 377.64 359.46 374.01 360.08 C 371.74 360.44 368.06 360.68 368.78 363.96 M 388.53 360.00 C 388.55 367.00 388.52 374.00 388.54 381.00 C 390.02 380.99 391.51 380.99 393.00 381.00 C 393.08 376.38 392.82 371.75 393.11 367.14 C 393.70 363.07 400.53 362.29 401.27 366.69 C 401.89 371.42 401.37 376.23 401.54 381.00 C 403.02 380.99 404.51 380.99 406.00 381.00 C 405.84 376.01 406.35 370.98 405.71 366.02 C 405.36 363.04 402.97 360.35 399.92 360.06 C 397.01 359.45 394.59 361.44 392.43 363.06 C 392.35 362.29 392.19 360.76 392.11 359.99 C 391.21 359.99 389.42 360.00 388.53 360.00 M 411.00 360.00 C 410.99 367.00 411.01 374.00 411.00 381.00 C 412.48 380.99 413.97 380.99 415.46 381.00 C 415.54 376.46 415.30 371.92 415.55 367.39 C 415.89 363.35 422.59 362.11 423.67 366.34 C 424.40 371.17 423.82 376.12 423.99 381.00 C 425.48 380.99 426.96 380.99 428.46 381.00 C 428.34 376.01 428.76 371.00 428.22 366.03 C 427.87 362.88 425.20 360.14 421.98 360.00 C 419.25 359.62 417.01 361.49 415.01 363.05 C 414.91 362.28 414.71 360.76 414.61 360.00 C 413.40 359.99 412.20 359.99 411.00 360.00 M 439.40 360.49 C 432.83 362.11 430.92 370.70 433.81 376.15 C 436.07 380.76 442.34 382.25 446.70 379.79 C 451.97 377.01 452.95 369.57 450.32 364.65 C 448.30 360.85 443.43 359.07 439.40 360.49 M 469.76 363.96 C 472.35 363.74 474.96 362.87 477.57 363.40 C 479.09 363.83 479.57 365.50 480.39 366.67 C 476.87 367.40 472.75 367.29 469.99 369.97 C 466.93 372.80 467.49 378.73 471.52 380.38 C 474.27 381.87 477.34 380.48 479.78 379.03 C 480.71 380.85 482.47 381.24 484.38 381.20 C 484.04 376.14 484.46 371.06 484.11 366.01 C 483.79 362.03 479.70 359.63 475.99 359.99 C 473.49 360.37 469.16 360.27 469.76 363.96 M 503.28 360.00 C 503.27 367.00 503.27 374.00 503.28 381.00 C 504.75 381.00 506.23 381.00 507.72 381.00 C 507.72 374.00 507.72 367.00 507.72 360.00 C 506.23 359.99 504.75 359.99 503.28 360.00 M 518.46 360.61 C 512.30 362.48 510.55 370.59 513.18 375.88 C 515.28 380.59 521.57 382.30 525.99 379.89 C 531.34 377.32 532.46 369.91 529.99 364.96 C 528.02 360.78 522.68 358.97 518.46 360.61 M 535.53 360.00 C 535.55 367.00 535.52 374.00 535.54 381.00 C 537.02 380.99 538.51 380.99 540.00 381.00 C 540.08 376.38 539.82 371.75 540.11 367.14 C 540.70 363.07 547.53 362.29 548.27 366.69 C 548.89 371.42 548.36 376.23 548.54 381.00 C 550.02 380.99 551.51 380.99 553.00 381.00 C 552.84 376.01 553.35 370.98 552.71 366.02 C 552.36 363.04 549.97 360.35 546.92 360.06 C 544.00 359.45 541.59 361.44 539.43 363.05 C 539.35 362.29 539.18 360.76 539.10 359.99 C 538.21 359.99 536.42 360.00 535.53 360.00 Z" />
<path fill="#ffffff" opacity="1.00" d=" M 363.49 308.49 C 366.56 307.18 369.45 310.28 369.80 313.17 C 370.63 316.85 369.51 322.36 364.99 322.80 C 358.35 322.15 357.86 310.92 363.49 308.49 Z" />
<path fill="#ffffff" opacity="1.00" d=" M 421.22 312.87 C 422.13 310.47 423.90 307.59 426.93 308.22 C 429.58 308.06 430.38 310.88 431.26 312.80 C 427.92 313.07 424.56 313.06 421.22 312.87 Z" />
<path fill="#ffffff" opacity="1.00" d=" M 486.84 312.79 C 487.99 310.49 489.72 307.53 492.80 308.23 C 495.43 308.13 496.11 310.92 496.90 312.86 C 493.54 313.06 490.18 313.08 486.84 312.79 Z" />
<path fill="#ffffff" opacity="1.00" d=" M 574.65 312.84 C 575.69 310.67 577.08 307.82 579.99 308.20 C 582.80 307.86 584.00 310.68 584.61 312.89 C 581.28 313.05 577.96 313.05 574.65 312.84 Z" />
<path fill="#ffffff" opacity="1.00" d=" M 444.46 309.28 C 447.04 307.28 451.17 309.01 451.63 312.21 C 451.85 314.63 452.02 317.15 451.42 319.53 C 450.36 322.96 445.18 323.67 443.27 320.59 C 441.27 317.15 441.37 312.07 444.46 309.28 Z" />
<path fill="#ffffff" opacity="1.00" d=" M 467.42 309.21 C 470.04 307.19 474.17 309.21 474.46 312.43 C 474.54 315.54 475.30 319.46 472.55 321.71 C 470.17 323.53 466.50 322.26 465.48 319.54 C 464.15 316.16 464.31 311.57 467.42 309.21 Z" />
<path fill="#ffffff" opacity="1.00" d=" M 519.50 309.37 C 522.17 307.25 526.31 308.96 527.06 312.20 C 528.12 315.64 527.74 320.84 523.86 322.32 C 520.85 323.52 517.45 320.89 517.48 317.76 C 517.40 314.92 516.96 311.36 519.50 309.37 Z" />
<path fill="#ffffff" opacity="1.00" d=" M 598.40 309.20 C 601.02 307.21 605.11 309.25 605.42 312.44 C 605.58 314.92 605.91 317.59 604.97 319.97 C 603.71 322.97 599.12 323.50 597.22 320.83 C 594.94 317.40 595.01 311.90 598.40 309.20 Z" />
<path fill="#ffffff" opacity="1.00" d=" M 539.02 319.88 C 538.42 315.67 543.54 314.99 546.60 314.84 C 546.39 317.19 547.11 320.27 544.84 321.86 C 542.98 323.65 538.83 322.90 539.02 319.88 Z" />
<path fill="#ffffff" opacity="1.00" d=" M 99.83 320.19 C 102.40 320.33 106.21 319.61 107.39 322.65 C 108.83 324.92 106.67 327.92 104.04 327.28 C 100.42 327.16 100.14 322.90 99.83 320.19 Z" />
<path fill="#ffffff" opacity="1.00" d=" M 96.30 353.26 C 100.38 351.85 107.19 352.81 107.82 358.00 C 106.77 364.36 97.09 364.83 93.24 360.78 C 90.78 358.07 93.08 353.95 96.30 353.26 Z" />
<path fill="#ffffff" opacity="1.00" d=" M 440.51 363.56 C 445.81 361.62 448.37 368.89 447.01 372.95 C 446.74 376.50 442.22 379.42 439.28 376.69 C 435.87 373.32 435.96 365.91 440.51 363.56 Z" />
<path fill="#ffffff" opacity="1.00" d=" M 520.46 363.39 C 523.95 362.25 526.59 365.99 526.71 369.10 C 527.34 372.73 525.61 378.06 521.14 377.76 C 514.96 376.33 514.77 365.58 520.46 363.39 Z" />
<path fill="#ffffff" opacity="1.00" d=" M 371.47 374.94 C 370.91 370.77 375.98 369.96 379.05 369.84 C 378.79 372.09 379.61 375.00 377.61 376.66 C 375.78 378.62 371.50 378.09 371.47 374.94 Z" />
<path fill="#ffffff" opacity="1.00" d=" M 472.47 374.94 C 471.91 370.77 476.98 369.96 480.05 369.84 C 479.79 372.09 480.61 375.00 478.61 376.66 C 476.79 378.62 472.49 378.09 472.47 374.94 Z" />
<path fill="#ffffff" opacity="1.00" d=" M 85.49 426.55 C 89.84 425.30 94.19 424.07 98.53 422.79 C 98.53 425.27 98.54 427.76 98.54 430.25 C 94.22 428.90 89.88 427.64 85.49 426.55 Z" />
<path fill="#ffffff" opacity="1.00" d=" M 249.02 439.02 C 390.01 438.98 531.00 438.98 671.99 439.02 C 672.02 481.67 672.02 524.33 671.98 566.98 C 531.00 567.02 390.01 567.02 249.02 566.98 C 248.98 524.33 248.98 481.67 249.02 439.02 M 274.27 485.01 C 274.29 495.00 274.27 505.00 274.28 515.00 C 275.76 515.00 277.24 515.00 278.72 515.00 C 278.72 510.66 278.72 506.33 278.73 502.00 C 282.07 502.00 285.41 502.01 288.76 501.97 C 288.74 500.73 288.72 499.50 288.71 498.27 C 285.39 498.28 282.06 498.28 278.73 498.26 C 278.72 495.08 278.72 491.91 278.73 488.73 C 282.34 488.72 285.95 488.76 289.56 488.65 C 289.52 487.73 289.44 485.90 289.41 484.98 C 284.36 485.02 279.31 484.98 274.27 485.01 M 370.70 489.30 C 371.94 491.11 373.84 489.52 375.39 489.11 C 375.13 487.58 375.03 484.96 372.90 485.01 C 370.71 484.63 368.92 487.75 370.70 489.30 M 444.99 484.54 C 445.00 494.69 445.00 504.85 445.00 515.00 C 446.48 514.99 447.97 514.99 449.46 515.00 C 449.47 504.84 449.46 494.69 449.46 484.53 C 447.97 484.53 446.48 484.53 444.99 484.54 M 597.61 489.12 C 599.15 489.52 601.04 491.08 602.32 489.31 C 604.01 487.75 602.35 484.57 600.11 485.01 C 598.02 485.00 597.82 487.56 597.61 489.12 M 357.38 490.17 C 357.32 491.39 357.27 492.62 357.23 493.85 C 356.44 493.95 354.87 494.15 354.08 494.25 C 354.12 494.89 354.20 496.17 354.24 496.80 C 355.26 497.05 356.29 497.31 357.33 497.57 C 357.42 502.11 356.83 506.74 357.69 511.23 C 358.55 515.34 363.70 515.57 366.92 514.37 C 366.79 511.52 364.01 511.44 361.93 510.70 C 361.58 506.22 361.76 501.73 361.73 497.24 C 363.38 497.23 365.04 497.23 366.71 497.24 C 366.71 496.43 366.73 494.82 366.73 494.01 C 365.06 494.00 363.39 493.99 361.72 493.99 C 361.72 492.29 361.72 490.61 361.72 488.93 C 360.27 489.34 358.83 489.76 357.38 490.17 M 551.07 490.18 C 551.03 491.43 551.00 492.69 550.98 493.95 C 550.23 493.98 548.73 494.02 547.98 494.04 C 547.99 494.81 547.99 496.36 547.99 497.13 C 548.74 497.18 550.25 497.28 551.00 497.33 C 551.22 502.07 550.44 506.94 551.54 511.60 C 552.58 515.33 557.14 515.18 560.22 514.82 C 560.18 514.04 560.10 512.47 560.07 511.68 C 558.65 511.50 557.25 511.31 555.85 511.08 C 555.17 506.50 555.56 501.86 555.44 497.26 C 557.10 497.24 558.77 497.23 560.45 497.23 C 560.45 496.43 560.46 494.82 560.46 494.01 C 558.78 493.99 557.11 493.99 555.44 493.97 C 555.45 492.29 555.45 490.61 555.46 488.94 C 553.99 489.34 552.53 489.76 551.07 490.18 M 585.07 490.18 C 585.03 491.43 585.00 492.69 584.98 493.95 C 584.23 493.98 582.73 494.02 581.98 494.04 C 581.99 494.81 581.99 496.36 581.99 497.13 C 582.74 497.18 584.25 497.28 585.00 497.32 C 585.22 502.07 584.44 506.94 585.54 511.61 C 586.59 515.34 591.14 515.18 594.22 514.82 C 594.18 514.04 594.10 512.47 594.07 511.68 C 592.65 511.50 591.25 511.31 589.85 511.08 C 589.17 506.50 589.56 501.86 589.44 497.26 C 591.10 497.24 592.77 497.23 594.45 497.23 C 594.45 496.43 594.46 494.82 594.46 494.01 C 592.78 493.99 591.11 493.99 589.44 493.97 C 589.45 492.29 589.45 490.61 589.46 488.94 C 587.99 489.34 586.53 489.76 585.07 490.18 M 293.77 494.00 C 293.90 498.96 293.45 503.95 294.01 508.89 C 294.27 512.04 296.88 514.85 300.10 515.01 C 302.80 515.35 305.01 513.54 306.97 511.95 C 307.07 512.72 307.29 514.24 307.40 515.00 C 308.60 515.00 309.80 514.99 311.01 515.00 C 310.99 508.00 311.00 501.00 311.00 494.00 C 309.51 493.99 308.02 494.00 306.54 494.00 C 306.36 498.77 306.89 503.59 306.29 508.33 C 305.37 511.96 299.38 512.50 298.54 508.54 C 297.86 503.73 298.40 498.84 298.24 494.00 C 296.74 494.00 295.25 493.99 293.77 494.00 M 316.27 494.01 C 316.29 501.00 316.27 508.00 316.28 515.00 C 317.76 515.00 319.24 515.00 320.72 515.00 C 320.82 510.36 320.52 505.72 320.85 501.10 C 321.46 497.30 327.78 496.22 328.87 500.23 C 329.76 505.08 329.06 510.08 329.28 515.00 C 330.75 515.00 332.24 515.00 333.72 515.00 C 333.65 510.44 333.88 505.87 333.63 501.32 C 333.51 498.31 331.87 495.08 328.75 494.31 C 325.53 493.06 322.52 495.20 320.07 497.04 C 320.03 496.28 319.97 494.75 319.93 493.99 C 318.71 493.99 317.49 494.00 316.27 494.01 M 343.12 495.18 C 336.36 498.34 335.52 509.16 341.66 513.35 C 344.90 515.62 349.04 515.06 352.67 514.26 C 352.61 513.21 352.55 512.16 352.50 511.12 C 350.39 511.21 348.17 511.94 346.12 511.20 C 340.46 509.30 340.59 499.78 346.11 497.80 C 348.05 497.00 350.17 497.76 352.16 497.97 C 352.43 496.90 352.71 495.83 352.99 494.78 C 349.75 493.89 346.19 493.54 343.12 495.18 M 370.28 494.00 C 370.27 501.00 370.27 508.00 370.28 515.00 C 371.75 515.00 373.24 515.00 374.72 515.00 C 374.72 508.00 374.72 501.00 374.72 494.00 C 373.24 493.99 371.75 493.99 370.28 494.00 M 385.46 494.61 C 379.30 496.48 377.56 504.58 380.18 509.88 C 382.27 514.59 388.56 516.30 392.99 513.89 C 398.34 511.32 399.46 503.92 396.99 498.97 C 395.03 494.78 389.68 492.97 385.46 494.61 M 402.53 494.00 C 402.55 501.00 402.52 508.00 402.54 515.00 C 404.02 514.99 405.51 514.99 407.00 515.00 C 407.08 510.38 406.82 505.75 407.11 501.14 C 407.70 497.07 414.53 496.29 415.28 500.69 C 415.89 505.42 415.37 510.23 415.54 515.00 C 417.02 514.99 418.51 514.99 420.00 515.00 C 419.84 510.01 420.35 504.98 419.71 500.02 C 419.36 497.04 416.97 494.35 413.92 494.06 C 411.01 493.45 408.60 495.44 406.43 497.05 C 406.35 496.29 406.18 494.76 406.10 493.99 C 405.21 493.99 403.42 494.00 402.53 494.00 M 424.85 495.70 C 425.12 496.24 425.66 497.33 425.93 497.88 C 429.46 497.36 434.67 495.91 435.86 500.67 C 432.44 501.36 428.58 501.32 425.76 503.67 C 422.57 506.39 422.79 512.31 426.73 514.26 C 429.70 515.99 433.13 514.47 435.62 512.60 C 435.39 515.48 437.90 515.07 439.93 515.09 C 439.19 509.43 440.55 503.57 439.07 498.04 C 436.58 492.59 429.33 493.62 424.85 495.70 M 463.81 498.10 C 466.11 497.68 468.43 496.98 470.79 497.29 C 472.58 497.49 473.28 499.34 474.30 500.57 C 470.59 501.45 466.13 501.25 463.39 504.33 C 460.59 507.37 461.51 513.10 465.57 514.52 C 468.39 515.83 471.36 514.32 473.76 512.84 C 474.00 513.40 474.50 514.54 474.75 515.11 C 475.61 515.07 477.34 515.00 478.20 514.96 C 477.64 509.71 478.47 504.38 477.68 499.17 C 476.85 494.92 471.88 493.33 468.09 494.17 C 465.96 494.60 462.26 495.00 463.81 498.10 M 483.27 494.01 C 483.29 501.00 483.27 508.00 483.28 515.00 C 484.75 515.00 486.23 515.00 487.72 515.00 C 487.81 510.36 487.52 505.72 487.85 501.10 C 488.46 497.30 494.78 496.22 495.88 500.23 C 496.76 505.08 496.06 510.08 496.28 515.00 C 497.75 515.00 499.23 515.00 500.72 515.00 C 500.65 510.44 500.88 505.87 500.63 501.32 C 500.51 498.31 498.87 495.09 495.76 494.31 C 492.53 493.06 489.52 495.19 487.07 497.04 C 487.03 496.28 486.97 494.75 486.93 493.99 C 485.71 493.99 484.48 494.00 483.27 494.01 M 505.76 494.00 C 505.77 501.00 505.76 508.00 505.76 515.00 C 507.25 514.99 508.74 514.99 510.24 515.00 C 510.32 510.40 510.06 505.80 510.33 501.21 C 510.84 497.22 517.47 496.21 518.47 500.45 C 519.15 505.25 518.59 510.15 518.76 515.00 C 520.25 514.99 521.74 514.99 523.23 515.00 C 523.15 510.32 523.42 505.63 523.11 500.96 C 522.99 497.59 520.47 494.25 516.95 494.03 C 514.12 493.53 511.80 495.47 509.74 497.08 C 509.64 496.31 509.43 494.76 509.33 493.99 C 508.44 493.99 506.65 494.00 505.76 494.00 M 533.46 494.61 C 527.30 496.48 525.55 504.58 528.18 509.88 C 530.27 514.59 536.56 516.30 540.99 513.89 C 546.34 511.32 547.46 503.92 544.99 498.96 C 543.03 494.79 537.68 492.97 533.46 494.61 M 564.82 498.11 C 567.11 497.68 569.42 496.98 571.79 497.29 C 573.58 497.49 574.28 499.34 575.29 500.57 C 571.59 501.45 567.13 501.25 564.39 504.33 C 561.59 507.36 562.51 513.10 566.57 514.52 C 569.39 515.83 572.36 514.33 574.75 512.83 C 575.00 513.40 575.50 514.54 575.75 515.11 C 576.61 515.07 578.34 515.00 579.20 514.96 C 578.64 509.71 579.47 504.38 578.68 499.17 C 577.86 494.97 572.97 493.35 569.20 494.15 C 567.03 494.60 563.24 494.94 564.82 498.11 M 598.00 494.00 C 598.00 501.00 598.00 508.00 598.00 515.00 C 599.48 514.99 600.96 514.99 602.46 515.00 C 602.47 508.00 602.47 501.00 602.46 494.00 C 600.96 494.00 599.48 493.99 598.00 494.00 M 613.40 494.55 C 607.08 496.30 605.24 504.60 607.97 509.95 C 610.10 514.69 616.48 516.27 620.89 513.83 C 626.25 511.05 627.27 503.47 624.50 498.52 C 622.42 494.70 617.42 493.06 613.40 494.55 M 630.00 494.00 C 629.99 501.00 630.00 508.00 630.00 515.00 C 631.48 514.99 632.96 514.99 634.46 515.00 C 634.54 510.46 634.30 505.92 634.55 501.39 C 634.89 497.35 641.59 496.11 642.67 500.34 C 643.40 505.17 642.82 510.12 642.99 515.00 C 644.47 514.99 645.96 514.99 647.46 515.00 C 647.34 510.01 647.76 504.99 647.22 500.03 C 646.87 496.88 644.20 494.14 640.99 494.00 C 638.25 493.62 636.01 495.49 634.01 497.05 C 633.91 496.28 633.71 494.76 633.61 494.00 C 632.40 493.99 631.20 493.99 630.00 494.00 Z" />
<path fill="#ffffff" opacity="1.00" d=" M 387.45 497.40 C 390.95 496.24 393.59 499.99 393.71 503.10 C 394.34 506.73 392.61 512.05 388.15 511.76 C 381.96 510.34 381.77 499.59 387.45 497.40 Z" />
<path fill="#ffffff" opacity="1.00" d=" M 535.46 497.39 C 538.95 496.25 541.59 499.99 541.71 503.10 C 542.34 506.73 540.61 512.05 536.15 511.76 C 529.96 510.34 529.77 499.58 535.46 497.39 Z" />
<path fill="#ffffff" opacity="1.00" d=" M 615.35 497.35 C 620.86 496.28 622.64 503.82 621.03 507.84 C 620.35 511.46 615.31 513.22 612.92 510.13 C 610.16 506.40 610.38 499.07 615.35 497.35 Z" />
<path fill="#ffffff" opacity="1.00" d=" M 428.02 508.88 C 427.42 504.67 432.54 503.99 435.60 503.84 C 435.39 506.19 436.12 509.27 433.84 510.86 C 431.98 512.65 427.84 511.90 428.02 508.88 Z" />
<path fill="#ffffff" opacity="1.00" d=" M 466.24 508.86 C 465.71 504.71 470.77 503.98 473.81 503.84 C 473.57 506.04 474.36 508.83 472.49 510.52 C 470.72 512.66 466.13 512.13 466.24 508.86 Z" />
<path fill="#ffffff" opacity="1.00" d=" M 567.24 508.86 C 566.70 504.71 571.77 503.98 574.81 503.84 C 574.57 506.05 575.36 508.83 573.49 510.53 C 571.72 512.66 567.13 512.13 567.24 508.86 Z" />
</g>
<g id="#010101ff">
<path fill="#010101" opacity="1.00" d=" M 373.03 162.24 C 374.26 162.26 375.49 162.27 376.73 162.29 C 376.72 165.55 376.72 168.82 376.73 172.09 C 379.42 170.37 383.07 168.89 385.91 171.17 C 390.34 174.90 390.22 182.42 386.80 186.79 C 383.95 189.98 378.95 189.42 376.26 186.34 C 376.19 187.00 376.04 188.33 375.96 189.00 C 375.22 189.00 373.74 189.00 373.00 189.01 C 373.02 180.08 372.96 171.16 373.03 162.24 M 379.44 173.29 C 375.77 175.22 376.42 180.29 377.23 183.65 C 378.77 187.19 384.21 186.49 385.05 182.81 C 386.71 178.97 384.85 171.39 379.44 173.29 Z" />
<path fill="#010101" opacity="1.00" d=" M 455.03 162.24 C 456.26 162.26 457.49 162.27 458.73 162.29 C 458.72 171.19 458.71 180.09 458.73 189.00 C 457.93 189.00 456.33 189.00 455.53 189.00 C 455.56 188.31 455.64 186.94 455.68 186.25 C 453.27 188.34 449.81 190.11 446.77 188.18 C 441.64 184.81 441.65 176.73 445.20 172.21 C 447.79 169.29 452.16 169.55 455.00 171.95 C 455.00 168.71 454.98 165.47 455.03 162.24 M 449.46 173.33 C 444.71 175.92 445.35 186.58 451.83 185.99 C 455.61 184.75 455.16 180.18 454.93 177.01 C 454.97 174.34 451.96 171.97 449.46 173.33 Z" />
<path fill="#010101" opacity="1.00" d=" M 289.64 165.60 C 293.66 162.50 299.12 162.58 303.81 163.88 C 303.53 164.91 303.26 165.95 303.00 166.98 C 299.20 165.94 294.62 165.59 291.54 168.55 C 288.03 172.65 288.10 179.37 291.41 183.57 C 293.69 186.29 297.49 186.13 300.69 185.84 C 300.76 183.24 300.77 180.65 300.81 178.06 C 299.38 178.02 297.95 177.99 296.53 177.96 C 296.53 177.22 296.54 175.74 296.54 175.00 C 299.18 175.00 301.82 175.00 304.46 175.00 C 304.46 179.32 304.50 183.64 304.41 187.96 C 299.08 189.26 292.52 189.97 288.30 185.70 C 283.53 180.11 283.81 170.37 289.64 165.60 Z" />
<path fill="#010101" opacity="1.00" d=" M 592.16 163.03 C 594.72 162.09 596.75 166.30 593.87 167.21 C 591.22 168.56 589.33 164.21 592.16 163.03 Z" />
<path fill="#010101" opacity="1.00" d=" M 550.24 166.52 C 551.05 166.29 552.66 165.84 553.47 165.61 C 553.46 167.05 553.45 168.49 553.44 169.94 C 554.89 169.99 556.35 170.04 557.82 170.10 C 557.80 170.74 557.76 172.01 557.74 172.65 C 556.30 172.70 554.88 172.75 553.46 172.82 C 553.63 176.88 553.04 181.01 553.84 185.03 C 555.05 186.01 556.70 186.15 558.11 186.78 C 556.89 190.52 550.83 189.34 550.09 185.82 C 549.39 181.65 549.88 177.37 549.81 173.15 C 549.18 172.98 547.91 172.63 547.28 172.46 C 547.22 171.94 547.08 170.89 547.02 170.36 C 547.68 170.23 548.99 169.96 549.65 169.83 C 549.82 168.72 550.02 167.62 550.24 166.52 Z" />
<path fill="#010101" opacity="1.00" d=" M 580.25 166.51 C 581.05 166.29 582.67 165.84 583.47 165.62 C 583.46 167.05 583.45 168.49 583.44 169.94 C 584.89 169.99 586.35 170.04 587.82 170.10 C 587.80 170.74 587.75 172.01 587.73 172.65 C 586.30 172.70 584.88 172.75 583.46 172.82 C 583.62 176.89 583.05 181.03 583.84 185.06 C 585.41 186.18 589.30 186.15 587.09 188.82 C 584.45 189.41 580.82 188.92 580.09 185.82 C 579.39 181.65 579.88 177.37 579.81 173.15 C 579.18 172.98 577.92 172.64 577.29 172.46 C 577.22 171.94 577.08 170.89 577.01 170.37 C 577.67 170.23 578.99 169.96 579.65 169.83 C 579.82 168.72 580.02 167.61 580.25 166.51 Z" />
<path fill="#010101" opacity="1.00" d=" M 308.38 182.79 C 306.72 177.23 310.29 169.35 316.91 170.02 C 322.20 170.33 323.61 176.25 323.67 180.57 C 319.58 180.84 315.47 180.64 311.38 180.81 C 312.11 182.29 312.35 184.27 313.92 185.17 C 316.44 186.74 319.51 185.67 322.25 185.47 C 323.47 188.64 320.05 188.69 317.87 188.96 C 313.77 189.50 309.22 187.04 308.38 182.79 M 311.51 177.94 C 314.41 178.04 317.31 178.03 320.21 177.81 C 319.53 175.62 318.73 172.84 316.00 172.57 C 313.25 172.91 312.21 175.65 311.51 177.94 Z" />
<path fill="#010101" opacity="1.00" d=" M 327.60 169.65 C 329.14 169.97 330.81 170.21 331.51 171.84 C 334.60 169.31 340.00 169.19 341.75 173.34 C 343.18 178.41 342.17 183.80 342.46 189.00 C 341.54 189.00 339.69 189.00 338.76 189.00 C 338.60 184.49 339.13 179.92 338.47 175.45 C 337.59 171.62 331.78 172.64 331.38 176.21 C 331.02 180.46 331.32 184.74 331.24 189.00 C 330.31 189.00 328.46 189.00 327.54 189.00 C 327.57 182.55 327.46 176.10 327.60 169.65 Z" />
<path fill="#010101" opacity="1.00" d=" M 350.78 188.05 C 342.99 184.26 345.82 169.42 354.98 170.00 C 360.41 170.18 361.89 176.21 361.88 180.63 C 357.80 180.80 353.71 180.66 349.64 180.79 C 350.40 182.37 350.64 184.61 352.49 185.35 C 354.90 186.59 357.65 185.74 360.19 185.47 C 360.34 186.12 360.66 187.42 360.82 188.08 C 357.54 188.81 353.94 189.68 350.78 188.05 M 349.71 177.90 C 352.56 178.02 355.41 178.02 358.26 177.95 C 357.77 175.91 357.44 173.17 354.89 172.79 C 351.82 172.11 350.47 175.60 349.71 177.90 Z" />
<path fill="#010101" opacity="1.00" d=" M 393.70 171.04 C 397.62 169.88 403.39 168.91 405.45 173.55 C 407.04 178.59 405.84 184.03 406.33 189.23 C 404.69 189.09 402.92 189.10 402.41 187.20 C 400.51 188.16 398.44 189.49 396.23 188.79 C 392.54 188.22 390.98 183.15 393.47 180.47 C 395.74 177.73 399.62 177.83 402.82 177.24 C 402.42 176.00 401.93 174.78 401.36 173.61 C 399.15 171.81 396.36 173.31 394.00 173.86 C 393.92 173.16 393.77 171.75 393.70 171.04 M 396.00 183.88 C 396.00 186.60 399.70 186.86 401.30 185.36 C 402.97 184.04 402.38 181.69 402.65 179.86 C 400.11 180.05 395.67 180.37 396.00 183.88 Z" />
<path fill="#010101" opacity="1.00" d=" M 414.39 170.42 C 416.63 169.54 418.96 170.38 421.18 170.88 C 420.96 171.51 420.52 172.77 420.30 173.40 C 418.64 173.21 416.89 172.30 415.26 173.05 C 414.70 173.93 414.21 174.84 413.77 175.78 C 415.68 177.04 417.75 178.03 419.63 179.33 C 422.62 181.26 422.31 186.39 419.15 187.98 C 416.28 189.56 412.99 188.82 410.02 188.02 C 410.30 187.08 410.58 186.15 410.88 185.22 C 413.15 186.02 415.55 186.62 417.88 185.60 C 417.91 184.51 417.88 183.44 417.77 182.36 C 415.64 180.65 412.76 179.93 411.11 177.65 C 409.51 174.88 411.44 171.21 414.39 170.42 Z" />
<path fill="#010101" opacity="1.00" d=" M 428.78 188.05 C 420.99 184.26 423.82 169.43 432.98 170.00 C 438.41 170.18 439.89 176.21 439.88 180.63 C 435.80 180.80 431.71 180.66 427.64 180.79 C 428.40 182.37 428.64 184.61 430.49 185.35 C 432.90 186.59 435.65 185.74 438.19 185.47 C 438.35 186.12 438.66 187.43 438.82 188.08 C 435.54 188.81 431.94 189.68 428.78 188.05 M 427.71 177.90 C 430.56 178.02 433.41 178.02 436.26 177.95 C 435.77 175.91 435.44 173.17 432.89 172.79 C 429.82 172.11 428.47 175.60 427.71 177.90 Z" />
<path fill="#010101" opacity="1.00" d=" M 471.70 171.04 C 474.54 170.53 477.61 169.30 480.43 170.60 C 482.61 171.45 483.91 173.74 484.09 176.01 C 484.44 180.40 484.10 184.82 484.33 189.23 C 482.69 189.10 480.92 189.10 480.41 187.20 C 478.51 188.16 476.44 189.49 474.23 188.79 C 470.54 188.21 468.98 183.15 471.47 180.47 C 473.74 177.73 477.62 177.83 480.82 177.24 C 480.42 175.99 479.93 174.78 479.36 173.61 C 477.15 171.81 474.36 173.31 472.00 173.86 C 471.92 173.16 471.77 171.75 471.70 171.04 M 474.00 183.89 C 474.01 186.60 477.70 186.86 479.30 185.36 C 480.97 184.04 480.38 181.69 480.65 179.86 C 478.11 180.04 473.66 180.37 474.00 183.89 Z" />
<path fill="#010101" opacity="1.00" d=" M 489.34 169.68 C 490.92 169.82 492.28 170.48 493.22 171.79 C 495.23 170.77 497.42 169.43 499.77 170.17 C 502.40 170.73 503.99 173.39 504.13 175.95 C 504.40 180.29 504.16 184.65 504.23 189.00 C 503.31 189.00 501.46 189.00 500.53 189.00 C 500.27 184.35 501.13 179.55 500.04 174.99 C 498.80 171.57 493.57 172.89 493.16 176.15 C 492.78 180.42 493.10 184.72 493.00 189.01 C 491.75 189.00 490.51 188.99 489.27 188.99 C 489.31 182.56 489.20 176.12 489.34 169.68 Z" />
<path fill="#010101" opacity="1.00" d=" M 509.34 169.68 C 510.92 169.82 512.27 170.49 513.23 171.79 C 515.23 170.77 517.42 169.43 519.77 170.17 C 522.40 170.73 524.00 173.40 524.13 175.96 C 524.40 180.30 524.16 184.65 524.23 189.00 C 523.31 189.00 521.46 189.00 520.53 189.00 C 520.27 184.35 521.13 179.55 520.04 175.00 C 518.81 171.57 513.58 172.88 513.16 176.15 C 512.78 180.42 513.10 184.72 513.00 189.01 C 511.75 189.00 510.51 188.99 509.27 188.99 C 509.31 182.56 509.20 176.12 509.34 169.68 Z" />
<path fill="#010101" opacity="1.00" d=" M 533.50 170.65 C 536.95 169.23 541.40 170.37 543.31 173.71 C 545.14 177.01 545.16 181.23 543.61 184.65 C 541.18 189.94 532.56 190.46 529.70 185.29 C 527.04 180.55 527.91 172.84 533.50 170.65 M 534.47 173.40 C 530.67 176.40 530.93 184.73 536.06 186.21 C 540.51 186.34 541.63 180.60 540.78 177.18 C 540.61 174.26 537.19 171.42 534.47 173.40 Z" />
<path fill="#010101" opacity="1.00" d=" M 561.51 171.01 C 564.41 170.50 567.56 169.27 570.39 170.69 C 572.77 171.78 573.87 174.43 573.94 176.92 C 574.12 181.03 573.90 185.15 574.09 189.27 C 572.54 189.02 570.85 188.92 570.14 187.28 C 568.28 188.13 566.32 189.40 564.19 188.85 C 560.65 188.37 558.75 183.78 560.86 180.91 C 562.95 177.81 567.13 177.83 570.44 177.30 C 569.93 175.93 569.89 174.18 568.62 173.24 C 566.41 172.02 564.01 173.33 561.83 173.91 C 561.75 173.19 561.59 171.73 561.51 171.01 M 563.75 183.05 C 563.15 185.37 565.78 187.03 567.79 186.03 C 570.62 185.39 570.28 182.02 570.35 179.80 C 568.04 180.23 564.28 180.09 563.75 183.05 Z" />
<path fill="#010101" opacity="1.00" d=" M 591.27 170.01 C 592.50 170.00 593.75 170.00 595.00 169.99 C 595.00 176.33 595.00 182.67 595.00 189.01 C 593.75 189.00 592.50 188.99 591.27 188.99 C 591.28 182.66 591.28 176.33 591.27 170.01 Z" />
<path fill="#010101" opacity="1.00" d=" M 604.45 170.59 C 607.91 169.23 612.37 170.49 614.16 173.88 C 616.12 177.72 616.00 182.84 613.28 186.30 C 609.99 189.98 603.10 189.84 600.52 185.40 C 597.69 180.61 598.66 172.65 604.45 170.59 M 605.44 173.26 C 601.05 176.18 601.72 186.26 607.91 186.17 C 611.80 184.98 612.37 179.83 611.36 176.47 C 610.94 173.91 607.83 171.69 605.44 173.26 Z" />
<path fill="#010101" opacity="1.00" d=" M 619.77 169.83 C 621.56 169.80 623.34 169.90 623.41 172.16 C 626.39 169.48 631.80 168.96 633.85 173.02 C 635.57 178.14 634.38 183.69 634.73 189.00 C 633.48 188.99 632.24 189.00 631.00 189.01 C 630.82 184.45 631.39 179.84 630.67 175.33 C 629.85 171.87 624.56 172.50 623.78 175.67 C 623.05 180.05 623.65 184.56 623.47 189.00 C 622.54 189.00 620.69 189.00 619.76 189.00 C 619.76 182.61 619.76 176.22 619.77 169.83 Z" />
<path fill="#010101" opacity="1.00" d=" M 96.32 247.37 C 101.02 247.11 105.74 247.36 110.45 247.26 C 110.46 248.75 110.45 250.25 110.44 251.74 C 105.38 251.94 100.22 251.22 95.23 252.13 C 91.12 253.06 92.47 259.28 96.23 259.60 C 100.96 260.00 105.72 259.66 110.46 259.75 C 110.46 261.25 110.46 262.74 110.46 264.24 C 103.43 264.21 96.40 264.28 89.37 264.20 C 89.04 262.21 90.12 260.77 91.66 259.68 C 89.85 257.72 88.24 255.09 89.24 252.34 C 89.99 249.15 93.28 247.53 96.32 247.37 Z" />
<path fill="#010101" opacity="1.00" d=" M 95.32 269.26 C 99.25 267.99 103.89 268.31 107.31 270.73 C 111.99 274.18 112.25 282.07 107.62 285.66 C 102.76 289.17 94.86 288.85 90.97 284.02 C 87.14 279.24 89.17 270.93 95.32 269.26 M 96.36 273.48 C 93.20 274.18 90.84 278.05 93.08 280.87 C 96.78 284.98 106.07 284.73 107.76 278.78 C 107.92 273.22 100.49 272.08 96.36 273.48 Z" />
<path fill="#010101" opacity="1.00" d=" M 82.16 291.96 C 84.19 290.60 87.20 292.52 86.25 294.95 C 85.93 297.04 82.56 297.31 81.64 295.46 C 80.78 294.34 81.34 292.90 82.16 291.96 Z" />
<path fill="#010101" opacity="1.00" d=" M 89.54 291.99 C 96.51 292.00 103.49 292.00 110.46 291.99 C 110.46 293.48 110.46 294.97 110.47 296.46 C 103.49 296.46 96.51 296.46 89.53 296.46 C 89.53 294.97 89.54 293.48 89.54 291.99 Z" />
<path fill="#010101" opacity="1.00" d=" M 311.54 296.00 C 313.03 296.00 314.51 296.00 316.01 296.00 C 316.00 300.66 315.98 305.32 316.01 309.99 C 319.12 305.42 322.21 300.83 325.47 296.37 C 327.19 295.67 329.14 296.10 330.97 295.97 C 327.86 300.29 324.64 304.53 321.45 308.78 C 324.80 314.52 328.22 320.23 331.52 326.00 C 329.80 325.99 328.09 325.98 326.38 325.94 C 323.76 321.15 321.06 316.41 318.25 311.73 C 314.49 315.58 316.46 321.20 316.01 326.00 C 314.52 325.99 313.03 325.99 311.54 326.00 C 311.53 316.00 311.53 306.00 311.54 296.00 Z" />
<path fill="#010101" opacity="1.00" d=" M 408.54 295.53 C 410.02 295.53 411.51 295.53 413.01 295.54 C 412.99 305.69 413.00 315.85 413.00 326.00 C 411.51 325.99 410.02 325.99 408.54 326.00 C 408.53 315.84 408.54 305.69 408.54 295.53 Z" />
<path fill="#010101" opacity="1.00" d=" M 451.77 296.00 C 453.25 296.00 454.74 296.00 456.24 296.00 C 456.24 306.00 456.23 316.00 456.24 326.00 C 455.35 326.00 453.55 326.00 452.65 326.01 C 452.53 325.25 452.28 323.74 452.15 322.98 C 449.66 325.39 446.00 327.06 442.64 325.30 C 435.12 321.44 435.89 307.55 444.33 305.23 C 447.00 304.33 449.55 305.88 451.87 307.01 C 451.71 303.34 451.76 299.67 451.77 296.00 M 444.46 309.28 C 441.37 312.07 441.27 317.15 443.27 320.59 C 445.18 323.67 450.36 322.96 451.42 319.53 C 452.02 317.15 451.85 314.63 451.63 312.21 C 451.17 309.01 447.04 307.28 444.46 309.28 Z" />
<path fill="#010101" opacity="1.00" d=" M 513.00 296.00 C 514.48 296.00 515.96 296.00 517.46 296.00 C 517.46 299.94 517.53 303.89 517.35 307.84 C 520.02 305.50 523.88 303.94 527.26 305.79 C 534.45 310.10 533.44 323.87 524.79 325.84 C 521.73 326.72 518.98 324.87 516.83 322.93 C 516.78 323.70 516.70 325.24 516.66 326.01 C 515.43 326.00 514.21 326.00 513.00 326.00 C 512.99 316.00 513.01 306.00 513.00 296.00 M 519.50 309.37 C 516.96 311.36 517.40 314.92 517.48 317.76 C 517.45 320.89 520.85 323.52 523.86 322.32 C 527.74 320.84 528.12 315.64 527.06 312.20 C 526.31 308.96 522.17 307.25 519.50 309.37 Z" />
<path fill="#010101" opacity="1.00" d=" M 605.54 296.00 C 607.02 296.00 608.51 296.00 610.01 296.00 C 609.99 306.00 610.00 316.00 610.00 326.00 C 608.77 326.00 607.55 326.00 606.34 326.00 C 606.24 325.24 606.05 323.72 605.95 322.96 C 603.21 325.83 598.68 327.18 595.23 324.68 C 589.27 320.01 589.96 308.31 597.40 305.43 C 600.30 304.17 603.36 305.60 605.64 307.45 C 605.47 303.63 605.54 299.81 605.54 296.00 M 598.40 309.20 C 595.01 311.90 594.94 317.40 597.22 320.83 C 599.12 323.50 603.71 322.97 604.97 319.97 C 605.91 317.59 605.58 314.92 605.42 312.44 C 605.11 309.25 601.02 307.21 598.40 309.20 Z" />
<path fill="#010101" opacity="1.00" d=" M 89.55 300.28 C 90.58 300.26 91.62 300.23 92.66 300.21 C 92.71 301.89 92.73 303.57 92.77 305.26 C 97.44 305.20 102.13 305.56 106.77 304.91 C 107.52 303.09 107.25 299.85 110.10 300.38 C 112.08 303.21 111.02 308.57 107.23 309.32 C 102.52 310.18 97.68 309.53 92.92 309.72 C 92.81 310.51 92.60 312.08 92.49 312.87 C 91.55 312.80 90.61 312.75 89.67 312.70 C 89.60 311.99 89.47 310.56 89.40 309.85 C 88.16 309.76 86.92 309.67 85.69 309.59 C 85.26 308.18 84.83 306.77 84.39 305.37 C 86.10 305.30 87.80 305.26 89.51 305.20 C 89.53 303.56 89.54 301.92 89.55 300.28 Z" />
<path fill="#010101" opacity="1.00" d=" M 333.76 305.00 C 334.65 305.00 336.44 305.00 337.33 304.99 C 337.43 305.76 337.64 307.31 337.74 308.08 C 339.81 306.47 342.12 304.54 344.95 305.03 C 348.47 305.25 350.99 308.59 351.11 311.96 C 351.42 316.63 351.15 321.32 351.23 326.00 C 349.74 325.99 348.25 325.99 346.76 326.00 C 346.59 321.16 347.15 316.26 346.47 311.46 C 345.48 307.21 338.85 308.21 338.33 312.21 C 338.06 316.80 338.32 321.40 338.24 326.00 C 336.74 325.99 335.25 325.99 333.76 326.00 C 333.76 319.00 333.77 312.00 333.76 305.00 Z" />
<path fill="#010101" opacity="1.00" d=" M 363.33 305.19 C 366.67 304.51 370.39 305.82 372.39 308.63 C 374.99 312.18 375.08 317.24 373.13 321.12 C 370.51 326.33 362.63 327.60 358.44 323.59 C 352.70 318.30 354.91 306.23 363.33 305.19 M 363.49 308.49 C 357.86 310.92 358.35 322.15 364.99 322.80 C 369.51 322.36 370.63 316.85 369.80 313.17 C 369.45 310.28 366.56 307.18 363.49 308.49 Z" />
<path fill="#010101" opacity="1.00" d=" M 376.33 305.01 C 377.84 305.00 379.35 305.00 380.87 305.02 C 382.07 310.54 383.39 316.03 384.52 321.57 C 386.07 316.04 387.59 310.50 389.20 305.00 C 390.38 305.00 391.56 305.01 392.75 305.02 C 394.32 310.69 396.00 316.33 397.22 322.09 C 398.17 316.31 399.77 310.68 401.12 305.00 C 402.56 305.00 403.99 305.00 405.44 305.01 C 403.34 312.01 401.20 319.00 399.11 326.00 C 397.78 326.00 396.46 326.00 395.14 326.00 C 393.61 320.66 391.96 315.35 390.83 309.91 C 389.61 315.23 388.10 320.48 386.33 325.64 C 385.06 326.13 383.65 325.97 382.33 326.13 C 380.36 319.08 378.28 312.06 376.33 305.01 Z" />
<path fill="#010101" opacity="1.00" d=" M 421.51 306.53 C 424.80 304.28 429.81 304.39 432.58 307.45 C 434.84 309.75 434.84 313.18 435.16 316.18 C 430.47 316.32 425.79 316.08 421.11 316.40 C 421.94 318.30 422.26 320.84 424.42 321.76 C 427.18 323.24 430.39 322.24 433.32 321.97 C 433.44 322.72 433.68 324.23 433.80 324.98 C 429.80 326.01 425.22 326.80 421.51 324.46 C 415.77 320.45 415.83 310.58 421.51 306.53 M 421.22 312.87 C 424.56 313.06 427.92 313.07 431.26 312.80 C 430.38 310.88 429.58 308.06 426.93 308.22 C 423.90 307.59 422.13 310.47 421.22 312.87 Z" />
<path fill="#010101" opacity="1.00" d=" M 465.52 325.34 C 457.82 321.49 458.70 307.58 467.22 305.24 C 470.10 304.29 472.94 305.79 474.98 307.74 C 475.08 307.06 475.27 305.69 475.37 305.00 C 476.57 305.00 477.78 304.99 479.00 304.99 C 478.96 311.36 479.08 317.73 478.96 324.10 C 478.85 327.62 478.00 331.82 474.57 333.59 C 470.70 335.79 466.08 335.03 462.05 333.76 C 462.30 332.58 462.57 331.42 462.83 330.25 C 465.64 331.10 468.81 332.39 471.64 330.85 C 474.53 329.67 474.47 326.10 474.78 323.50 C 472.09 325.25 468.70 327.02 465.52 325.34 M 467.42 309.21 C 464.31 311.57 464.15 316.16 465.48 319.54 C 466.50 322.26 470.17 323.53 472.55 321.71 C 475.30 319.46 474.54 315.54 474.46 312.43 C 474.17 309.21 470.04 307.19 467.42 309.21 Z" />
<path fill="#010101" opacity="1.00" d=" M 488.00 306.08 C 491.49 304.13 496.50 304.74 498.89 308.13 C 500.62 310.43 500.59 313.44 500.88 316.17 C 496.21 316.32 491.53 316.12 486.86 316.36 C 487.69 318.32 488.05 320.97 490.32 321.82 C 493.06 323.26 496.21 322.32 499.04 321.72 C 499.16 322.54 499.41 324.20 499.53 325.03 C 495.57 325.96 491.10 326.81 487.41 324.55 C 481.26 320.49 481.53 309.70 488.00 306.08 M 486.84 312.79 C 490.18 313.08 493.54 313.06 496.90 312.86 C 496.11 310.92 495.43 308.13 492.80 308.23 C 489.72 307.53 487.99 310.49 486.84 312.79 Z" />
<path fill="#010101" opacity="1.00" d=" M 535.84 306.70 C 540.33 304.61 547.58 303.59 550.07 309.04 C 551.55 314.57 550.19 320.43 550.93 326.09 C 548.90 326.07 546.38 326.49 546.62 323.59 C 544.14 325.47 540.71 326.99 537.73 325.26 C 533.79 323.31 533.57 317.39 536.76 314.67 C 539.58 312.32 543.44 312.36 546.86 311.67 C 545.67 306.91 540.46 308.36 536.93 308.88 C 536.66 308.33 536.12 307.24 535.84 306.70 M 539.02 319.88 C 538.83 322.90 542.98 323.65 544.84 321.86 C 547.11 320.27 546.39 317.19 546.60 314.84 C 543.54 314.99 538.42 315.67 539.02 319.88 Z" />
<path fill="#010101" opacity="1.00" d=" M 559.41 305.49 C 561.92 304.42 564.61 305.34 567.12 305.95 C 566.98 306.69 566.70 308.17 566.56 308.91 C 564.16 308.39 561.67 307.92 559.36 308.99 C 559.33 309.72 559.28 311.18 559.25 311.92 C 561.86 313.61 565.25 314.31 567.18 316.91 C 569.26 320.07 567.12 324.69 563.50 325.46 C 560.58 326.59 557.50 325.65 554.61 325.01 C 554.74 324.21 555.01 322.61 555.14 321.82 C 557.28 322.21 559.45 323.06 561.65 322.64 C 563.36 322.39 564.51 320.16 563.38 318.74 C 561.10 316.53 557.38 316.17 555.66 313.31 C 553.75 310.29 556.28 306.36 559.41 305.49 Z" />
<path fill="#010101" opacity="1.00" d=" M 576.04 305.94 C 579.54 304.14 584.47 304.84 586.74 308.25 C 588.39 310.55 588.37 313.49 588.59 316.20 C 583.97 316.28 579.36 316.19 574.74 316.28 C 575.36 318.13 575.60 320.46 577.48 321.54 C 580.35 323.30 583.79 322.26 586.92 322.01 C 587.01 322.76 587.21 324.26 587.31 325.01 C 583.39 325.93 579.03 326.79 575.34 324.65 C 568.90 320.67 569.23 309.38 576.04 305.94 M 574.65 312.84 C 577.96 313.05 581.28 313.05 584.61 312.89 C 584.00 310.68 582.80 307.86 579.99 308.20 C 577.08 307.82 575.69 310.67 574.65 312.84 Z" />
<path fill="#010101" opacity="1.00" d=" M 89.56 320.41 C 90.52 317.35 93.94 316.09 96.88 316.04 C 101.51 315.90 106.15 316.11 110.78 315.87 C 110.47 317.55 109.96 319.18 109.15 320.69 C 110.83 323.07 111.85 326.31 110.04 328.94 C 107.82 332.53 102.24 332.52 99.59 329.43 C 97.37 326.76 97.34 323.10 96.65 319.86 C 95.23 320.60 93.10 320.72 92.50 322.47 C 91.63 324.83 92.85 327.26 93.48 329.52 C 92.45 329.72 91.41 329.85 90.37 329.94 C 89.42 326.90 88.27 323.54 89.56 320.41 M 99.83 320.19 C 100.14 322.90 100.42 327.16 104.04 327.28 C 106.67 327.92 108.83 324.92 107.39 322.65 C 106.21 319.61 102.40 320.33 99.83 320.19 Z" />
<path fill="#010101" opacity="1.00" d=" M 89.53 334.00 C 90.32 334.00 91.92 334.00 92.72 334.00 C 92.72 335.66 92.72 337.33 92.73 339.00 C 97.46 338.91 102.21 339.27 106.91 338.65 C 107.24 337.26 107.51 335.85 107.75 334.45 C 108.74 334.38 109.73 334.32 110.72 334.26 C 111.23 337.29 111.36 341.70 107.80 342.89 C 103.02 344.03 98.02 343.28 93.15 343.41 C 92.85 344.59 92.55 345.77 92.25 346.96 C 90.43 346.62 89.36 345.41 89.04 343.58 C 87.92 343.50 86.80 343.42 85.68 343.34 C 85.26 341.92 84.84 340.49 84.44 339.07 C 86.15 339.01 87.86 338.99 89.57 338.94 C 89.55 337.29 89.53 335.64 89.53 334.00 Z" />
<path fill="#010101" opacity="1.00" d=" M 96.46 348.70 C 100.76 347.70 106.04 348.43 108.92 352.10 C 112.26 356.15 111.49 363.11 106.90 365.92 C 101.37 369.26 92.26 368.11 89.71 361.53 C 87.44 356.31 90.69 349.57 96.46 348.70 M 96.30 353.26 C 93.08 353.95 90.78 358.07 93.24 360.78 C 97.09 364.83 106.77 364.36 107.82 358.00 C 107.19 352.81 100.38 351.85 96.30 353.26 Z" />
<path fill="#010101" opacity="1.00" d=" M 503.70 355.30 C 501.92 353.75 503.72 350.62 505.91 351.01 C 508.03 350.96 508.13 353.58 508.39 355.11 C 506.84 355.52 504.94 357.11 503.70 355.30 Z" />
<path fill="#010101" opacity="1.00" d=" M 456.60 356.18 C 458.05 355.75 459.52 355.33 460.98 354.91 C 460.99 356.60 460.99 358.30 461.01 360.00 C 462.67 360.00 464.33 359.99 466.00 360.00 C 466.00 360.81 466.00 362.42 466.00 363.23 C 464.33 363.23 462.66 363.23 461.00 363.24 C 461.07 367.85 460.74 372.48 461.37 377.07 C 462.74 377.31 464.13 377.52 465.53 377.72 C 465.60 378.72 465.67 379.71 465.76 380.72 C 462.73 381.23 458.29 381.37 457.12 377.80 C 455.95 373.23 456.73 368.40 456.57 363.73 C 454.91 363.20 453.34 362.48 452.87 360.65 C 454.10 360.30 455.34 359.97 456.59 359.65 C 456.58 358.49 456.58 357.33 456.60 356.18 Z" />
<path fill="#010101" opacity="1.00" d=" M 490.38 356.17 C 491.82 355.76 493.27 355.34 494.72 354.93 C 494.72 356.61 494.71 358.30 494.72 359.99 C 496.39 359.99 498.05 360.00 499.73 360.00 C 499.72 360.81 499.72 362.43 499.71 363.24 C 498.04 363.23 496.38 363.24 494.73 363.24 C 494.76 367.73 494.58 372.22 494.93 376.70 C 497.01 377.44 499.79 377.53 499.92 380.37 C 496.70 381.57 491.54 381.34 490.68 377.23 C 489.83 372.73 490.42 368.11 490.33 363.57 C 489.29 363.31 488.26 363.06 487.24 362.80 C 487.20 362.17 487.12 360.89 487.08 360.26 C 487.87 360.15 489.44 359.95 490.23 359.85 C 490.27 358.62 490.32 357.39 490.38 356.17 Z" />
<path fill="#010101" opacity="1.00" d=" M 368.78 363.96 C 368.06 360.68 371.74 360.44 374.01 360.08 C 377.64 359.46 382.10 361.19 382.93 365.12 C 383.68 370.37 382.90 375.71 383.41 381.00 C 382.55 381.01 380.83 381.04 379.97 381.05 C 379.76 380.50 379.33 379.39 379.11 378.84 C 376.59 380.36 373.41 381.94 370.51 380.38 C 366.49 378.73 365.93 372.79 369.00 369.97 C 371.75 367.28 375.87 367.40 379.39 366.67 C 378.57 365.50 378.09 363.83 376.57 363.40 C 373.97 362.87 371.36 363.74 368.78 363.96 M 371.47 374.94 C 371.50 378.09 375.78 378.62 377.61 376.66 C 379.61 375.00 378.79 372.09 379.05 369.84 C 375.98 369.96 370.91 370.77 371.47 374.94 Z" />
<path fill="#010101" opacity="1.00" d=" M 388.53 360.00 C 389.42 360.00 391.21 359.99 392.11 359.99 C 392.19 360.76 392.35 362.29 392.43 363.06 C 394.59 361.44 397.01 359.45 399.92 360.06 C 402.97 360.35 405.36 363.04 405.71 366.02 C 406.35 370.98 405.84 376.01 406.00 381.00 C 404.51 380.99 403.02 380.99 401.54 381.00 C 401.37 376.23 401.89 371.42 401.27 366.69 C 400.53 362.29 393.70 363.07 393.11 367.14 C 392.82 371.75 393.08 376.38 393.00 381.00 C 391.51 380.99 390.02 380.99 388.54 381.00 C 388.52 374.00 388.55 367.00 388.53 360.00 Z" />
<path fill="#010101" opacity="1.00" d=" M 411.00 360.00 C 412.20 359.99 413.40 359.99 414.61 360.00 C 414.71 360.76 414.91 362.28 415.01 363.05 C 417.01 361.49 419.25 359.62 421.98 360.00 C 425.20 360.14 427.87 362.88 428.22 366.03 C 428.76 371.00 428.34 376.01 428.46 381.00 C 426.96 380.99 425.48 380.99 423.99 381.00 C 423.82 376.12 424.40 371.17 423.67 366.34 C 422.59 362.11 415.89 363.35 415.55 367.39 C 415.30 371.92 415.54 376.46 415.46 381.00 C 413.97 380.99 412.48 380.99 411.00 381.00 C 411.01 374.00 410.99 367.00 411.00 360.00 Z" />
<path fill="#010101" opacity="1.00" d=" M 439.40 360.49 C 443.43 359.07 448.30 360.85 450.32 364.65 C 452.95 369.57 451.97 377.01 446.70 379.79 C 442.34 382.25 436.07 380.76 433.81 376.15 C 430.92 370.70 432.83 362.11 439.40 360.49 M 440.51 363.56 C 435.96 365.91 435.87 373.32 439.28 376.69 C 442.22 379.42 446.74 376.50 447.01 372.95 C 448.37 368.89 445.81 361.62 440.51 363.56 Z" />
<path fill="#010101" opacity="1.00" d=" M 469.76 363.96 C 469.16 360.27 473.49 360.37 475.99 359.99 C 479.70 359.63 483.79 362.03 484.11 366.01 C 484.46 371.06 484.04 376.14 484.38 381.20 C 482.47 381.24 480.71 380.85 479.78 379.03 C 477.34 380.48 474.27 381.87 471.52 380.38 C 467.49 378.73 466.93 372.80 469.99 369.97 C 472.75 367.29 476.87 367.40 480.39 366.67 C 479.57 365.50 479.09 363.83 477.57 363.40 C 474.96 362.87 472.35 363.74 469.76 363.96 M 472.47 374.94 C 472.49 378.09 476.79 378.62 478.61 376.66 C 480.61 375.00 479.79 372.09 480.05 369.84 C 476.98 369.96 471.91 370.77 472.47 374.94 Z" />
<path fill="#010101" opacity="1.00" d=" M 503.28 360.00 C 504.75 359.99 506.23 359.99 507.72 360.00 C 507.72 367.00 507.72 374.00 507.72 381.00 C 506.23 381.00 504.75 381.00 503.28 381.00 C 503.27 374.00 503.27 367.00 503.28 360.00 Z" />
<path fill="#010101" opacity="1.00" d=" M 518.46 360.61 C 522.68 358.97 528.02 360.78 529.99 364.96 C 532.46 369.91 531.34 377.32 525.99 379.89 C 521.57 382.30 515.28 380.59 513.18 375.88 C 510.55 370.59 512.30 362.48 518.46 360.61 M 520.46 363.39 C 514.77 365.58 514.96 376.33 521.14 377.76 C 525.61 378.06 527.34 372.73 526.71 369.10 C 526.59 365.99 523.95 362.25 520.46 363.39 Z" />
<path fill="#010101" opacity="1.00" d=" M 535.53 360.00 C 536.42 360.00 538.21 359.99 539.10 359.99 C 539.18 360.76 539.35 362.29 539.43 363.05 C 541.59 361.44 544.00 359.45 546.92 360.06 C 549.97 360.35 552.36 363.04 552.71 366.02 C 553.35 370.98 552.84 376.01 553.00 381.00 C 551.51 380.99 550.02 380.99 548.54 381.00 C 548.36 376.23 548.89 371.42 548.27 366.69 C 547.53 362.29 540.70 363.07 540.11 367.14 C 539.82 371.75 540.08 376.38 540.00 381.00 C 538.51 380.99 537.02 380.99 535.54 381.00 C 535.52 374.00 535.55 367.00 535.53 360.00 Z" />
<path fill="#010101" opacity="1.00" d=" M 89.14 377.21 C 89.74 374.01 92.92 372.10 95.96 371.89 C 100.79 371.57 105.63 371.86 110.46 371.76 C 110.46 373.25 110.46 374.74 110.46 376.25 C 105.99 376.28 101.51 376.13 97.04 376.28 C 95.29 376.40 93.02 377.07 92.78 379.12 C 92.10 381.68 94.46 384.20 97.00 384.19 C 101.48 384.42 105.97 384.21 110.45 384.26 C 110.46 385.75 110.45 387.25 110.43 388.74 C 103.62 388.66 96.81 388.80 90.00 388.70 C 89.77 387.94 89.33 386.41 89.10 385.65 C 89.82 385.39 91.27 384.88 91.99 384.63 C 90.19 382.62 88.28 380.07 89.14 377.21 Z" />
<path fill="#010101" opacity="1.00" d=" M 96.32 394.37 C 101.02 394.11 105.73 394.36 110.44 394.26 C 110.45 395.75 110.46 397.24 110.44 398.74 C 105.38 398.94 100.22 398.22 95.23 399.13 C 91.12 400.05 92.46 406.28 96.22 406.60 C 100.95 407.00 105.72 406.66 110.46 406.75 C 110.46 408.25 110.46 409.74 110.46 411.24 C 103.43 411.21 96.40 411.28 89.36 411.20 C 89.04 409.21 90.12 407.77 91.66 406.68 C 89.86 404.72 88.24 402.09 89.24 399.34 C 89.99 396.15 93.28 394.53 96.32 394.37 Z" />
<path fill="#010101" opacity="1.00" d=" M 81.52 423.72 C 91.15 420.72 100.79 417.75 110.45 414.83 C 110.46 416.34 110.47 417.85 110.49 419.37 C 107.67 420.28 104.84 421.15 102.00 422.02 C 102.00 425.00 102.00 427.99 102.00 430.98 C 104.84 431.80 107.68 432.63 110.51 433.49 C 110.49 434.59 110.45 436.80 110.43 437.91 C 100.78 435.02 91.17 431.99 81.54 429.06 C 81.53 427.27 81.53 425.49 81.52 423.72 M 85.49 426.55 C 89.88 427.64 94.22 428.90 98.54 430.25 C 98.54 427.76 98.53 425.27 98.53 422.79 C 94.19 424.07 89.84 425.30 85.49 426.55 Z" />
<path fill="#010101" opacity="1.00" d=" M 274.27 485.01 C 279.31 484.98 284.36 485.02 289.41 484.98 C 289.44 485.90 289.52 487.73 289.56 488.65 C 285.95 488.76 282.34 488.72 278.73 488.73 C 278.72 491.91 278.72 495.08 278.73 498.26 C 282.06 498.28 285.39 498.28 288.71 498.27 C 288.72 499.50 288.74 500.73 288.76 501.97 C 285.41 502.01 282.07 502.00 278.73 502.00 C 278.72 506.33 278.72 510.66 278.72 515.00 C 277.24 515.00 275.76 515.00 274.28 515.00 C 274.27 505.00 274.29 495.00 274.27 485.01 Z" />
<path fill="#010101" opacity="1.00" d=" M 370.70 489.30 C 368.92 487.75 370.71 484.63 372.90 485.01 C 375.03 484.96 375.13 487.58 375.39 489.11 C 373.84 489.52 371.94 491.11 370.70 489.30 Z" />
<path fill="#010101" opacity="1.00" d=" M 444.99 484.54 C 446.48 484.53 447.97 484.53 449.46 484.53 C 449.46 494.69 449.47 504.84 449.46 515.00 C 447.97 514.99 446.48 514.99 445.00 515.00 C 445.00 504.85 445.00 494.69 444.99 484.54 Z" />
<path fill="#010101" opacity="1.00" d=" M 597.61 489.12 C 597.82 487.56 598.02 485.00 600.11 485.01 C 602.35 484.57 604.01 487.75 602.32 489.31 C 601.04 491.08 599.15 489.52 597.61 489.12 Z" />
<path fill="#010101" opacity="1.00" d=" M 357.38 490.17 C 358.83 489.76 360.27 489.34 361.72 488.93 C 361.72 490.61 361.72 492.29 361.72 493.99 C 363.39 493.99 365.06 494.00 366.73 494.01 C 366.73 494.82 366.71 496.43 366.71 497.24 C 365.04 497.23 363.38 497.23 361.73 497.24 C 361.76 501.73 361.58 506.22 361.93 510.70 C 364.01 511.44 366.79 511.52 366.92 514.37 C 363.70 515.57 358.55 515.34 357.69 511.23 C 356.83 506.74 357.42 502.11 357.33 497.57 C 356.29 497.31 355.26 497.05 354.24 496.80 C 354.20 496.17 354.12 494.89 354.08 494.25 C 354.87 494.15 356.44 493.95 357.23 493.85 C 357.27 492.62 357.32 491.39 357.38 490.17 Z" />
<path fill="#010101" opacity="1.00" d=" M 551.07 490.18 C 552.53 489.76 553.99 489.34 555.46 488.94 C 555.45 490.61 555.45 492.29 555.44 493.97 C 557.11 493.99 558.78 493.99 560.46 494.01 C 560.46 494.82 560.45 496.43 560.45 497.23 C 558.77 497.23 557.10 497.24 555.44 497.26 C 555.56 501.86 555.17 506.50 555.85 511.08 C 557.25 511.31 558.65 511.50 560.07 511.68 C 560.10 512.47 560.18 514.04 560.22 514.82 C 557.14 515.18 552.58 515.33 551.54 511.60 C 550.44 506.94 551.22 502.07 551.00 497.33 C 550.25 497.28 548.74 497.18 547.99 497.13 C 547.99 496.36 547.99 494.81 547.98 494.04 C 548.73 494.02 550.23 493.98 550.98 493.95 C 551.00 492.69 551.03 491.43 551.07 490.18 Z" />
<path fill="#010101" opacity="1.00" d=" M 585.07 490.18 C 586.53 489.76 587.99 489.34 589.46 488.94 C 589.45 490.61 589.45 492.29 589.44 493.97 C 591.11 493.99 592.78 493.99 594.46 494.01 C 594.46 494.82 594.45 496.43 594.45 497.23 C 592.77 497.23 591.10 497.24 589.44 497.26 C 589.56 501.86 589.17 506.50 589.85 511.08 C 591.25 511.31 592.65 511.50 594.07 511.68 C 594.10 512.47 594.18 514.04 594.22 514.82 C 591.14 515.18 586.59 515.34 585.54 511.61 C 584.44 506.94 585.22 502.07 585.00 497.32 C 584.25 497.28 582.74 497.18 581.99 497.13 C 581.99 496.36 581.99 494.81 581.98 494.04 C 582.73 494.02 584.23 493.98 584.98 493.95 C 585.00 492.69 585.03 491.43 585.07 490.18 Z" />
<path fill="#010101" opacity="1.00" d=" M 293.77 494.00 C 295.25 493.99 296.74 494.00 298.24 494.00 C 298.40 498.84 297.86 503.73 298.54 508.54 C 299.38 512.50 305.37 511.96 306.29 508.33 C 306.89 503.59 306.36 498.77 306.54 494.00 C 308.02 494.00 309.51 493.99 311.00 494.00 C 311.00 501.00 310.99 508.00 311.01 515.00 C 309.80 514.99 308.60 515.00 307.40 515.00 C 307.29 514.24 307.07 512.72 306.97 511.95 C 305.01 513.54 302.80 515.35 300.10 515.01 C 296.88 514.85 294.27 512.04 294.01 508.89 C 293.45 503.95 293.90 498.96 293.77 494.00 Z" />
<path fill="#010101" opacity="1.00" d=" M 316.27 494.01 C 317.49 494.00 318.71 493.99 319.93 493.99 C 319.97 494.75 320.03 496.28 320.07 497.04 C 322.52 495.20 325.53 493.06 328.75 494.31 C 331.87 495.08 333.51 498.31 333.63 501.32 C 333.88 505.87 333.65 510.44 333.72 515.00 C 332.24 515.00 330.75 515.00 329.28 515.00 C 329.06 510.08 329.76 505.08 328.87 500.23 C 327.78 496.22 321.46 497.30 320.85 501.10 C 320.52 505.72 320.82 510.36 320.72 515.00 C 319.24 515.00 317.76 515.00 316.28 515.00 C 316.27 508.00 316.29 501.00 316.27 494.01 Z" />
<path fill="#010101" opacity="1.00" d=" M 343.12 495.18 C 346.19 493.54 349.75 493.89 352.99 494.78 C 352.71 495.83 352.43 496.90 352.16 497.97 C 350.17 497.76 348.05 497.00 346.11 497.80 C 340.59 499.78 340.46 509.30 346.12 511.20 C 348.17 511.94 350.39 511.21 352.50 511.12 C 352.55 512.16 352.61 513.21 352.67 514.26 C 349.04 515.06 344.90 515.62 341.66 513.35 C 335.52 509.16 336.36 498.34 343.12 495.18 Z" />
<path fill="#010101" opacity="1.00" d=" M 370.28 494.00 C 371.75 493.99 373.24 493.99 374.72 494.00 C 374.72 501.00 374.72 508.00 374.72 515.00 C 373.24 515.00 371.75 515.00 370.28 515.00 C 370.27 508.00 370.27 501.00 370.28 494.00 Z" />
<path fill="#010101" opacity="1.00" d=" M 385.46 494.61 C 389.68 492.97 395.03 494.78 396.99 498.97 C 399.46 503.92 398.34 511.32 392.99 513.89 C 388.56 516.30 382.27 514.59 380.18 509.88 C 377.56 504.58 379.30 496.48 385.46 494.61 M 387.45 497.40 C 381.77 499.59 381.96 510.34 388.15 511.76 C 392.61 512.05 394.34 506.73 393.71 503.10 C 393.59 499.99 390.95 496.24 387.45 497.40 Z" />
<path fill="#010101" opacity="1.00" d=" M 402.53 494.00 C 403.42 494.00 405.21 493.99 406.10 493.99 C 406.18 494.76 406.35 496.29 406.43 497.05 C 408.60 495.44 411.01 493.45 413.92 494.06 C 416.97 494.35 419.36 497.04 419.71 500.02 C 420.35 504.98 419.84 510.01 420.00 515.00 C 418.51 514.99 417.02 514.99 415.54 515.00 C 415.37 510.23 415.89 505.42 415.28 500.69 C 414.53 496.29 407.70 497.07 407.11 501.14 C 406.82 505.75 407.08 510.38 407.00 515.00 C 405.51 514.99 404.02 514.99 402.54 515.00 C 402.52 508.00 402.55 501.00 402.53 494.00 Z" />
<path fill="#010101" opacity="1.00" d=" M 424.85 495.70 C 429.33 493.62 436.58 492.59 439.07 498.04 C 440.55 503.57 439.19 509.43 439.93 515.09 C 437.90 515.07 435.39 515.48 435.62 512.60 C 433.13 514.47 429.70 515.99 426.73 514.26 C 422.79 512.31 422.57 506.39 425.76 503.67 C 428.58 501.32 432.44 501.36 435.86 500.67 C 434.67 495.91 429.46 497.36 425.93 497.88 C 425.66 497.33 425.12 496.24 424.85 495.70 M 428.02 508.88 C 427.84 511.90 431.98 512.65 433.84 510.86 C 436.12 509.27 435.39 506.19 435.60 503.84 C 432.54 503.99 427.42 504.67 428.02 508.88 Z" />
<path fill="#010101" opacity="1.00" d=" M 463.81 498.10 C 462.26 495.00 465.96 494.60 468.09 494.17 C 471.88 493.33 476.85 494.92 477.68 499.17 C 478.47 504.38 477.64 509.71 478.20 514.96 C 477.34 515.00 475.61 515.07 474.75 515.11 C 474.50 514.54 474.00 513.40 473.76 512.84 C 471.36 514.32 468.39 515.83 465.57 514.52 C 461.51 513.10 460.59 507.37 463.39 504.33 C 466.13 501.25 470.59 501.45 474.30 500.57 C 473.28 499.34 472.58 497.49 470.79 497.29 C 468.43 496.98 466.11 497.68 463.81 498.10 M 466.24 508.86 C 466.13 512.13 470.72 512.66 472.49 510.52 C 474.36 508.83 473.57 506.04 473.81 503.84 C 470.77 503.98 465.71 504.71 466.24 508.86 Z" />
<path fill="#010101" opacity="1.00" d=" M 483.27 494.01 C 484.48 494.00 485.71 493.99 486.93 493.99 C 486.97 494.75 487.03 496.28 487.07 497.04 C 489.52 495.19 492.53 493.06 495.76 494.31 C 498.87 495.09 500.51 498.31 500.63 501.32 C 500.88 505.87 500.65 510.44 500.72 515.00 C 499.23 515.00 497.75 515.00 496.28 515.00 C 496.06 510.08 496.76 505.08 495.88 500.23 C 494.78 496.22 488.46 497.30 487.85 501.10 C 487.52 505.72 487.81 510.36 487.72 515.00 C 486.23 515.00 484.75 515.00 483.28 515.00 C 483.27 508.00 483.29 501.00 483.27 494.01 Z" />
<path fill="#010101" opacity="1.00" d=" M 505.76 494.00 C 506.65 494.00 508.44 493.99 509.33 493.99 C 509.43 494.76 509.64 496.31 509.74 497.08 C 511.80 495.47 514.12 493.53 516.95 494.03 C 520.47 494.25 522.99 497.59 523.11 500.96 C 523.42 505.63 523.15 510.32 523.23 515.00 C 521.74 514.99 520.25 514.99 518.76 515.00 C 518.59 510.15 519.15 505.25 518.47 500.45 C 517.47 496.21 510.84 497.22 510.33 501.21 C 510.06 505.80 510.32 510.40 510.24 515.00 C 508.74 514.99 507.25 514.99 505.76 515.00 C 505.76 508.00 505.77 501.00 505.76 494.00 Z" />
<path fill="#010101" opacity="1.00" d=" M 533.46 494.61 C 537.68 492.97 543.03 494.79 544.99 498.96 C 547.46 503.92 546.34 511.32 540.99 513.89 C 536.56 516.30 530.27 514.59 528.18 509.88 C 525.55 504.58 527.30 496.48 533.46 494.61 M 535.46 497.39 C 529.77 499.58 529.96 510.34 536.15 511.76 C 540.61 512.05 542.34 506.73 541.71 503.10 C 541.59 499.99 538.95 496.25 535.46 497.39 Z" />
<path fill="#010101" opacity="1.00" d=" M 564.82 498.11 C 563.24 494.94 567.03 494.60 569.20 494.15 C 572.97 493.35 577.86 494.97 578.68 499.17 C 579.47 504.38 578.64 509.71 579.20 514.96 C 578.34 515.00 576.61 515.07 575.75 515.11 C 575.50 514.54 575.00 513.40 574.75 512.83 C 572.36 514.33 569.39 515.83 566.57 514.52 C 562.51 513.10 561.59 507.36 564.39 504.33 C 567.13 501.25 571.59 501.45 575.29 500.57 C 574.28 499.34 573.58 497.49 571.79 497.29 C 569.42 496.98 567.11 497.68 564.82 498.11 M 567.24 508.86 C 567.13 512.13 571.72 512.66 573.49 510.53 C 575.36 508.83 574.57 506.05 574.81 503.84 C 571.77 503.98 566.70 504.71 567.24 508.86 Z" />
<path fill="#010101" opacity="1.00" d=" M 598.00 494.00 C 599.48 493.99 600.96 494.00 602.46 494.00 C 602.47 501.00 602.47 508.00 602.46 515.00 C 600.96 514.99 599.48 514.99 598.00 515.00 C 598.00 508.00 598.00 501.00 598.00 494.00 Z" />
<path fill="#010101" opacity="1.00" d=" M 613.40 494.55 C 617.42 493.06 622.42 494.70 624.50 498.52 C 627.27 503.47 626.25 511.05 620.89 513.83 C 616.48 516.27 610.10 514.69 607.97 509.95 C 605.24 504.60 607.08 496.30 613.40 494.55 M 615.35 497.35 C 610.38 499.07 610.16 506.40 612.92 510.13 C 615.31 513.22 620.35 511.46 621.03 507.84 C 622.64 503.82 620.86 496.28 615.35 497.35 Z" />
<path fill="#010101" opacity="1.00" d=" M 630.00 494.00 C 631.20 493.99 632.40 493.99 633.61 494.00 C 633.71 494.76 633.91 496.28 634.01 497.05 C 636.01 495.49 638.25 493.62 640.99 494.00 C 644.20 494.14 646.87 496.88 647.22 500.03 C 647.76 504.99 647.34 510.01 647.46 515.00 C 645.96 514.99 644.47 514.99 642.99 515.00 C 642.82 510.12 643.40 505.17 642.67 500.34 C 641.59 496.11 634.89 497.35 634.55 501.39 C 634.30 505.92 634.54 510.46 634.46 515.00 C 632.96 514.99 631.48 514.99 630.00 515.00 C 630.00 508.00 629.99 501.00 630.00 494.00 Z" />
</g>
</svg>
